<svg id="Layer_1" data-name="Layer 1" xmlns="http://www.w3.org/2000/svg" xmlns:xlink="http://www.w3.org/1999/xlink" width="1841.83" height="671.21" viewBox="0 0 1841.83 671.21">
  <defs>
    <style>
      .cls-1, .cls-15, .cls-16, .cls-17, .cls-20, .cls-21, .cls-22, .cls-23, .cls-24, .cls-25, .cls-26, .cls-27, .cls-34, .cls-35, .cls-36, .cls-37, .cls-38, .cls-5 {
        fill: none;
      }

      .cls-2 {
        clip-path: url(#clip-path);
      }

      .cls-3 {
        clip-path: url(#clip-path-3);
      }

      .cls-4 {
        fill: #fff;
      }

      .cls-15, .cls-20, .cls-24, .cls-27, .cls-5 {
        stroke: #000;
      }

      .cls-15, .cls-16, .cls-17, .cls-20, .cls-21, .cls-22, .cls-23, .cls-24, .cls-25, .cls-26, .cls-27, .cls-34, .cls-35, .cls-36, .cls-37, .cls-38, .cls-5 {
        stroke-miterlimit: 10;
      }

      .cls-16, .cls-17, .cls-21, .cls-22, .cls-23, .cls-25, .cls-26, .cls-34, .cls-35, .cls-36, .cls-37, .cls-38, .cls-5 {
        stroke-width: 1.36px;
      }

      .cls-6 {
        fill: #ffd400;
      }

      .cls-7 {
        opacity: 0.2;
      }

      .cls-8 {
        clip-path: url(#clip-path-4);
      }

      .cls-9 {
        font-size: 13.08px;
        font-family: ArialMT, Arial;
      }

      .cls-10 {
        letter-spacing: -0.05em;
      }

      .cls-11 {
        clip-path: url(#clip-path-6);
      }

      .cls-12 {
        clip-path: url(#clip-path-8);
      }

      .cls-13 {
        clip-path: url(#clip-path-10);
      }

      .cls-14 {
        fill: #b80071;
      }

      .cls-15, .cls-20, .cls-24 {
        stroke-linecap: round;
      }

      .cls-15 {
        stroke-width: 0.41px;
      }

      .cls-16, .cls-17, .cls-21, .cls-22, .cls-23, .cls-25, .cls-26, .cls-34, .cls-35, .cls-36, .cls-37, .cls-38 {
        stroke: #999;
      }

      .cls-17 {
        stroke-dasharray: 6.31 6.31;
      }

      .cls-18 {
        fill: #999;
      }

      .cls-19 {
        fill: #c2b094;
      }

      .cls-20 {
        stroke-width: 0.37px;
      }

      .cls-21 {
        stroke-dasharray: 6.68 6.68;
      }

      .cls-22 {
        stroke-dasharray: 6.68 6.68;
      }

      .cls-23 {
        stroke-dasharray: 6.67 6.67;
      }

      .cls-24 {
        stroke-width: 0.49px;
      }

      .cls-25 {
        stroke-dasharray: 6.29 6.29;
      }

      .cls-26 {
        stroke-dasharray: 6.96 6.96;
      }

      .cls-27 {
        stroke-width: 2px;
      }

      .cls-28 {
        clip-path: url(#clip-path-12);
      }

      .cls-29 {
        clip-path: url(#clip-path-14);
      }

      .cls-30 {
        clip-path: url(#clip-path-15);
      }

      .cls-31 {
        clip-path: url(#clip-path-17);
      }

      .cls-32 {
        clip-path: url(#clip-path-19);
      }

      .cls-33 {
        clip-path: url(#clip-path-21);
      }

      .cls-34 {
        stroke-dasharray: 7.35 7.35;
      }

      .cls-35 {
        stroke-dasharray: 6.57 6.57;
      }

      .cls-36 {
        stroke-dasharray: 6.55 6.55;
      }

      .cls-37 {
        stroke-dasharray: 6.56 6.56;
      }

      .cls-38 {
        stroke-dasharray: 6.91 6.91;
      }
    </style>
    <clipPath id="clip-path">
      <rect class="cls-1" x="940.86" y="30.71" width="868.96" height="609.78"/>
    </clipPath>
    <clipPath id="clip-path-3">
      <rect class="cls-1" x="940.86" y="30.71" width="868.96" height="609.78"/>
    </clipPath>
    <clipPath id="clip-path-4">
      <rect class="cls-1" x="1070.94" y="174.52" width="48.77" height="19.07"/>
    </clipPath>
    <clipPath id="clip-path-6">
      <rect class="cls-1" x="1072.11" y="399.19" width="47.67" height="19.07"/>
    </clipPath>
    <clipPath id="clip-path-8">
      <rect class="cls-1" x="1073.2" y="610.69" width="46.5" height="19.07"/>
    </clipPath>
    <clipPath id="clip-path-10">
      <rect class="cls-1" x="1488.37" y="441.88" width="41.22" height="19.07"/>
    </clipPath>
    <clipPath id="clip-path-12">
      <rect class="cls-1" x="32" y="30.71" width="868.96" height="609.78"/>
    </clipPath>
    <clipPath id="clip-path-14">
      <rect class="cls-1" x="32" y="30.71" width="868.96" height="609.78"/>
    </clipPath>
    <clipPath id="clip-path-15">
      <rect class="cls-1" x="162.08" y="174.52" width="48.77" height="19.07"/>
    </clipPath>
    <clipPath id="clip-path-17">
      <rect class="cls-1" x="163.25" y="399.19" width="47.67" height="19.07"/>
    </clipPath>
    <clipPath id="clip-path-19">
      <rect class="cls-1" x="164.34" y="610.69" width="46.5" height="19.07"/>
    </clipPath>
    <clipPath id="clip-path-21">
      <rect class="cls-1" x="579.51" y="441.88" width="41.22" height="19.07"/>
    </clipPath>
  </defs>
  <g>
    <g class="cls-2">
      <g class="cls-2">
        <g class="cls-3">
          <path class="cls-4" d="M1000.82,144.82H956.56a.45.45,0,0,1-.45-.45V86.58a.46.46,0,0,1,.45-.46h44.26a.46.46,0,0,1,.46.46v57.79a.45.45,0,0,1-.46.45"/>
          <rect class="cls-5" x="956.11" y="86.12" width="45.17" height="58.7" rx="0.45"/>
          <line class="cls-5" x1="962.73" y1="96.77" x2="994.41" y2="96.77"/>
          <line class="cls-5" x1="962.73" y1="106.27" x2="994.41" y2="106.27"/>
          <line class="cls-5" x1="962.73" y1="115.76" x2="994.41" y2="115.76"/>
          <line class="cls-5" x1="962.73" y1="125.25" x2="994.41" y2="125.25"/>
          <line class="cls-5" x1="962.73" y1="134.75" x2="994.41" y2="134.75"/>
          <path class="cls-6" d="M1004,130.36a17.19,17.19,0,1,1-17.19-17.19A17.18,17.18,0,0,1,1004,130.36"/>
          <circle class="cls-5" cx="986.82" cy="130.36" r="17.19"/>
          <path class="cls-5" d="M976.94,127.13v13.3H996.7v-13.3H976.94Zm11.31,9.79H985.4l.74-2.79a1.81,1.81,0,1,1,1.36,0Z"/>
          <path class="cls-5" d="M981.39,127.13l0-1.23c0-3.61,1.14-6.84,5.32-6.84,4,0,5.51,3,5.51,6.46v1.61"/>
          <path class="cls-5" d="M979.13,127.23v-1.71c.07-6,3.1-8.74,7.56-8.74s7.94,2.65,8,8.17v2.28"/>
          <path class="cls-4" d="M1000.82,382.69H956.56a.45.45,0,0,1-.45-.45V324.45a.45.45,0,0,1,.45-.45h44.26a.45.45,0,0,1,.46.45v57.79a.45.45,0,0,1-.46.45"/>
          <path class="cls-5" d="M956.56,324h44.26a.45.45,0,0,1,.45.45v57.79a.46.46,0,0,1-.46.46H956.56a.45.45,0,0,1-.45-.45V324.45A.45.45,0,0,1,956.56,324Z"/>
          <line class="cls-5" x1="962.73" y1="334.64" x2="994.41" y2="334.64"/>
          <line class="cls-5" x1="962.73" y1="344.14" x2="994.41" y2="344.14"/>
          <line class="cls-5" x1="962.73" y1="353.63" x2="994.41" y2="353.63"/>
          <line class="cls-5" x1="962.73" y1="363.13" x2="994.41" y2="363.13"/>
          <line class="cls-5" x1="962.73" y1="372.62" x2="994.41" y2="372.62"/>
          <path class="cls-6" d="M1004,368.23A17.19,17.19,0,1,1,986.82,351,17.18,17.18,0,0,1,1004,368.23"/>
          <circle class="cls-5" cx="986.82" cy="368.23" r="17.19"/>
          <path class="cls-5" d="M976.94,365v13.3H996.7V365H976.94Zm11.31,9.79H985.4l.74-2.79a1.81,1.81,0,1,1,1.36,0Z"/>
          <path class="cls-5" d="M981.39,365l0-1.23c0-3.61,1.14-6.84,5.32-6.84,4,0,5.51,3,5.51,6.46V365"/>
          <path class="cls-5" d="M979.13,365.1v-1.71c.07-6,3.1-8.74,7.56-8.74s7.94,2.65,8,8.17v2.28"/>
          <path class="cls-4" d="M1000.82,582.43H956.56a.46.46,0,0,1-.45-.46V524.19a.46.46,0,0,1,.45-.46h44.26a.46.46,0,0,1,.46.46V582a.46.46,0,0,1-.46.46"/>
          <path class="cls-5" d="M956.56,523.73h44.26a.45.45,0,0,1,.45.45V582a.46.46,0,0,1-.46.46H956.56a.45.45,0,0,1-.45-.45V524.19A.45.45,0,0,1,956.56,523.73Z"/>
          <line class="cls-5" x1="962.73" y1="534.38" x2="994.41" y2="534.38"/>
          <line class="cls-5" x1="962.73" y1="543.87" x2="994.41" y2="543.87"/>
          <line class="cls-5" x1="962.73" y1="553.37" x2="994.41" y2="553.37"/>
          <line class="cls-5" x1="962.73" y1="562.86" x2="994.41" y2="562.86"/>
          <line class="cls-5" x1="962.73" y1="572.36" x2="994.41" y2="572.36"/>
          <path class="cls-6" d="M1004,568a17.19,17.19,0,1,1-17.19-17.19A17.19,17.19,0,0,1,1004,568"/>
          <circle class="cls-5" cx="986.82" cy="567.97" r="17.19"/>
          <path class="cls-5" d="M976.94,564.74V578H996.7v-13.3H976.94Zm11.31,9.78H985.4l.74-2.79a1.81,1.81,0,1,1,1.36,0Z"/>
          <path class="cls-5" d="M981.39,564.74l0-1.23c0-3.61,1.14-6.84,5.32-6.84,4,0,5.51,3,5.51,6.46v1.61"/>
          <path class="cls-5" d="M979.13,564.83v-1.7c.07-6,3.1-8.74,7.56-8.74s7.94,2.64,8,8.17v2.27"/>
          <polyline class="cls-5" points="1116.46 60.27 1126.24 60.27 1126.24 164.12 1069.35 164.12 1069.35 60.27 1078.55 60.27"/>
          <path d="M1161.34,161.59h-34V74.76h34Zm1.37-88.19H1126V163h36.76Z"/>
          <polyline class="cls-5" points="1143.74 92.07 1143.74 101.99 1143.74 111.91"/>
          <polyline class="cls-5" points="1133.83 101.99 1143.74 101.99 1153.66 101.99"/>
          <path d="M1152.3,93.43v17.11h-17.11V93.43Zm1.36-1.36h-19.83V111.9h19.83Z"/>
          <polyline class="cls-5" points="1143.74 124.45 1143.74 134.37 1143.74 144.29"/>
          <polyline class="cls-5" points="1133.83 134.37 1143.74 134.37 1153.66 134.37"/>
          <path d="M1152.3,125.81v17.11h-17.11V125.81Zm1.36-1.36h-19.83v19.84h19.83Z"/>
          <path d="M1068.28,161.89h-34V75.05h34Zm1.37-88.2h-36.76v89.56h36.76Z"/>
          <polyline class="cls-5" points="1050.68 92.36 1050.68 102.28 1050.68 112.2"/>
          <polyline class="cls-5" points="1040.76 102.28 1050.68 102.28 1060.6 102.28"/>
          <path d="M1059.24,93.72v17.11h-17.11V93.72Zm1.36-1.36h-19.84V112.2h19.84Z"/>
          <polyline class="cls-5" points="1050.68 124.74 1050.68 134.66 1050.68 144.58"/>
          <polyline class="cls-5" points="1040.76 134.66 1050.68 134.66 1060.6 134.66"/>
          <path d="M1059.24,126.1v17.12h-17.11V126.1Zm1.36-1.36h-19.84v19.84h19.84Z"/>
          <rect class="cls-5" x="1078.54" y="89" width="37.34" height="14"/>
          <rect class="cls-5" x="1078.54" y="110.01" width="37.34" height="14"/>
          <rect class="cls-5" x="1078.54" y="130.72" width="37.34" height="33.26"/>
          <line class="cls-5" x1="1097.48" y1="130.72" x2="1097.24" y2="163.98"/>
          <path class="cls-5" d="M1116.47,60.41a19,19,0,1,1-19-19A19,19,0,0,1,1116.47,60.41Z"/>
          <polygon class="cls-5" points="1107.13 57.5 1107.13 64.79 1101.01 64.79 1101.01 70.63 1093.71 70.63 1093.71 64.79 1088.17 64.79 1088.17 57.5 1093.71 57.5 1093.71 51.66 1101.01 51.66 1101.01 57.5 1107.13 57.5"/>
          <g class="cls-7">
            <g class="cls-8">
              <path d="M1111.76,193.59h-32.87a8,8,0,0,1-8-8v-3.17a8,8,0,0,1,8-7.95h32.87a8,8,0,0,1,8,7.95v3.17a8,8,0,0,1-8,8"/>
            </g>
          </g>
        </g>
        <text class="cls-9" transform="translate(1078.58 188.22)">Site<tspan class="cls-10" x="22.53" y="0"> </tspan><tspan x="25.46" y="0">A</tspan></text>
        <g class="cls-3">
          <rect class="cls-5" x="1033.26" y="321.07" width="130.33" height="48.92"/>
          <rect class="cls-5" x="1026.89" y="369.98" width="143.06" height="17.09"/>
          <rect class="cls-5" x="1066.43" y="281.53" width="62.99" height="39.53"/>
          <rect class="cls-5" x="1085.86" y="351.89" width="23.79" height="18.09"/>
          <rect class="cls-5" x="1039.96" y="353.56" width="26.47" height="8.71"/>
          <rect class="cls-5" x="1041.64" y="327.43" width="23.28" height="13.4"/>
          <rect class="cls-5" x="1071.45" y="327.43" width="23.28" height="13.4"/>
          <rect class="cls-5" x="1100.94" y="327.43" width="23.28" height="13.4"/>
          <rect class="cls-5" x="1131.09" y="327.43" width="23.28" height="13.4"/>
          <rect class="cls-5" x="1129.42" y="353.56" width="26.47" height="8.71"/>
          <path class="cls-5" d="M1099.73,297.78h-3.28a3.72,3.72,0,0,0-3.72,3.72v5h10.72v-5A3.73,3.73,0,0,0,1099.73,297.78Z"/>
          <path class="cls-5" d="M1116.82,297.78h-3.28a3.72,3.72,0,0,0-3.72,3.72v5h10.72v-5A3.73,3.73,0,0,0,1116.82,297.78Z"/>
          <path class="cls-5" d="M1083,297.78h-3.28a3.72,3.72,0,0,0-3.72,3.72v5h10.72v-5A3.73,3.73,0,0,0,1083,297.78Z"/>
          <polygon class="cls-5" points="1098.09 266.71 1058.41 281.53 1138.36 281.53 1098.09 266.71"/>
          <line class="cls-5" x1="1098.09" y1="252.86" x2="1098.09" y2="266.71"/>
          <rect class="cls-5" x="1098.09" y="252.89" width="9.72" height="6.03"/>
          <g class="cls-7">
            <g class="cls-11">
              <path d="M1111.84,418.25h-31.78a7.94,7.94,0,0,1-8-7.94v-3.17a8,8,0,0,1,8-7.95h31.78a8,8,0,0,1,8,7.95v3.17a7.94,7.94,0,0,1-8,7.94"/>
            </g>
          </g>
        </g>
        <text class="cls-9" transform="translate(1078.58 413.03)">Site B</text>
        <g class="cls-3">
          <polyline class="cls-5" points="1116.46 496.48 1126.24 496.48 1126.24 600.34 1069.35 600.34 1069.35 496.48 1078.55 496.48"/>
          <path d="M1161.34,597.81h-34V511h34Zm1.37-88.2H1126v89.56h36.76Z"/>
          <polyline class="cls-5" points="1143.74 528.28 1143.74 538.2 1143.74 548.12"/>
          <polyline class="cls-5" points="1133.83 538.2 1143.74 538.2 1153.66 538.2"/>
          <path d="M1152.3,529.64v17.12h-17.11V529.64Zm1.36-1.36h-19.83v19.84h19.83Z"/>
          <polyline class="cls-5" points="1143.74 560.66 1143.74 570.58 1143.74 580.5"/>
          <polyline class="cls-5" points="1133.83 570.58 1143.74 570.58 1153.66 570.58"/>
          <path d="M1152.3,562v17.11h-17.11V562Zm1.36-1.37h-19.83V580.5h19.83Z"/>
          <path d="M1068.28,598.1h-34V511.26h34Zm1.37-88.2h-36.76v89.56h36.76Z"/>
          <polyline class="cls-5" points="1050.68 528.57 1050.68 538.49 1050.68 548.41"/>
          <polyline class="cls-5" points="1040.76 538.49 1050.68 538.49 1060.6 538.49"/>
          <path d="M1059.24,529.94v17.11h-17.11V529.94Zm1.36-1.37h-19.84v19.84h19.84Z"/>
          <polyline class="cls-5" points="1050.68 560.95 1050.68 570.87 1050.68 580.79"/>
          <polyline class="cls-5" points="1040.76 570.87 1050.68 570.87 1060.6 570.87"/>
          <path d="M1059.24,562.32v17.11h-17.11V562.32Zm1.36-1.37h-19.84v19.84h19.84Z"/>
          <rect class="cls-5" x="1078.54" y="525.22" width="37.34" height="14"/>
          <rect class="cls-5" x="1078.54" y="546.22" width="37.34" height="14"/>
          <rect class="cls-5" x="1078.54" y="566.93" width="37.34" height="33.26"/>
          <line class="cls-5" x1="1097.48" y1="566.93" x2="1097.24" y2="600.19"/>
          <path class="cls-5" d="M1116.47,496.63a19,19,0,1,1-19-19A19,19,0,0,1,1116.47,496.63Z"/>
          <polygon class="cls-5" points="1107.13 493.71 1107.13 501 1101.01 501 1101.01 506.84 1093.71 506.84 1093.71 501 1088.17 501 1088.17 493.71 1093.71 493.71 1093.71 487.88 1101.01 487.88 1101.01 493.71 1107.13 493.71"/>
          <g class="cls-7">
            <g class="cls-12">
              <path d="M1111.75,629.76h-30.6a8,8,0,0,1-8-8v-3.17a8,8,0,0,1,8-7.95h30.6a8,8,0,0,1,8,7.95v3.17a8,8,0,0,1-8,8"/>
            </g>
          </g>
        </g>
        <text class="cls-9" transform="translate(1078.58 624.53)">Site C</text>
        <g class="cls-3">
          <rect class="cls-5" x="1458" y="281.32" width="102.69" height="151.13"/>
          <polyline class="cls-5" points="1478.44 298.03 1478.44 307.95 1478.44 317.87"/>
          <polyline class="cls-5" points="1468.52 307.95 1478.44 307.95 1488.36 307.95"/>
          <path d="M1487,299.39v17.12h-17.12V299.39Zm1.36-1.36h-19.84v19.84h19.84Z"/>
          <polyline class="cls-5" points="1539.8 298.03 1539.8 307.95 1539.8 317.87"/>
          <polyline class="cls-5" points="1529.88 307.95 1539.8 307.95 1549.72 307.95"/>
          <path d="M1548.35,299.39v17.12h-17.11V299.39Zm1.37-1.36h-19.84v19.84h19.84Z"/>
          <polyline class="cls-5" points="1508.8 298.03 1508.8 307.95 1508.8 317.87"/>
          <polyline class="cls-5" points="1498.88 307.95 1508.8 307.95 1518.71 307.95"/>
          <path d="M1517.35,299.39v17.12h-17.11V299.39Zm1.36-1.36h-19.83v19.84h19.83Z"/>
          <polyline class="cls-5" points="1478.44 332.91 1478.44 342.83 1478.44 352.75"/>
          <polyline class="cls-5" points="1468.52 342.83 1478.44 342.83 1488.36 342.83"/>
          <path d="M1487,334.27v17.11h-17.12V334.27Zm1.36-1.36h-19.84v19.84h19.84Z"/>
          <polyline class="cls-5" points="1539.8 332.91 1539.8 342.83 1539.8 352.75"/>
          <polyline class="cls-5" points="1529.88 342.83 1539.8 342.83 1549.72 342.83"/>
          <path d="M1548.35,334.27v17.11h-17.11V334.27Zm1.37-1.36h-19.84v19.84h19.84Z"/>
          <polyline class="cls-5" points="1508.8 332.91 1508.8 342.83 1508.8 352.75"/>
          <polyline class="cls-5" points="1498.88 342.83 1508.8 342.83 1518.71 342.83"/>
          <path d="M1517.35,334.27v17.11h-17.11V334.27Zm1.36-1.36h-19.83v19.84h19.83Z"/>
          <polyline class="cls-5" points="1478.44 366.49 1478.44 376.41 1478.44 386.33"/>
          <polyline class="cls-5" points="1468.52 376.41 1478.44 376.41 1488.36 376.41"/>
          <path d="M1487,367.86V385h-17.12V367.86Zm1.36-1.37h-19.84v19.84h19.84Z"/>
          <polyline class="cls-5" points="1539.8 366.49 1539.8 376.41 1539.8 386.33"/>
          <polyline class="cls-5" points="1529.88 376.41 1539.8 376.41 1549.72 376.41"/>
          <path d="M1548.35,367.86V385h-17.11V367.86Zm1.37-1.37h-19.84v19.84h19.84Z"/>
          <polyline class="cls-5" points="1508.8 366.49 1508.8 376.41 1508.8 386.33"/>
          <polyline class="cls-5" points="1498.88 376.41 1508.8 376.41 1518.71 376.41"/>
          <path d="M1517.35,367.86V385h-17.11V367.86Zm1.36-1.37h-19.83v19.84h19.83Z"/>
          <rect class="cls-5" x="1490.2" y="399" width="37.34" height="33.26"/>
          <line class="cls-5" x1="1509.13" y1="399" x2="1508.89" y2="432.26"/>
          <g class="cls-7">
            <g class="cls-13">
              <path d="M1521.64,461h-25.31a7.94,7.94,0,0,1-7.95-7.95v-3.17a7.94,7.94,0,0,1,7.95-7.95h25.31a7.94,7.94,0,0,1,7.95,7.95V453a7.94,7.94,0,0,1-7.95,7.95"/>
            </g>
          </g>
        </g>
        <text class="cls-9" transform="translate(1495.39 456.26)">DAC</text>
        <g class="cls-3">
          <path class="cls-4" d="M1794.58,381.05a.31.31,0,0,1-.3.31h-32.72a.3.3,0,0,1-.3-.31V321.51a.29.29,0,0,1,.3-.3h32.72a.3.3,0,0,1,.3.3Z"/>
          <path class="cls-5" d="M1794.58,381.05a.31.31,0,0,1-.3.31h-32.72a.3.3,0,0,1-.3-.31V321.51a.29.29,0,0,1,.3-.3h32.72a.3.3,0,0,1,.3.3Z"/>
          <line class="cls-4" x1="1763.03" y1="385.48" x2="1763.11" y2="381.36"/>
          <line class="cls-5" x1="1763.03" y1="385.48" x2="1763.11" y2="381.36"/>
          <line class="cls-5" x1="1792.9" y1="381.36" x2="1792.9" y2="385.48"/>
          <line class="cls-5" x1="1768.04" y1="331.23" x2="1788.79" y2="331.23"/>
          <line class="cls-5" x1="1768.04" y1="337.42" x2="1788.79" y2="337.42"/>
          <line class="cls-5" x1="1768.04" y1="343.61" x2="1788.79" y2="343.61"/>
          <path class="cls-4" d="M1781.6,366.91a3.24,3.24,0,1,1-3.24-3.25,3.24,3.24,0,0,1,3.24,3.25"/>
          <circle class="cls-5" cx="1778.36" cy="366.91" r="3.24"/>
          <path class="cls-4" d="M1769.35,376.05h-57.16a.46.46,0,0,1-.46-.47V340a.45.45,0,0,1,.46-.46h57.16a.46.46,0,0,1,.46.46v35.63a.47.47,0,0,1-.46.47"/>
          <rect class="cls-5" x="1711.73" y="339.49" width="58.08" height="36.56" rx="0.46"/>
          <path class="cls-4" d="M1745.17,384h-9.39a.47.47,0,0,1-.47-.47v-7a.47.47,0,0,1,.47-.46h9.39a.46.46,0,0,1,.46.46v7a.46.46,0,0,1-.46.47"/>
          <rect class="cls-5" x="1735.31" y="376.05" width="10.32" height="7.96" rx="0.46"/>
          <line class="cls-5" x1="1728.03" y1="384.01" x2="1752.86" y2="384.01"/>
          <line class="cls-5" x1="1711.73" y1="369.02" x2="1769.81" y2="369.02"/>
          <path class="cls-14" d="M1737.84,358.41c0,.09-.09.19-.24.22l-1,.33-.08,0a5.2,5.2,0,0,1-.44,2.15l.06.06.77.69c.13.09.18.23.12.31l-.74,1c-.06.08-.21.07-.33,0l-.88-.45-.07,0a5.2,5.2,0,0,1-1.88,1.21V364l0,1c0,.15,0,.29-.14.3l-1.25.18c-.1,0-.19-.09-.22-.24l-.28-.92,0-.07a5.26,5.26,0,0,1-2.2-.51l-.06.05-.67.72c-.1.12-.23.17-.31.11l-1-.77c-.07-.06-.06-.21,0-.33l.45-.83,0-.07a5.18,5.18,0,0,1-1.17-1.94h-.08l-1,0c-.15,0-.28-.05-.29-.15l-.15-1.25c0-.1.1-.19.25-.21l.91-.26.08,0a5.28,5.28,0,0,1,.59-2.17l-.06-.05-.71-.71c-.12-.1-.17-.24-.1-.31l.79-1c.06-.08.21-.06.32,0l.86.49.07,0a4.94,4.94,0,0,1,1.45-.91v-.08l-.09-1c0-.15,0-.28.12-.3l1.24-.25c.1,0,.2.09.23.24l.35.95,0,.07a5.43,5.43,0,0,1,2.16.41l0-.06.69-.8c.08-.13.22-.19.3-.13l1,.72c.08,0,.08.2,0,.32l-.44.94,0,.07a5.17,5.17,0,0,1,1.22,1.81h.08l1.06-.07c.15,0,.28,0,.3.13Zm-7.19-2.13a2.85,2.85,0,1,0,3.47,2.06,2.85,2.85,0,0,0-3.47-2.06"/>
          <path class="cls-15" d="M1737.84,358.41c0,.09-.09.19-.24.22l-1,.33-.08,0a5.2,5.2,0,0,1-.44,2.15l.06.06.77.69c.13.09.18.23.12.31l-.74,1c-.06.08-.21.07-.33,0l-.88-.45-.07,0a5.2,5.2,0,0,1-1.88,1.21V364l0,1c0,.15,0,.29-.14.3l-1.25.18c-.1,0-.19-.09-.22-.24l-.28-.92,0-.07a5.26,5.26,0,0,1-2.2-.51l-.06.05-.67.72c-.1.12-.23.17-.31.11l-1-.77c-.07-.06-.06-.21,0-.33l.45-.83,0-.07a5.18,5.18,0,0,1-1.17-1.94h-.08l-1,0c-.15,0-.28-.05-.29-.15l-.15-1.25c0-.1.1-.19.25-.21l.91-.26.08,0a5.28,5.28,0,0,1,.59-2.17l-.06-.05-.71-.71c-.12-.1-.17-.24-.1-.31l.79-1c.06-.08.21-.06.32,0l.86.49.07,0a4.94,4.94,0,0,1,1.45-.91v-.08l-.09-1c0-.15,0-.28.12-.3l1.24-.25c.1,0,.2.09.23.24l.35.95,0,.07a5.43,5.43,0,0,1,2.16.41l0-.06.69-.8c.08-.13.22-.19.3-.13l1,.72c.08,0,.08.2,0,.32l-.44.94,0,.07a5.17,5.17,0,0,1,1.22,1.81h.08l1.06-.07c.15,0,.28,0,.3.13Zm-7.19-2.13a2.85,2.85,0,1,0,3.47,2.06A2.85,2.85,0,0,0,1730.65,356.28Z"/>
          <path class="cls-14" d="M1737.48,347.82c0,.08-.09.15-.2.16l-.78.17-.06,0a4,4,0,0,1-.51,1.63l0,.05.54.6c.09.08.12.18.07.24l-.66.74c-.05.05-.16,0-.25,0L1735,351l0,0a3.93,3.93,0,0,1-1.55.79v.06l-.05.78c0,.12,0,.22-.13.22l-1,0c-.07,0-.14-.09-.14-.2l-.15-.73v-.07a3.91,3.91,0,0,1-1.67-.57l0,0-.58.5a.19.19,0,0,1-.25.06l-.72-.67a.21.21,0,0,1,0-.26l.41-.6,0-.05a4,4,0,0,1-.75-1.6h-.06l-.76-.07c-.12,0-.21,0-.22-.13v-1c0-.07.09-.14.21-.14l.73-.13h.06a4.05,4.05,0,0,1,.63-1.63l0-.05-.49-.61a.19.19,0,0,1-.06-.25l.69-.7a.19.19,0,0,1,.25.06l.63.45,0,0a4.24,4.24,0,0,1,1.19-.58V343c0-.12,0-.22.12-.23l1-.09c.08,0,.15.09.16.2l.19.77,0,.06a4.13,4.13,0,0,1,1.63.49l.05,0,.6-.57c.08-.09.18-.13.24-.08l.75.64c.06.05,0,.17,0,.26l-.42.68,0,.06a3.93,3.93,0,0,1,.79,1.5h.07l.82,0c.12,0,.22,0,.23.12Zm-5.4-2.22a2.22,2.22,0,1,0,2.52,1.87,2.21,2.21,0,0,0-2.52-1.87"/>
          <path class="cls-15" d="M1737.48,347.82c0,.08-.09.15-.2.16l-.78.17-.06,0a4,4,0,0,1-.51,1.63l0,.05.54.6c.09.08.12.18.07.24l-.66.74c-.05.05-.16,0-.25,0L1735,351l0,0a3.93,3.93,0,0,1-1.55.79v.06l-.05.78c0,.12,0,.22-.13.22l-1,0c-.07,0-.14-.09-.14-.2l-.15-.73v-.07a3.91,3.91,0,0,1-1.67-.57l0,0-.58.5a.19.19,0,0,1-.25.06l-.72-.67a.21.21,0,0,1,0-.26l.41-.6,0-.05a4,4,0,0,1-.75-1.6h-.06l-.76-.07c-.12,0-.21,0-.22-.13v-1c0-.07.09-.14.21-.14l.73-.13h.06a4.05,4.05,0,0,1,.63-1.63l0-.05-.49-.61a.19.19,0,0,1-.06-.25l.69-.7a.19.19,0,0,1,.25.06l.63.45,0,0a4.24,4.24,0,0,1,1.19-.58V343c0-.12,0-.22.12-.23l1-.09c.08,0,.15.09.16.2l.19.77,0,.06a4.13,4.13,0,0,1,1.63.49l.05,0,.6-.57c.08-.09.18-.13.24-.08l.75.64c.06.05,0,.17,0,.26l-.42.68,0,.06a3.93,3.93,0,0,1,.79,1.5h.07l.82,0c.12,0,.22,0,.23.12Zm-5.4-2.22a2.22,2.22,0,1,0,2.52,1.87A2.21,2.21,0,0,0,1732.08,345.6Z"/>
          <path class="cls-14" d="M1754.63,353.42c0,.14-.16.26-.38.27l-1.41.33-.11,0a7.45,7.45,0,0,1-.94,3l.08.09,1,1.09c.16.15.21.35.12.45l-1.2,1.34c-.09.1-.3.07-.45-.07l-1.19-.77-.09-.06a7.52,7.52,0,0,1-2.83,1.44v.11l-.09,1.42c0,.22-.1.4-.24.4l-1.79.08c-.14,0-.26-.17-.27-.38l-.27-1.33,0-.11a7.45,7.45,0,0,1-3-1l-.09.07-1.05.91c-.15.16-.35.21-.45.11l-1.31-1.23c-.1-.09-.06-.3.08-.45l.76-1.11.06-.09a7.34,7.34,0,0,1-1.36-2.92H1738l-1.39-.12c-.21,0-.39-.11-.39-.25l0-1.79c0-.14.17-.26.38-.26l1.34-.24.11,0a7.29,7.29,0,0,1,1.15-3l-.07-.09-.91-1.11c-.15-.15-.2-.35-.1-.45l1.26-1.28c.1-.1.31-.05.46.1l1.14.82.09.06a7.24,7.24,0,0,1,2.18-1.06v-.11l0-1.47c0-.22.07-.4.21-.41l1.79-.17c.14,0,.27.15.29.37l.35,1.39,0,.11a7.49,7.49,0,0,1,3,.9l.08-.08,1.09-1c.14-.17.34-.23.44-.14l1.37,1.17c.11.09.08.29-.06.46l-.77,1.25,0,.1a7.26,7.26,0,0,1,1.45,2.73h.11l1.51.06c.21,0,.4.09.41.22Zm-9.85-4.06a4,4,0,1,0,4.59,3.42,4,4,0,0,0-4.59-3.42"/>
          <path class="cls-15" d="M1754.63,353.42c0,.14-.16.26-.38.27l-1.41.33-.11,0a7.45,7.45,0,0,1-.94,3l.08.09,1,1.09c.16.15.21.35.12.45l-1.2,1.34c-.09.1-.3.07-.45-.07l-1.19-.77-.09-.06a7.52,7.52,0,0,1-2.83,1.44v.11l-.09,1.42c0,.22-.1.4-.24.4l-1.79.08c-.14,0-.26-.17-.27-.38l-.27-1.33,0-.11a7.45,7.45,0,0,1-3-1l-.09.07-1.05.91c-.15.16-.35.21-.45.11l-1.31-1.23c-.1-.09-.06-.3.08-.45l.76-1.11.06-.09a7.34,7.34,0,0,1-1.36-2.92H1738l-1.39-.12c-.21,0-.39-.11-.39-.25l0-1.79c0-.14.17-.26.38-.26l1.34-.24.11,0a7.29,7.29,0,0,1,1.15-3l-.07-.09-.91-1.11c-.15-.15-.2-.35-.1-.45l1.26-1.28c.1-.1.31-.05.46.1l1.14.82.09.06a7.24,7.24,0,0,1,2.18-1.06v-.11l0-1.47c0-.22.07-.4.21-.41l1.79-.17c.14,0,.27.15.29.37l.35,1.39,0,.11a7.49,7.49,0,0,1,3,.9l.08-.08,1.09-1c.14-.17.34-.23.44-.14l1.37,1.17c.11.09.08.29-.06.46l-.77,1.25,0,.1a7.26,7.26,0,0,1,1.45,2.73h.11l1.51.06c.21,0,.4.09.41.22Zm-9.85-4.06a4,4,0,1,0,4.59,3.42A4,4,0,0,0,1744.78,349.36Z"/>
          <path class="cls-4" d="M1755.93,565.05h-53.38a.46.46,0,0,1-.46-.45V495a.46.46,0,0,1,.46-.46h53.38a.46.46,0,0,1,.46.46V564.6a.46.46,0,0,1-.46.45"/>
          <rect class="cls-5" x="1702.09" y="494.5" width="54.3" height="70.55" rx="0.45"/>
          <line class="cls-5" x1="1710.05" y1="507.3" x2="1748.12" y2="507.3"/>
          <line class="cls-5" x1="1710.05" y1="518.71" x2="1748.12" y2="518.71"/>
          <line class="cls-5" x1="1710.05" y1="530.12" x2="1748.12" y2="530.12"/>
          <line class="cls-5" x1="1710.05" y1="541.53" x2="1748.12" y2="541.53"/>
          <line class="cls-5" x1="1710.05" y1="552.95" x2="1748.12" y2="552.95"/>
          <path class="cls-4" d="M1766.65,567.13h-53.38a.47.47,0,0,1-.46-.46V497a.46.46,0,0,1,.46-.45h53.38a.45.45,0,0,1,.46.45v69.64a.46.46,0,0,1-.46.46"/>
          <rect class="cls-5" x="1712.81" y="496.58" width="54.3" height="70.55" rx="0.45"/>
          <line class="cls-5" x1="1720.77" y1="509.37" x2="1758.85" y2="509.37"/>
          <line class="cls-5" x1="1720.77" y1="520.78" x2="1758.85" y2="520.78"/>
          <line class="cls-5" x1="1720.77" y1="532.2" x2="1758.85" y2="532.2"/>
          <line class="cls-5" x1="1720.77" y1="543.61" x2="1758.85" y2="543.61"/>
          <line class="cls-5" x1="1720.77" y1="555.02" x2="1758.85" y2="555.02"/>
          <path class="cls-4" d="M1777.2,569h-53.39a.46.46,0,0,1-.45-.46V498.93a.45.45,0,0,1,.45-.45h53.39a.46.46,0,0,1,.46.45v69.64a.47.47,0,0,1-.46.46"/>
          <rect class="cls-5" x="1723.36" y="498.48" width="54.3" height="70.55" rx="0.45"/>
          <line class="cls-5" x1="1731.31" y1="511.27" x2="1769.39" y2="511.27"/>
          <line class="cls-5" x1="1731.31" y1="522.69" x2="1769.39" y2="522.69"/>
          <line class="cls-5" x1="1731.31" y1="534.1" x2="1769.39" y2="534.1"/>
          <line class="cls-5" x1="1731.31" y1="545.51" x2="1769.39" y2="545.51"/>
          <line class="cls-5" x1="1731.31" y1="556.92" x2="1769.39" y2="556.92"/>
          <line class="cls-16" x1="1568.92" y1="358.85" x2="1572.19" y2="358.84"/>
          <line class="cls-17" x1="1578.5" y1="358.81" x2="1701.47" y2="358.22"/>
          <line class="cls-16" x1="1704.62" y1="358.21" x2="1707.89" y2="358.19"/>
          <path class="cls-18" d="M1560.7,358.89a41.4,41.4,0,0,1,11.68,6.43l-2.38-6.47,2.31-6.49a41,41,0,0,1-11.61,6.53"/>
          <path class="cls-19" d="M1605.92,343.17l31.78-13.4a.3.3,0,0,1,.26,0l32.18,13.4a.34.34,0,0,1,0,.62l-32,14a.32.32,0,0,1-.27,0l-32-14a.34.34,0,0,1,0-.62"/>
          <path class="cls-5" d="M1605.92,343.17l31.78-13.4a.3.3,0,0,1,.26,0l32.18,13.4a.34.34,0,0,1,0,.62l-32,14a.32.32,0,0,1-.27,0l-32-14A.34.34,0,0,1,1605.92,343.17Z"/>
          <path class="cls-19" d="M1604.8,346.74v31.4a.34.34,0,0,0,.2.3l31.16,15.12a.34.34,0,0,0,.49-.3V360a.35.35,0,0,0-.21-.31l-31.16-13.3a.34.34,0,0,0-.48.31"/>
          <path class="cls-5" d="M1604.8,346.74v31.4a.34.34,0,0,0,.2.3l31.16,15.12a.34.34,0,0,0,.49-.3V360a.35.35,0,0,0-.21-.31l-31.16-13.3A.34.34,0,0,0,1604.8,346.74Z"/>
          <path class="cls-19" d="M1639.41,359.61l31.48-13.19a.33.33,0,0,1,.46.32V378.2a.32.32,0,0,1-.19.3l-31.47,15.07a.34.34,0,0,1-.48-.31V359.92a.34.34,0,0,1,.2-.31"/>
          <path class="cls-5" d="M1639.41,359.61l31.48-13.19a.33.33,0,0,1,.46.32V378.2a.32.32,0,0,1-.19.3l-31.47,15.07a.34.34,0,0,1-.48-.31V359.92A.34.34,0,0,1,1639.41,359.61Z"/>
          <path class="cls-14" d="M1619,362.14a.26.26,0,0,0-.18-.26l-.71-.4-.06,0a9.59,9.59,0,0,0-.28-2.55l0-.06.59-.82a.37.37,0,0,0,.1-.36l-.53-1.22c0-.09-.15-.09-.25,0l-.66.52-.06,0a4.2,4.2,0,0,0-1.37-1.46v-.09l0-1.19c0-.18,0-.34-.1-.35l-.92-.24c-.08,0-.15.11-.17.29l-.23,1.08,0,.09a2.76,2.76,0,0,0-1.65.58l0-.07-.48-.86c-.07-.14-.17-.2-.23-.13l-.76.9a.39.39,0,0,0,0,.38l.32,1,0,.09a7.5,7.5,0,0,0-.91,2.28h0l-.73,0a.19.19,0,0,0-.23.17l-.13,1.48a.22.22,0,0,0,.18.25l.68.32,0,0a8.93,8.93,0,0,0,.4,2.58l0,.06-.54.84a.4.4,0,0,0-.09.36l.57,1.18c.05.09.15.07.24,0l.65-.57,0,0a4.27,4.27,0,0,0,1.07,1.09v.09l-.09,1.22c0,.18,0,.34.08.36l.92.31c.07,0,.15-.1.17-.28l.28-1.12,0-.09a2.64,2.64,0,0,0,1.61-.46l0,.08.5,1c.06.15.16.22.22.16l.79-.84a.43.43,0,0,0,0-.39l-.31-1.11,0-.08a7.32,7.32,0,0,0,1-2.13h.06l.78.09a.17.17,0,0,0,.23-.14Zm-5.4,2.43c-1.13-.48-1.78-2.33-1.46-4.13s1.49-2.87,2.62-2.4,1.78,2.33,1.46,4.13-1.49,2.88-2.62,2.4"/>
          <path class="cls-20" d="M1619,362.14a.26.26,0,0,0-.18-.26l-.71-.4-.06,0a9.59,9.59,0,0,0-.28-2.55l0-.06.59-.82a.37.37,0,0,0,.1-.36l-.53-1.22c0-.09-.15-.09-.25,0l-.66.52-.06,0a4.2,4.2,0,0,0-1.37-1.46v-.09l0-1.19c0-.18,0-.34-.1-.35l-.92-.24c-.08,0-.15.11-.17.29l-.23,1.08,0,.09a2.76,2.76,0,0,0-1.65.58l0-.07-.48-.86c-.07-.14-.17-.2-.23-.13l-.76.9a.39.39,0,0,0,0,.38l.32,1,0,.09a7.5,7.5,0,0,0-.91,2.28h0l-.73,0a.19.19,0,0,0-.23.17l-.13,1.48a.22.22,0,0,0,.18.25l.68.32,0,0a8.93,8.93,0,0,0,.4,2.58l0,.06-.54.84a.4.4,0,0,0-.09.36l.57,1.18c.05.09.15.07.24,0l.65-.57,0,0a4.27,4.27,0,0,0,1.07,1.09v.09l-.09,1.22c0,.18,0,.34.08.36l.92.31c.07,0,.15-.1.17-.28l.28-1.12,0-.09a2.64,2.64,0,0,0,1.61-.46l0,.08.5,1c.06.15.16.22.22.16l.79-.84a.43.43,0,0,0,0-.39l-.31-1.11,0-.08a7.32,7.32,0,0,0,1-2.13h.06l.78.09a.17.17,0,0,0,.23-.14Zm-5.4,2.43c-1.13-.48-1.78-2.33-1.46-4.13s1.49-2.87,2.62-2.4,1.78,2.33,1.46,4.13S1614.76,365.05,1613.63,364.57Z"/>
          <path class="cls-14" d="M1618.54,374.67a.17.17,0,0,0-.15-.18l-.58-.22,0,0a7,7,0,0,0-.35-1.94l0-.05.42-.71a.29.29,0,0,0,.05-.29l-.47-.87c0-.07-.12-.05-.19,0l-.49.49,0,0a2.87,2.87,0,0,0-1.14-1v-.07l0-.92c0-.14,0-.26-.09-.27l-.73-.06c-.06,0-.11.11-.11.25l-.13.86v.07a2.39,2.39,0,0,0-1.25.66l0,0-.42-.6c-.06-.1-.14-.13-.19-.07l-.54.79c0,.06,0,.19,0,.3l.29.72,0,.06a6.17,6.17,0,0,0-.59,1.89h0l-.57.07a.16.16,0,0,0-.16.16l0,1.17a.16.16,0,0,0,.15.17l.54.16h0a6.89,6.89,0,0,0,.43,1.94l0,.06-.38.71a.34.34,0,0,0,0,.3l.5.84c0,.06.12,0,.18-.06l.48-.53,0,0a2.75,2.75,0,0,0,.87.71v1c0,.14,0,.26.09.27l.73.12c.05,0,.11-.1.12-.24l.16-.9v-.08a2.26,2.26,0,0,0,1.23-.56l0,.06.43.68c.06.11.14.15.18.09l.57-.75a.3.3,0,0,0,0-.3l-.29-.82,0-.06a6,6,0,0,0,.63-1.77h0l.62,0a.16.16,0,0,0,.17-.14Zm-4.07,2.57c-.9-.23-1.5-1.58-1.34-3s1-2.41,1.91-2.19,1.5,1.58,1.34,3-1,2.41-1.91,2.19"/>
          <path class="cls-20" d="M1618.54,374.67a.17.17,0,0,0-.15-.18l-.58-.22,0,0a7,7,0,0,0-.35-1.94l0-.05.42-.71a.29.29,0,0,0,.05-.29l-.47-.87c0-.07-.12-.05-.19,0l-.49.49,0,0a2.87,2.87,0,0,0-1.14-1v-.07l0-.92c0-.14,0-.26-.09-.27l-.73-.06c-.06,0-.11.11-.11.25l-.13.86v.07a2.39,2.39,0,0,0-1.25.66l0,0-.42-.6c-.06-.1-.14-.13-.19-.07l-.54.79c0,.06,0,.19,0,.3l.29.72,0,.06a6.17,6.17,0,0,0-.59,1.89h0l-.57.07a.16.16,0,0,0-.16.16l0,1.17a.16.16,0,0,0,.15.17l.54.16h0a6.89,6.89,0,0,0,.43,1.94l0,.06-.38.71a.34.34,0,0,0,0,.3l.5.84c0,.06.12,0,.18-.06l.48-.53,0,0a2.75,2.75,0,0,0,.87.71v1c0,.14,0,.26.09.27l.73.12c.05,0,.11-.1.12-.24l.16-.9v-.08a2.26,2.26,0,0,0,1.23-.56l0,.06.43.68c.06.11.14.15.18.09l.57-.75a.3.3,0,0,0,0-.3l-.29-.82,0-.06a6,6,0,0,0,.63-1.77h0l.62,0a.16.16,0,0,0,.17-.14Zm-4.07,2.57c-.9-.23-1.5-1.58-1.34-3s1-2.41,1.91-2.19,1.5,1.58,1.34,3S1615.37,377.46,1614.47,377.24Z"/>
          <path class="cls-14" d="M1631.41,368.27a.32.32,0,0,0-.27-.33l-1.05-.4-.08,0a12.49,12.49,0,0,0-.64-3.54l.06-.1.76-1.28a.54.54,0,0,0,.1-.53l-.86-1.6c-.07-.12-.22-.09-.34.08l-.9.89-.07.07a5.27,5.27,0,0,0-2.07-1.73v-.14l0-1.68c0-.26-.06-.47-.17-.48l-1.33-.11c-.1,0-.2.19-.21.44l-.22,1.57,0,.14a4.34,4.34,0,0,0-2.28,1.2l-.06-.09-.77-1.09c-.11-.19-.26-.25-.33-.14l-1,1.44a.56.56,0,0,0,.05.54l.54,1.32,0,.12a11.42,11.42,0,0,0-1.08,3.43h-.08l-1,.13a.28.28,0,0,0-.29.28l-.06,2.13a.3.3,0,0,0,.28.31l1,.29.08,0a12.23,12.23,0,0,0,.79,3.54l0,.1-.7,1.3a.55.55,0,0,0-.08.54l.91,1.53c.07.11.22.07.34-.11l.86-1,.07-.07a5.2,5.2,0,0,0,1.6,1.29v.13l0,1.74c0,.25,0,.47.16.49l1.32.22c.11,0,.2-.18.22-.43l.3-1.65,0-.13a4.09,4.09,0,0,0,2.23-1l.06.09.79,1.25c.11.2.25.27.33.17l1-1.37a.58.58,0,0,0,0-.54l-.55-1.49,0-.12a11.12,11.12,0,0,0,1.14-3.22h.08l1.13-.05a.26.26,0,0,0,.3-.26ZM1624,373c-1.63-.41-2.73-2.87-2.45-5.48s1.85-4.4,3.49-4,2.73,2.87,2.45,5.48-1.85,4.4-3.49,4"/>
          <path class="cls-20" d="M1631.41,368.27a.32.32,0,0,0-.27-.33l-1.05-.4-.08,0a12.49,12.49,0,0,0-.64-3.54l.06-.1.76-1.28a.54.54,0,0,0,.1-.53l-.86-1.6c-.07-.12-.22-.09-.34.08l-.9.89-.07.07a5.27,5.27,0,0,0-2.07-1.73v-.14l0-1.68c0-.26-.06-.47-.17-.48l-1.33-.11c-.1,0-.2.19-.21.44l-.22,1.57,0,.14a4.34,4.34,0,0,0-2.28,1.2l-.06-.09-.77-1.09c-.11-.19-.26-.25-.33-.14l-1,1.44a.56.56,0,0,0,.05.54l.54,1.32,0,.12a11.42,11.42,0,0,0-1.08,3.43h-.08l-1,.13a.28.28,0,0,0-.29.28l-.06,2.13a.3.3,0,0,0,.28.31l1,.29.08,0a12.23,12.23,0,0,0,.79,3.54l0,.1-.7,1.3a.55.55,0,0,0-.08.54l.91,1.53c.07.11.22.07.34-.11l.86-1,.07-.07a5.2,5.2,0,0,0,1.6,1.29v.13l0,1.74c0,.25,0,.47.16.49l1.32.22c.11,0,.2-.18.22-.43l.3-1.65,0-.13a4.09,4.09,0,0,0,2.23-1l.06.09.79,1.25c.11.2.25.27.33.17l1-1.37a.58.58,0,0,0,0-.54l-.55-1.49,0-.12a11.12,11.12,0,0,0,1.14-3.22h.08l1.13-.05a.26.26,0,0,0,.3-.26ZM1624,373c-1.63-.41-2.73-2.87-2.45-5.48s1.85-4.4,3.49-4,2.73,2.87,2.45,5.48S1625.64,373.36,1624,373Z"/>
          <line class="cls-16" x1="1170.14" y1="551.93" x2="1173.14" y2="550.64"/>
          <line class="cls-21" x1="1179.27" y1="547.99" x2="1433.9" y2="437.96"/>
          <line class="cls-16" x1="1436.97" y1="436.63" x2="1439.97" y2="435.34"/>
          <path class="cls-18" d="M1162.59,555.2a40.85,40.85,0,0,1,13.26,1.33l-4.72-5-.42-6.88a41.17,41.17,0,0,1-8.12,10.57"/>
          <path class="cls-18" d="M1447.52,432.07a41.39,41.39,0,0,0-8.13,10.57l-.41-6.88-4.73-5a41.19,41.19,0,0,0,13.27,1.32"/>
          <line class="cls-16" x1="1172.44" y1="355.69" x2="1175.71" y2="355.65"/>
          <line class="cls-22" x1="1182.39" y1="355.56" x2="1432.69" y2="352.19"/>
          <line class="cls-16" x1="1436.02" y1="352.14" x2="1439.29" y2="352.1"/>
          <path class="cls-18" d="M1164.22,355.8a41.15,41.15,0,0,1,11.73,6.32l-2.43-6.44,2.26-6.51a41.33,41.33,0,0,1-11.56,6.63"/>
          <path class="cls-18" d="M1447.52,352a41.08,41.08,0,0,0-11.56,6.63l2.25-6.51-2.43-6.44a41.21,41.21,0,0,0,11.74,6.32"/>
          <line class="cls-16" x1="1171.21" y1="131.3" x2="1174.08" y2="132.87"/>
          <line class="cls-23" x1="1179.93" y1="136.07" x2="1434.5" y2="275.14"/>
          <line class="cls-16" x1="1437.43" y1="276.74" x2="1440.3" y2="278.31"/>
          <path class="cls-18" d="M1164,127.36a41.32,41.32,0,0,1,7.12,11.27l1.05-6.81,5.16-4.56a41.07,41.07,0,0,1-13.33.1"/>
          <path class="cls-18" d="M1447.52,282.25a41.34,41.34,0,0,0-13.33.11l5.16-4.57,1.05-6.81a41,41,0,0,0,7.12,11.27"/>
          <path class="cls-19" d="M1191.61,135.26l31.77-13.4a.39.39,0,0,1,.26,0l32.19,13.4a.34.34,0,0,1,0,.62l-32,14a.34.34,0,0,1-.28,0l-32-14a.34.34,0,0,1,0-.62"/>
          <path class="cls-5" d="M1191.61,135.26l31.77-13.4a.39.39,0,0,1,.26,0l32.19,13.4a.34.34,0,0,1,0,.62l-32,14a.34.34,0,0,1-.28,0l-32-14A.34.34,0,0,1,1191.61,135.26Z"/>
          <path class="cls-19" d="M1190.49,138.83v31.4a.32.32,0,0,0,.19.3l31.17,15.13a.34.34,0,0,0,.48-.31V152.14a.36.36,0,0,0-.2-.32L1191,138.52a.34.34,0,0,0-.47.31"/>
          <path class="cls-5" d="M1190.49,138.83v31.4a.32.32,0,0,0,.19.3l31.17,15.13a.34.34,0,0,0,.48-.31V152.14a.36.36,0,0,0-.2-.32L1191,138.52A.34.34,0,0,0,1190.49,138.83Z"/>
          <path class="cls-19" d="M1225.1,151.7l31.47-13.18a.34.34,0,0,1,.47.31v31.46a.34.34,0,0,1-.19.3l-31.48,15.07a.34.34,0,0,1-.48-.31V152a.35.35,0,0,1,.21-.32"/>
          <path class="cls-5" d="M1225.1,151.7l31.47-13.18a.34.34,0,0,1,.47.31v31.46a.34.34,0,0,1-.19.3l-31.48,15.07a.34.34,0,0,1-.48-.31V152A.35.35,0,0,1,1225.1,151.7Z"/>
          <path class="cls-14" d="M1204.71,154.23a.25.25,0,0,0-.18-.26l-.71-.4,0,0a9.31,9.31,0,0,0-.29-2.56l0-.06.59-.81a.4.4,0,0,0,.09-.36l-.53-1.23c0-.09-.15-.08-.24,0l-.67.52,0,0a4.26,4.26,0,0,0-1.37-1.45v-.1l.05-1.19c0-.18,0-.33-.09-.35l-.93-.23c-.07,0-.15.11-.16.28l-.24,1.08,0,.09a2.74,2.74,0,0,0-1.64.58l0-.07-.49-.85c-.07-.15-.17-.21-.23-.14l-.76.9a.44.44,0,0,0,0,.39l.32,1,0,.09a7.31,7.31,0,0,0-.91,2.29h-.06l-.73,0a.18.18,0,0,0-.22.17l-.14,1.48a.23.23,0,0,0,.18.25l.68.33.06,0a9.29,9.29,0,0,0,.39,2.58l0,.07-.55.83a.36.36,0,0,0-.08.36l.57,1.18c0,.09.15.08.24,0l.65-.57,0-.05a4.09,4.09,0,0,0,1.06,1.09v.09l-.09,1.22c0,.18,0,.34.08.36l.92.31c.07,0,.15-.1.18-.27l.28-1.13,0-.09a2.65,2.65,0,0,0,1.61-.45l0,.07.49,1c.06.14.16.21.22.15l.79-.84c.07-.06.07-.24,0-.38l-.31-1.12,0-.08a7.19,7.19,0,0,0,.94-2.13h.06l.79.1a.17.17,0,0,0,.22-.15Zm-5.4,2.43c-1.12-.47-1.78-2.33-1.46-4.13s1.5-2.87,2.62-2.39,1.78,2.33,1.46,4.13-1.49,2.87-2.62,2.39"/>
          <path class="cls-20" d="M1204.71,154.23a.25.25,0,0,0-.18-.26l-.71-.4,0,0a9.31,9.31,0,0,0-.29-2.56l0-.06.59-.81a.4.4,0,0,0,.09-.36l-.53-1.23c0-.09-.15-.08-.24,0l-.67.52,0,0a4.26,4.26,0,0,0-1.37-1.45v-.1l.05-1.19c0-.18,0-.33-.09-.35l-.93-.23c-.07,0-.15.11-.16.28l-.24,1.08,0,.09a2.74,2.74,0,0,0-1.64.58l0-.07-.49-.85c-.07-.15-.17-.21-.23-.14l-.76.9a.44.44,0,0,0,0,.39l.32,1,0,.09a7.31,7.31,0,0,0-.91,2.29h-.06l-.73,0a.18.18,0,0,0-.22.17l-.14,1.48a.23.23,0,0,0,.18.25l.68.33.06,0a9.29,9.29,0,0,0,.39,2.58l0,.07-.55.83a.36.36,0,0,0-.08.36l.57,1.18c0,.09.15.08.24,0l.65-.57,0-.05a4.09,4.09,0,0,0,1.06,1.09v.09l-.09,1.22c0,.18,0,.34.08.36l.92.31c.07,0,.15-.1.18-.27l.28-1.13,0-.09a2.65,2.65,0,0,0,1.61-.45l0,.07.49,1c.06.14.16.21.22.15l.79-.84c.07-.06.07-.24,0-.38l-.31-1.12,0-.08a7.19,7.19,0,0,0,.94-2.13h.06l.79.1a.17.17,0,0,0,.22-.15Zm-5.4,2.43c-1.12-.47-1.78-2.33-1.46-4.13s1.5-2.87,2.62-2.39,1.78,2.33,1.46,4.13S1200.44,157.14,1199.31,156.66Z"/>
          <path class="cls-14" d="M1204.22,166.76a.17.17,0,0,0-.15-.18l-.57-.22,0,0a6.55,6.55,0,0,0-.35-1.93l0-.06.41-.7a.31.31,0,0,0,.06-.29l-.48-.88c0-.07-.12,0-.18,0l-.5.49,0,0a2.74,2.74,0,0,0-1.13-1V162l0-.92c0-.14,0-.26-.09-.26l-.74-.07s-.1.11-.11.25l-.12.86V162a2.46,2.46,0,0,0-1.25.66l0-.05-.42-.59c-.06-.11-.14-.14-.18-.08l-.55.79a.33.33,0,0,0,0,.3l.3.72,0,.06a6.45,6.45,0,0,0-.59,1.89h0l-.57.06a.17.17,0,0,0-.17.16l0,1.17a.17.17,0,0,0,.16.17l.54.16h0a6.88,6.88,0,0,0,.44,2l0,0-.38.72a.29.29,0,0,0,0,.29l.5.84c0,.06.12,0,.19-.06l.47-.52,0,0a2.79,2.79,0,0,0,.88.71v1c0,.14,0,.26.08.27l.73.12c.06,0,.11-.1.12-.24l.16-.9v-.07a2.38,2.38,0,0,0,1.23-.56l0,.05.44.68c0,.11.13.15.18.09l.57-.75a.34.34,0,0,0,0-.29l-.3-.82,0-.07a6.29,6.29,0,0,0,.62-1.76h0l.61,0a.15.15,0,0,0,.17-.14Zm-4.06,2.57c-.9-.22-1.5-1.57-1.35-3s1-2.41,1.92-2.18,1.5,1.57,1.34,3-1,2.42-1.91,2.19"/>
          <path class="cls-20" d="M1204.22,166.76a.17.17,0,0,0-.15-.18l-.57-.22,0,0a6.55,6.55,0,0,0-.35-1.93l0-.06.41-.7a.31.31,0,0,0,.06-.29l-.48-.88c0-.07-.12,0-.18,0l-.5.49,0,0a2.74,2.74,0,0,0-1.13-1V162l0-.92c0-.14,0-.26-.09-.26l-.74-.07s-.1.11-.11.25l-.12.86V162a2.46,2.46,0,0,0-1.25.66l0-.05-.42-.59c-.06-.11-.14-.14-.18-.08l-.55.79a.33.33,0,0,0,0,.3l.3.72,0,.06a6.45,6.45,0,0,0-.59,1.89h0l-.57.06a.17.17,0,0,0-.17.16l0,1.17a.17.17,0,0,0,.16.17l.54.16h0a6.88,6.88,0,0,0,.44,2l0,0-.38.72a.29.29,0,0,0,0,.29l.5.84c0,.06.12,0,.19-.06l.47-.52,0,0a2.79,2.79,0,0,0,.88.71v1c0,.14,0,.26.08.27l.73.12c.06,0,.11-.1.12-.24l.16-.9v-.07a2.38,2.38,0,0,0,1.23-.56l0,.05.44.68c0,.11.13.15.18.09l.57-.75a.34.34,0,0,0,0-.29l-.3-.82,0-.07a6.29,6.29,0,0,0,.62-1.76h0l.61,0a.15.15,0,0,0,.17-.14Zm-4.06,2.57c-.9-.22-1.5-1.57-1.35-3s1-2.41,1.92-2.18,1.5,1.57,1.34,3S1201.05,169.56,1200.16,169.33Z"/>
          <path class="cls-14" d="M1217.09,160.36a.32.32,0,0,0-.27-.33l-1-.4-.08,0a12.71,12.71,0,0,0-.64-3.53l.06-.1.76-1.29a.57.57,0,0,0,.1-.53l-.87-1.6c-.06-.12-.22-.08-.34.08l-.89.89-.08.08a5.09,5.09,0,0,0-2.07-1.74v-.13l0-1.69c0-.26-.06-.47-.16-.48l-1.34-.11c-.1,0-.19.19-.2.44l-.23,1.58,0,.13a4.38,4.38,0,0,0-2.28,1.2l-.06-.09-.77-1.09c-.1-.19-.25-.25-.33-.14l-1,1.44a.61.61,0,0,0,0,.55l.54,1.32,0,.11a11.5,11.5,0,0,0-1.07,3.43l-.09,0-1,.12a.29.29,0,0,0-.3.28l-.06,2.13a.3.3,0,0,0,.28.31l1,.3.08,0a12.16,12.16,0,0,0,.8,3.54l-.06.11-.7,1.3a.59.59,0,0,0-.08.53l.91,1.53c.08.12.23.07.34-.11l.87-.95.07-.08a5,5,0,0,0,1.6,1.29v.13l0,1.74c0,.26,0,.48.15.49l1.33.22c.1,0,.2-.17.22-.43l.29-1.65,0-.13a4.12,4.12,0,0,0,2.24-1l.06.1.79,1.24c.1.2.25.27.33.17l1-1.36a.61.61,0,0,0,0-.55l-.54-1.49,0-.12a10.94,10.94,0,0,0,1.13-3.21h.09l1.12,0a.28.28,0,0,0,.31-.26Zm-7.4,4.68c-1.64-.41-2.74-2.87-2.45-5.48s1.85-4.4,3.48-4,2.74,2.86,2.45,5.48-1.85,4.39-3.48,4"/>
          <path class="cls-20" d="M1217.09,160.36a.32.32,0,0,0-.27-.33l-1-.4-.08,0a12.71,12.71,0,0,0-.64-3.53l.06-.1.76-1.29a.57.57,0,0,0,.1-.53l-.87-1.6c-.06-.12-.22-.08-.34.08l-.89.89-.08.08a5.09,5.09,0,0,0-2.07-1.74v-.13l0-1.69c0-.26-.06-.47-.16-.48l-1.34-.11c-.1,0-.19.19-.2.44l-.23,1.58,0,.13a4.38,4.38,0,0,0-2.28,1.2l-.06-.09-.77-1.09c-.1-.19-.25-.25-.33-.14l-1,1.44a.61.61,0,0,0,0,.55l.54,1.32,0,.11a11.5,11.5,0,0,0-1.07,3.43l-.09,0-1,.12a.29.29,0,0,0-.3.28l-.06,2.13a.3.3,0,0,0,.28.31l1,.3.08,0a12.16,12.16,0,0,0,.8,3.54l-.06.11-.7,1.3a.59.59,0,0,0-.08.53l.91,1.53c.08.12.23.07.34-.11l.87-.95.07-.08a5,5,0,0,0,1.6,1.29v.13l0,1.74c0,.26,0,.48.15.49l1.33.22c.1,0,.2-.17.22-.43l.29-1.65,0-.13a4.12,4.12,0,0,0,2.24-1l.06.1.79,1.24c.1.2.25.27.33.17l1-1.36a.61.61,0,0,0,0-.55l-.54-1.49,0-.12a10.94,10.94,0,0,0,1.13-3.21h.09l1.12,0a.28.28,0,0,0,.31-.26Zm-7.4,4.68c-1.64-.41-2.74-2.87-2.45-5.48s1.85-4.4,3.48-4,2.74,2.86,2.45,5.48S1211.32,165.45,1209.69,165Z"/>
          <path class="cls-19" d="M1192.74,334.84l31.78-13.4a.39.39,0,0,1,.26,0l32.18,13.4a.34.34,0,0,1,0,.63l-32,13.95a.32.32,0,0,1-.27,0l-32-14a.34.34,0,0,1,0-.62"/>
          <path class="cls-5" d="M1192.74,334.84l31.78-13.4a.39.39,0,0,1,.26,0l32.18,13.4a.34.34,0,0,1,0,.63l-32,13.95a.32.32,0,0,1-.27,0l-32-14A.34.34,0,0,1,1192.74,334.84Z"/>
          <path class="cls-19" d="M1191.62,338.41v31.4a.34.34,0,0,0,.19.3L1223,385.24a.35.35,0,0,0,.49-.31V351.72a.33.33,0,0,0-.21-.31l-31.17-13.31a.34.34,0,0,0-.47.31"/>
          <path class="cls-5" d="M1191.62,338.41v31.4a.34.34,0,0,0,.19.3L1223,385.24a.35.35,0,0,0,.49-.31V351.72a.33.33,0,0,0-.21-.31l-31.17-13.31A.34.34,0,0,0,1191.62,338.41Z"/>
          <path class="cls-19" d="M1226.23,351.28l31.47-13.18a.33.33,0,0,1,.47.31v31.46a.32.32,0,0,1-.19.3l-31.47,15.07a.34.34,0,0,1-.49-.31V351.6a.37.37,0,0,1,.21-.32"/>
          <path class="cls-5" d="M1226.23,351.28l31.47-13.18a.33.33,0,0,1,.47.31v31.46a.32.32,0,0,1-.19.3l-31.47,15.07a.34.34,0,0,1-.49-.31V351.6A.37.37,0,0,1,1226.23,351.28Z"/>
          <path class="cls-14" d="M1205.84,353.82a.24.24,0,0,0-.17-.27l-.71-.4-.06,0a9.71,9.71,0,0,0-.28-2.56l0-.06.59-.81a.38.38,0,0,0,.1-.36l-.53-1.23c0-.09-.16-.08-.25,0l-.67.52-.05,0a4.17,4.17,0,0,0-1.37-1.45v-.1l0-1.19c0-.17,0-.33-.1-.35l-.93-.23c-.07,0-.14.11-.16.28l-.23,1.08,0,.09a2.81,2.81,0,0,0-1.65.58l0-.07-.49-.85c-.06-.15-.16-.21-.22-.14l-.77.9a.42.42,0,0,0,0,.39l.31,1,0,.09a7.56,7.56,0,0,0-.91,2.29h-.06l-.73,0a.18.18,0,0,0-.22.17l-.14,1.48a.25.25,0,0,0,.19.26l.67.32.06,0a9.29,9.29,0,0,0,.39,2.58l0,.07-.55.83a.39.39,0,0,0-.08.36l.57,1.18c0,.09.15.08.24,0l.65-.57.05-.05a4.24,4.24,0,0,0,1.06,1.09v.09l-.1,1.22c0,.18,0,.34.09.36l.92.31c.07,0,.15-.1.17-.27l.28-1.13,0-.09a2.63,2.63,0,0,0,1.61-.45l0,.07.5,1c.06.15.16.21.22.15l.79-.84a.41.41,0,0,0,0-.38l-.31-1.11,0-.09a6.84,6.84,0,0,0,.94-2.13h.06l.79.1a.18.18,0,0,0,.23-.15Zm-5.39,2.42c-1.13-.47-1.78-2.33-1.47-4.13s1.5-2.87,2.63-2.39,1.78,2.33,1.46,4.13-1.5,2.87-2.62,2.39"/>
          <path class="cls-20" d="M1205.84,353.82a.24.24,0,0,0-.17-.27l-.71-.4-.06,0a9.71,9.71,0,0,0-.28-2.56l0-.06.59-.81a.38.38,0,0,0,.1-.36l-.53-1.23c0-.09-.16-.08-.25,0l-.67.52-.05,0a4.17,4.17,0,0,0-1.37-1.45v-.1l0-1.19c0-.17,0-.33-.1-.35l-.93-.23c-.07,0-.14.11-.16.28l-.23,1.08,0,.09a2.81,2.81,0,0,0-1.65.58l0-.07-.49-.85c-.06-.15-.16-.21-.22-.14l-.77.9a.42.42,0,0,0,0,.39l.31,1,0,.09a7.56,7.56,0,0,0-.91,2.29h-.06l-.73,0a.18.18,0,0,0-.22.17l-.14,1.48a.25.25,0,0,0,.19.26l.67.32.06,0a9.29,9.29,0,0,0,.39,2.58l0,.07-.55.83a.39.39,0,0,0-.08.36l.57,1.18c0,.09.15.08.24,0l.65-.57.05-.05a4.24,4.24,0,0,0,1.06,1.09v.09l-.1,1.22c0,.18,0,.34.09.36l.92.31c.07,0,.15-.1.17-.27l.28-1.13,0-.09a2.63,2.63,0,0,0,1.61-.45l0,.07.5,1c.06.15.16.21.22.15l.79-.84a.41.41,0,0,0,0-.38l-.31-1.11,0-.09a6.84,6.84,0,0,0,.94-2.13h.06l.79.1a.18.18,0,0,0,.23-.15Zm-5.39,2.42c-1.13-.47-1.78-2.33-1.47-4.13s1.5-2.87,2.63-2.39,1.78,2.33,1.46,4.13S1201.57,356.72,1200.45,356.24Z"/>
          <path class="cls-14" d="M1205.36,366.34a.18.18,0,0,0-.15-.18l-.58-.22h0a6.9,6.9,0,0,0-.35-1.94l0-.06.42-.7a.3.3,0,0,0,0-.29l-.47-.88c0-.07-.12-.05-.19,0l-.49.49,0,0a2.76,2.76,0,0,0-1.14-.95v-.08l0-.92c0-.14,0-.26-.09-.26l-.73-.06c-.06,0-.11.1-.12.24l-.12.86v.08a2.41,2.41,0,0,0-1.25.65l0-.05-.43-.59c0-.11-.14-.14-.18-.08l-.55.79a.37.37,0,0,0,0,.3l.3.72,0,.07a6.38,6.38,0,0,0-.58,1.88h-.05l-.57.06a.16.16,0,0,0-.16.16l0,1.17a.16.16,0,0,0,.15.17l.54.16h0a6.55,6.55,0,0,0,.43,1.95l0,.05-.38.72a.36.36,0,0,0,0,.29l.51.84c0,.06.12,0,.18-.06l.48-.52,0-.05a2.9,2.9,0,0,0,.88.71v1c0,.14,0,.26.08.27l.73.12c.06,0,.11-.1.12-.24l.16-.9,0-.07a2.35,2.35,0,0,0,1.22-.56l0,.05.43.68c.06.11.14.15.18.09l.57-.74a.3.3,0,0,0,0-.3l-.3-.82,0-.07a6,6,0,0,0,.62-1.76h0l.62,0a.16.16,0,0,0,.17-.14Zm-4.07,2.57c-.9-.22-1.5-1.57-1.34-3s1-2.41,1.91-2.18,1.5,1.57,1.34,3-1,2.42-1.91,2.19"/>
          <path class="cls-20" d="M1205.36,366.34a.18.18,0,0,0-.15-.18l-.58-.22h0a6.9,6.9,0,0,0-.35-1.94l0-.06.42-.7a.3.3,0,0,0,0-.29l-.47-.88c0-.07-.12-.05-.19,0l-.49.49,0,0a2.76,2.76,0,0,0-1.14-.95v-.08l0-.92c0-.14,0-.26-.09-.26l-.73-.06c-.06,0-.11.1-.12.24l-.12.86v.08a2.41,2.41,0,0,0-1.25.65l0-.05-.43-.59c0-.11-.14-.14-.18-.08l-.55.79a.37.37,0,0,0,0,.3l.3.72,0,.07a6.38,6.38,0,0,0-.58,1.88h-.05l-.57.06a.16.16,0,0,0-.16.16l0,1.17a.16.16,0,0,0,.15.17l.54.16h0a6.55,6.55,0,0,0,.43,1.95l0,.05-.38.72a.36.36,0,0,0,0,.29l.51.84c0,.06.12,0,.18-.06l.48-.52,0-.05a2.9,2.9,0,0,0,.88.71v1c0,.14,0,.26.08.27l.73.12c.06,0,.11-.1.12-.24l.16-.9,0-.07a2.35,2.35,0,0,0,1.22-.56l0,.05.43.68c.06.11.14.15.18.09l.57-.74a.3.3,0,0,0,0-.3l-.3-.82,0-.07a6,6,0,0,0,.62-1.76h0l.62,0a.16.16,0,0,0,.17-.14Zm-4.07,2.57c-.9-.22-1.5-1.57-1.34-3s1-2.41,1.91-2.18,1.5,1.57,1.34,3S1202.19,369.14,1201.29,368.91Z"/>
          <path class="cls-14" d="M1218.23,359.94a.32.32,0,0,0-.27-.33l-1-.4-.08,0a12.36,12.36,0,0,0-.64-3.53l.06-.1.76-1.29a.54.54,0,0,0,.1-.53l-.86-1.6c-.07-.12-.22-.08-.34.08l-.9.9-.07.07a5.22,5.22,0,0,0-2.07-1.74v-.13l0-1.69c0-.26-.06-.47-.17-.48l-1.33-.11c-.11,0-.2.19-.21.44l-.23,1.58,0,.13a4.35,4.35,0,0,0-2.27,1.2l-.07-.09-.76-1.09c-.11-.19-.26-.25-.34-.14l-1,1.44a.58.58,0,0,0,0,.55l.54,1.32,0,.11a11.48,11.48,0,0,0-1.07,3.44h-.08l-1,.12a.28.28,0,0,0-.29.29l-.06,2.12a.29.29,0,0,0,.28.31l1,.3.09,0a12.16,12.16,0,0,0,.79,3.54l-.06.11-.69,1.3a.57.57,0,0,0-.09.53l.92,1.53c.07.12.22.07.34-.11l.86-.95.07-.08a5.09,5.09,0,0,0,1.6,1.29v.13l0,1.74c0,.26.05.48.15.49l1.33.22c.1,0,.2-.17.22-.43l.29-1.65,0-.13a4.15,4.15,0,0,0,2.23-1l.06.09.79,1.25c.1.19.25.26.33.16l1-1.36a.6.6,0,0,0,0-.55l-.55-1.49,0-.12a11,11,0,0,0,1.14-3.21h.08l1.12,0a.28.28,0,0,0,.31-.26Zm-7.41,4.68c-1.64-.41-2.73-2.87-2.45-5.48s1.85-4.4,3.49-4,2.73,2.86,2.45,5.48-1.85,4.4-3.49,4"/>
          <path class="cls-20" d="M1218.23,359.94a.32.32,0,0,0-.27-.33l-1-.4-.08,0a12.36,12.36,0,0,0-.64-3.53l.06-.1.76-1.29a.54.54,0,0,0,.1-.53l-.86-1.6c-.07-.12-.22-.08-.34.08l-.9.9-.07.07a5.22,5.22,0,0,0-2.07-1.74v-.13l0-1.69c0-.26-.06-.47-.17-.48l-1.33-.11c-.11,0-.2.19-.21.44l-.23,1.58,0,.13a4.35,4.35,0,0,0-2.27,1.2l-.07-.09-.76-1.09c-.11-.19-.26-.25-.34-.14l-1,1.44a.58.58,0,0,0,0,.55l.54,1.32,0,.11a11.48,11.48,0,0,0-1.07,3.44h-.08l-1,.12a.28.28,0,0,0-.29.29l-.06,2.12a.29.29,0,0,0,.28.31l1,.3.09,0a12.16,12.16,0,0,0,.79,3.54l-.06.11-.69,1.3a.57.57,0,0,0-.09.53l.92,1.53c.07.12.22.07.34-.11l.86-.95.07-.08a5.09,5.09,0,0,0,1.6,1.29v.13l0,1.74c0,.26.05.48.15.49l1.33.22c.1,0,.2-.17.22-.43l.29-1.65,0-.13a4.15,4.15,0,0,0,2.23-1l.06.09.79,1.25c.1.19.25.26.33.16l1-1.36a.6.6,0,0,0,0-.55l-.55-1.49,0-.12a11,11,0,0,0,1.14-3.21h.08l1.12,0a.28.28,0,0,0,.31-.26Zm-7.41,4.68c-1.64-.41-2.73-2.87-2.45-5.48s1.85-4.4,3.49-4,2.73,2.86,2.45,5.48S1212.46,365,1210.82,364.62Z"/>
          <path class="cls-19" d="M1193.88,510.72l31.77-13.4a.39.39,0,0,1,.26,0l32.18,13.4a.34.34,0,0,1,0,.63l-32,13.95a.32.32,0,0,1-.27,0l-32-14a.34.34,0,0,1,0-.62"/>
          <path class="cls-5" d="M1193.88,510.72l31.77-13.4a.39.39,0,0,1,.26,0l32.18,13.4a.34.34,0,0,1,0,.63l-32,13.95a.32.32,0,0,1-.27,0l-32-14A.34.34,0,0,1,1193.88,510.72Z"/>
          <path class="cls-19" d="M1192.76,514.29v31.4a.32.32,0,0,0,.19.3l31.17,15.13a.34.34,0,0,0,.48-.31V527.6a.33.33,0,0,0-.2-.31L1193.23,514a.34.34,0,0,0-.47.31"/>
          <path class="cls-5" d="M1192.76,514.29v31.4a.32.32,0,0,0,.19.3l31.17,15.13a.34.34,0,0,0,.48-.31V527.6a.33.33,0,0,0-.2-.31L1193.23,514A.34.34,0,0,0,1192.76,514.29Z"/>
          <path class="cls-19" d="M1227.37,527.17,1258.84,514a.34.34,0,0,1,.47.31v31.46a.35.35,0,0,1-.2.31l-31.47,15.06a.34.34,0,0,1-.48-.3V527.48a.33.33,0,0,1,.21-.31"/>
          <path class="cls-5" d="M1227.37,527.17,1258.84,514a.34.34,0,0,1,.47.31v31.46a.35.35,0,0,1-.2.31l-31.47,15.06a.34.34,0,0,1-.48-.3V527.48A.33.33,0,0,1,1227.37,527.17Z"/>
          <path class="cls-14" d="M1207,529.7a.26.26,0,0,0-.18-.27l-.71-.4-.06,0a8.94,8.94,0,0,0-.28-2.56l0-.06.59-.81a.4.4,0,0,0,.09-.36L1206,524c0-.09-.15-.08-.24,0l-.67.52-.06.05a4.18,4.18,0,0,0-1.36-1.46V523l.05-1.18c0-.18,0-.34-.09-.36l-.93-.23c-.07,0-.15.11-.17.29l-.23,1.07,0,.09a2.8,2.8,0,0,0-1.64.58l0-.07-.49-.85c-.07-.15-.17-.2-.23-.14l-.76.9a.41.41,0,0,0,0,.39l.32,1,0,.08a7.55,7.55,0,0,0-.9,2.29h-.06l-.73,0a.19.19,0,0,0-.22.17l-.14,1.49a.25.25,0,0,0,.18.25l.68.32.06,0a8.92,8.92,0,0,0,.39,2.57l0,.07-.54.83a.41.41,0,0,0-.09.37l.57,1.17c0,.1.16.08.25,0l.65-.57,0,0a3.94,3.94,0,0,0,1.06,1.09v.1l-.09,1.22c0,.17,0,.33.08.36l.92.3c.07,0,.15-.1.17-.27l.28-1.12,0-.09a2.68,2.68,0,0,0,1.61-.46l0,.07.5,1c.06.15.16.22.22.15l.79-.84a.41.41,0,0,0,0-.38l-.31-1.11,0-.09a7.07,7.07,0,0,0,.94-2.13h.06l.79.1a.17.17,0,0,0,.22-.15Zm-5.4,2.43c-1.12-.48-1.78-2.33-1.46-4.13s1.49-2.88,2.62-2.4,1.78,2.33,1.46,4.13-1.49,2.87-2.62,2.4"/>
          <path class="cls-24" d="M1207,529.7a.26.26,0,0,0-.18-.27l-.71-.4-.06,0a8.94,8.94,0,0,0-.28-2.56l0-.06.59-.81a.4.4,0,0,0,.09-.36L1206,524c0-.09-.15-.08-.24,0l-.67.52-.06.05a4.18,4.18,0,0,0-1.36-1.46V523l.05-1.18c0-.18,0-.34-.09-.36l-.93-.23c-.07,0-.15.11-.17.29l-.23,1.07,0,.09a2.8,2.8,0,0,0-1.64.58l0-.07-.49-.85c-.07-.15-.17-.2-.23-.14l-.76.9a.41.41,0,0,0,0,.39l.32,1,0,.08a7.55,7.55,0,0,0-.9,2.29h-.06l-.73,0a.19.19,0,0,0-.22.17l-.14,1.49a.25.25,0,0,0,.18.25l.68.32.06,0a8.92,8.92,0,0,0,.39,2.57l0,.07-.54.83a.41.41,0,0,0-.09.37l.57,1.17c0,.1.16.08.25,0l.65-.57,0,0a3.94,3.94,0,0,0,1.06,1.09v.1l-.09,1.22c0,.17,0,.33.08.36l.92.3c.07,0,.15-.1.17-.27l.28-1.12,0-.09a2.68,2.68,0,0,0,1.61-.46l0,.07.5,1c.06.15.16.22.22.15l.79-.84a.41.41,0,0,0,0-.38l-.31-1.11,0-.09a7.07,7.07,0,0,0,.94-2.13h.06l.79.1a.17.17,0,0,0,.22-.15Zm-5.4,2.43c-1.12-.48-1.78-2.33-1.46-4.13s1.49-2.88,2.62-2.4,1.78,2.33,1.46,4.13S1202.71,532.6,1201.58,532.13Z"/>
          <path class="cls-14" d="M1206.49,542.23a.18.18,0,0,0-.15-.19l-.57-.22h0a7,7,0,0,0-.35-1.94l0-.06.42-.7a.33.33,0,0,0,.06-.29l-.48-.88c0-.07-.12-.05-.18,0l-.5.49,0,0a2.82,2.82,0,0,0-1.13-1v-.07l0-.93c0-.14,0-.26-.1-.26l-.73-.06s-.1.1-.11.24l-.13.86v.08a2.39,2.39,0,0,0-1.25.66l0-.05-.42-.6c-.06-.11-.14-.14-.18-.08l-.55.79a.33.33,0,0,0,0,.3l.29.72,0,.07a6.1,6.1,0,0,0-.59,1.88h0l-.56.07a.16.16,0,0,0-.17.15l0,1.17a.17.17,0,0,0,.15.17l.55.16,0,0a6.89,6.89,0,0,0,.44,1.94l0,.06-.39.71a.32.32,0,0,0,0,.29l.5.84c0,.07.12,0,.19-.06l.47-.52,0,0a2.68,2.68,0,0,0,.88.71v1c0,.14,0,.26.08.27l.73.12s.11-.1.12-.23l.16-.91V547a2.3,2.3,0,0,0,1.23-.56l0,.05.43.68c.06.11.14.15.18.09l.58-.74a.36.36,0,0,0,0-.3l-.3-.82,0-.06a6.17,6.17,0,0,0,.63-1.77h.05l.61,0a.15.15,0,0,0,.17-.14Zm-4.07,2.56c-.89-.22-1.5-1.57-1.34-3s1-2.42,1.91-2.19,1.5,1.57,1.35,3-1,2.41-1.92,2.18"/>
          <path class="cls-24" d="M1206.49,542.23a.18.18,0,0,0-.15-.19l-.57-.22h0a7,7,0,0,0-.35-1.94l0-.06.42-.7a.33.33,0,0,0,.06-.29l-.48-.88c0-.07-.12-.05-.18,0l-.5.49,0,0a2.82,2.82,0,0,0-1.13-1v-.07l0-.93c0-.14,0-.26-.1-.26l-.73-.06s-.1.1-.11.24l-.13.86v.08a2.39,2.39,0,0,0-1.25.66l0-.05-.42-.6c-.06-.11-.14-.14-.18-.08l-.55.79a.33.33,0,0,0,0,.3l.29.72,0,.07a6.1,6.1,0,0,0-.59,1.88h0l-.56.07a.16.16,0,0,0-.17.15l0,1.17a.17.17,0,0,0,.15.17l.55.16,0,0a6.89,6.89,0,0,0,.44,1.94l0,.06-.39.71a.32.32,0,0,0,0,.29l.5.84c0,.07.12,0,.19-.06l.47-.52,0,0a2.68,2.68,0,0,0,.88.71v1c0,.14,0,.26.08.27l.73.12s.11-.1.12-.23l.16-.91V547a2.3,2.3,0,0,0,1.23-.56l0,.05.43.68c.06.11.14.15.18.09l.58-.74a.36.36,0,0,0,0-.3l-.3-.82,0-.06a6.17,6.17,0,0,0,.63-1.77h.05l.61,0a.15.15,0,0,0,.17-.14Zm-4.07,2.56c-.89-.22-1.5-1.57-1.34-3s1-2.42,1.91-2.19,1.5,1.57,1.35,3S1203.32,545,1202.42,544.79Z"/>
          <path class="cls-14" d="M1219.36,535.83a.32.32,0,0,0-.27-.34l-1-.4-.09,0a12.71,12.71,0,0,0-.63-3.53l.06-.1.76-1.29a.58.58,0,0,0,.1-.52l-.87-1.61c-.06-.12-.22-.08-.34.08l-.9.9-.07.07a5.15,5.15,0,0,0-2.07-1.74v-.13l0-1.69c0-.25-.06-.47-.16-.48l-1.34-.11c-.1,0-.19.19-.21.45l-.22,1.57,0,.13a4.34,4.34,0,0,0-2.28,1.2l-.06-.09-.77-1.09c-.11-.19-.25-.25-.33-.14l-1,1.45a.59.59,0,0,0,0,.54l.54,1.32,0,.11a11.48,11.48,0,0,0-1.07,3.44h-.09l-1,.12a.29.29,0,0,0-.3.29l-.06,2.12a.29.29,0,0,0,.28.31l1,.3.08,0a12.64,12.64,0,0,0,.79,3.55l0,.1-.7,1.3a.56.56,0,0,0-.08.53l.91,1.53c.07.12.23.07.34-.11l.87-1,.07-.08a5,5,0,0,0,1.6,1.29V546c0,.25,0,.47.15.48l1.33.22c.1,0,.2-.17.22-.42l.29-1.65,0-.13a4.31,4.31,0,0,0,2.24-1l.06.09.79,1.25c.1.19.24.27.32.16l1-1.36a.61.61,0,0,0,0-.55l-.54-1.49-.05-.11a11.12,11.12,0,0,0,1.14-3.22h.09l1.12,0a.28.28,0,0,0,.31-.26Zm-7.41,4.68c-1.63-.42-2.73-2.87-2.44-5.48s1.85-4.4,3.48-4,2.74,2.87,2.45,5.48-1.85,4.4-3.49,4"/>
          <path class="cls-24" d="M1219.36,535.83a.32.32,0,0,0-.27-.34l-1-.4-.09,0a12.71,12.71,0,0,0-.63-3.53l.06-.1.76-1.29a.58.58,0,0,0,.1-.52l-.87-1.61c-.06-.12-.22-.08-.34.08l-.9.9-.07.07a5.15,5.15,0,0,0-2.07-1.74v-.13l0-1.69c0-.25-.06-.47-.16-.48l-1.34-.11c-.1,0-.19.19-.21.45l-.22,1.57,0,.13a4.34,4.34,0,0,0-2.28,1.2l-.06-.09-.77-1.09c-.11-.19-.25-.25-.33-.14l-1,1.45a.59.59,0,0,0,0,.54l.54,1.32,0,.11a11.48,11.48,0,0,0-1.07,3.44h-.09l-1,.12a.29.29,0,0,0-.3.29l-.06,2.12a.29.29,0,0,0,.28.31l1,.3.08,0a12.64,12.64,0,0,0,.79,3.55l0,.1-.7,1.3a.56.56,0,0,0-.08.53l.91,1.53c.07.12.23.07.34-.11l.87-1,.07-.08a5,5,0,0,0,1.6,1.29V546c0,.25,0,.47.15.48l1.33.22c.1,0,.2-.17.22-.42l.29-1.65,0-.13a4.31,4.31,0,0,0,2.24-1l.06.09.79,1.25c.1.19.24.27.32.16l1-1.36a.61.61,0,0,0,0-.55l-.54-1.49-.05-.11a11.12,11.12,0,0,0,1.14-3.22h.09l1.12,0a.28.28,0,0,0,.31-.26Zm-7.41,4.68c-1.63-.42-2.73-2.87-2.44-5.48s1.85-4.4,3.48-4,2.74,2.87,2.45,5.48S1213.59,540.92,1212,540.51Z"/>
          <path class="cls-4" d="M1389.87,502.57h-44.31a.45.45,0,0,1-.45-.45V444.26a.45.45,0,0,1,.45-.45h44.31a.46.46,0,0,1,.46.45v57.86a.46.46,0,0,1-.46.45"/>
          <rect class="cls-5" x="1345.11" y="443.81" width="45.22" height="58.76" rx="0.45"/>
          <line class="cls-5" x1="1351.73" y1="454.47" x2="1383.45" y2="454.47"/>
          <line class="cls-5" x1="1351.73" y1="463.97" x2="1383.45" y2="463.97"/>
          <line class="cls-5" x1="1351.73" y1="473.48" x2="1383.45" y2="473.48"/>
          <line class="cls-5" x1="1351.73" y1="482.98" x2="1383.45" y2="482.98"/>
          <line class="cls-5" x1="1351.73" y1="492.49" x2="1383.45" y2="492.49"/>
          <path class="cls-4" d="M1390,381.81h-44.31a.46.46,0,0,1-.46-.45V323.51a.47.47,0,0,1,.46-.46H1390a.47.47,0,0,1,.46.46v57.85a.46.46,0,0,1-.46.45"/>
          <rect class="cls-5" x="1345.23" y="323.05" width="45.22" height="58.76" rx="0.45"/>
          <line class="cls-5" x1="1351.86" y1="333.71" x2="1383.57" y2="333.71"/>
          <line class="cls-5" x1="1351.86" y1="343.22" x2="1383.57" y2="343.22"/>
          <line class="cls-5" x1="1351.86" y1="352.72" x2="1383.57" y2="352.72"/>
          <line class="cls-5" x1="1351.86" y1="362.23" x2="1383.57" y2="362.23"/>
          <line class="cls-5" x1="1351.86" y1="371.73" x2="1383.57" y2="371.73"/>
          <path class="cls-4" d="M1389.87,262.07h-44.31a.46.46,0,0,1-.45-.46V203.76a.45.45,0,0,1,.45-.45h44.31a.46.46,0,0,1,.46.45v57.85a.47.47,0,0,1-.46.46"/>
          <rect class="cls-5" x="1345.11" y="203.31" width="45.22" height="58.76" rx="0.45"/>
          <line class="cls-5" x1="1351.73" y1="213.96" x2="1383.45" y2="213.96"/>
          <line class="cls-5" x1="1351.73" y1="223.47" x2="1383.45" y2="223.47"/>
          <line class="cls-5" x1="1351.73" y1="232.97" x2="1383.45" y2="232.97"/>
          <line class="cls-5" x1="1351.73" y1="242.48" x2="1383.45" y2="242.48"/>
          <line class="cls-5" x1="1351.73" y1="251.99" x2="1383.45" y2="251.99"/>
          <line class="cls-16" x1="1694.79" y1="491.25" x2="1691.89" y2="489.75"/>
          <line class="cls-25" x1="1686.31" y1="486.85" x2="1566.24" y2="424.47"/>
          <line class="cls-16" x1="1563.45" y1="423.02" x2="1560.55" y2="421.52"/>
          <path class="cls-18" d="M1702.09,495.05a41.46,41.46,0,0,1-7.35-11.12l-.9,6.83-5.07,4.67a40.9,40.9,0,0,1,13.32-.38"/>
          <line class="cls-16" x1="1754.63" y1="393.41" x2="1754.63" y2="396.67"/>
          <line class="cls-26" x1="1754.63" y1="403.64" x2="1754.63" y2="483.69"/>
          <line class="cls-16" x1="1754.63" y1="487.17" x2="1754.63" y2="490.44"/>
          <path class="cls-18" d="M1754.63,385.18a41.47,41.47,0,0,1-6.48,11.65l6.48-2.35,6.48,2.35a41,41,0,0,1-6.48-11.65"/>
        </g>
      </g>
    </g>
    <rect class="cls-27" x="940.86" y="30.71" width="868.96" height="609.78"/>
  </g>
  <g>
    <g class="cls-28">
      <g class="cls-28">
        <g class="cls-29">
          <path class="cls-4" d="M92,144.82H47.7a.45.45,0,0,1-.45-.45V86.58a.46.46,0,0,1,.45-.46H92a.46.46,0,0,1,.46.46v57.79a.45.45,0,0,1-.46.45"/>
          <rect class="cls-5" x="47.25" y="86.12" width="45.17" height="58.7" rx="0.45"/>
          <line class="cls-5" x1="53.86" y1="96.77" x2="85.54" y2="96.77"/>
          <line class="cls-5" x1="53.86" y1="106.27" x2="85.54" y2="106.27"/>
          <line class="cls-5" x1="53.86" y1="115.76" x2="85.54" y2="115.76"/>
          <line class="cls-5" x1="53.86" y1="125.25" x2="85.54" y2="125.25"/>
          <line class="cls-5" x1="53.86" y1="134.75" x2="85.54" y2="134.75"/>
          <path class="cls-6" d="M95.15,130.36A17.19,17.19,0,1,1,78,113.17a17.18,17.18,0,0,1,17.19,17.19"/>
          <circle class="cls-5" cx="77.96" cy="130.36" r="17.19"/>
          <path class="cls-5" d="M68.08,127.13v13.3H87.84v-13.3H68.08Zm11.31,9.79H76.54l.74-2.79a1.81,1.81,0,1,1,1.36,0Z"/>
          <path class="cls-5" d="M72.53,127.13l0-1.23c0-3.61,1.14-6.84,5.32-6.84,4,0,5.5,3,5.5,6.46l0,1.61"/>
          <path class="cls-5" d="M70.27,127.23v-1.71c.06-6,3.1-8.74,7.56-8.74s7.94,2.65,8,8.17v2.28"/>
          <path class="cls-4" d="M92,382.69H47.7a.45.45,0,0,1-.45-.45V324.45a.45.45,0,0,1,.45-.45H92a.45.45,0,0,1,.46.45v57.79a.45.45,0,0,1-.46.45"/>
          <rect class="cls-5" x="47.25" y="324" width="45.17" height="58.69" rx="0.45"/>
          <line class="cls-5" x1="53.86" y1="334.64" x2="85.54" y2="334.64"/>
          <line class="cls-5" x1="53.86" y1="344.14" x2="85.54" y2="344.14"/>
          <line class="cls-5" x1="53.86" y1="353.63" x2="85.54" y2="353.63"/>
          <line class="cls-5" x1="53.86" y1="363.13" x2="85.54" y2="363.13"/>
          <line class="cls-5" x1="53.86" y1="372.62" x2="85.54" y2="372.62"/>
          <path class="cls-6" d="M95.15,368.23A17.19,17.19,0,1,1,78,351a17.18,17.18,0,0,1,17.19,17.19"/>
          <circle class="cls-5" cx="77.96" cy="368.23" r="17.19"/>
          <path class="cls-5" d="M68.08,365v13.3H87.84V365H68.08Zm11.31,9.79H76.54l.74-2.79a1.81,1.81,0,1,1,1.36,0Z"/>
          <path class="cls-5" d="M72.53,365l0-1.23c0-3.61,1.14-6.84,5.32-6.84,4,0,5.5,3,5.5,6.46l0,1.61"/>
          <path class="cls-5" d="M70.27,365.1v-1.71c.06-6,3.1-8.74,7.56-8.74s7.94,2.65,8,8.17v2.28"/>
          <path class="cls-4" d="M92,582.43H47.7a.46.46,0,0,1-.45-.46V524.19a.46.46,0,0,1,.45-.46H92a.46.46,0,0,1,.46.46V582a.46.46,0,0,1-.46.46"/>
          <rect class="cls-5" x="47.25" y="523.73" width="45.17" height="58.7" rx="0.45"/>
          <line class="cls-5" x1="53.86" y1="534.38" x2="85.54" y2="534.38"/>
          <line class="cls-5" x1="53.86" y1="543.87" x2="85.54" y2="543.87"/>
          <line class="cls-5" x1="53.86" y1="553.37" x2="85.54" y2="553.37"/>
          <line class="cls-5" x1="53.86" y1="562.86" x2="85.54" y2="562.86"/>
          <line class="cls-5" x1="53.86" y1="572.36" x2="85.54" y2="572.36"/>
          <path class="cls-6" d="M95.15,568A17.19,17.19,0,1,1,78,550.78,17.19,17.19,0,0,1,95.15,568"/>
          <circle class="cls-5" cx="77.96" cy="567.97" r="17.19"/>
          <path class="cls-5" d="M68.08,564.74V578H87.84v-13.3H68.08Zm11.31,9.78H76.54l.74-2.79a1.81,1.81,0,1,1,1.36,0Z"/>
          <path class="cls-5" d="M72.53,564.74l0-1.23c0-3.61,1.14-6.84,5.32-6.84,4,0,5.5,3,5.5,6.46l0,1.61"/>
          <path class="cls-5" d="M70.27,564.83v-1.7c.06-6,3.1-8.74,7.56-8.74s7.94,2.64,8,8.17v2.27"/>
          <polyline class="cls-5" points="207.6 60.27 217.38 60.27 217.38 164.12 160.49 164.12 160.49 60.27 169.69 60.27"/>
          <path d="M252.48,161.59h-34V74.76h34Zm1.37-88.19H217.09V163h36.76Z"/>
          <polyline class="cls-5" points="234.88 92.07 234.88 101.99 234.88 111.91"/>
          <polyline class="cls-5" points="224.97 101.99 234.88 101.99 244.8 101.99"/>
          <path d="M243.44,93.43v17.11H226.33V93.43Zm1.36-1.36H225V111.9H244.8Z"/>
          <polyline class="cls-5" points="234.88 124.45 234.88 134.37 234.88 144.29"/>
          <polyline class="cls-5" points="224.97 134.37 234.88 134.37 244.8 134.37"/>
          <path d="M243.44,125.81v17.11H226.33V125.81Zm1.36-1.36H225v19.84H244.8Z"/>
          <path d="M159.42,161.89h-34V75.05h34Zm1.36-88.2H124v89.56h36.75Z"/>
          <polyline class="cls-5" points="141.82 92.36 141.82 102.28 141.82 112.2"/>
          <polyline class="cls-5" points="131.9 102.28 141.82 102.28 151.74 102.28"/>
          <path d="M150.38,93.72v17.11H133.27V93.72Zm1.36-1.36H131.9V112.2h19.84Z"/>
          <polyline class="cls-5" points="141.82 124.74 141.82 134.66 141.82 144.58"/>
          <polyline class="cls-5" points="131.9 134.66 141.82 134.66 151.74 134.66"/>
          <path d="M150.38,126.1v17.12H133.27V126.1Zm1.36-1.36H131.9v19.84h19.84Z"/>
          <rect class="cls-5" x="169.68" y="89" width="37.34" height="14"/>
          <rect class="cls-5" x="169.68" y="110.01" width="37.34" height="14"/>
          <rect class="cls-5" x="169.68" y="130.72" width="37.34" height="33.26"/>
          <line class="cls-5" x1="188.62" y1="130.72" x2="188.38" y2="163.98"/>
          <path class="cls-5" d="M207.61,60.41a19,19,0,1,1-19-19A19,19,0,0,1,207.61,60.41Z"/>
          <polygon class="cls-5" points="198.27 57.5 198.27 64.79 192.15 64.79 192.15 70.63 184.85 70.63 184.85 64.79 179.31 64.79 179.31 57.5 184.85 57.5 184.85 51.66 192.15 51.66 192.15 57.5 198.27 57.5"/>
          <g class="cls-7">
            <g class="cls-30">
              <path d="M202.9,193.59H170a8,8,0,0,1-7.95-8v-3.17a8,8,0,0,1,7.95-7.95H202.9a7.94,7.94,0,0,1,7.94,7.95v3.17a7.94,7.94,0,0,1-7.94,8"/>
            </g>
          </g>
        </g>
        <text class="cls-9" transform="translate(169.72 188.22)">Site<tspan class="cls-10" x="22.53" y="0"> </tspan><tspan x="25.46" y="0">A</tspan></text>
        <g class="cls-29">
          <rect class="cls-5" x="124.4" y="321.07" width="130.33" height="48.92"/>
          <rect class="cls-5" x="118.03" y="369.98" width="143.06" height="17.09"/>
          <rect class="cls-5" x="157.57" y="281.53" width="62.99" height="39.53"/>
          <rect class="cls-5" x="177" y="351.89" width="23.79" height="18.09"/>
          <rect class="cls-5" x="131.1" y="353.56" width="26.47" height="8.71"/>
          <rect class="cls-5" x="132.78" y="327.43" width="23.28" height="13.4"/>
          <rect class="cls-5" x="162.59" y="327.43" width="23.28" height="13.4"/>
          <rect class="cls-5" x="192.08" y="327.43" width="23.28" height="13.4"/>
          <rect class="cls-5" x="222.23" y="327.43" width="23.28" height="13.4"/>
          <rect class="cls-5" x="220.55" y="353.56" width="26.47" height="8.71"/>
          <path class="cls-5" d="M190.87,297.78h-3.28a3.72,3.72,0,0,0-3.72,3.72v5h10.72v-5A3.73,3.73,0,0,0,190.87,297.78Z"/>
          <path class="cls-5" d="M208,297.78h-3.28A3.72,3.72,0,0,0,201,301.5v5h10.72v-5A3.73,3.73,0,0,0,208,297.78Z"/>
          <path class="cls-5" d="M174.12,297.78h-3.28a3.72,3.72,0,0,0-3.72,3.72v5h10.72v-5A3.73,3.73,0,0,0,174.12,297.78Z"/>
          <polygon class="cls-5" points="189.23 266.71 149.55 281.53 229.5 281.53 189.23 266.71"/>
          <line class="cls-5" x1="189.23" y1="252.86" x2="189.23" y2="266.71"/>
          <rect class="cls-5" x="189.23" y="252.89" width="9.72" height="6.03"/>
          <g class="cls-7">
            <g class="cls-31">
              <path d="M203,418.25H171.2a7.94,7.94,0,0,1-7.95-7.94v-3.17a8,8,0,0,1,7.95-7.95H203a8,8,0,0,1,8,7.95v3.17a7.94,7.94,0,0,1-8,7.94"/>
            </g>
          </g>
        </g>
        <text class="cls-9" transform="translate(169.72 413.03)">Site B</text>
        <g class="cls-29">
          <polyline class="cls-5" points="207.6 496.48 217.38 496.48 217.38 600.34 160.49 600.34 160.49 496.48 169.69 496.48"/>
          <path d="M252.48,597.81h-34V511h34Zm1.37-88.2H217.09v89.56h36.76Z"/>
          <polyline class="cls-5" points="234.88 528.28 234.88 538.2 234.88 548.12"/>
          <polyline class="cls-5" points="224.97 538.2 234.88 538.2 244.8 538.2"/>
          <path d="M243.44,529.64v17.12H226.33V529.64Zm1.36-1.36H225v19.84H244.8Z"/>
          <polyline class="cls-5" points="234.88 560.66 234.88 570.58 234.88 580.5"/>
          <polyline class="cls-5" points="224.97 570.58 234.88 570.58 244.8 570.58"/>
          <path d="M243.44,562v17.11H226.33V562Zm1.36-1.37H225V580.5H244.8Z"/>
          <path d="M159.42,598.1h-34V511.26h34Zm1.36-88.2H124v89.56h36.75Z"/>
          <polyline class="cls-5" points="141.82 528.57 141.82 538.49 141.82 548.41"/>
          <polyline class="cls-5" points="131.9 538.49 141.82 538.49 151.74 538.49"/>
          <path d="M150.38,529.94v17.11H133.27V529.94Zm1.36-1.37H131.9v19.84h19.84Z"/>
          <polyline class="cls-5" points="141.82 560.95 141.82 570.87 141.82 580.79"/>
          <polyline class="cls-5" points="131.9 570.87 141.82 570.87 151.74 570.87"/>
          <path d="M150.38,562.32v17.11H133.27V562.32Zm1.36-1.37H131.9v19.84h19.84Z"/>
          <rect class="cls-5" x="169.68" y="525.22" width="37.34" height="14"/>
          <rect class="cls-5" x="169.68" y="546.22" width="37.34" height="14"/>
          <rect class="cls-5" x="169.68" y="566.93" width="37.34" height="33.26"/>
          <line class="cls-5" x1="188.62" y1="566.93" x2="188.38" y2="600.19"/>
          <path class="cls-5" d="M207.61,496.63a19,19,0,1,1-19-19A19,19,0,0,1,207.61,496.63Z"/>
          <polygon class="cls-5" points="198.27 493.71 198.27 501 192.15 501 192.15 506.84 184.85 506.84 184.85 501 179.31 501 179.31 493.71 184.85 493.71 184.85 487.88 192.15 487.88 192.15 493.71 198.27 493.71"/>
          <g class="cls-7">
            <g class="cls-32">
              <path d="M202.89,629.76h-30.6a8,8,0,0,1-7.95-8v-3.17a8,8,0,0,1,7.95-7.95h30.6a8,8,0,0,1,8,7.95v3.17a8,8,0,0,1-8,8"/>
            </g>
          </g>
        </g>
        <text class="cls-9" transform="translate(169.72 624.53)">Site C</text>
        <g class="cls-29">
          <rect class="cls-5" x="549.14" y="281.32" width="102.69" height="151.13"/>
          <polyline class="cls-5" points="569.58 298.03 569.58 307.95 569.58 317.87"/>
          <polyline class="cls-5" points="559.66 307.95 569.58 307.95 579.5 307.95"/>
          <path d="M578.14,299.39v17.12H561V299.39ZM579.5,298H559.66v19.84H579.5Z"/>
          <polyline class="cls-5" points="630.94 298.03 630.94 307.95 630.94 317.87"/>
          <polyline class="cls-5" points="621.02 307.95 630.94 307.95 640.86 307.95"/>
          <path d="M639.49,299.39v17.12H622.38V299.39Zm1.37-1.36H621v19.84h19.84Z"/>
          <polyline class="cls-5" points="599.93 298.03 599.93 307.95 599.93 317.87"/>
          <polyline class="cls-5" points="590.02 307.95 599.93 307.95 609.85 307.95"/>
          <path d="M608.49,299.39v17.12H591.38V299.39Zm1.36-1.36H590v19.84h19.83Z"/>
          <polyline class="cls-5" points="569.58 332.91 569.58 342.83 569.58 352.75"/>
          <polyline class="cls-5" points="559.66 342.83 569.58 342.83 579.5 342.83"/>
          <path d="M578.14,334.27v17.11H561V334.27Zm1.36-1.36H559.66v19.84H579.5Z"/>
          <polyline class="cls-5" points="630.94 332.91 630.94 342.83 630.94 352.75"/>
          <polyline class="cls-5" points="621.02 342.83 630.94 342.83 640.86 342.83"/>
          <path d="M639.49,334.27v17.11H622.38V334.27Zm1.37-1.36H621v19.84h19.84Z"/>
          <polyline class="cls-5" points="599.93 332.91 599.93 342.83 599.93 352.75"/>
          <polyline class="cls-5" points="590.02 342.83 599.93 342.83 609.85 342.83"/>
          <path d="M608.49,334.27v17.11H591.38V334.27Zm1.36-1.36H590v19.84h19.83Z"/>
          <polyline class="cls-5" points="569.58 366.49 569.58 376.41 569.58 386.33"/>
          <polyline class="cls-5" points="559.66 376.41 569.58 376.41 579.5 376.41"/>
          <path d="M578.14,367.86V385H561V367.86Zm1.36-1.37H559.66v19.84H579.5Z"/>
          <polyline class="cls-5" points="630.94 366.49 630.94 376.41 630.94 386.33"/>
          <polyline class="cls-5" points="621.02 376.41 630.94 376.41 640.86 376.41"/>
          <path d="M639.49,367.86V385H622.38V367.86Zm1.37-1.37H621v19.84h19.84Z"/>
          <polyline class="cls-5" points="599.93 366.49 599.93 376.41 599.93 386.33"/>
          <polyline class="cls-5" points="590.02 376.41 599.93 376.41 609.85 376.41"/>
          <path d="M608.49,367.86V385H591.38V367.86Zm1.36-1.37H590v19.84h19.83Z"/>
          <rect class="cls-5" x="581.34" y="399" width="37.34" height="33.26"/>
          <line class="cls-5" x1="600.27" y1="399" x2="600.03" y2="432.26"/>
          <g class="cls-7">
            <g class="cls-33">
              <path d="M612.78,461H587.46a7.94,7.94,0,0,1-7.94-7.95v-3.17a7.94,7.94,0,0,1,7.94-7.95h25.32a8,8,0,0,1,8,7.95V453a8,8,0,0,1-8,7.95"/>
            </g>
          </g>
        </g>
        <text class="cls-9" transform="translate(586.53 456.26)">DAC</text>
        <g class="cls-29">
          <path class="cls-4" d="M885.72,381.05a.31.31,0,0,1-.3.31H852.7a.3.3,0,0,1-.3-.31V321.51a.29.29,0,0,1,.3-.3h32.72a.3.3,0,0,1,.3.3Z"/>
          <path class="cls-5" d="M885.72,381.05a.31.31,0,0,1-.3.31H852.7a.3.3,0,0,1-.3-.31V321.51a.29.29,0,0,1,.3-.3h32.72a.3.3,0,0,1,.3.3Z"/>
          <line class="cls-4" x1="854.17" y1="385.48" x2="854.24" y2="381.36"/>
          <line class="cls-5" x1="854.17" y1="385.48" x2="854.24" y2="381.36"/>
          <line class="cls-5" x1="884.04" y1="381.36" x2="884.04" y2="385.48"/>
          <line class="cls-5" x1="859.18" y1="331.23" x2="879.93" y2="331.23"/>
          <line class="cls-5" x1="859.18" y1="337.42" x2="879.93" y2="337.42"/>
          <line class="cls-5" x1="859.18" y1="343.61" x2="879.93" y2="343.61"/>
          <path class="cls-4" d="M872.74,366.91a3.24,3.24,0,1,1-3.24-3.25,3.24,3.24,0,0,1,3.24,3.25"/>
          <circle class="cls-5" cx="869.5" cy="366.91" r="3.24"/>
          <path class="cls-4" d="M860.49,376.05H803.33a.46.46,0,0,1-.46-.47V340a.45.45,0,0,1,.46-.46h57.16a.46.46,0,0,1,.46.46v35.63a.47.47,0,0,1-.46.47"/>
          <rect class="cls-5" x="802.87" y="339.49" width="58.08" height="36.56" rx="0.46"/>
          <path class="cls-4" d="M836.31,384h-9.39a.47.47,0,0,1-.47-.47v-7a.47.47,0,0,1,.47-.46h9.39a.46.46,0,0,1,.46.46v7a.46.46,0,0,1-.46.47"/>
          <rect class="cls-5" x="826.45" y="376.05" width="10.32" height="7.96" rx="0.46"/>
          <line class="cls-5" x1="819.17" y1="384.01" x2="844" y2="384.01"/>
          <line class="cls-5" x1="802.87" y1="369.02" x2="860.95" y2="369.02"/>
          <path class="cls-14" d="M829,358.41c0,.09-.09.19-.24.22l-1,.33-.08,0a5.2,5.2,0,0,1-.44,2.15l.06.06.77.69c.13.09.18.23.12.31l-.74,1c-.06.08-.21.07-.33,0l-.88-.45-.07,0a5.29,5.29,0,0,1-1.88,1.21V364l0,1c0,.15,0,.29-.14.3l-1.25.18c-.1,0-.19-.09-.22-.24l-.28-.92,0-.07a5.26,5.26,0,0,1-2.2-.51l-.06.05-.67.72c-.1.12-.23.17-.31.11l-1-.77c-.08-.06-.06-.21,0-.33l.45-.83,0-.07a5.18,5.18,0,0,1-1.17-1.94h-.08l-1,0c-.15,0-.28-.05-.29-.15L816,359.3c0-.1.11-.19.26-.21l.91-.26.08,0a5.28,5.28,0,0,1,.59-2.17l-.06-.05-.71-.71c-.12-.1-.17-.24-.11-.31l.8-1c.06-.08.2-.06.32,0l.86.49.07,0a4.94,4.94,0,0,1,1.45-.91v-.08l-.09-1c0-.15,0-.28.12-.3l1.24-.25c.09,0,.2.09.23.24l.35.95,0,.07a5.38,5.38,0,0,1,2.15.41l.06-.06.69-.8c.08-.13.22-.19.3-.13l1,.72c.08,0,.08.2,0,.32l-.44.94,0,.07a5.17,5.17,0,0,1,1.22,1.81h.08l1.06-.07c.15,0,.28,0,.3.13Zm-7.19-2.13a2.85,2.85,0,1,0,3.47,2.06,2.85,2.85,0,0,0-3.47-2.06"/>
          <path class="cls-15" d="M829,358.41c0,.09-.09.19-.24.22l-1,.33-.08,0a5.2,5.2,0,0,1-.44,2.15l.06.06.77.69c.13.09.18.23.12.31l-.74,1c-.06.08-.21.07-.33,0l-.88-.45-.07,0a5.29,5.29,0,0,1-1.88,1.21V364l0,1c0,.15,0,.29-.14.3l-1.25.18c-.1,0-.19-.09-.22-.24l-.28-.92,0-.07a5.26,5.26,0,0,1-2.2-.51l-.06.05-.67.72c-.1.12-.23.17-.31.11l-1-.77c-.08-.06-.06-.21,0-.33l.45-.83,0-.07a5.18,5.18,0,0,1-1.17-1.94h-.08l-1,0c-.15,0-.28-.05-.29-.15L816,359.3c0-.1.11-.19.26-.21l.91-.26.08,0a5.28,5.28,0,0,1,.59-2.17l-.06-.05-.71-.71c-.12-.1-.17-.24-.11-.31l.8-1c.06-.08.2-.06.32,0l.86.49.07,0a4.94,4.94,0,0,1,1.45-.91v-.08l-.09-1c0-.15,0-.28.12-.3l1.24-.25c.09,0,.2.09.23.24l.35.95,0,.07a5.38,5.38,0,0,1,2.15.41l.06-.06.69-.8c.08-.13.22-.19.3-.13l1,.72c.08,0,.08.2,0,.32l-.44.94,0,.07a5.17,5.17,0,0,1,1.22,1.81h.08l1.06-.07c.15,0,.28,0,.3.13Zm-7.19-2.13a2.85,2.85,0,1,0,3.47,2.06A2.85,2.85,0,0,0,821.79,356.28Z"/>
          <path class="cls-14" d="M828.62,347.82c0,.08-.09.15-.2.16l-.78.17-.06,0a4,4,0,0,1-.51,1.63l0,.05.54.6c.09.08.12.18.07.24l-.66.74c0,.05-.16,0-.25,0l-.65-.42,0,0a3.93,3.93,0,0,1-1.55.79v.06l0,.78c0,.12-.06.22-.13.22l-1,0c-.07,0-.14-.09-.14-.2l-.15-.73v-.07a3.91,3.91,0,0,1-1.67-.57l0,0-.58.5a.19.19,0,0,1-.25.06l-.72-.67a.21.21,0,0,1,0-.26l.41-.6,0-.05a4,4,0,0,1-.75-1.6h-.06l-.76-.07c-.12,0-.21,0-.22-.13v-1c0-.07.09-.14.21-.14l.73-.13h.06a4.05,4.05,0,0,1,.63-1.63l0-.05-.5-.61a.2.2,0,0,1,0-.25l.69-.7a.19.19,0,0,1,.25.06l.63.45.05,0a4.11,4.11,0,0,1,1.19-.58V343c0-.12.05-.22.12-.23l1-.09c.08,0,.15.09.16.2l.19.77,0,.06a4.13,4.13,0,0,1,1.63.49l0,0,.6-.57c.07-.09.18-.13.24-.08l.75.64c.06.05,0,.17,0,.26l-.42.68,0,.06a3.93,3.93,0,0,1,.79,1.5h.06l.83,0c.12,0,.22,0,.23.12Zm-5.4-2.22a2.22,2.22,0,1,0,2.52,1.87,2.21,2.21,0,0,0-2.52-1.87"/>
          <path class="cls-15" d="M828.62,347.82c0,.08-.09.15-.2.16l-.78.17-.06,0a4,4,0,0,1-.51,1.63l0,.05.54.6c.09.08.12.18.07.24l-.66.74c0,.05-.16,0-.25,0l-.65-.42,0,0a3.93,3.93,0,0,1-1.55.79v.06l0,.78c0,.12-.06.22-.13.22l-1,0c-.07,0-.14-.09-.14-.2l-.15-.73v-.07a3.91,3.91,0,0,1-1.67-.57l0,0-.58.5a.19.19,0,0,1-.25.06l-.72-.67a.21.21,0,0,1,0-.26l.41-.6,0-.05a4,4,0,0,1-.75-1.6h-.06l-.76-.07c-.12,0-.21,0-.22-.13v-1c0-.07.09-.14.21-.14l.73-.13h.06a4.05,4.05,0,0,1,.63-1.63l0-.05-.5-.61a.2.2,0,0,1,0-.25l.69-.7a.19.19,0,0,1,.25.06l.63.45.05,0a4.11,4.11,0,0,1,1.19-.58V343c0-.12.05-.22.12-.23l1-.09c.08,0,.15.09.16.2l.19.77,0,.06a4.13,4.13,0,0,1,1.63.49l0,0,.6-.57c.07-.09.18-.13.24-.08l.75.64c.06.05,0,.17,0,.26l-.42.68,0,.06a3.93,3.93,0,0,1,.79,1.5h.06l.83,0c.12,0,.22,0,.23.12Zm-5.4-2.22a2.22,2.22,0,1,0,2.52,1.87A2.21,2.21,0,0,0,823.22,345.6Z"/>
          <path class="cls-14" d="M845.76,353.42c0,.14-.15.26-.37.27L844,354l-.11,0a7.45,7.45,0,0,1-.94,3l.08.09,1,1.09c.16.15.21.35.12.45l-1.2,1.34c-.09.1-.3.07-.46-.07l-1.18-.77-.09-.06a7.52,7.52,0,0,1-2.83,1.44v.11l-.09,1.42c0,.22-.1.4-.24.4l-1.79.08c-.14,0-.26-.17-.27-.38l-.27-1.33,0-.11a7.45,7.45,0,0,1-3-1l-.09.07-1,.91c-.15.16-.35.21-.45.11l-1.31-1.23c-.1-.09-.07-.3.08-.45l.76-1.11.06-.09a7.34,7.34,0,0,1-1.36-2.92h-.11l-1.39-.12c-.21,0-.39-.11-.39-.25l0-1.79c0-.14.17-.26.38-.26l1.34-.24.11,0a7.29,7.29,0,0,1,1.15-3l-.07-.09-.91-1.11c-.15-.15-.2-.35-.1-.45l1.26-1.28c.1-.1.3-.05.46.1l1.14.82.09.06a7.24,7.24,0,0,1,2.18-1.06v-.11l0-1.47c0-.22.07-.4.21-.41l1.79-.17c.14,0,.27.15.29.37l.35,1.39,0,.11a7.4,7.4,0,0,1,3,.9l.09-.08,1.09-1c.14-.17.34-.23.44-.14l1.37,1.17c.11.09.08.29-.06.46l-.77,1.25-.05.1a7.4,7.4,0,0,1,1.45,2.73h.11l1.51.06c.21,0,.39.09.4.22Zm-9.84-4.06a4,4,0,1,0,4.59,3.42,4,4,0,0,0-4.59-3.42"/>
          <path class="cls-15" d="M845.76,353.42c0,.14-.15.26-.37.27L844,354l-.11,0a7.45,7.45,0,0,1-.94,3l.08.09,1,1.09c.16.15.21.35.12.45l-1.2,1.34c-.09.1-.3.07-.46-.07l-1.18-.77-.09-.06a7.52,7.52,0,0,1-2.83,1.44v.11l-.09,1.42c0,.22-.1.4-.24.4l-1.79.08c-.14,0-.26-.17-.27-.38l-.27-1.33,0-.11a7.45,7.45,0,0,1-3-1l-.09.07-1,.91c-.15.16-.35.21-.45.11l-1.31-1.23c-.1-.09-.07-.3.08-.45l.76-1.11.06-.09a7.34,7.34,0,0,1-1.36-2.92h-.11l-1.39-.12c-.21,0-.39-.11-.39-.25l0-1.79c0-.14.17-.26.38-.26l1.34-.24.11,0a7.29,7.29,0,0,1,1.15-3l-.07-.09-.91-1.11c-.15-.15-.2-.35-.1-.45l1.26-1.28c.1-.1.3-.05.46.1l1.14.82.09.06a7.24,7.24,0,0,1,2.18-1.06v-.11l0-1.47c0-.22.07-.4.21-.41l1.79-.17c.14,0,.27.15.29.37l.35,1.39,0,.11a7.4,7.4,0,0,1,3,.9l.09-.08,1.09-1c.14-.17.34-.23.44-.14l1.37,1.17c.11.09.08.29-.06.46l-.77,1.25-.05.1a7.4,7.4,0,0,1,1.45,2.73h.11l1.51.06c.21,0,.39.09.4.22Zm-9.84-4.06a4,4,0,1,0,4.59,3.42A4,4,0,0,0,835.92,349.36Z"/>
          <path class="cls-4" d="M847.07,565.05H793.69a.45.45,0,0,1-.46-.45V495a.45.45,0,0,1,.46-.46h53.38a.46.46,0,0,1,.46.46V564.6a.46.46,0,0,1-.46.45"/>
          <rect class="cls-5" x="793.23" y="494.5" width="54.3" height="70.55" rx="0.45"/>
          <line class="cls-5" x1="801.19" y1="507.3" x2="839.26" y2="507.3"/>
          <line class="cls-5" x1="801.19" y1="518.71" x2="839.26" y2="518.71"/>
          <line class="cls-5" x1="801.19" y1="530.12" x2="839.26" y2="530.12"/>
          <line class="cls-5" x1="801.19" y1="541.53" x2="839.26" y2="541.53"/>
          <line class="cls-5" x1="801.19" y1="552.95" x2="839.26" y2="552.95"/>
          <path class="cls-4" d="M857.79,567.13H804.41a.47.47,0,0,1-.46-.46V497a.46.46,0,0,1,.46-.45h53.38a.46.46,0,0,1,.46.45v69.64a.47.47,0,0,1-.46.46"/>
          <rect class="cls-5" x="803.95" y="496.58" width="54.3" height="70.55" rx="0.45"/>
          <line class="cls-5" x1="811.91" y1="509.37" x2="849.98" y2="509.37"/>
          <line class="cls-5" x1="811.91" y1="520.78" x2="849.98" y2="520.78"/>
          <line class="cls-5" x1="811.91" y1="532.2" x2="849.98" y2="532.2"/>
          <line class="cls-5" x1="811.91" y1="543.61" x2="849.98" y2="543.61"/>
          <line class="cls-5" x1="811.91" y1="555.02" x2="849.98" y2="555.02"/>
          <path class="cls-4" d="M868.34,569H815a.46.46,0,0,1-.45-.46V498.93a.45.45,0,0,1,.45-.45h53.39a.46.46,0,0,1,.46.45v69.64a.47.47,0,0,1-.46.46"/>
          <rect class="cls-5" x="814.5" y="498.48" width="54.3" height="70.55" rx="0.45"/>
          <line class="cls-5" x1="822.45" y1="511.27" x2="860.53" y2="511.27"/>
          <line class="cls-5" x1="822.45" y1="522.69" x2="860.53" y2="522.69"/>
          <line class="cls-5" x1="822.45" y1="534.1" x2="860.53" y2="534.1"/>
          <line class="cls-5" x1="822.45" y1="545.51" x2="860.53" y2="545.51"/>
          <line class="cls-5" x1="822.45" y1="556.92" x2="860.53" y2="556.92"/>
          <path class="cls-4" d="M715.71,394H662.78a.47.47,0,0,1-.46-.46V325.07a.46.46,0,0,1,.46-.45h52.48a.45.45,0,0,1,.45.45Z"/>
          <path class="cls-5" d="M715.71,394H662.78a.47.47,0,0,1-.46-.46V325.07a.46.46,0,0,1,.46-.45h52.48a.45.45,0,0,1,.45.45Z"/>
          <line class="cls-5" x1="670.15" y1="337.2" x2="707.59" y2="337.2"/>
          <line class="cls-5" x1="670.15" y1="348.42" x2="707.59" y2="348.42"/>
          <line class="cls-5" x1="670.15" y1="359.64" x2="707.59" y2="359.64"/>
          <line class="cls-5" x1="670.15" y1="370.86" x2="707.59" y2="370.86"/>
          <line class="cls-5" x1="670.15" y1="382.08" x2="707.59" y2="382.08"/>
          <path class="cls-4" d="M726.25,396H673.32a.46.46,0,0,1-.45-.46V327.11a.45.45,0,0,1,.45-.45H725.8a.45.45,0,0,1,.45.45Z"/>
          <path class="cls-5" d="M726.25,396H673.32a.46.46,0,0,1-.45-.46V327.11a.45.45,0,0,1,.45-.45H725.8a.45.45,0,0,1,.45.45Z"/>
          <line class="cls-5" x1="680.69" y1="339.24" x2="718.13" y2="339.24"/>
          <line class="cls-5" x1="680.69" y1="350.46" x2="718.13" y2="350.46"/>
          <line class="cls-5" x1="680.69" y1="361.68" x2="718.13" y2="361.68"/>
          <line class="cls-5" x1="680.69" y1="372.9" x2="718.13" y2="372.9"/>
          <line class="cls-5" x1="680.69" y1="384.12" x2="718.13" y2="384.12"/>
          <path class="cls-4" d="M736.17,397.9H683.69a.46.46,0,0,1-.45-.46V329a.45.45,0,0,1,.45-.45h52.48a.45.45,0,0,1,.45.45v68.46a.46.46,0,0,1-.45.46"/>
          <rect class="cls-5" x="683.24" y="328.53" width="53.39" height="69.37" rx="0.45"/>
          <line class="cls-5" x1="691.06" y1="341.11" x2="728.5" y2="341.11"/>
          <line class="cls-5" x1="691.06" y1="352.33" x2="728.5" y2="352.33"/>
          <line class="cls-5" x1="691.06" y1="363.55" x2="728.5" y2="363.55"/>
          <line class="cls-5" x1="691.06" y1="374.77" x2="728.5" y2="374.77"/>
          <line class="cls-5" x1="691.06" y1="385.99" x2="728.5" y2="385.99"/>
          <path class="cls-6" d="M740,381.32A20.32,20.32,0,1,1,719.71,361,20.31,20.31,0,0,1,740,381.32"/>
          <circle class="cls-5" cx="719.71" cy="381.32" r="20.32"/>
          <path class="cls-5" d="M708,377.5v15.72h23.35V377.5H708Zm13.36,11.56H718l.88-3.29a2.14,2.14,0,1,1,1.61,0Z"/>
          <path class="cls-5" d="M713.28,377.5l0-1.46c0-4.26,1.34-8.08,6.28-8.08,4.72,0,6.51,3.59,6.51,7.63l0,1.91"/>
          <path class="cls-5" d="M710.61,377.61v-2c.08-7.12,3.66-10.32,8.94-10.32s9.38,3.13,9.47,9.65v2.69"/>
          <line class="cls-16" x1="794.64" y1="361.34" x2="791.37" y2="361.34"/>
          <line class="cls-34" x1="784.02" y1="361.34" x2="743.57" y2="361.34"/>
          <line class="cls-16" x1="739.89" y1="361.34" x2="736.62" y2="361.34"/>
          <path class="cls-18" d="M802.87,361.34a40.84,40.84,0,0,1-11.65-6.48l2.34,6.48-2.34,6.48a41.33,41.33,0,0,1,11.65-6.48"/>
          <line class="cls-16" x1="253.73" y1="555.2" x2="256.73" y2="553.9"/>
          <line class="cls-35" x1="262.76" y1="551.29" x2="525.09" y2="437.93"/>
          <line class="cls-16" x1="528.11" y1="436.63" x2="531.11" y2="435.34"/>
          <path class="cls-18" d="M538.66,432.07a41.39,41.39,0,0,0-8.13,10.57l-.41-6.88-4.73-5a41.16,41.16,0,0,0,13.27,1.32"/>
          <line class="cls-16" x1="255.36" y1="355.8" x2="258.63" y2="355.76"/>
          <line class="cls-36" x1="265.18" y1="355.67" x2="523.89" y2="352.19"/>
          <line class="cls-16" x1="527.16" y1="352.14" x2="530.43" y2="352.1"/>
          <path class="cls-18" d="M538.66,352a41.08,41.08,0,0,0-11.56,6.63l2.25-6.51-2.43-6.44A41.21,41.21,0,0,0,538.66,352"/>
          <line class="cls-16" x1="255.13" y1="127.36" x2="258" y2="128.93"/>
          <line class="cls-37" x1="263.76" y1="132.07" x2="525.69" y2="275.17"/>
          <line class="cls-16" x1="528.57" y1="276.74" x2="531.44" y2="278.31"/>
          <path class="cls-18" d="M538.66,282.25a41.34,41.34,0,0,0-13.33.11l5.16-4.57,1-6.81a41,41,0,0,0,7.12,11.27"/>
          <path class="cls-4" d="M410.61,220.34H366.34a.45.45,0,0,1-.45-.45V162.1a.45.45,0,0,1,.45-.45h44.27a.45.45,0,0,1,.45.45v57.79a.45.45,0,0,1-.45.45"/>
          <rect class="cls-5" x="365.89" y="161.65" width="45.17" height="58.7" rx="0.45"/>
          <line class="cls-5" x1="372.51" y1="172.29" x2="404.19" y2="172.29"/>
          <line class="cls-5" x1="372.51" y1="181.79" x2="404.19" y2="181.79"/>
          <line class="cls-5" x1="372.51" y1="191.28" x2="404.19" y2="191.28"/>
          <line class="cls-5" x1="372.51" y1="200.78" x2="404.19" y2="200.78"/>
          <line class="cls-5" x1="372.51" y1="210.27" x2="404.19" y2="210.27"/>
          <path class="cls-6" d="M413.79,205.88a17.19,17.19,0,1,1-17.19-17.19,17.19,17.19,0,0,1,17.19,17.19"/>
          <path class="cls-5" d="M413.79,205.88a17.19,17.19,0,1,1-17.19-17.19A17.19,17.19,0,0,1,413.79,205.88Z"/>
          <path class="cls-5" d="M386.72,202.65V216h19.76v-13.3H386.72ZM398,212.44h-2.85l.74-2.79a1.81,1.81,0,1,1,1.36,0Z"/>
          <path class="cls-5" d="M391.17,202.65l0-1.23c0-3.61,1.14-6.84,5.32-6.84,4,0,5.51,3,5.51,6.46v1.61"/>
          <path class="cls-5" d="M388.91,202.75V201c.07-6,3.1-8.74,7.56-8.74s7.94,2.65,8,8.17v2.28"/>
          <path class="cls-4" d="M412.9,378.09H368.64a.46.46,0,0,1-.45-.46V319.85a.46.46,0,0,1,.45-.46H412.9a.46.46,0,0,1,.46.46v57.78a.46.46,0,0,1-.46.46"/>
          <rect class="cls-5" x="368.19" y="319.39" width="45.17" height="58.69" rx="0.45"/>
          <line class="cls-5" x1="374.8" y1="330.04" x2="406.48" y2="330.04"/>
          <line class="cls-5" x1="374.8" y1="339.53" x2="406.48" y2="339.53"/>
          <line class="cls-5" x1="374.8" y1="349.03" x2="406.48" y2="349.03"/>
          <line class="cls-5" x1="374.8" y1="358.52" x2="406.48" y2="358.52"/>
          <line class="cls-5" x1="374.8" y1="368.02" x2="406.48" y2="368.02"/>
          <path class="cls-6" d="M416.09,363.63a17.19,17.19,0,1,1-17.19-17.19,17.19,17.19,0,0,1,17.19,17.19"/>
          <path class="cls-5" d="M416.09,363.63a17.19,17.19,0,1,1-17.19-17.19A17.19,17.19,0,0,1,416.09,363.63Z"/>
          <path class="cls-5" d="M389,360.4v13.3h19.76V360.4H389Zm11.31,9.78h-2.85l.74-2.79a1.81,1.81,0,1,1,1.36,0Z"/>
          <path class="cls-5" d="M393.47,360.4l0-1.23c0-3.61,1.14-6.84,5.32-6.84,4,0,5.5,3,5.5,6.46l0,1.61"/>
          <path class="cls-5" d="M391.21,360.5v-1.71c.06-6,3.1-8.74,7.56-8.74s7.94,2.64,8,8.17v2.28"/>
          <path class="cls-4" d="M412,530.25H367.71a.45.45,0,0,1-.45-.45V472a.45.45,0,0,1,.45-.45H412a.46.46,0,0,1,.46.45V529.8a.46.46,0,0,1-.46.45"/>
          <rect class="cls-5" x="367.26" y="471.56" width="45.17" height="58.7" rx="0.45"/>
          <line class="cls-5" x1="373.87" y1="482.2" x2="405.55" y2="482.2"/>
          <line class="cls-5" x1="373.87" y1="491.7" x2="405.55" y2="491.7"/>
          <line class="cls-5" x1="373.87" y1="501.19" x2="405.55" y2="501.19"/>
          <line class="cls-5" x1="373.87" y1="510.69" x2="405.55" y2="510.69"/>
          <line class="cls-5" x1="373.87" y1="520.18" x2="405.55" y2="520.18"/>
          <path class="cls-6" d="M415.16,515.79A17.19,17.19,0,1,1,398,498.6a17.19,17.19,0,0,1,17.19,17.19"/>
          <path class="cls-5" d="M415.16,515.79A17.19,17.19,0,1,1,398,498.6,17.19,17.19,0,0,1,415.16,515.79Z"/>
          <path class="cls-5" d="M388.09,512.56v13.3h19.76v-13.3H388.09Zm11.3,9.79h-2.85l.75-2.79a1.81,1.81,0,0,1,.68-3.48,1.81,1.81,0,0,1,.68,3.48Z"/>
          <path class="cls-5" d="M392.54,512.56l0-1.23c0-3.61,1.14-6.84,5.31-6.84,4,0,5.51,3,5.51,6.46l0,1.61"/>
          <path class="cls-5" d="M390.28,512.66V511c.06-6,3.09-8.74,7.56-8.74s7.94,2.65,8,8.17v2.28"/>
          <line class="cls-16" x1="836.28" y1="481.91" x2="836.27" y2="478.64"/>
          <line class="cls-38" x1="836.24" y1="471.73" x2="835.9" y2="392.21"/>
          <line class="cls-16" x1="835.89" y1="388.75" x2="835.87" y2="385.48"/>
          <path class="cls-18" d="M836.32,490.14a41.26,41.26,0,0,1,6.43-11.68l-6.47,2.37-6.49-2.31a40.91,40.91,0,0,1,6.53,11.62"/>
        </g>
      </g>
    </g>
    <rect class="cls-27" x="32" y="30.71" width="868.96" height="609.78"/>
  </g>
</svg>
