<svg xmlns="http://www.w3.org/2000/svg" viewBox="0 0 3887.19 467.76"><defs><style>.cls-1{fill:#c2b094;}.cls-1,.cls-10,.cls-13,.cls-2,.cls-3,.cls-4,.cls-5,.cls-8,.cls-9{stroke:#000;stroke-miterlimit:10;}.cls-1,.cls-10,.cls-13,.cls-3,.cls-4,.cls-5,.cls-8,.cls-9{stroke-width:4px;}.cls-2{fill:#b80071;stroke-width:3.58px;}.cls-14,.cls-3,.cls-7{fill:#fff;}.cls-4{fill:none;}.cls-5{fill:#ffd400;}.cls-6{font-size:42px;font-family:ArialMT, Arial;}.cls-8{fill:#00bcb7;}.cls-11,.cls-9{fill:#002546;}.cls-10{fill:#b794da;}.cls-12,.cls-13{fill:#ccc;}.cls-14{fill-rule:evenodd;}</style></defs><g id="degauss_flow"><g id="container"><path class="cls-1" d="M454,126.56,638.3,48.85a2,2,0,0,1,1.51,0l186.65,77.72a2,2,0,0,1,0,3.61L641,211.13a2,2,0,0,1-1.57,0L454,130.17A2,2,0,0,1,454,126.56Z"/><path class="cls-1" d="M447.52,147.27v182.1a2,2,0,0,0,1.1,1.76L629.4,418.84a2,2,0,0,0,2.81-1.76V224.44a2,2,0,0,0-1.19-1.81L450.25,145.47A2,2,0,0,0,447.52,147.27Z"/><path class="cls-1" d="M648.24,221.93l182.53-76.49a2,2,0,0,1,2.72,1.81V329.72a2,2,0,0,1-1.11,1.77L649.84,418.87a2,2,0,0,1-2.8-1.77V223.74A2,2,0,0,1,648.24,221.93Z"/></g><g id="three_gears"><g id="gear"><g id="_Radial_Repeat_" data-name="&lt;Radial Repeat&gt;"><path class="cls-2" d="M530,236.61a1.46,1.46,0,0,0-1-1.54l-4.13-2.33-.33-.18a54.11,54.11,0,0,0-1.65-14.81l.27-.37,3.43-4.72a2.21,2.21,0,0,0,.54-2.09L524,203.48c-.24-.55-.87-.51-1.41.1l-3.88,3-.31.25a24.41,24.41,0,0,0-7.94-8.46l0-.55.3-6.89c.11-1-.14-1.95-.55-2l-5.38-1.36c-.42-.1-.85.65-1,1.68l-1.34,6.25-.11.53a16,16,0,0,0-9.56,3.35l-.23-.4-2.83-5c-.38-.83-1-1.18-1.31-.78l-4.43,5.2a2.43,2.43,0,0,0,.07,2.24l1.84,5.74.15.49a43.15,43.15,0,0,0-5.26,13.27h-.34l-4.23-.19a1.06,1.06,0,0,0-1.29,1l-.8,8.62a1.37,1.37,0,0,0,1.05,1.45l3.94,1.87.33.15a53.3,53.3,0,0,0,2.27,15l-.25.38-3.17,4.82a2.26,2.26,0,0,0-.48,2.12l3.31,6.83c.25.53.88.44,1.4-.21l3.76-3.31.3-.26a24.14,24.14,0,0,0,6.15,6.33l0,.54-.53,7.07c-.15,1,.07,2,.48,2.09l5.33,1.79c.41.13.87-.58,1-1.6l1.62-6.52.13-.51a15.46,15.46,0,0,0,9.34-2.66l.21.42,2.89,5.61c.35.87.93,1.26,1.28.89l4.59-4.85a2.44,2.44,0,0,0,0-2.24l-1.81-6.45-.14-.49a40.79,40.79,0,0,0,5.47-12.34l.35,0,4.56.57a1,1,0,0,0,1.32-.86ZM498.7,250.69c-6.53-2.77-10.34-13.51-8.48-23.95s8.66-16.67,15.19-13.9,10.34,13.52,8.49,23.95S505.23,253.47,498.7,250.69Z"/></g></g><g id="gear-2" data-name="gear"><g id="_Radial_Repeat_2" data-name="&lt;Radial Repeat&gt;"><path class="cls-2" d="M527.16,309.27a1,1,0,0,0-.86-1L523,306.94l-.26-.1a40,40,0,0,0-2-11.24l.19-.32,2.42-4.09a1.82,1.82,0,0,0,.32-1.68l-2.75-5.09c-.21-.4-.7-.28-1.09.25l-2.85,2.84-.23.22a16.57,16.57,0,0,0-6.59-5.52v-.43l-.12-5.36c0-.82-.2-1.5-.53-1.52l-4.24-.36c-.33,0-.62.61-.66,1.41l-.72,5-.07.42a13.9,13.9,0,0,0-7.24,3.82l-.2-.28-2.44-3.48c-.34-.59-.82-.79-1.06-.43l-3.18,4.59a1.85,1.85,0,0,0,.17,1.72l1.72,4.2.14.36a36.42,36.42,0,0,0-3.41,10.93l-.27,0-3.29.4a.92.92,0,0,0-.95.9l-.19,6.77a1,1,0,0,0,.89,1l3.15.94.26.08a38.82,38.82,0,0,0,2.52,11.27l-.17.33L488,328.66a1.87,1.87,0,0,0-.27,1.7l2.92,4.86c.22.38.7.23,1.08-.34l2.75-3,.22-.24a16.09,16.09,0,0,0,5.09,4.11v.42l-.05,5.54c-.06.81.15,1.5.48,1.56l4.23.7c.32.05.64-.56.7-1.37l.93-5.25.07-.41a13.23,13.23,0,0,0,7.11-3.25l.19.3,2.52,4c.32.62.79.86,1,.52l3.32-4.33a1.92,1.92,0,0,0-.12-1.74l-1.73-4.75-.13-.37A35.32,35.32,0,0,0,521.94,317h.27l3.57-.15a.86.86,0,0,0,1-.82Zm-23.58,14.9c-5.2-1.31-8.7-9.14-7.79-17.44s5.89-14,11.1-12.7,8.7,9.14,7.79,17.44S508.79,325.47,503.58,324.17Z"/></g></g><g id="gear-3" data-name="gear"><g id="_Radial_Repeat_3" data-name="&lt;Radial Repeat&gt;"><path class="cls-2" d="M601.82,272.16a1.83,1.83,0,0,0-1.57-1.93l-6.06-2.32-.48-.18a73.14,73.14,0,0,0-3.69-20.5l.34-.58,4.41-7.45a3.3,3.3,0,0,0,.58-3.07l-5-9.28c-.39-.71-1.28-.51-2,.47l-5.21,5.17-.41.41a30.24,30.24,0,0,0-12-10.07l0-.77-.21-9.79c.07-1.48-.37-2.71-1-2.76l-7.74-.66c-.6,0-1.14,1.11-1.2,2.58l-1.32,9.13-.11.77A25.33,25.33,0,0,0,546,228.28l-.36-.51-4.45-6.33c-.62-1.09-1.48-1.44-1.93-.79L533.43,229a3.39,3.39,0,0,0,.31,3.14l3.12,7.65.27.65a66.88,66.88,0,0,0-6.22,19.93l-.49.07-6,.72a1.68,1.68,0,0,0-1.73,1.66l-.34,12.33A1.73,1.73,0,0,0,524,277l5.74,1.71.48.15a71.16,71.16,0,0,0,4.59,20.54l-.32.6-4,7.53a3.35,3.35,0,0,0-.48,3.1l5.3,8.86c.41.69,1.29.41,2-.62l5-5.54.4-.45a29.47,29.47,0,0,0,9.28,7.49v.78l-.1,10.08c-.11,1.48.29,2.75.88,2.84l7.7,1.28c.6.09,1.17-1,1.28-2.49l1.7-9.56.13-.76a24.13,24.13,0,0,0,13-5.91l.34.54,4.6,7.23c.58,1.14,1.43,1.56,1.9.95l6-7.9a3.4,3.4,0,0,0-.21-3.16L586,305.59l-.24-.67a64.15,64.15,0,0,0,6.6-18.66l.49,0,6.51-.27a1.58,1.58,0,0,0,1.78-1.51Zm-43,27.14c-9.49-2.39-15.86-16.65-14.2-31.79s10.73-25.51,20.22-23.13,15.85,16.65,14.2,31.79S568.35,301.68,558.86,299.3Z"/></g></g></g><path d="M683.35,285.49l0-2.83a9.65,9.65,0,0,1-5,5.45,5,5,0,0,1-3.92.17,5.19,5.19,0,0,1-2.75-3,14.15,14.15,0,0,1-.94-5.71,23.75,23.75,0,0,1,.94-6.5,15.12,15.12,0,0,1,2.72-5.32,10.43,10.43,0,0,1,4-3.12,4.55,4.55,0,0,1,2.88-.33,3.61,3.61,0,0,1,2,1.38l.1-11.13,3-1.24-.29,31Zm-9.5-7.2c0,2.89.44,4.84,1.4,5.86a2.81,2.81,0,0,0,3.41.71,7.25,7.25,0,0,0,3.4-3.46,14.58,14.58,0,0,0,1.44-6.81q0-4.62-1.35-6.18a2.82,2.82,0,0,0-3.48-.71,7,7,0,0,0-3.4,3.48A15.8,15.8,0,0,0,673.85,278.29Z"/><path d="M703.28,270l3.13-.83a16.25,16.25,0,0,1-2.8,6.46,12.15,12.15,0,0,1-5.15,4.05c-2.62,1.11-4.69,1-6.2-.4s-2.26-3.88-2.22-7.53a19.52,19.52,0,0,1,2.41-9.74,12.66,12.66,0,0,1,6.08-5.62q3.6-1.49,5.85.62t2.19,7.62c0,.23,0,.56,0,1l-13.37,5.57q.14,3.63,1.61,4.95a3.28,3.28,0,0,0,3.73.39,7,7,0,0,0,2.86-2.29A12.57,12.57,0,0,0,703.28,270Zm-9.91-2,10-4.16a6.31,6.31,0,0,0-1.1-3.75,3,3,0,0,0-3.75-.63,7.72,7.72,0,0,0-3.54,3.21A11.31,11.31,0,0,0,693.37,268Z"/><path d="M709.57,276.3l2.95-.7c.11,1.08.44,1.76,1,2a3.68,3.68,0,0,0,3.07-.26,7.78,7.78,0,0,0,3.27-2.42,8.76,8.76,0,0,0,1.58-3.58,31.52,31.52,0,0,0,.28-4.92,10.45,10.45,0,0,1-5,5c-2.46,1-4.36.74-5.68-.9s-2-4-1.94-7.11a22.08,22.08,0,0,1,1-6.27,15.6,15.6,0,0,1,2.74-5.27,10.41,10.41,0,0,1,4.17-3.18c2.11-.88,3.85-.54,5.2,1l0-2.68,2.8-1.15-.24,19.16a26.16,26.16,0,0,1-.94,7.7,13.2,13.2,0,0,1-2.74,4.56,12.93,12.93,0,0,1-4.56,3.17c-2.13.91-3.85,1-5.15.41S709.5,278.72,709.57,276.3Zm2.67-14.43q0,4.38,1.33,5.81a2.9,2.9,0,0,0,3.48.53,7.45,7.45,0,0,0,3.54-3.46,14.53,14.53,0,0,0,1.49-6.86c0-2.71-.43-4.56-1.38-5.53a3,3,0,0,0-3.5-.62,7.34,7.34,0,0,0-3.47,3.47A14.14,14.14,0,0,0,712.24,261.87Z"/><path d="M741.08,258.5a21.07,21.07,0,0,1-3.28,3.86,12.43,12.43,0,0,1-3.35,2.14c-2,.82-3.48.87-4.52.12s-1.55-2-1.52-3.89a9.13,9.13,0,0,1,.63-3.22,10.55,10.55,0,0,1,1.6-2.81,12.71,12.71,0,0,1,2.2-2.14,27.21,27.21,0,0,1,2.71-1.69,37.34,37.34,0,0,0,5.44-3.54q0-.78,0-1c0-1.52-.25-2.48-.82-2.86-.76-.53-1.91-.47-3.44.16a7.59,7.59,0,0,0-3.18,2.24,9.65,9.65,0,0,0-1.56,3.91l-3,.74a15,15,0,0,1,1.38-4.36,10.92,10.92,0,0,1,2.72-3.34,15.17,15.17,0,0,1,4.08-2.47,9.1,9.1,0,0,1,3.72-.87,2.89,2.89,0,0,1,2.09.79,4.23,4.23,0,0,1,.91,2.16,24.9,24.9,0,0,1,.11,3.38l-.08,5a64.4,64.4,0,0,0,.1,6.51,6.72,6.72,0,0,0,.73,2.32L741.65,261A7.31,7.31,0,0,1,741.08,258.5Zm-.13-8.25a30.84,30.84,0,0,1-5,3.49,15.66,15.66,0,0,0-2.66,1.85,5.3,5.3,0,0,0-1.22,1.72,5,5,0,0,0-.44,2,2.33,2.33,0,0,0,.88,2.12,2.85,2.85,0,0,0,2.68-.13,8.85,8.85,0,0,0,3.13-2.26,10,10,0,0,0,2-3.43,13.19,13.19,0,0,0,.54-3.94Z"/><path d="M760.31,253.12l.05-3.22C758.92,253,757,255,754.61,256a5.79,5.79,0,0,1-2.94.5,2.88,2.88,0,0,1-2-1,5.27,5.27,0,0,1-.89-2.37,22.34,22.34,0,0,1-.14-3.41l.2-13.64,3-1.25L751.68,247a25.18,25.18,0,0,0,.13,3.86,2.35,2.35,0,0,0,1.18,1.8,2.68,2.68,0,0,0,2.28-.13,7.21,7.21,0,0,0,2.58-1.93,8.15,8.15,0,0,0,1.73-3.05,16.1,16.1,0,0,0,.56-4.49l.19-11.75,3-1.26L763,252Z"/><path d="M766.67,244l3-1.83a3.46,3.46,0,0,0,1.35,2.79c.76.45,1.83.39,3.21-.19a6.94,6.94,0,0,0,3.13-2.34,5.2,5.2,0,0,0,1-2.86,1.48,1.48,0,0,0-.86-1.59,9,9,0,0,0-3.08,0,19.58,19.58,0,0,1-4.61.15,2.65,2.65,0,0,1-1.92-1.26,4.84,4.84,0,0,1-.62-2.66,8.56,8.56,0,0,1,.59-2.94,10.35,10.35,0,0,1,1.53-2.69,10.68,10.68,0,0,1,1.95-1.88,11.86,11.86,0,0,1,2.64-1.53,8.8,8.8,0,0,1,3.69-.79,3,3,0,0,1,2.33,1,6,6,0,0,1,1,2.94l-3,1.73a2.56,2.56,0,0,0-1.13-2.14,3.1,3.1,0,0,0-2.72.19,7,7,0,0,0-3,2.08,4.16,4.16,0,0,0-.93,2.35,1.69,1.69,0,0,0,.35,1.14,1.61,1.61,0,0,0,1.15.5c.31,0,1.19,0,2.67-.17a25.82,25.82,0,0,1,4.47-.15,2.66,2.66,0,0,1,2,1.1,4.72,4.72,0,0,1,.67,2.86,9.67,9.67,0,0,1-.95,3.85,11.41,11.41,0,0,1-2.6,3.59,12.46,12.46,0,0,1-3.79,2.49c-2.33,1-4.09,1.13-5.29.47S767,246.13,766.67,244Z"/><path d="M784,236.72l3-1.83a3.41,3.41,0,0,0,1.35,2.77c.75.45,1.82.39,3.21-.19a7.1,7.1,0,0,0,3.12-2.33,5.14,5.14,0,0,0,1.06-2.85,1.48,1.48,0,0,0-.86-1.59,9.35,9.35,0,0,0-3.08.05,19.84,19.84,0,0,1-4.6.17,2.65,2.65,0,0,1-1.92-1.26,4.77,4.77,0,0,1-.62-2.64,8.56,8.56,0,0,1,.6-2.93,10.4,10.4,0,0,1,1.53-2.67,10.68,10.68,0,0,1,2-1.88,11.44,11.44,0,0,1,2.64-1.52,8.83,8.83,0,0,1,3.69-.8,2.94,2.94,0,0,1,2.32,1,6,6,0,0,1,1,2.92l-3,1.73a2.56,2.56,0,0,0-1.13-2.13,3.16,3.16,0,0,0-2.73.19,7.08,7.08,0,0,0-3,2.08,4,4,0,0,0-.93,2.34,1.57,1.57,0,0,0,.35,1.13,1.53,1.53,0,0,0,1.14.5c.3,0,1.19-.05,2.67-.17a26.46,26.46,0,0,1,4.47-.17,2.64,2.64,0,0,1,2,1.1,4.63,4.63,0,0,1,.67,2.84,9.61,9.61,0,0,1-1,3.83,11.37,11.37,0,0,1-2.6,3.58,12.61,12.61,0,0,1-3.79,2.48q-3.5,1.47-5.29.48T784,236.72Z"/><path d="M800,236.91,807.81,203l2.43-1-7.77,33.84Z"/><path d="M668.83,345.47l2.93-.73c.11,1.09.45,1.77,1,2.05a3.64,3.64,0,0,0,3.07-.29,7.88,7.88,0,0,0,3.24-2.49,9,9,0,0,0,1.58-3.64,33.16,33.16,0,0,0,.26-5,10.65,10.65,0,0,1-5,5.1q-3.68,1.62-5.66-.86t-1.95-7.16a22.3,22.3,0,0,1,1-6.36,16.15,16.15,0,0,1,2.71-5.37,10.64,10.64,0,0,1,4.15-3.26c2.11-.91,3.83-.59,5.18,1l0-2.71,2.79-1.2-.18,19.4a26.74,26.74,0,0,1-.91,7.8,13.48,13.48,0,0,1-2.72,4.64,12.93,12.93,0,0,1-4.53,3.27c-2.13.93-3.84,1.09-5.14.46S668.76,347.93,668.83,345.47Zm2.61-14.63q0,4.44,1.34,5.86a2.85,2.85,0,0,0,3.48.51,7.62,7.62,0,0,0,3.51-3.55,14.91,14.91,0,0,0,1.47-7c0-2.75-.44-4.61-1.4-5.59a2.88,2.88,0,0,0-3.49-.58,7.39,7.39,0,0,0-3.45,3.55A14.5,14.5,0,0,0,671.44,330.84Z"/><path d="M700.81,322.44l3.12-.88a16.54,16.54,0,0,1-2.8,6.51A12.27,12.27,0,0,1,696,332.2q-3.91,1.73-6.18-.3t-2.21-7.5a19.83,19.83,0,0,1,2.4-9.78,12.86,12.86,0,0,1,6.06-5.72q3.58-1.54,5.82.53t2.18,7.59c0,.23,0,.56,0,1l-13.31,5.78c.09,2.42.62,4.06,1.61,4.93a3.24,3.24,0,0,0,3.71.33,7,7,0,0,0,2.85-2.34A12.75,12.75,0,0,0,700.81,322.44Zm-9.87-1.81,10-4.32a6.32,6.32,0,0,0-1.1-3.74,3,3,0,0,0-3.73-.57,7.8,7.8,0,0,0-3.53,3.27A11.53,11.53,0,0,0,690.94,320.63Z"/><path d="M706.65,316a18.67,18.67,0,0,1,2.86-10.37,13.06,13.06,0,0,1,5.65-4.89c2.45-1.06,4.45-.92,6,.41s2.28,3.74,2.24,7.27a21.9,21.9,0,0,1-1.12,7.18,15.78,15.78,0,0,1-3,5.13,12.69,12.69,0,0,1-4.33,3.25c-2.49,1.09-4.5,1-6-.35S706.61,319.71,706.65,316Zm3.11-1.36q0,4.29,1.42,5.76a3.11,3.11,0,0,0,3.74.48,8.12,8.12,0,0,0,3.77-3.77,15.22,15.22,0,0,0,1.58-7.15q0-4.12-1.43-5.59a3.1,3.1,0,0,0-3.72-.51,8.08,8.08,0,0,0-3.79,3.74A14.75,14.75,0,0,0,709.76,314.59Z"/><path d="M738.53,305l3-.82a16.36,16.36,0,0,1-2.58,7,11.58,11.58,0,0,1-5,4.32q-3.66,1.6-5.85-.39T726,307.62a22.86,22.86,0,0,1,1-6.69,14.6,14.6,0,0,1,3-5.3,12.67,12.67,0,0,1,4.29-3.18q2.91-1.24,4.73-.23t2.3,4.14l-3,1.84a3.9,3.9,0,0,0-1.44-2.71,2.67,2.67,0,0,0-2.57,0,7.9,7.9,0,0,0-3.74,3.64,15,15,0,0,0-1.51,7.05q-.06,4.45,1.29,5.88t3.57.45a6.86,6.86,0,0,0,3-2.65A11.33,11.33,0,0,0,738.53,305Z"/><path d="M743,300.15a18.45,18.45,0,0,1,2.88-10.26,13.22,13.22,0,0,1,5.66-4.87c2.46-1,4.45-.93,6,.38s2.26,3.69,2.21,7.18a21.77,21.77,0,0,1-1.14,7.11,15.7,15.7,0,0,1-3.07,5.08,12.84,12.84,0,0,1-4.32,3.24c-2.5,1.09-4.5,1-6-.32S743,303.87,743,300.15Zm3.11-1.35c0,2.82.42,4.72,1.4,5.68a3.1,3.1,0,0,0,3.73.46,8.13,8.13,0,0,0,3.78-3.75,15,15,0,0,0,1.59-7.08q.07-4.07-1.41-5.52a3.11,3.11,0,0,0-3.71-.48,8.07,8.07,0,0,0-3.79,3.72A14.63,14.63,0,0,0,746.12,298.8Z"/><path d="M774.67,297.23l.05-2.76a10,10,0,0,1-5,5.44,5.07,5.07,0,0,1-3.9.27,4.87,4.87,0,0,1-2.71-2.82,13.58,13.58,0,0,1-.89-5.52,23.13,23.13,0,0,1,1-6.34,15.07,15.07,0,0,1,2.74-5.25,10.86,10.86,0,0,1,4-3.14,4.67,4.67,0,0,1,2.87-.4,3.44,3.44,0,0,1,2,1.28l.18-10.81,3-1.29L777.48,296Zm-9.38-6.74q-.06,4.2,1.35,5.66a2.78,2.78,0,0,0,3.37.59,7.45,7.45,0,0,0,3.41-3.46,14.33,14.33,0,0,0,1.48-6.66c.06-3-.38-5-1.3-6a2.77,2.77,0,0,0-3.44-.59,7.3,7.3,0,0,0-3.41,3.47A15.52,15.52,0,0,0,765.29,290.49Z"/><path d="M794.57,281.58l3.12-.89a16.32,16.32,0,0,1-2.84,6.36,12.67,12.67,0,0,1-5.14,4.08c-2.61,1.14-4.66,1.07-6.15-.23s-2.21-3.71-2.15-7.25a19.3,19.3,0,0,1,2.47-9.54,13.1,13.1,0,0,1,6.08-5.62q3.59-1.55,5.8.44t2.11,7.35c0,.21,0,.54,0,1l-13.31,5.79c.06,2.34.59,3.93,1.56,4.77a3.3,3.3,0,0,0,3.7.27,7.12,7.12,0,0,0,2.85-2.3A12.58,12.58,0,0,0,794.57,281.58Zm-9.82-1.64,10-4.32a5.79,5.79,0,0,0-1.07-3.61c-.94-1-2.17-1.17-3.71-.51a7.91,7.91,0,0,0-3.54,3.22A11,11,0,0,0,784.75,279.94Z"/><path d="M801.33,285.55l.42-21.65,2.72-1.17-.06,3.28a15.55,15.55,0,0,1,2-3.87,5.26,5.26,0,0,1,2-1.57,4.29,4.29,0,0,1,3.09-.16l-1.11,3.85a3.2,3.2,0,0,0-2.21.16,4.6,4.6,0,0,0-1.79,1.49,6.79,6.79,0,0,0-1.17,2.5,20.16,20.16,0,0,0-.59,4.49l-.22,11.32Z"/><g id="container-2" data-name="container"><path class="cls-1" d="M1547.42,126.56l184.29-77.71a2,2,0,0,1,1.52,0l186.64,77.72a2,2,0,0,1,0,3.61l-185.45,80.95a2,2,0,0,1-1.57,0l-185.48-81A2,2,0,0,1,1547.42,126.56Z"/><path class="cls-1" d="M1540.93,147.27v182.1a2,2,0,0,0,1.1,1.76l180.78,87.71a2,2,0,0,0,2.82-1.76V224.44a2,2,0,0,0-1.2-1.81l-180.77-77.16A2,2,0,0,0,1540.93,147.27Z"/><path class="cls-1" d="M1741.65,221.93l182.53-76.49a2,2,0,0,1,2.72,1.81V329.72a2,2,0,0,1-1.11,1.77l-182.53,87.38a2,2,0,0,1-2.81-1.77V223.74A2,2,0,0,1,1741.65,221.93Z"/></g><g id="three_gears-2" data-name="three_gears"><g id="gear-4" data-name="gear"><g id="_Radial_Repeat_4" data-name="&lt;Radial Repeat&gt;"><path class="cls-2" d="M1623.4,236.61a1.46,1.46,0,0,0-1-1.54l-4.13-2.33-.33-.18a53.73,53.73,0,0,0-1.65-14.81l.27-.37,3.43-4.72a2.21,2.21,0,0,0,.54-2.09l-3.08-7.09c-.24-.55-.87-.51-1.41.1l-3.87,3-.32.25a24.41,24.41,0,0,0-7.94-8.46l0-.55.3-6.89c.11-1-.13-1.95-.55-2l-5.38-1.36c-.42-.1-.85.65-1,1.68l-1.34,6.25-.11.53a16,16,0,0,0-9.56,3.35l-.23-.4-2.82-5c-.39-.83-1-1.18-1.32-.78l-4.43,5.2a2.43,2.43,0,0,0,.07,2.24l1.84,5.74.15.49a43.15,43.15,0,0,0-5.26,13.27H1574l-4.23-.19a1.05,1.05,0,0,0-1.28,1l-.81,8.62a1.37,1.37,0,0,0,1.06,1.45l3.93,1.87.33.15a52.94,52.94,0,0,0,2.28,15l-.26.38-3.17,4.82a2.29,2.29,0,0,0-.48,2.12l3.31,6.83c.25.53.88.44,1.4-.21l3.76-3.31.3-.26a24.14,24.14,0,0,0,6.15,6.33l0,.54-.53,7.07c-.14,1,.07,2,.48,2.09l5.33,1.79c.41.13.87-.58,1-1.6l1.63-6.52.12-.51a15.46,15.46,0,0,0,9.34-2.66l.21.42,2.89,5.61c.35.87.93,1.26,1.28.89l4.59-4.85a2.44,2.44,0,0,0,0-2.24l-1.81-6.45-.14-.49a40.79,40.79,0,0,0,5.47-12.34l.35,0,4.57.57a1,1,0,0,0,1.31-.86Zm-31.29,14.08c-6.53-2.77-10.34-13.51-8.48-23.95s8.67-16.67,15.2-13.9,10.33,13.52,8.48,23.95S1598.64,253.47,1592.11,250.69Z"/></g></g><g id="gear-5" data-name="gear"><g id="_Radial_Repeat_5" data-name="&lt;Radial Repeat&gt;"><path class="cls-2" d="M1620.57,309.27a1,1,0,0,0-.86-1l-3.33-1.28-.26-.1a40,40,0,0,0-2-11.24l.19-.32,2.42-4.09a1.82,1.82,0,0,0,.32-1.68l-2.75-5.09c-.21-.4-.7-.28-1.09.25l-2.85,2.84-.23.22a16.57,16.57,0,0,0-6.59-5.52v-.43l-.11-5.36c0-.82-.21-1.5-.53-1.52l-4.25-.36c-.33,0-.62.61-.66,1.41l-.72,5-.06.42a13.89,13.89,0,0,0-7.25,3.82l-.2-.28-2.44-3.48c-.34-.59-.82-.79-1.06-.43L1583,285.6a1.85,1.85,0,0,0,.17,1.72l1.72,4.2.14.36a36.42,36.42,0,0,0-3.41,10.93l-.27,0-3.29.4a.92.92,0,0,0-.95.9l-.19,6.77a1,1,0,0,0,.89,1l3.15.94.26.08a38.83,38.83,0,0,0,2.53,11.27l-.18.33-2.22,4.13a1.83,1.83,0,0,0-.26,1.7l2.91,4.86c.22.38.71.23,1.08-.34l2.75-3,.22-.24a16.09,16.09,0,0,0,5.09,4.11v.42l-.05,5.54c-.06.81.16,1.5.48,1.56l4.23.7c.32.05.64-.56.7-1.37l.93-5.25.07-.41a13.23,13.23,0,0,0,7.11-3.25l.19.3,2.52,4c.32.62.79.86,1,.52l3.32-4.33a1.92,1.92,0,0,0-.12-1.74l-1.73-4.75-.13-.37a35.32,35.32,0,0,0,3.62-10.24h.27l3.57-.15a.86.86,0,0,0,1-.82ZM1597,324.17c-5.21-1.31-8.71-9.14-7.8-17.44s5.89-14,11.1-12.7,8.7,9.14,7.79,17.44S1602.2,325.47,1597,324.17Z"/></g></g><g id="gear-6" data-name="gear"><g id="_Radial_Repeat_6" data-name="&lt;Radial Repeat&gt;"><path class="cls-2" d="M1695.23,272.16a1.83,1.83,0,0,0-1.57-1.93l-6.06-2.32-.48-.18a73.14,73.14,0,0,0-3.69-20.5l.34-.58,4.41-7.45a3.34,3.34,0,0,0,.59-3.07l-5-9.28c-.39-.71-1.28-.51-2,.47l-5.2,5.17-.42.41a30.17,30.17,0,0,0-12-10.07l0-.77-.21-9.79c.07-1.48-.36-2.71-1-2.76l-7.74-.66c-.6,0-1.13,1.11-1.2,2.58l-1.32,9.13-.11.77a25.36,25.36,0,0,0-13.21,6.95l-.36-.51-4.45-6.33c-.62-1.09-1.48-1.44-1.93-.79l-5.79,8.36a3.39,3.39,0,0,0,.31,3.14l3.13,7.65.26.65a66.88,66.88,0,0,0-6.22,19.93l-.49.07-6,.72a1.67,1.67,0,0,0-1.72,1.66l-.35,12.33a1.73,1.73,0,0,0,1.63,1.8l5.73,1.71.48.15a70.83,70.83,0,0,0,4.6,20.54l-.32.6-4.05,7.53a3.38,3.38,0,0,0-.48,3.1l5.3,8.86c.41.69,1.29.41,2-.62l5-5.54.41-.45a29.33,29.33,0,0,0,9.27,7.49v.78l-.11,10.08c-.11,1.48.29,2.75.88,2.84l7.7,1.28c.6.09,1.17-1,1.28-2.49l1.7-9.56.13-.76a24.13,24.13,0,0,0,13-5.91l.35.54,4.59,7.23c.58,1.14,1.43,1.56,1.9.95l6-7.9a3.46,3.46,0,0,0-.21-3.16l-3.16-8.66-.24-.67a64.15,64.15,0,0,0,6.6-18.66l.49,0,6.51-.27a1.58,1.58,0,0,0,1.78-1.51Zm-43,27.14c-9.49-2.39-15.86-16.65-14.2-31.79s10.73-25.51,20.22-23.13,15.86,16.65,14.2,31.79S1661.76,301.68,1652.27,299.3Z"/></g></g></g><path d="M1778.67,283.55l0-2.82a9.45,9.45,0,0,1-5,5.36,4.93,4.93,0,0,1-3.9.13,5.27,5.27,0,0,1-2.74-3,14.29,14.29,0,0,1-.93-5.7,23.34,23.34,0,0,1,.94-6.45,14.84,14.84,0,0,1,2.7-5.27,9.94,9.94,0,0,1,4-3,4.43,4.43,0,0,1,2.85-.3,3.67,3.67,0,0,1,2,1.4l.08-11.07,3-1.19-.22,30.8Zm-9.46-7.28q0,4.31,1.39,5.85a2.82,2.82,0,0,0,3.39.74,7.09,7.09,0,0,0,3.38-3.41,14.46,14.46,0,0,0,1.43-6.76c0-3.05-.43-5.11-1.36-6.16a2.82,2.82,0,0,0-3.45-.75,6.87,6.87,0,0,0-3.38,3.42A15.74,15.74,0,0,0,1769.21,276.27Z"/><path d="M1798.45,268.32l3.12-.79a16,16,0,0,1-2.77,6.4,11.85,11.85,0,0,1-5.11,4q-3.9,1.61-6.18-.47t-2.23-7.5a19.35,19.35,0,0,1,2.37-9.66,12.25,12.25,0,0,1,6-5.51c2.38-.95,4.31-.72,5.81.69s2.23,3.94,2.21,7.59c0,.22,0,.56,0,1l-13.28,5.39c.1,2.4.64,4,1.63,4.94a3.28,3.28,0,0,0,3.71.42,6.77,6.77,0,0,0,2.84-2.24A12.34,12.34,0,0,0,1798.45,268.32Zm-9.87-2.06,9.94-4a6.28,6.28,0,0,0-1.12-3.74,3,3,0,0,0-3.72-.67,7.44,7.44,0,0,0-3.5,3.15A11.14,11.14,0,0,0,1788.58,266.26Z"/><path d="M1804.76,274.69l2.93-.67c.12,1.08.45,1.75,1,2a3.67,3.67,0,0,0,3.06-.23,7.54,7.54,0,0,0,3.25-2.37,8.66,8.66,0,0,0,1.56-3.53,32.81,32.81,0,0,0,.24-4.88,10.17,10.17,0,0,1-5,4.9q-3.67,1.5-5.67-1c-1.33-1.64-2-4-2-7.07a21.18,21.18,0,0,1,1-6.21,15.22,15.22,0,0,1,2.69-5.21,10.14,10.14,0,0,1,4.12-3.1,4.21,4.21,0,0,1,5.18,1.06v-2.65l2.78-1.11-.08,19a25.68,25.68,0,0,1-.88,7.63,12.87,12.87,0,0,1-2.7,4.49,12.67,12.67,0,0,1-4.53,3.11c-2.13.88-3.84,1-5.15.35S1804.7,277.1,1804.76,274.69Zm2.56-14.3q0,4.35,1.36,5.78a2.92,2.92,0,0,0,3.48.57,7.23,7.23,0,0,0,3.5-3.4,14.11,14.11,0,0,0,1.43-6.78c0-2.7-.46-4.53-1.42-5.51a3,3,0,0,0-3.48-.65,7.13,7.13,0,0,0-3.43,3.41A13.9,13.9,0,0,0,1807.32,260.39Z"/><path d="M1836.06,257.35a21,21,0,0,1-3.24,3.79,12.05,12.05,0,0,1-3.33,2.09q-2.94,1.2-4.51.08a4.45,4.45,0,0,1-1.56-3.87,9.12,9.12,0,0,1,.61-3.19,10,10,0,0,1,1.57-2.77,12,12,0,0,1,2.17-2.1,27.91,27.91,0,0,1,2.69-1.64,35.93,35.93,0,0,0,5.38-3.45c0-.51,0-.84,0-1,0-1.5-.28-2.45-.84-2.84-.77-.53-1.92-.48-3.43.13a7.31,7.31,0,0,0-3.15,2.18,9.23,9.23,0,0,0-1.51,3.85l-3,.7a14.69,14.69,0,0,1,1.34-4.3,10.67,10.67,0,0,1,2.67-3.28,14.75,14.75,0,0,1,4-2.4,9,9,0,0,1,3.7-.82,2.92,2.92,0,0,1,2.09.81,4.38,4.38,0,0,1,.93,2.14,24.58,24.58,0,0,1,.14,3.35v4.93a60.69,60.69,0,0,0,.17,6.44,6.75,6.75,0,0,0,.75,2.31l-3.15,1.29A6.94,6.94,0,0,1,1836.06,257.35Zm-.23-8.16a31,31,0,0,1-4.93,3.4,15.3,15.3,0,0,0-2.64,1.81,5.14,5.14,0,0,0-1.19,1.69,5,5,0,0,0-.43,1.93,2.36,2.36,0,0,0,.91,2.11,2.84,2.84,0,0,0,2.67-.11,8.37,8.37,0,0,0,3.1-2.2,9.47,9.47,0,0,0,2-3.38,13,13,0,0,0,.5-3.9Z"/><path d="M1855.2,252.2V249q-2.09,4.51-5.66,6a5.86,5.86,0,0,1-2.94.47,2.92,2.92,0,0,1-2-1,5.19,5.19,0,0,1-.92-2.35,21.85,21.85,0,0,1-.18-3.37l0-13.5,3-1.21,0,12.07a25.07,25.07,0,0,0,.18,3.81,2.4,2.4,0,0,0,1.2,1.79,2.74,2.74,0,0,0,2.28-.1,7,7,0,0,0,2.55-1.89,7.86,7.86,0,0,0,1.69-3,15.93,15.93,0,0,0,.5-4.43l0-11.61,3-1.21,0,21.64Z"/><path d="M1861.43,243.2l3-1.78a3.48,3.48,0,0,0,1.39,2.76A3.56,3.56,0,0,0,1869,244a6.67,6.67,0,0,0,3.09-2.28,4.91,4.91,0,0,0,1-2.81,1.52,1.52,0,0,0-.89-1.59,9.29,9.29,0,0,0-3.08,0,20,20,0,0,1-4.6.11,2.73,2.73,0,0,1-1.94-1.27,4.82,4.82,0,0,1-.66-2.63,8.09,8.09,0,0,1,.55-2.9A9.79,9.79,0,0,1,1864,228a10.31,10.31,0,0,1,1.92-1.83,11.43,11.43,0,0,1,2.6-1.49,8.87,8.87,0,0,1,3.68-.74,3,3,0,0,1,2.33,1,5.93,5.93,0,0,1,1,2.91l-3,1.67a2.62,2.62,0,0,0-1.16-2.12,3.18,3.18,0,0,0-2.72.16,6.83,6.83,0,0,0-3,2,3.89,3.89,0,0,0-.89,2.31,1.64,1.64,0,0,0,.37,1.13,1.66,1.66,0,0,0,1.16.51c.3,0,1.19,0,2.66-.15a26.59,26.59,0,0,1,4.46-.11,2.71,2.71,0,0,1,2,1.11,4.66,4.66,0,0,1,.72,2.82,9.23,9.23,0,0,1-.88,3.79,11.13,11.13,0,0,1-2.54,3.53A12.17,12.17,0,0,1,1869,247q-3.48,1.42-5.29.42T1861.43,243.2Z"/><path d="M1878.6,236.21l3-1.78a3.46,3.46,0,0,0,1.41,2.74,3.63,3.63,0,0,0,3.21-.16,6.83,6.83,0,0,0,3.08-2.28,4.86,4.86,0,0,0,1-2.8,1.5,1.5,0,0,0-.89-1.57,9.49,9.49,0,0,0-3.09,0,19.54,19.54,0,0,1-4.6.12,2.76,2.76,0,0,1-2-1.25,4.77,4.77,0,0,1-.66-2.61,8,8,0,0,1,.55-2.88,9.59,9.59,0,0,1,1.48-2.63,10.64,10.64,0,0,1,1.92-1.83,11.18,11.18,0,0,1,2.6-1.48,8.71,8.71,0,0,1,3.68-.75,3,3,0,0,1,2.33,1,5.88,5.88,0,0,1,1,2.88l-3,1.68a2.63,2.63,0,0,0-1.17-2.11,3.19,3.19,0,0,0-2.72.17,6.78,6.78,0,0,0-3,2,3.8,3.8,0,0,0-.89,2.3,1.61,1.61,0,0,0,.37,1.12,1.59,1.59,0,0,0,1.15.5c.31,0,1.19,0,2.67-.15a27.36,27.36,0,0,1,4.47-.13,2.76,2.76,0,0,1,2,1.1,4.59,4.59,0,0,1,.73,2.8,9.14,9.14,0,0,1-.88,3.77,10.86,10.86,0,0,1-2.54,3.51,12.1,12.1,0,0,1-3.75,2.41c-2.32,1-4.08,1.09-5.3.43S1878.94,238.35,1878.6,236.21Z"/><path d="M1894.72,236.52l7.07-33.28,2.41-1-7,33.24Z"/><path d="M1753.68,347.62l2.94-.71c.12,1.09.45,1.78,1,2.06a3.65,3.65,0,0,0,3.07-.26,7.9,7.9,0,0,0,3.26-2.46,8.92,8.92,0,0,0,1.57-3.62,31.91,31.91,0,0,0,.26-5,10.51,10.51,0,0,1-5,5.06q-3.69,1.57-5.68-.91t-2-7.19a22.54,22.54,0,0,1,1-6.35,16.2,16.2,0,0,1,2.72-5.34,10.4,10.4,0,0,1,4.14-3.21q3.17-1.33,5.19,1l0-2.7,2.79-1.18-.15,19.38A26.6,26.6,0,0,1,1768,344a13,13,0,0,1-2.72,4.61,12.8,12.8,0,0,1-4.55,3.22q-3.2,1.38-5.16.42T1753.68,347.62Zm2.63-14.6q0,4.43,1.34,5.87a2.86,2.86,0,0,0,3.48.54,7.49,7.49,0,0,0,3.52-3.51,14.85,14.85,0,0,0,1.47-6.93q0-4.12-1.41-5.6a2.89,2.89,0,0,0-3.49-.62,7.35,7.35,0,0,0-3.44,3.51A14.31,14.31,0,0,0,1756.31,333Z"/><path d="M1785.72,324.9l3.13-.85a16.33,16.33,0,0,1-2.78,6.47,12.29,12.29,0,0,1-5.14,4.08c-2.61,1.12-4.68,1-6.19-.36s-2.26-3.86-2.24-7.5a19.69,19.69,0,0,1,2.39-9.75,12.68,12.68,0,0,1,6-5.64c2.39-1,4.33-.81,5.83.59s2.24,3.91,2.22,7.59c0,.22,0,.56,0,1l-13.32,5.65q.13,3.62,1.62,4.93a3.26,3.26,0,0,0,3.72.36,6.86,6.86,0,0,0,2.86-2.3A12.44,12.44,0,0,0,1785.72,324.9Zm-9.9-1.89,10-4.23a6.23,6.23,0,0,0-1.11-3.73,3,3,0,0,0-3.73-.6,7.61,7.61,0,0,0-3.52,3.22A11.3,11.3,0,0,0,1775.82,323Z"/><path d="M1791.55,318.48a18.35,18.35,0,0,1,2.82-10.31,12.72,12.72,0,0,1,5.63-4.82q3.68-1.55,6,.46c1.54,1.33,2.31,3.75,2.29,7.26a21.23,21.23,0,0,1-1.07,7.14,15.37,15.37,0,0,1-3,5.09,12.64,12.64,0,0,1-4.33,3.2q-3.75,1.61-6-.39T1791.55,318.48Zm3.11-1.32c0,2.84.47,4.76,1.46,5.74a3.14,3.14,0,0,0,3.76.51,8,8,0,0,0,3.77-3.72,15.11,15.11,0,0,0,1.53-7.12q0-4.1-1.47-5.57a3.14,3.14,0,0,0-3.73-.54,7.9,7.9,0,0,0-3.78,3.69A14.61,14.61,0,0,0,1794.66,317.16Z"/><path d="M1811.78,320.9l.11-22,2.71-1.14,0,3.09a13.31,13.31,0,0,1,2.25-3.54,9,9,0,0,1,3.18-2.32,4.46,4.46,0,0,1,3.25-.35,3,3,0,0,1,1.78,2.08c1.42-3.16,3.27-5.21,5.53-6.16q2.65-1.11,4.08.09t1.41,4.94l0,15-3,1.29,0-13.77a10.71,10.71,0,0,0-.29-3.08,1.69,1.69,0,0,0-1.06-1.13,2.51,2.51,0,0,0-1.81.17,6.79,6.79,0,0,0-3.14,2.85,10.59,10.59,0,0,0-1.26,5.45l0,12.74-3,1.3.06-14.26a5.66,5.66,0,0,0-.73-3.41c-.49-.62-1.29-.7-2.41-.22a6.3,6.3,0,0,0-2.37,1.82,8.09,8.09,0,0,0-1.58,3.09,19.12,19.12,0,0,0-.51,4.81l-.06,11.42Z"/><path d="M1852.18,300.94a21.42,21.42,0,0,1-3.24,3.83,12.23,12.23,0,0,1-3.35,2.15c-2,.84-3.47.91-4.52.19s-1.58-2-1.57-3.81a8.87,8.87,0,0,1,.6-3.18,10,10,0,0,1,1.58-2.79,12.26,12.26,0,0,1,2.18-2.14,29.14,29.14,0,0,1,2.69-1.69A37.23,37.23,0,0,0,1852,290c0-.51,0-.83,0-1,0-1.5-.28-2.43-.85-2.8-.77-.51-1.92-.44-3.45.2a7.47,7.47,0,0,0-3.15,2.24,9.34,9.34,0,0,0-1.51,3.86l-3,.76a14.56,14.56,0,0,1,1.34-4.31,10.9,10.9,0,0,1,2.68-3.31,14.69,14.69,0,0,1,4-2.47,9.19,9.19,0,0,1,3.71-.91,3,3,0,0,1,2.1.76,4.1,4.1,0,0,1,.94,2.11,22.58,22.58,0,0,1,.14,3.32v4.9a60.23,60.23,0,0,0,.19,6.39A6.33,6.33,0,0,0,1856,302l-3.17,1.35A6.85,6.85,0,0,1,1852.18,300.94Zm-.23-8.11a31.64,31.64,0,0,1-5,3.49,16.45,16.45,0,0,0-2.65,1.86,5.22,5.22,0,0,0-1.19,1.71,4.65,4.65,0,0,0-.43,1.93,2.28,2.28,0,0,0,.91,2.07,2.87,2.87,0,0,0,2.68-.17,8.73,8.73,0,0,0,3.12-2.26,9.72,9.72,0,0,0,2-3.4,12.68,12.68,0,0,0,.49-3.88Z"/><path d="M1859.65,300.41l0-21.63,2.73-1.14v3.27a15.5,15.5,0,0,1,1.93-3.84,5,5,0,0,1,1.94-1.54,4.28,4.28,0,0,1,3.11-.13l-1,3.82a3.28,3.28,0,0,0-2.22.15,4.46,4.46,0,0,0-1.79,1.47,6.62,6.62,0,0,0-1.12,2.48,19.47,19.47,0,0,0-.51,4.48l0,11.32Z"/><path d="M1871.19,295.48V265.75l3-1.26v16.93l7.16-11.75,3.92-1.65-6.82,10.83,7.52,10.29-3.74,1.6-5.9-8.46-2.14,3.38v8.52Z"/><path d="M1900.64,276l3.13-.87a15.27,15.27,0,0,1-2.74,6.23,12.29,12.29,0,0,1-5.11,4q-3.93,1.68-6.22-.23t-2.31-7.13a18.12,18.12,0,0,1,2.32-9.35,12.63,12.63,0,0,1,6-5.51q3.58-1.5,5.86.45c1.51,1.3,2.28,3.7,2.28,7.21,0,.21,0,.54,0,1l-13.33,5.65c.12,2.3.67,3.86,1.67,4.68a3.41,3.41,0,0,0,3.74.28,7.12,7.12,0,0,0,2.85-2.26A11.86,11.86,0,0,0,1900.64,276Zm-10-1.63,10-4.22a5.71,5.71,0,0,0-1.15-3.54,3.11,3.11,0,0,0-3.75-.51,7.66,7.66,0,0,0-3.51,3.14A10.62,10.62,0,0,0,1890.69,274.39Z"/><path d="M1907.55,279.92l0-21.23,2.73-1.14v3.21a15.33,15.33,0,0,1,1.91-3.78,5.17,5.17,0,0,1,1.94-1.53,4.42,4.42,0,0,1,3.12-.15l-1,3.76a3.34,3.34,0,0,0-2.22.16,4.4,4.4,0,0,0-1.78,1.46,6.51,6.51,0,0,0-1.12,2.44,18.84,18.84,0,0,0-.49,4.4l0,11.1Z"/><g id="private_data"><rect class="cls-3" x="53.97" y="46.65" width="264.96" height="357.8" rx="1"/><line class="cls-4" x1="68.59" y1="111.54" x2="301.27" y2="111.54"/><line class="cls-4" x1="68.59" y1="169.42" x2="301.27" y2="169.42"/><line class="cls-4" x1="68.59" y1="227.3" x2="301.27" y2="227.3"/><line class="cls-4" x1="68.59" y1="285.18" x2="301.27" y2="285.18"/><line class="cls-4" x1="68.59" y1="343.06" x2="301.27" y2="343.06"/><g id="lock"><circle class="cls-5" cx="238.04" cy="316.31" r="104.8"/><path class="cls-4" d="M177.83,296.63v81.06H298.26V296.63H177.83Zm68.9,59.63H229.36l4.55-17a11,11,0,1,1,8.27,0Z"/><path class="cls-4" d="M204.92,296.63l.12-7.53c0-22,7-41.69,32.43-41.69,24.31,0,33.58,18.53,33.58,39.38l.08,9.84"/><path class="cls-4" d="M191.15,297.21V286.79c.4-36.77,18.88-53.27,46.09-53.27,26.58,0,48.4,16.14,48.86,49.79v13.9"/></g></g><text class="cls-6" transform="translate(74.42 98.21)">id</text><text class="cls-6" transform="translate(139.5 99.14)">address</text><rect class="cls-7" x="110.58" y="57.12" width="15.25" height="339.56"/><rect class="cls-3" x="962.31" y="46.65" width="444.04" height="357.8" rx="1"/><line class="cls-4" x1="976.93" y1="111.54" x2="1388.69" y2="111.54"/><line class="cls-4" x1="976.93" y1="169.42" x2="1388.69" y2="169.42"/><line class="cls-4" x1="976.93" y1="227.3" x2="1388.69" y2="227.3"/><line class="cls-4" x1="976.93" y1="285.18" x2="1388.69" y2="285.18"/><line class="cls-4" x1="976.93" y1="343.06" x2="1388.69" y2="343.06"/><text class="cls-6" transform="translate(982.76 98.21)">id</text><text class="cls-6" transform="translate(1044.92 99.14)">address</text><rect class="cls-7" x="1018.93" y="57.12" width="15.25" height="339.56"/><rect class="cls-7" x="1205.67" y="57.12" width="15.25" height="339.56"/><text class="cls-6" transform="translate(1224.15 98.21)">geocode</text><g id="lock-2" data-name="lock"><circle class="cls-5" cx="1325.46" cy="316.31" r="104.8"/><path class="cls-4" d="M1265.25,296.63v81.06h120.43V296.63H1265.25Zm68.9,59.63h-17.37l4.55-17a11,11,0,1,1,8.27,0Z"/><path class="cls-4" d="M1292.34,296.63l.12-7.53c0-22,7-41.69,32.43-41.69,24.31,0,33.58,18.53,33.58,39.38l.08,9.84"/><path class="cls-4" d="M1278.57,297.21V286.79c.4-36.77,18.88-53.27,46.09-53.27,26.58,0,48.4,16.14,48.86,49.79v13.9"/></g><rect class="cls-3" x="2062.21" y="46.65" width="669.98" height="357.8" rx="1"/><line class="cls-4" x1="2076.83" y1="111.54" x2="2711.79" y2="111.54"/><line class="cls-4" x1="2076.83" y1="169.42" x2="2711.79" y2="169.42"/><line class="cls-4" x1="2076.83" y1="227.3" x2="2711.79" y2="227.3"/><line class="cls-4" x1="2076.83" y1="285.18" x2="2711.79" y2="285.18"/><line class="cls-4" x1="2076.83" y1="343.06" x2="2711.79" y2="343.06"/><text class="cls-6" transform="translate(2082.67 98.21)">id</text><text class="cls-6" transform="translate(2145.82 99.14)">address</text><rect class="cls-7" x="2118.83" y="57.12" width="15.25" height="339.56"/><rect class="cls-7" x="2305.57" y="57.12" width="15.25" height="339.56"/><rect class="cls-7" x="2500.38" y="57.12" width="15.25" height="339.56"/><text class="cls-6" transform="translate(2330.05 98.21)">geocode</text><g id="lock-3" data-name="lock"><circle class="cls-5" cx="2650.4" cy="316.31" r="104.8"/><path class="cls-4" d="M2590.18,296.63v81.06h120.43V296.63H2590.18Zm68.9,59.63h-17.37l4.56-17a11,11,0,1,1,8.26,0Z"/><path class="cls-4" d="M2617.28,296.63l.12-7.53c0-22,6.94-41.69,32.42-41.69,24.32,0,33.58,18.53,33.58,39.38l.08,9.84"/><path class="cls-4" d="M2603.5,297.21V286.79c.41-36.77,18.89-53.27,46.1-53.27,26.57,0,48.39,16.14,48.86,49.79v13.9"/></g><text class="cls-6" transform="translate(2515.63 97.98)">geomarker</text><g id="private_data-2" data-name="private_data"><rect class="cls-3" x="3510.33" y="50.82" width="290.21" height="357.8" rx="1"/><line class="cls-4" x1="3526.35" y1="115.71" x2="3781.2" y2="115.71"/><line class="cls-4" x1="3526.35" y1="173.59" x2="3781.2" y2="173.59"/><line class="cls-4" x1="3526.35" y1="231.47" x2="3781.2" y2="231.47"/><line class="cls-4" x1="3526.35" y1="289.35" x2="3781.2" y2="289.35"/><line class="cls-4" x1="3526.35" y1="347.23" x2="3781.2" y2="347.23"/></g><text class="cls-6" transform="translate(3530.79 102.38)">id</text><rect class="cls-7" x="3566.95" y="61.29" width="15.25" height="339.56"/><circle class="cls-8" cx="3731.76" cy="315.47" r="101.47"/><g id="map_pin"><ellipse class="cls-9" cx="3730.6" cy="379.08" rx="56.47" ry="10.84"/><path class="cls-10" d="M3776.76,288.11a46.16,46.16,0,1,0-87.69,20.16h-.15L3730,380a.74.74,0,0,0,1.28,0l41-71.69h-.15A45.89,45.89,0,0,0,3776.76,288.11Z"/><path class="cls-11" d="M3731.05,303.12a20.39,20.39,0,1,1,12.14-4A20.28,20.28,0,0,1,3731.05,303.12Z"/></g><text class="cls-6" transform="translate(3582.2 102.85)">geomarker</text><line class="cls-4" x1="322.11" y1="233.88" x2="416.44" y2="233.88"/><path d="M440.58,233.88c-11.36,4.21-25.46,11.41-34.19,19l6.88-19-6.88-19C415.12,222.48,429.22,229.67,440.58,233.88Z"/><line class="cls-4" x1="838.67" y1="233.88" x2="932.99" y2="233.88"/><path d="M957.13,233.88c-11.35,4.21-25.45,11.41-34.18,19l6.88-19-6.88-19C931.68,222.48,945.78,229.67,957.13,233.88Z"/><line class="cls-4" x1="1414.56" y1="233.88" x2="1508.88" y2="233.88"/><path d="M1533,233.88c-11.35,4.21-25.45,11.41-34.18,19l6.88-19-6.88-19C1507.57,222.48,1521.67,229.67,1533,233.88Z"/><line class="cls-4" x1="1936.12" y1="233.88" x2="2030.44" y2="233.88"/><path d="M2054.58,233.88c-11.36,4.21-25.45,11.41-34.19,19l6.89-19-6.89-19C2029.13,222.48,2043.22,229.67,2054.58,233.88Z"/><line class="cls-4" x1="2741.19" y1="233.88" x2="2835.52" y2="233.88"/><path d="M2859.66,233.88c-11.36,4.21-25.46,11.41-34.19,19l6.88-19-6.88-19C2834.2,222.48,2848.3,229.67,2859.66,233.88Z"/><line class="cls-4" x1="3385.22" y1="233.88" x2="3479.54" y2="233.88"/><path d="M3503.68,233.88c-11.36,4.21-25.45,11.41-34.19,19l6.88-19-6.88-19C3478.23,222.48,3492.32,229.67,3503.68,233.88Z"/><rect class="cls-12" x="2866.31" y="46.65" width="512.26" height="357.8" rx="30"/><rect class="cls-7" x="3124.83" y="66.24" width="214.31" height="149.08" rx="5.52"/><path d="M3333.61,68.24a3.54,3.54,0,0,1,3.53,3.53v138a3.53,3.53,0,0,1-3.53,3.52H3130.35a3.53,3.53,0,0,1-3.52-3.52v-138a3.53,3.53,0,0,1,3.52-3.53h203.26m0-4H3130.35a7.53,7.53,0,0,0-7.52,7.53v138a7.52,7.52,0,0,0,7.52,7.52h203.26a7.53,7.53,0,0,0,7.53-7.52v-138a7.53,7.53,0,0,0-7.53-7.53Z"/><rect class="cls-7" x="3124.83" y="227.58" width="214.31" height="49.22" rx="5.52"/><path d="M3333.61,229.58a3.53,3.53,0,0,1,3.53,3.52v38.17a3.54,3.54,0,0,1-3.53,3.53H3130.35a3.53,3.53,0,0,1-3.52-3.53V233.1a3.53,3.53,0,0,1,3.52-3.52h203.26m0-4H3130.35a7.52,7.52,0,0,0-7.52,7.52v38.17a7.53,7.53,0,0,0,7.52,7.53h203.26a7.53,7.53,0,0,0,7.53-7.53V233.1a7.52,7.52,0,0,0-7.53-7.52Z"/><rect class="cls-12" x="3142.28" y="83.7" width="179.25" height="114.17" rx="5.52"/><path d="M3316,85.7a3.53,3.53,0,0,1,3.53,3.52V192.35a3.53,3.53,0,0,1-3.53,3.52H3147.8a3.53,3.53,0,0,1-3.52-3.52V89.22a3.53,3.53,0,0,1,3.52-3.52H3316m0-4H3147.8a7.52,7.52,0,0,0-7.52,7.52V192.35a7.52,7.52,0,0,0,7.52,7.52H3316a7.53,7.53,0,0,0,7.53-7.52V89.22A7.53,7.53,0,0,0,3316,81.7Z"/><rect class="cls-13" x="3262.24" y="243.58" width="61.29" height="17.5" rx="7.52"/><path class="cls-14" d="M2895.32,368.73a121.75,121.75,0,0,1,25.39-72.63,116.13,116.13,0,0,1,63.13-41.79,2,2,0,0,0,.31-3.77,67.92,67.92,0,0,1-40.7-62.27c0-37.41,30.25-67.85,67.44-67.85s67.43,30.44,67.43,67.85a67.92,67.92,0,0,1-40.61,62.23,2,2,0,0,0,.31,3.77,112.29,112.29,0,0,1,32.16,13.6c34,21.19,55.44,59.7,56.29,100.86Z"/><path d="M3010.89,122.42c36.08,0,65.43,29.54,65.43,65.85a65.93,65.93,0,0,1-39.41,60.4,4,4,0,0,0,.63,7.54,110.47,110.47,0,0,1,31.59,13.35c32.87,20.49,53.79,57.45,55.28,97.17h-227a119.65,119.65,0,0,1,24.93-69.41,114,114,0,0,1,62-41.07,4,4,0,0,0,.62-7.55,65.9,65.9,0,0,1-39.5-60.43c0-36.31,29.36-65.85,65.44-65.85m0-4c-38.29,0-69.44,31.34-69.44,69.85a70,70,0,0,0,41.9,64.1c-51.42,12.92-89.82,61-90.06,118.36h235.2c-.18-42.61-22.08-82.64-57.25-104.56a114.51,114.51,0,0,0-32.73-13.84,69.94,69.94,0,0,0,41.81-64.06c0-38.51-31.15-69.85-69.43-69.85Z"/></g></svg>