<svg id="share_data" data-name="share data" xmlns="http://www.w3.org/2000/svg" width="1913.01" height="1342.42" viewBox="0 0 1913.01 1342.42">
  <defs>
    <style>
      .cls-1 {
        fill: #fff;
      }

      .cls-1, .cls-2, .cls-3, .cls-7 {
        stroke: #000;
      }

      .cls-1, .cls-11, .cls-12, .cls-13, .cls-14, .cls-2, .cls-3, .cls-7, .cls-8, .cls-9 {
        stroke-miterlimit: 10;
      }

      .cls-1, .cls-11, .cls-12, .cls-13, .cls-14, .cls-2, .cls-3, .cls-8, .cls-9 {
        stroke-width: 3px;
      }

      .cls-11, .cls-12, .cls-13, .cls-14, .cls-2, .cls-8, .cls-9 {
        fill: none;
      }

      .cls-3 {
        fill: #ffd400;
      }

      .cls-4 {
        opacity: 0.2;
      }

      .cls-5 {
        font-size: 28.78px;
        font-family: ArialMT, Arial;
      }

      .cls-6 {
        letter-spacing: -0.06em;
      }

      .cls-7 {
        fill: #b80071;
        stroke-linecap: round;
        stroke-width: 0.9px;
      }

      .cls-11, .cls-12, .cls-13, .cls-14, .cls-8, .cls-9 {
        stroke: #999;
      }

      .cls-9 {
        stroke-dasharray: 16.19 16.19;
      }

      .cls-10 {
        fill: #999;
      }

      .cls-11 {
        stroke-dasharray: 14.46 14.46;
      }

      .cls-12 {
        stroke-dasharray: 14.42 14.42;
      }

      .cls-13 {
        stroke-dasharray: 14.44 14.44;
      }

      .cls-14 {
        stroke-dasharray: 15.22 15.22;
      }
    </style>
  </defs>
  <g>
    <g id="private_data">
      <rect class="cls-1" x="33.57" y="121.99" width="99.45" height="129.22" rx="1"/>
      <g>
        <line class="cls-2" x1="48.13" y1="145.42" x2="117.88" y2="145.42"/>
        <line class="cls-2" x1="48.13" y1="166.33" x2="117.88" y2="166.33"/>
        <line class="cls-2" x1="48.13" y1="187.23" x2="117.88" y2="187.23"/>
        <line class="cls-2" x1="48.13" y1="208.13" x2="117.88" y2="208.13"/>
        <line class="cls-2" x1="48.13" y1="229.03" x2="117.88" y2="229.03"/>
      </g>
      <g id="lock">
        <circle class="cls-3" cx="101.18" cy="219.37" r="37.85"/>
        <path class="cls-2" d="M79.44,212.26v29.28h43.49V212.26H79.44Zm24.88,21.54H98.05l1.64-6.14a4,4,0,1,1,3,0Z"/>
        <path class="cls-2" d="M89.22,212.26l0-2.71c0-8,2.51-15.06,11.71-15.06,8.79,0,12.13,6.69,12.13,14.22l0,3.55"/>
        <path class="cls-2" d="M84.25,212.47v-3.76c.14-13.28,6.82-19.24,16.64-19.24,9.6,0,17.48,5.83,17.65,18v5"/>
      </g>
    </g>
    <g id="private_data-2" data-name="private_data">
      <rect class="cls-1" x="33.57" y="645.66" width="99.45" height="129.22" rx="1"/>
      <g>
        <line class="cls-2" x1="48.13" y1="669.09" x2="117.88" y2="669.09"/>
        <line class="cls-2" x1="48.13" y1="690" x2="117.88" y2="690"/>
        <line class="cls-2" x1="48.13" y1="710.9" x2="117.88" y2="710.9"/>
        <line class="cls-2" x1="48.13" y1="731.8" x2="117.88" y2="731.8"/>
        <line class="cls-2" x1="48.13" y1="752.7" x2="117.88" y2="752.7"/>
      </g>
      <g id="lock-2" data-name="lock">
        <circle class="cls-3" cx="101.18" cy="743.04" r="37.85"/>
        <path class="cls-2" d="M79.44,735.93v29.28h43.49V735.93H79.44Zm24.88,21.54H98.05l1.64-6.14a4,4,0,1,1,3,0Z"/>
        <path class="cls-2" d="M89.22,735.93l0-2.71c0-8,2.51-15.06,11.71-15.06,8.79,0,12.13,6.69,12.13,14.22l0,3.55"/>
        <path class="cls-2" d="M84.25,736.14v-3.76c.14-13.28,6.82-19.24,16.64-19.24,9.6,0,17.48,5.83,17.65,18v5"/>
      </g>
    </g>
    <g id="private_data-3" data-name="private_data">
      <rect class="cls-1" x="33.57" y="1085.37" width="99.45" height="129.22" rx="1"/>
      <g>
        <line class="cls-2" x1="48.13" y1="1108.81" x2="117.88" y2="1108.81"/>
        <line class="cls-2" x1="48.13" y1="1129.71" x2="117.88" y2="1129.71"/>
        <line class="cls-2" x1="48.13" y1="1150.61" x2="117.88" y2="1150.61"/>
        <line class="cls-2" x1="48.13" y1="1171.51" x2="117.88" y2="1171.51"/>
        <line class="cls-2" x1="48.13" y1="1192.42" x2="117.88" y2="1192.42"/>
      </g>
      <g id="lock-3" data-name="lock">
        <circle class="cls-3" cx="101.18" cy="1182.76" r="37.85"/>
        <path class="cls-2" d="M79.44,1175.65v29.27h43.49v-29.27H79.44Zm24.88,21.54H98.05l1.64-6.15a4,4,0,1,1,3,0Z"/>
        <path class="cls-2" d="M89.22,1175.65l0-2.72c0-8,2.51-15,11.71-15,8.79,0,12.13,6.69,12.13,14.21l0,3.56"/>
        <path class="cls-2" d="M84.25,1175.86v-3.77c.14-13.27,6.82-19.23,16.64-19.23,9.6,0,17.48,5.83,17.65,18v5"/>
      </g>
    </g>
  </g>
  <g id="hospital">
    <polyline class="cls-2" points="386.59 65.06 408.11 65.06 408.11 293.7 282.88 293.7 282.88 65.06 303.11 65.06"/>
    <g>
      <path d="M485.39,97V288.13H410.47V97h74.92m3-3H407.47V291.13h80.92V94Z"/>
      <g>
        <polyline class="cls-2" points="446.64 135.07 446.64 156.9 446.64 178.74"/>
        <polyline class="cls-2" points="424.81 156.9 446.64 156.9 468.48 156.9"/>
        <path d="M465.48,138.07v37.67H427.81V138.07h37.67m3-3H424.81v43.67h43.67V135.07Z"/>
      </g>
      <g>
        <polyline class="cls-2" points="446.64 206.36 446.64 228.19 446.64 250.03"/>
        <polyline class="cls-2" points="424.81 228.19 446.64 228.19 468.48 228.19"/>
        <path d="M465.48,209.36V247H427.81V209.36h37.67m3-3H424.81V250h43.67V206.36Z"/>
      </g>
    </g>
    <g>
      <path d="M280.52,97.61V288.77H205.59V97.61h74.93m3-3H202.59V291.77h80.93V94.61Z"/>
      <g>
        <polyline class="cls-2" points="241.77 135.71 241.77 157.55 241.77 179.38"/>
        <polyline class="cls-2" points="219.94 157.55 241.77 157.55 263.61 157.55"/>
        <path d="M260.61,138.71v37.67H222.94V138.71h37.67m3-3H219.94v43.67h43.67V135.71Z"/>
      </g>
      <g>
        <polyline class="cls-2" points="241.77 207 241.77 228.84 241.77 250.67"/>
        <polyline class="cls-2" points="219.94 228.84 241.77 228.84 263.61 228.84"/>
        <path d="M260.61,210v37.67H222.94V210h37.67m3-3H219.94v43.67h43.67V207Z"/>
      </g>
    </g>
    <rect class="cls-2" x="303.11" y="128.32" width="82.21" height="30.83"/>
    <rect class="cls-2" x="303.11" y="174.57" width="82.21" height="30.83"/>
    <rect class="cls-2" x="303.11" y="220.16" width="82.21" height="73.22"/>
    <line class="cls-2" x1="344.79" y1="220.16" x2="344.27" y2="293.38"/>
    <circle class="cls-2" cx="344.85" cy="65.39" r="41.75"/>
    <polygon class="cls-2" points="366.04 58.96 366.04 75.02 352.56 75.02 352.56 87.86 336.5 87.86 336.5 75.02 324.3 75.02 324.3 58.96 336.5 58.96 336.5 46.12 352.56 46.12 352.56 58.96 366.04 58.96"/>
  </g>
  <g>
    <rect class="cls-4" x="286.36" y="316.59" width="107.36" height="41.98" rx="17.5"/>
    <text class="cls-5" transform="translate(303.2 346.75)">Site<tspan class="cls-6" x="49.6" y="0" xml:space="preserve"> A</tspan></text>
  </g>
  <g id="institution">
    <rect class="cls-2" x="203.42" y="639.2" width="286.92" height="107.69"/>
    <rect class="cls-2" x="189.4" y="746.89" width="314.94" height="37.62"/>
    <rect class="cls-2" x="276.44" y="552.17" width="138.66" height="87.03"/>
    <rect class="cls-2" x="319.21" y="707.06" width="52.37" height="39.83"/>
    <rect class="cls-2" x="218.17" y="710.75" width="58.27" height="19.18"/>
    <rect class="cls-2" x="221.86" y="653.22" width="51.26" height="29.5"/>
    <rect class="cls-2" x="287.5" y="653.22" width="51.26" height="29.5"/>
    <rect class="cls-2" x="352.41" y="653.22" width="51.26" height="29.5"/>
    <rect class="cls-2" x="418.79" y="653.22" width="51.26" height="29.5"/>
    <rect class="cls-2" x="415.1" y="710.75" width="58.27" height="19.18"/>
    <path class="cls-2" d="M342.53,587.94h7.22a8.19,8.19,0,0,1,8.19,8.19v11a0,0,0,0,1,0,0h-23.6a0,0,0,0,1,0,0v-11A8.19,8.19,0,0,1,342.53,587.94Z"/>
    <path class="cls-2" d="M380.14,587.94h7.22a8.19,8.19,0,0,1,8.19,8.19v11a0,0,0,0,1,0,0H372a0,0,0,0,1,0,0v-11A8.19,8.19,0,0,1,380.14,587.94Z"/>
    <path class="cls-2" d="M305.65,587.94h7.22a8.19,8.19,0,0,1,8.19,8.19v11a0,0,0,0,1,0,0h-23.6a0,0,0,0,1,0,0v-11A8.19,8.19,0,0,1,305.65,587.94Z"/>
    <polygon class="cls-2" points="346.14 519.54 258.79 552.17 434.8 552.17 346.14 519.54"/>
    <line class="cls-2" x1="346.14" y1="489.05" x2="346.14" y2="519.54"/>
    <rect class="cls-2" x="346.14" y="489.11" width="21.39" height="13.28"/>
  </g>
  <g>
    <rect class="cls-4" x="288.95" y="811.19" width="104.95" height="41.98" rx="17.5"/>
    <text class="cls-5" transform="translate(303.2 841.65)">Site B</text>
  </g>
  <g id="hospital-2" data-name="hospital">
    <polyline class="cls-2" points="386.59 1025.38 408.11 1025.38 408.11 1254.02 282.88 1254.02 282.88 1025.38 303.11 1025.38"/>
    <g>
      <path d="M485.39,1057.28v191.17H410.47V1057.28h74.92m3-3H407.47v197.17h80.92V1054.28Z"/>
      <g>
        <polyline class="cls-2" points="446.64 1095.38 446.64 1117.22 446.64 1139.06"/>
        <polyline class="cls-2" points="424.81 1117.22 446.64 1117.22 468.48 1117.22"/>
        <path d="M465.48,1098.38v37.68H427.81v-37.68h37.67m3-3H424.81v43.68h43.67v-43.68Z"/>
      </g>
      <g>
        <polyline class="cls-2" points="446.64 1166.67 446.64 1188.51 446.64 1210.35"/>
        <polyline class="cls-2" points="424.81 1188.51 446.64 1188.51 468.48 1188.51"/>
        <path d="M465.48,1169.67v37.67H427.81v-37.67h37.67m3-3H424.81v43.67h43.67v-43.67Z"/>
      </g>
    </g>
    <g>
      <path d="M280.52,1057.92v191.17H205.59V1057.92h74.93m3-3H202.59v197.17h80.93V1054.92Z"/>
      <g>
        <polyline class="cls-2" points="241.77 1096.03 241.77 1117.86 241.77 1139.7"/>
        <polyline class="cls-2" points="219.94 1117.86 241.77 1117.86 263.61 1117.86"/>
        <path d="M260.61,1099v37.67H222.94V1099h37.67m3-3H219.94v43.67h43.67V1096Z"/>
      </g>
      <g>
        <polyline class="cls-2" points="241.77 1167.32 241.77 1189.15 241.77 1210.99"/>
        <polyline class="cls-2" points="219.94 1189.15 241.77 1189.15 263.61 1189.15"/>
        <path d="M260.61,1170.31V1208H222.94v-37.68h37.67m3-3H219.94V1211h43.67v-43.68Z"/>
      </g>
    </g>
    <rect class="cls-2" x="303.11" y="1088.64" width="82.21" height="30.83"/>
    <rect class="cls-2" x="303.11" y="1134.88" width="82.21" height="30.83"/>
    <rect class="cls-2" x="303.11" y="1180.48" width="82.21" height="73.22"/>
    <line class="cls-2" x1="344.79" y1="1180.48" x2="344.27" y2="1253.7"/>
    <circle class="cls-2" cx="344.85" cy="1025.7" r="41.75"/>
    <polygon class="cls-2" points="366.04 1019.28 366.04 1035.34 352.56 1035.34 352.56 1048.18 336.5 1048.18 336.5 1035.34 324.3 1035.34 324.3 1019.28 336.5 1019.28 336.5 1006.43 352.56 1006.43 352.56 1019.28 366.04 1019.28"/>
  </g>
  <g>
    <rect class="cls-4" x="291.35" y="1276.8" width="102.36" height="41.98" rx="17.5"/>
    <text class="cls-5" transform="translate(303.2 1307.27)">Site C</text>
  </g>
  <g id="DAC">
    <rect class="cls-2" x="1138.48" y="551.71" width="226.08" height="332.72"/>
    <g>
      <polyline class="cls-2" points="1183.47 588.49 1183.47 610.33 1183.47 632.16"/>
      <polyline class="cls-2" points="1161.63 610.33 1183.47 610.33 1205.31 610.33"/>
      <path d="M1202.31,591.49v37.68h-37.68V591.49h37.68m3-3h-43.68v43.68h43.68V588.49Z"/>
    </g>
    <g>
      <polyline class="cls-2" points="1318.55 588.49 1318.55 610.33 1318.55 632.16"/>
      <polyline class="cls-2" points="1296.71 610.33 1318.55 610.33 1340.38 610.33"/>
      <path d="M1337.38,591.49v37.68h-37.67V591.49h37.67m3-3h-43.67v43.68h43.67V588.49Z"/>
    </g>
    <g>
      <polyline class="cls-2" points="1250.3 588.49 1250.3 610.33 1250.3 632.16"/>
      <polyline class="cls-2" points="1228.46 610.33 1250.3 610.33 1272.13 610.33"/>
      <path d="M1269.13,591.49v37.68h-37.67V591.49h37.67m3-3h-43.67v43.68h43.67V588.49Z"/>
    </g>
    <g>
      <polyline class="cls-2" points="1183.47 665.27 1183.47 687.11 1183.47 708.95"/>
      <polyline class="cls-2" points="1161.63 687.11 1183.47 687.11 1205.31 687.11"/>
      <path d="M1202.31,668.27V706h-37.68V668.27h37.68m3-3h-43.68V709h43.68V665.27Z"/>
    </g>
    <g>
      <polyline class="cls-2" points="1318.55 665.27 1318.55 687.11 1318.55 708.95"/>
      <polyline class="cls-2" points="1296.71 687.11 1318.55 687.11 1340.38 687.11"/>
      <path d="M1337.38,668.27V706h-37.67V668.27h37.67m3-3h-43.67V709h43.67V665.27Z"/>
    </g>
    <g>
      <polyline class="cls-2" points="1250.3 665.27 1250.3 687.11 1250.3 708.95"/>
      <polyline class="cls-2" points="1228.46 687.11 1250.3 687.11 1272.13 687.11"/>
      <path d="M1269.13,668.27V706h-37.67V668.27h37.67m3-3h-43.67V709h43.67V665.27Z"/>
    </g>
    <g>
      <polyline class="cls-2" points="1183.47 739.21 1183.47 761.05 1183.47 782.88"/>
      <polyline class="cls-2" points="1161.63 761.05 1183.47 761.05 1205.31 761.05"/>
      <path d="M1202.31,742.21v37.67h-37.68V742.21h37.68m3-3h-43.68v43.67h43.68V739.21Z"/>
    </g>
    <g>
      <polyline class="cls-2" points="1318.55 739.21 1318.55 761.05 1318.55 782.88"/>
      <polyline class="cls-2" points="1296.71 761.05 1318.55 761.05 1340.38 761.05"/>
      <path d="M1337.38,742.21v37.67h-37.67V742.21h37.67m3-3h-43.67v43.67h43.67V739.21Z"/>
    </g>
    <g>
      <polyline class="cls-2" points="1250.3 739.21 1250.3 761.05 1250.3 782.88"/>
      <polyline class="cls-2" points="1228.46 761.05 1250.3 761.05 1272.13 761.05"/>
      <path d="M1269.13,742.21v37.67h-37.67V742.21h37.67m3-3h-43.67v43.67h43.67V739.21Z"/>
    </g>
    <rect class="cls-2" x="1209.36" y="810.78" width="82.21" height="73.22"/>
    <line class="cls-2" x1="1251.04" y1="810.78" x2="1250.52" y2="884"/>
  </g>
  <g>
    <rect class="cls-4" x="1205.34" y="905.17" width="90.74" height="41.98" rx="17.5"/>
    <text class="cls-5" transform="translate(1220.79 936.84)">DAC</text>
  </g>
  <g>
    <g id="desktop_computer">
      <g id="cpu">
        <path class="cls-1" d="M1879.44,771.27a.66.66,0,0,1-.66.66h-72a.67.67,0,0,1-.67-.66V640.18a.67.67,0,0,1,.67-.67h72a.66.66,0,0,1,.66.67Z"/>
        <line class="cls-1" x1="1809.99" y1="781.02" x2="1810.16" y2="771.93"/>
        <line class="cls-1" x1="1875.75" y1="771.93" x2="1875.75" y2="781.02"/>
        <line class="cls-1" x1="1821.02" y1="661.58" x2="1866.71" y2="661.58"/>
        <line class="cls-1" x1="1821.02" y1="675.21" x2="1866.71" y2="675.21"/>
        <line class="cls-1" x1="1821.02" y1="688.85" x2="1866.71" y2="688.85"/>
        <circle class="cls-1" cx="1843.74" cy="740.12" r="7.14"/>
      </g>
      <g id="monitor">
        <rect class="cls-1" x="1697.05" y="679.76" width="127.87" height="80.49" rx="1.02"/>
        <rect class="cls-1" x="1748.97" y="760.25" width="22.72" height="17.53" rx="1.02"/>
        <line class="cls-1" x1="1732.95" y1="777.77" x2="1787.6" y2="777.77"/>
        <line class="cls-1" x1="1697.05" y1="744.78" x2="1824.92" y2="744.78"/>
      </g>
    </g>
    <g id="three_gears">
      <g>
        <g id="gear">
          <g id="_Radial_Repeat_" data-name="&lt;Radial Repeat&gt;">
            <path class="cls-7" d="M1754.54,721.41c0,.21-.2.43-.52.49l-2.13.72-.17.06a11.35,11.35,0,0,1-1,4.73l.13.12,1.7,1.53c.27.2.39.5.26.68l-1.63,2.25c-.13.18-.45.16-.72,0l-2-1-.15-.08a11.55,11.55,0,0,1-4.13,2.67v.17l.09,2.21c.05.33-.08.63-.3.66l-2.75.4c-.22,0-.43-.21-.48-.54l-.62-2-.06-.17a11.43,11.43,0,0,1-4.84-1.13l-.12.13-1.49,1.57c-.2.27-.5.37-.67.24l-2.22-1.69c-.17-.13-.14-.45.06-.72l1-1.82.08-.16a11.38,11.38,0,0,1-2.56-4.28h-.18l-2.16,0c-.33,0-.62-.1-.64-.32l-.34-2.76c0-.22.22-.42.55-.46l2-.58.16-.05a11.5,11.5,0,0,1,1.3-4.77l-.13-.13-1.57-1.56c-.26-.21-.36-.51-.23-.68l1.75-2.17c.14-.17.45-.14.71.07l1.89,1.08.15.09a11.41,11.41,0,0,1,3.2-2l0-.18-.21-2.27c-.06-.32.06-.62.27-.66l2.73-.55c.21,0,.44.19.5.52l.77,2.1.06.16a11.38,11.38,0,0,1,4.74.91l.11-.14,1.52-1.78c.19-.27.49-.4.66-.27l2.3,1.58c.18.12.17.44,0,.71l-1,2.06-.08.16a11.32,11.32,0,0,1,2.68,4h.18l2.33-.16c.33,0,.63.07.66.28Zm-15.83-4.69a6.28,6.28,0,1,0,7.63,4.54A6.29,6.29,0,0,0,1738.71,716.72Z"/>
          </g>
        </g>
        <g id="gear-2" data-name="gear">
          <g id="_Radial_Repeat_2" data-name="&lt;Radial Repeat&gt;">
            <path class="cls-7" d="M1753.75,698.11c0,.17-.19.32-.45.34l-1.71.39-.13,0a9,9,0,0,1-1.14,3.59l.09.1,1.2,1.33c.2.17.26.41.15.54l-1.45,1.61c-.11.13-.36.09-.55-.09l-1.43-.92-.11-.07a9,9,0,0,1-3.41,1.73v.14l-.11,1.71c0,.27-.11.48-.28.49l-2.17.09c-.17,0-.31-.2-.32-.46l-.33-1.61,0-.13a8.89,8.89,0,0,1-3.66-1.27l-.1.09-1.28,1.1c-.18.19-.42.25-.54.14l-1.58-1.49c-.12-.12-.08-.36.1-.55l.91-1.34.08-.11a8.84,8.84,0,0,1-1.64-3.52l-.14,0-1.67-.14c-.26,0-.48-.13-.48-.3l0-2.17c0-.17.21-.31.47-.31l1.61-.28.14,0a8.79,8.79,0,0,1,1.38-3.59L1735,693l-1.1-1.34c-.18-.18-.24-.42-.12-.54l1.53-1.55c.12-.12.36-.06.55.12l1.37,1,.11.08a9.07,9.07,0,0,1,2.63-1.29v-.14l0-1.77c0-.26.09-.48.26-.5l2.16-.2c.16,0,.32.19.34.44l.43,1.69,0,.13a9,9,0,0,1,3.59,1.08l.1-.09,1.32-1.26c.17-.2.41-.27.54-.16l1.65,1.41c.13.11.09.36-.08.55l-.92,1.52-.07.11a8.93,8.93,0,0,1,1.75,3.31h.14l1.82.07c.26,0,.48.1.49.27Zm-11.89-4.9a4.89,4.89,0,1,0,5.54,4.13A4.89,4.89,0,0,0,1741.86,693.21Z"/>
          </g>
        </g>
        <g id="gear-3" data-name="gear">
          <g id="_Radial_Repeat_3" data-name="&lt;Radial Repeat&gt;">
            <path class="cls-7" d="M1791.49,710.42c0,.31-.35.58-.82.61l-3.11.71-.25.06a16.08,16.08,0,0,1-2.06,6.54l.17.19,2.18,2.41c.35.32.47.76.27,1l-2.64,2.94c-.2.23-.66.16-1-.16l-2.6-1.68-.21-.14a16.09,16.09,0,0,1-6.22,3.16v.25l-.19,3.13c0,.48-.22.87-.52.88l-4,.17c-.31,0-.57-.36-.59-.83l-.59-2.93,0-.25a16.27,16.27,0,0,1-6.68-2.3l-.19.16-2.32,2c-.33.35-.77.46-1,.25l-2.88-2.71c-.22-.21-.14-.66.18-1l1.67-2.43.14-.21a16.16,16.16,0,0,1-3-6.42l-.25,0-3-.26c-.47,0-.86-.23-.86-.54l-.07-4c0-.31.37-.56.85-.57l2.93-.52.25,0a16.36,16.36,0,0,1,2.53-6.56l-.16-.19-2-2.44c-.34-.33-.44-.77-.23-1l2.79-2.81c.21-.22.66-.12,1,.21l2.5,1.8.2.15a16.13,16.13,0,0,1,4.8-2.35v-.25l0-3.23c0-.48.17-.88.48-.91l3.93-.36c.31,0,.59.33.63.8l.78,3.08.07.24a16.11,16.11,0,0,1,6.55,2l.18-.17,2.41-2.3c.3-.36.74-.49,1-.29l3,2.56c.24.2.18.66-.13,1l-1.69,2.75-.13.21a16,16,0,0,1,3.2,6h.25l3.32.12c.47,0,.87.19.89.5Zm-21.67-8.93a8.9,8.9,0,1,0,10.11,7.52A8.91,8.91,0,0,0,1769.82,701.49Z"/>
          </g>
        </g>
      </g>
    </g>
  </g>
  <g id="data_stack" data-name="data stack">
    <g id="data">
      <rect class="cls-1" x="1675.84" y="1021.02" width="119.53" height="155.31" rx="1"/>
      <g>
        <line class="cls-2" x1="1693.35" y1="1049.19" x2="1777.18" y2="1049.19"/>
        <line class="cls-2" x1="1693.35" y1="1074.31" x2="1777.18" y2="1074.31"/>
        <line class="cls-2" x1="1693.35" y1="1099.44" x2="1777.18" y2="1099.44"/>
        <line class="cls-2" x1="1693.35" y1="1124.56" x2="1777.18" y2="1124.56"/>
        <line class="cls-2" x1="1693.35" y1="1149.69" x2="1777.18" y2="1149.69"/>
      </g>
    </g>
    <g id="data-2" data-name="data">
      <rect class="cls-1" x="1699.44" y="1025.59" width="119.53" height="155.31" rx="1"/>
      <g>
        <line class="cls-2" x1="1716.95" y1="1053.76" x2="1800.78" y2="1053.76"/>
        <line class="cls-2" x1="1716.95" y1="1078.88" x2="1800.78" y2="1078.88"/>
        <line class="cls-2" x1="1716.95" y1="1104.01" x2="1800.78" y2="1104.01"/>
        <line class="cls-2" x1="1716.95" y1="1129.13" x2="1800.78" y2="1129.13"/>
        <line class="cls-2" x1="1716.95" y1="1154.25" x2="1800.78" y2="1154.25"/>
      </g>
    </g>
    <g id="data-3" data-name="data">
      <rect class="cls-1" x="1722.66" y="1029.77" width="119.53" height="155.31" rx="1"/>
      <g>
        <line class="cls-2" x1="1740.17" y1="1057.94" x2="1824" y2="1057.94"/>
        <line class="cls-2" x1="1740.17" y1="1083.07" x2="1824" y2="1083.07"/>
        <line class="cls-2" x1="1740.17" y1="1108.19" x2="1824" y2="1108.19"/>
        <line class="cls-2" x1="1740.17" y1="1133.32" x2="1824" y2="1133.32"/>
        <line class="cls-2" x1="1740.17" y1="1158.44" x2="1824" y2="1158.44"/>
      </g>
    </g>
  </g>
  <g id="private_data_stack" data-name="private data stack">
    <g id="data_stack-2" data-name="data stack">
      <g id="data-4" data-name="data">
        <path class="cls-1" d="M1388.65,647h115.53a1,1,0,0,1,1,1V799.74a0,0,0,0,1,0,0H1388.65a1,1,0,0,1-1-1V648A1,1,0,0,1,1388.65,647Z"/>
        <g>
          <line class="cls-2" x1="1404.87" y1="674.72" x2="1487.29" y2="674.72"/>
          <line class="cls-2" x1="1404.87" y1="699.43" x2="1487.29" y2="699.43"/>
          <line class="cls-2" x1="1404.87" y1="724.13" x2="1487.29" y2="724.13"/>
          <line class="cls-2" x1="1404.87" y1="748.83" x2="1487.29" y2="748.83"/>
          <line class="cls-2" x1="1404.87" y1="773.54" x2="1487.29" y2="773.54"/>
        </g>
      </g>
      <g id="data-5" data-name="data">
        <path class="cls-1" d="M1411.85,651.52h115.53a1,1,0,0,1,1,1V804.23a0,0,0,0,1,0,0H1411.85a1,1,0,0,1-1-1V652.52A1,1,0,0,1,1411.85,651.52Z"/>
        <g>
          <line class="cls-2" x1="1428.07" y1="679.21" x2="1510.5" y2="679.21"/>
          <line class="cls-2" x1="1428.07" y1="703.92" x2="1510.5" y2="703.92"/>
          <line class="cls-2" x1="1428.07" y1="728.62" x2="1510.5" y2="728.62"/>
          <line class="cls-2" x1="1428.07" y1="753.32" x2="1510.5" y2="753.32"/>
          <line class="cls-2" x1="1428.07" y1="778.03" x2="1510.5" y2="778.03"/>
        </g>
      </g>
      <g id="data-6" data-name="data">
        <rect class="cls-1" x="1433.69" y="655.63" width="117.53" height="152.71" rx="1"/>
        <g>
          <line class="cls-2" x1="1450.9" y1="683.33" x2="1533.33" y2="683.33"/>
          <line class="cls-2" x1="1450.9" y1="708.03" x2="1533.33" y2="708.03"/>
          <line class="cls-2" x1="1450.9" y1="732.74" x2="1533.33" y2="732.74"/>
          <line class="cls-2" x1="1450.9" y1="757.44" x2="1533.33" y2="757.44"/>
          <line class="cls-2" x1="1450.9" y1="782.14" x2="1533.33" y2="782.14"/>
        </g>
      </g>
    </g>
    <g id="lock-4" data-name="lock">
      <circle class="cls-3" cx="1513.97" cy="771.85" r="44.73"/>
      <path class="cls-2" d="M1488.27,763.45V798h51.4V763.45h-51.4Zm29.41,25.45h-7.42l2-7.26a4.7,4.7,0,1,1,3.53,0Z"/>
      <path class="cls-2" d="M1499.83,763.45l.06-3.21c0-9.39,3-17.8,13.83-17.8,10.38,0,14.34,7.91,14.34,16.81l0,4.2"/>
      <path class="cls-2" d="M1494,763.7v-4.45c.17-15.7,8-22.74,19.67-22.74,11.34,0,20.65,6.89,20.85,21.26v5.93"/>
    </g>
  </g>
  <g>
    <line class="cls-8" x1="1678.94" y1="727.87" x2="1671.74" y2="727.87"/>
    <line class="cls-9" x1="1655.55" y1="727.87" x2="1566.5" y2="727.87"/>
    <line class="cls-8" x1="1558.41" y1="727.87" x2="1551.21" y2="727.87"/>
    <path class="cls-10" d="M1697.05,727.87c-8.52-3.16-19.09-8.55-25.65-14.27l5.16,14.27-5.16,14.27C1678,736.42,1688.53,731,1697.05,727.87Z"/>
  </g>
  <g>
    <line class="cls-8" x1="488.13" y1="1154.64" x2="494.73" y2="1151.79"/>
    <line class="cls-11" x1="508.01" y1="1146.05" x2="1085.53" y2="896.49"/>
    <line class="cls-8" x1="1092.17" y1="893.62" x2="1098.77" y2="890.77"/>
    <path class="cls-10" d="M1115.39,883.58c-6.56,6.29-14.13,15.43-17.88,23.27l-.92-15.14-10.39-11.05C1094.48,883.31,1106.32,884.06,1115.39,883.58Z"/>
  </g>
  <g>
    <line class="cls-8" x1="491.72" y1="715.67" x2="498.92" y2="715.58"/>
    <line class="cls-12" x1="513.34" y1="715.38" x2="1082.88" y2="707.72"/>
    <line class="cls-8" x1="1090.09" y1="707.62" x2="1097.29" y2="707.52"/>
    <path class="cls-10" d="M1115.39,707.28c-8.47,3.27-19,8.81-25.45,14.61l5-14.34-5.35-14.19C1096.19,699,1106.83,704.23,1115.39,707.28Z"/>
  </g>
  <g>
    <line class="cls-8" x1="491.22" y1="212.77" x2="497.54" y2="216.22"/>
    <line class="cls-13" x1="510.21" y1="223.14" x2="1086.85" y2="538.17"/>
    <line class="cls-8" x1="1093.19" y1="541.63" x2="1099.5" y2="545.08"/>
    <path class="cls-10" d="M1115.39,553.76c-9-1.31-20.85-1.65-29.34.23l11.37-10,2.31-15C1102.74,537.1,1109.43,546.9,1115.39,553.76Z"/>
  </g>
  <g id="private_data-4" data-name="private_data">
    <rect class="cls-1" x="735.05" y="288.25" width="99.45" height="129.22" rx="1"/>
    <g>
      <line class="cls-2" x1="749.62" y1="311.68" x2="819.36" y2="311.68"/>
      <line class="cls-2" x1="749.62" y1="332.59" x2="819.36" y2="332.59"/>
      <line class="cls-2" x1="749.62" y1="353.49" x2="819.36" y2="353.49"/>
      <line class="cls-2" x1="749.62" y1="374.39" x2="819.36" y2="374.39"/>
      <line class="cls-2" x1="749.62" y1="395.29" x2="819.36" y2="395.29"/>
    </g>
    <g id="lock-5" data-name="lock">
      <circle class="cls-3" cx="802.67" cy="385.63" r="37.85"/>
      <path class="cls-2" d="M780.92,378.52V407.8h43.49V378.52H780.92Zm24.88,21.54h-6.27l1.64-6.14a4,4,0,1,1,3,0Z"/>
      <path class="cls-2" d="M790.7,378.52l0-2.71c0-7.95,2.51-15.06,11.71-15.06,8.78,0,12.12,6.69,12.12,14.22l0,3.55"/>
      <path class="cls-2" d="M785.73,378.73V375c.15-13.28,6.82-19.24,16.65-19.24,9.59,0,17.47,5.83,17.64,18v5"/>
    </g>
  </g>
  <g id="private_data-5" data-name="private_data">
    <rect class="cls-1" x="740.11" y="635.52" width="99.45" height="129.22" rx="1"/>
    <g>
      <line class="cls-2" x1="754.68" y1="658.96" x2="824.42" y2="658.96"/>
      <line class="cls-2" x1="754.68" y1="679.86" x2="824.42" y2="679.86"/>
      <line class="cls-2" x1="754.68" y1="700.76" x2="824.42" y2="700.76"/>
      <line class="cls-2" x1="754.68" y1="721.66" x2="824.42" y2="721.66"/>
      <line class="cls-2" x1="754.68" y1="742.57" x2="824.42" y2="742.57"/>
    </g>
    <g id="lock-6" data-name="lock">
      <circle class="cls-3" cx="807.73" cy="732.91" r="37.85"/>
      <path class="cls-2" d="M786,725.8v29.27h43.49V725.8H786Zm24.88,21.54h-6.27l1.64-6.15a4,4,0,1,1,3,0Z"/>
      <path class="cls-2" d="M795.76,725.8l0-2.72c0-8,2.51-15.05,11.71-15.05,8.78,0,12.12,6.69,12.12,14.21l0,3.56"/>
      <path class="cls-2" d="M790.79,726v-3.77C790.94,709,797.61,703,807.44,703c9.59,0,17.47,5.83,17.64,18v5"/>
    </g>
  </g>
  <g id="private_data-6" data-name="private_data">
    <rect class="cls-1" x="738.06" y="970.5" width="99.45" height="129.22" rx="1"/>
    <g>
      <line class="cls-2" x1="752.63" y1="993.94" x2="822.37" y2="993.94"/>
      <line class="cls-2" x1="752.63" y1="1014.84" x2="822.37" y2="1014.84"/>
      <line class="cls-2" x1="752.63" y1="1035.75" x2="822.37" y2="1035.75"/>
      <line class="cls-2" x1="752.63" y1="1056.65" x2="822.37" y2="1056.65"/>
      <line class="cls-2" x1="752.63" y1="1077.55" x2="822.37" y2="1077.55"/>
    </g>
    <g id="lock-7" data-name="lock">
      <circle class="cls-3" cx="805.67" cy="1067.89" r="37.85"/>
      <path class="cls-2" d="M783.93,1060.78v29.27h43.49v-29.27H783.93Zm24.88,21.54h-6.27l1.64-6.14a4,4,0,1,1,3,0Z"/>
      <path class="cls-2" d="M793.71,1060.78l0-2.72c0-7.94,2.51-15,11.71-15,8.78,0,12.12,6.69,12.12,14.22l0,3.55"/>
      <path class="cls-2" d="M788.74,1061v-3.76c.14-13.28,6.82-19.24,16.65-19.24,9.59,0,17.47,5.83,17.64,18v5"/>
    </g>
  </g>
  <g>
    <line class="cls-8" x1="1770.62" y1="993.3" x2="1770.59" y2="986.11"/>
    <line class="cls-14" x1="1770.52" y1="970.88" x2="1769.78" y2="795.82"/>
    <line class="cls-8" x1="1769.75" y1="788.21" x2="1769.72" y2="781.02"/>
    <path class="cls-10" d="M1770.7,1011.41c3.12-8.53,8.47-19.13,14.15-25.7l-14.24,5.22-14.29-5.1C1762.06,992.36,1767.5,1002.9,1770.7,1011.41Z"/>
  </g>
</svg>
