<svg xmlns="http://www.w3.org/2000/svg" viewBox="0 0 1597.6 1121.09"><defs><style>.cls-1{fill:#fff;}.cls-1,.cls-10,.cls-2,.cls-3,.cls-7,.cls-8,.cls-9{stroke:#000;}.cls-1,.cls-10,.cls-12,.cls-13,.cls-15,.cls-16,.cls-17,.cls-18,.cls-2,.cls-3,.cls-7,.cls-8,.cls-9{stroke-miterlimit:10;}.cls-1,.cls-10,.cls-12,.cls-13,.cls-15,.cls-16,.cls-17,.cls-18,.cls-2,.cls-3,.cls-8,.cls-9{stroke-width:1.5px;}.cls-12,.cls-13,.cls-15,.cls-16,.cls-17,.cls-18,.cls-2{fill:none;}.cls-3{fill:#ffd400;}.cls-4{opacity:0.2;}.cls-5{font-size:24px;font-family:ArialMT, Arial;}.cls-6{letter-spacing:-0.06em;}.cls-7{fill:#b80071;stroke-width:0.75px;}.cls-8{fill:#00bcb7;}.cls-11,.cls-9{fill:#002546;}.cls-10{fill:#b794da;}.cls-12,.cls-13,.cls-15,.cls-16,.cls-17,.cls-18{stroke:#999;}.cls-13{stroke-dasharray:13.07 13.07;}.cls-14{fill:#999;}.cls-15{stroke-dasharray:11.99 11.99;}.cls-16{stroke-dasharray:11.95 11.95;}.cls-17{stroke-dasharray:11.98 11.98;}.cls-18{stroke-dasharray:12.46 12.46;}</style></defs><g id="share_data" data-name="share data"><g id="private_data"><rect class="cls-1" x="29.27" y="102.61" width="82.92" height="107.74" rx="1"/><line class="cls-2" x1="41.42" y1="122.15" x2="99.57" y2="122.15"/><line class="cls-2" x1="41.42" y1="139.58" x2="99.57" y2="139.58"/><line class="cls-2" x1="41.42" y1="157.01" x2="99.57" y2="157.01"/><line class="cls-2" x1="41.42" y1="174.44" x2="99.57" y2="174.44"/><line class="cls-2" x1="41.42" y1="191.87" x2="99.57" y2="191.87"/><g id="lock"><circle class="cls-3" cx="85.65" cy="183.81" r="31.56"/><path class="cls-2" d="M67.52,177.89v24.4h36.26v-24.4H67.52Zm20.75,18H83l1.37-5.12a3.31,3.31,0,1,1,2.49,0Z"/><path class="cls-2" d="M75.68,177.89l0-2.27c0-6.63,2.1-12.55,9.77-12.55,7.32,0,10.11,5.58,10.11,11.85l0,3"/><path class="cls-2" d="M71.53,178.06v-3.14c.12-11.07,5.69-16,13.88-16,8,0,14.57,4.86,14.71,15v4.18"/></g></g><g id="private_data-2" data-name="private_data"><rect class="cls-1" x="29.27" y="539.24" width="82.92" height="107.74" rx="1"/><line class="cls-2" x1="41.42" y1="558.78" x2="99.57" y2="558.78"/><line class="cls-2" x1="41.42" y1="576.21" x2="99.57" y2="576.21"/><line class="cls-2" x1="41.42" y1="593.63" x2="99.57" y2="593.63"/><line class="cls-2" x1="41.42" y1="611.06" x2="99.57" y2="611.06"/><line class="cls-2" x1="41.42" y1="628.49" x2="99.57" y2="628.49"/><g id="lock-2" data-name="lock"><circle class="cls-3" cx="85.65" cy="620.44" r="31.56"/><path class="cls-2" d="M67.52,614.51v24.41h36.26V614.51H67.52Zm20.75,18H83l1.37-5.13a3.31,3.31,0,1,1,2.49,0Z"/><path class="cls-2" d="M75.68,614.51l0-2.27c0-6.62,2.1-12.55,9.77-12.55,7.32,0,10.11,5.58,10.11,11.85l0,3"/><path class="cls-2" d="M71.53,614.68v-3.14c.12-11.07,5.69-16,13.88-16,8,0,14.57,4.86,14.71,15v4.18"/></g></g><g id="private_data-3" data-name="private_data"><rect class="cls-1" x="29.27" y="905.86" width="82.92" height="107.74" rx="1"/><line class="cls-2" x1="41.42" y1="925.4" x2="99.57" y2="925.4"/><line class="cls-2" x1="41.42" y1="942.83" x2="99.57" y2="942.83"/><line class="cls-2" x1="41.42" y1="960.26" x2="99.57" y2="960.26"/><line class="cls-2" x1="41.42" y1="977.69" x2="99.57" y2="977.69"/><line class="cls-2" x1="41.42" y1="995.11" x2="99.57" y2="995.11"/><g id="lock-3" data-name="lock"><circle class="cls-3" cx="85.65" cy="987.06" r="31.56"/><path class="cls-2" d="M67.52,981.13v24.41h36.26V981.13H67.52Zm20.75,18H83L84.41,994a3.31,3.31,0,1,1,2.49,0Z"/><path class="cls-2" d="M75.68,981.13l0-2.26c0-6.63,2.1-12.56,9.77-12.56,7.32,0,10.11,5.58,10.11,11.86l0,3"/><path class="cls-2" d="M71.53,981.31v-3.14c.12-11.07,5.69-16,13.88-16,8,0,14.57,4.86,14.71,15v4.19"/></g></g><g id="hospital"><polyline class="cls-2" points="323.62 55.15 341.56 55.15 341.56 245.78 237.14 245.78 237.14 55.15 254.01 55.15"/><path d="M407,80.75V242.14H342.53V80.75H407m1.5-1.5H341V243.64H408.5V79.25Z"/><polyline class="cls-2" points="373.69 113.52 373.69 131.73 373.69 149.93"/><polyline class="cls-2" points="355.48 131.73 373.69 131.73 391.9 131.73"/><path d="M390.4,115v33.41H357V115H390.4m1.5-1.5H355.48v36.41H391.9V113.52Z"/><polyline class="cls-2" points="373.69 172.96 373.69 191.16 373.69 209.37"/><polyline class="cls-2" points="355.48 191.16 373.69 191.16 391.9 191.16"/><path d="M390.4,174.46v33.41H357V174.46H390.4m1.5-1.5H355.48v36.41H391.9V173Z"/><path d="M236.18,81.29V242.68H171.71V81.29h64.47m1.5-1.5H170.21V244.18h67.47V79.79Z"/><polyline class="cls-2" points="202.87 114.06 202.87 132.26 202.87 150.47"/><polyline class="cls-2" points="184.66 132.26 202.87 132.26 221.08 132.26"/><path d="M219.58,115.56V149H186.17V115.56h33.41m1.5-1.5H184.67v36.41h36.41V114.06Z"/><polyline class="cls-2" points="202.87 173.49 202.87 191.7 202.87 209.91"/><polyline class="cls-2" points="184.66 191.7 202.87 191.7 221.08 191.7"/><path d="M219.58,175v33.42H186.17V175h33.41m1.5-1.5H184.67v36.42h36.41V173.49Z"/><rect class="cls-2" x="254.01" y="107.9" width="68.54" height="25.7"/><rect class="cls-2" x="254.01" y="146.45" width="68.54" height="25.7"/><rect class="cls-2" x="254.01" y="184.47" width="68.54" height="61.04"/><line class="cls-2" x1="288.77" y1="184.47" x2="288.33" y2="245.52"/><circle class="cls-2" cx="288.82" cy="55.42" r="34.81"/><polygon class="cls-2" points="306.49 50.07 306.49 63.45 295.24 63.45 295.24 74.16 281.86 74.16 281.86 63.45 271.68 63.45 271.68 50.07 281.86 50.07 281.86 39.36 295.24 39.36 295.24 50.07 306.49 50.07"/></g><rect class="cls-4" x="240.05" y="264.87" width="89.52" height="35" rx="17.5"/><text class="cls-5" transform="translate(254.09 290.02)">Site<tspan class="cls-6" x="41.36" y="0" xml:space="preserve"> A</tspan></text><g id="institution"><rect class="cls-2" x="170.89" y="533.86" width="239.22" height="89.79"/><rect class="cls-2" x="159.21" y="623.64" width="262.59" height="31.36"/><rect class="cls-2" x="231.77" y="461.29" width="115.61" height="72.57"/><rect class="cls-2" x="267.44" y="590.43" width="43.66" height="33.21"/><rect class="cls-2" x="183.19" y="593.51" width="48.58" height="15.99"/><rect class="cls-2" x="186.27" y="545.54" width="42.74" height="24.6"/><rect class="cls-2" x="241" y="545.54" width="42.74" height="24.6"/><rect class="cls-2" x="295.12" y="545.54" width="42.74" height="24.6"/><rect class="cls-2" x="350.46" y="545.54" width="42.74" height="24.6"/><rect class="cls-2" x="347.39" y="593.51" width="48.58" height="15.99"/><path class="cls-2" d="M288.24,491.12h3.3a8.19,8.19,0,0,1,8.19,8.19v7.8a0,0,0,0,1,0,0H280a0,0,0,0,1,0,0v-7.8A8.19,8.19,0,0,1,288.24,491.12Z"/><path class="cls-2" d="M319.6,491.12h3.3a8.19,8.19,0,0,1,8.19,8.19v7.8a0,0,0,0,1,0,0H311.41a0,0,0,0,1,0,0v-7.8A8.19,8.19,0,0,1,319.6,491.12Z"/><path class="cls-2" d="M257.49,491.12h3.3a8.19,8.19,0,0,1,8.19,8.19v7.8a0,0,0,0,1,0,0H249.3a0,0,0,0,1,0,0v-7.8A8.19,8.19,0,0,1,257.49,491.12Z"/><polygon class="cls-2" points="289.89 434.08 217.06 461.29 363.81 461.29 289.89 434.08"/><line class="cls-2" x1="289.89" y1="408.67" x2="289.89" y2="434.08"/><rect class="cls-2" x="289.89" y="408.71" width="17.83" height="11.07"/></g><rect class="cls-4" x="242.21" y="677.25" width="87.51" height="35" rx="17.5"/><text class="cls-5" transform="translate(254.09 702.65)">Site B</text><g id="hospital-2" data-name="hospital"><polyline class="cls-2" points="323.62 855.84 341.56 855.84 341.56 1046.47 237.14 1046.47 237.14 855.84 254.01 855.84"/><path d="M407,881.44v161.39H342.53V881.44H407m1.5-1.5H341v164.39H408.5V879.94Z"/><polyline class="cls-2" points="373.69 914.21 373.69 932.41 373.69 950.62"/><polyline class="cls-2" points="355.48 932.41 373.69 932.41 391.9 932.41"/><path d="M390.4,915.71v33.41H357V915.71H390.4m1.5-1.5H355.48v36.41H391.9V914.21Z"/><polyline class="cls-2" points="373.69 973.65 373.69 991.85 373.69 1010.06"/><polyline class="cls-2" points="355.48 991.85 373.69 991.85 391.9 991.85"/><path d="M390.4,975.15v33.41H357V975.15H390.4m1.5-1.5H355.48v36.41H391.9V973.65Z"/><path d="M236.18,882v161.4H171.71V882h64.47m1.5-1.5H170.21v164.4h67.47V880.47Z"/><polyline class="cls-2" points="202.87 914.74 202.87 932.95 202.87 951.16"/><polyline class="cls-2" points="184.66 932.95 202.87 932.95 221.08 932.95"/><path d="M219.58,916.24v33.42H186.17V916.24h33.41m1.5-1.5H184.67v36.42h36.41V914.74Z"/><polyline class="cls-2" points="202.87 974.18 202.87 992.39 202.87 1010.6"/><polyline class="cls-2" points="184.66 992.39 202.87 992.39 221.08 992.39"/><path d="M219.58,975.68v33.41H186.17V975.68h33.41m1.5-1.5H184.67v36.41h36.41V974.18Z"/><rect class="cls-2" x="254.01" y="908.59" width="68.54" height="25.7"/><rect class="cls-2" x="254.01" y="947.14" width="68.54" height="25.7"/><rect class="cls-2" x="254.01" y="985.16" width="68.54" height="61.04"/><line class="cls-2" x1="288.77" y1="985.16" x2="288.33" y2="1046.2"/><circle class="cls-2" cx="288.82" cy="856.11" r="34.81"/><polygon class="cls-2" points="306.49 850.75 306.49 864.14 295.24 864.14 295.24 874.85 281.86 874.85 281.86 864.14 271.68 864.14 271.68 850.75 281.86 850.75 281.86 840.04 295.24 840.04 295.24 850.75 306.49 850.75"/></g><rect class="cls-4" x="244.21" y="1065.47" width="85.34" height="35" rx="17.5"/><text class="cls-5" transform="translate(254.09 1090.87)">Site C</text><g id="DAC"><rect class="cls-2" x="950.53" y="460.91" width="188.5" height="277.41"/><polyline class="cls-2" points="988.04 491.57 988.04 509.78 988.04 527.99"/><polyline class="cls-2" points="969.83 509.78 988.04 509.78 1006.24 509.78"/><path d="M1004.74,493.08v33.41H971.33V493.08h33.41m1.5-1.5H969.83V528h36.41V491.58Z"/><polyline class="cls-2" points="1100.66 491.57 1100.66 509.78 1100.66 527.99"/><polyline class="cls-2" points="1082.45 509.78 1100.66 509.78 1118.87 509.78"/><path d="M1117.37,493.08v33.41H1084V493.08h33.42m1.5-1.5h-36.42V528h36.42V491.58Z"/><polyline class="cls-2" points="1043.76 491.57 1043.76 509.78 1043.76 527.99"/><polyline class="cls-2" points="1025.55 509.78 1043.76 509.78 1061.96 509.78"/><path d="M1060.46,493.08v33.41h-33.41V493.08h33.41m1.5-1.5h-36.41V528H1062V491.58Z"/><polyline class="cls-2" points="988.04 555.59 988.04 573.8 988.04 592.01"/><polyline class="cls-2" points="969.83 573.8 988.04 573.8 1006.24 573.8"/><path d="M1004.74,557.09v33.42H971.33V557.09h33.41m1.5-1.5H969.83V592h36.41V555.59Z"/><polyline class="cls-2" points="1100.66 555.59 1100.66 573.8 1100.66 592.01"/><polyline class="cls-2" points="1082.45 573.8 1100.66 573.8 1118.87 573.8"/><path d="M1117.37,557.09v33.42H1084V557.09h33.42m1.5-1.5h-36.42V592h36.42V555.59Z"/><polyline class="cls-2" points="1043.76 555.59 1043.76 573.8 1043.76 592.01"/><polyline class="cls-2" points="1025.55 573.8 1043.76 573.8 1061.96 573.8"/><path d="M1060.46,557.09v33.42h-33.41V557.09h33.41m1.5-1.5h-36.41V592H1062V555.59Z"/><polyline class="cls-2" points="988.04 617.24 988.04 635.45 988.04 653.65"/><polyline class="cls-2" points="969.83 635.45 988.04 635.45 1006.24 635.45"/><path d="M1004.74,618.74v33.41H971.33V618.74h33.41m1.5-1.5H969.83v36.41h36.41V617.24Z"/><polyline class="cls-2" points="1100.66 617.24 1100.66 635.45 1100.66 653.65"/><polyline class="cls-2" points="1082.45 635.45 1100.66 635.45 1118.87 635.45"/><path d="M1117.37,618.74v33.41H1084V618.74h33.42m1.5-1.5h-36.42v36.41h36.42V617.24Z"/><polyline class="cls-2" points="1043.76 617.24 1043.76 635.45 1043.76 653.65"/><polyline class="cls-2" points="1025.55 635.45 1043.76 635.45 1061.96 635.45"/><path d="M1060.46,618.74v33.41h-33.41V618.74h33.41m1.5-1.5h-36.41v36.41H1062V617.24Z"/><rect class="cls-2" x="1009.62" y="676.91" width="68.54" height="61.04"/><line class="cls-2" x1="1044.38" y1="676.91" x2="1043.94" y2="737.96"/></g><rect class="cls-4" x="1006.27" y="755.61" width="75.66" height="35" rx="17.5"/><text class="cls-5" transform="translate(1019.16 782.02)">DAC</text><g id="desktop_computer"><g id="cpu"><path class="cls-1" d="M1568.32,644a.55.55,0,0,1-.55.55h-60a.55.55,0,0,1-.55-.55V534.67a.55.55,0,0,1,.55-.56h60a.56.56,0,0,1,.55.56Z"/><line class="cls-1" x1="1510.41" y1="652.1" x2="1510.55" y2="644.52"/><line class="cls-1" x1="1565.24" y1="644.52" x2="1565.24" y2="652.1"/><line class="cls-1" x1="1519.61" y1="552.52" x2="1557.7" y2="552.52"/><line class="cls-1" x1="1519.61" y1="563.88" x2="1557.7" y2="563.88"/><line class="cls-1" x1="1519.61" y1="575.25" x2="1557.7" y2="575.25"/><circle class="cls-1" cx="1538.55" cy="618" r="5.95"/></g><g id="monitor"><rect class="cls-1" x="1416.24" y="567.67" width="106.62" height="67.11" rx="1.02"/><rect class="cls-1" x="1459.54" y="634.78" width="18.94" height="14.61" rx="1.02"/><line class="cls-1" x1="1446.18" y1="649.39" x2="1491.74" y2="649.39"/><line class="cls-1" x1="1416.24" y1="621.89" x2="1522.86" y2="621.89"/></g></g><g id="three_gears"><g id="gear"><g id="_Radial_Repeat_" data-name="&lt;Radial Repeat&gt;"><path class="cls-7" d="M1464.18,602.4c0,.18-.16.36-.44.4l-1.77.61-.14,0a9.6,9.6,0,0,1-.81,3.95l.11.1,1.42,1.28c.22.16.32.41.22.56l-1.37,1.88c-.1.15-.37.13-.6,0l-1.62-.83-.13-.07a9.43,9.43,0,0,1-3.44,2.23v.14l.07,1.85c0,.27-.07.52-.25.54l-2.29.34c-.18,0-.36-.18-.4-.45l-.52-1.68,0-.14a9.57,9.57,0,0,1-4-.94l-.11.1-1.23,1.32c-.17.22-.43.31-.57.2l-1.84-1.41c-.15-.11-.13-.38,0-.6l.83-1.52.07-.13a9.44,9.44,0,0,1-2.14-3.57h-.15l-1.8,0c-.27,0-.51-.09-.54-.26l-.27-2.31c0-.18.18-.35.46-.38l1.68-.48.14,0a9.61,9.61,0,0,1,1.08-4l-.1-.1-1.31-1.3c-.22-.18-.31-.43-.19-.57l1.45-1.81c.12-.14.38-.11.6.06l1.57.9.13.07a9.55,9.55,0,0,1,2.66-1.66v-.14l-.18-1.89c-.05-.28,0-.53.22-.56l2.28-.45c.18,0,.37.16.42.43l.64,1.75,0,.14a9.43,9.43,0,0,1,4,.75l.1-.11,1.26-1.49c.16-.23.41-.33.56-.23l1.91,1.32c.15.1.14.37,0,.6l-.81,1.71-.07.13a9.69,9.69,0,0,1,2.24,3.32h.14l2-.13c.27,0,.52.06.55.24Zm-13.2-3.91a5.23,5.23,0,1,0,6.36,3.78A5.24,5.24,0,0,0,1451,598.49Z"/></g></g><g id="gear-2" data-name="gear"><g id="_Radial_Repeat_2" data-name="&lt;Radial Repeat&gt;"><path class="cls-7" d="M1463.52,583c0,.14-.16.27-.38.28l-1.42.33-.11,0a7.44,7.44,0,0,1-.95,3l.08.08,1,1.11c.16.14.22.34.12.45l-1.2,1.34c-.1.11-.3.08-.47-.07l-1.19-.77-.09-.06a7.32,7.32,0,0,1-2.85,1.44v.12l-.09,1.43c0,.22-.1.4-.24.4l-1.81.08c-.14,0-.26-.16-.27-.38l-.27-1.34,0-.12a7.35,7.35,0,0,1-3-1l-.09.08-1.06.91c-.15.16-.35.21-.46.11l-1.31-1.24c-.11-.09-.07-.3.08-.46l.76-1.11.07-.1a7.2,7.2,0,0,1-1.37-2.93h-.12l-1.39-.12c-.22,0-.4-.11-.4-.25l0-1.81c0-.14.17-.26.39-.26l1.34-.24.11,0a7.64,7.64,0,0,1,1.16-3l-.07-.08-.91-1.12c-.16-.15-.2-.35-.11-.45l1.28-1.29c.1-.1.3-.06.46.1l1.14.82.09.07a7.52,7.52,0,0,1,2.2-1.08v-.11l0-1.48c0-.22.08-.4.21-.41l1.81-.17c.13,0,.26.15.28.37l.36,1.4,0,.12a7.23,7.23,0,0,1,3,.9l.08-.08,1.1-1.05c.14-.17.34-.23.45-.14l1.38,1.18c.1.09.07.3-.07.46L1460,578l-.06.1a7.46,7.46,0,0,1,1.47,2.75h.11l1.52.05c.22,0,.4.09.41.23Zm-9.91-4.08a4.07,4.07,0,1,0,4.62,3.44A4.08,4.08,0,0,0,1453.61,578.89Z"/></g></g><g id="gear-3" data-name="gear"><g id="_Radial_Repeat_3" data-name="&lt;Radial Repeat&gt;"><path class="cls-7" d="M1495,593.24c0,.25-.29.48-.68.51l-2.6.59-.2,0a13.41,13.41,0,0,1-1.73,5.46l.14.16,1.83,2c.29.26.39.63.22.82l-2.2,2.46c-.17.18-.55.13-.84-.14l-2.17-1.4-.18-.12a13.41,13.41,0,0,1-5.18,2.64v.21l-.16,2.61c0,.39-.18.72-.43.73l-3.3.14c-.25,0-.47-.3-.49-.69l-.49-2.45,0-.2a13.65,13.65,0,0,1-5.57-1.92l-.16.13-1.94,1.67c-.27.29-.64.38-.82.21l-2.4-2.26c-.19-.18-.12-.55.15-.84l1.39-2,.12-.18a13.46,13.46,0,0,1-2.5-5.35l-.21,0-2.54-.22c-.4,0-.72-.19-.72-.45l-.06-3.3c0-.25.31-.46.7-.47l2.46-.43.2,0a13.48,13.48,0,0,1,2.11-5.46l-.13-.16-1.67-2c-.28-.28-.36-.65-.18-.84l2.32-2.34c.18-.18.55-.1.83.18L1470,582l.17.12a13.79,13.79,0,0,1,4-2v-.2l0-2.7c0-.39.15-.73.4-.75l3.28-.31c.26,0,.49.28.53.67l.65,2.57,0,.2a13.46,13.46,0,0,1,5.46,1.64l.16-.14,2-1.91c.26-.31.62-.41.82-.25l2.51,2.14c.19.17.14.54-.12.84l-1.4,2.3-.11.18a13.49,13.49,0,0,1,2.67,5h.2l2.77.11c.4,0,.73.15.75.41Zm-18.07-7.45a7.42,7.42,0,1,0,8.43,6.27A7.43,7.43,0,0,0,1476.92,585.79Z"/></g></g></g><g id="data_stack" data-name="data stack"><g id="data"><rect class="cls-1" x="1398.56" y="852.2" width="99.66" height="129.5" rx="1"/><line class="cls-2" x1="1413.16" y1="875.69" x2="1483.05" y2="875.69"/><line class="cls-2" x1="1413.16" y1="896.64" x2="1483.05" y2="896.64"/><line class="cls-2" x1="1413.16" y1="917.59" x2="1483.05" y2="917.59"/><line class="cls-2" x1="1413.16" y1="938.54" x2="1483.05" y2="938.54"/><line class="cls-2" x1="1413.16" y1="959.48" x2="1483.05" y2="959.48"/></g><g id="data-2" data-name="data"><rect class="cls-1" x="1418.24" y="856.01" width="99.66" height="129.5" rx="1"/><line class="cls-2" x1="1432.84" y1="879.5" x2="1502.73" y2="879.5"/><line class="cls-2" x1="1432.84" y1="900.45" x2="1502.73" y2="900.45"/><line class="cls-2" x1="1432.84" y1="921.4" x2="1502.73" y2="921.4"/><line class="cls-2" x1="1432.84" y1="942.34" x2="1502.73" y2="942.34"/><line class="cls-2" x1="1432.84" y1="963.29" x2="1502.73" y2="963.29"/></g><g id="data-3" data-name="data"><rect class="cls-1" x="1437.6" y="859.5" width="99.66" height="129.5" rx="1"/><line class="cls-2" x1="1452.2" y1="882.99" x2="1522.09" y2="882.99"/><line class="cls-2" x1="1452.2" y1="903.94" x2="1522.09" y2="903.94"/><line class="cls-2" x1="1452.2" y1="924.89" x2="1522.09" y2="924.89"/><line class="cls-2" x1="1452.2" y1="945.84" x2="1522.09" y2="945.84"/><line class="cls-2" x1="1452.2" y1="966.78" x2="1522.09" y2="966.78"/></g></g><circle class="cls-8" cx="1502.74" cy="955.24" r="39.04"/><g id="map_pin"><ellipse class="cls-9" cx="1502.3" cy="979.72" rx="21.73" ry="4.17"/><path class="cls-10" d="M1520.06,944.71a17.76,17.76,0,1,0-33.74,7.76h-.06l15.79,27.58a.28.28,0,0,0,.49,0l15.79-27.58h0A17.66,17.66,0,0,0,1520.06,944.71Z"/><path class="cls-11" d="M1502.47,950.49a7.85,7.85,0,1,1,4.67-1.54A7.79,7.79,0,0,1,1502.47,950.49Z"/></g><g id="private_data_stack" data-name="private data stack"><g id="data_stack-2" data-name="data stack"><g id="data-4" data-name="data"><path class="cls-1" d="M1159.27,540.38h96a1,1,0,0,1,1,1V667.7a0,0,0,0,1,0,0h-97a1,1,0,0,1-1-1V541.38A1,1,0,0,1,1159.27,540.38Z"/><line class="cls-2" x1="1172.63" y1="563.47" x2="1241.35" y2="563.47"/><line class="cls-2" x1="1172.63" y1="584.07" x2="1241.35" y2="584.07"/><line class="cls-2" x1="1172.63" y1="604.66" x2="1241.35" y2="604.66"/><line class="cls-2" x1="1172.63" y1="625.26" x2="1241.35" y2="625.26"/><line class="cls-2" x1="1172.63" y1="645.86" x2="1241.35" y2="645.86"/></g><g id="data-5" data-name="data"><path class="cls-1" d="M1178.62,544.12h96a1,1,0,0,1,1,1V671.45a0,0,0,0,1,0,0h-97a1,1,0,0,1-1-1V545.12A1,1,0,0,1,1178.62,544.12Z"/><line class="cls-2" x1="1191.98" y1="567.22" x2="1260.7" y2="567.22"/><line class="cls-2" x1="1191.98" y1="587.81" x2="1260.7" y2="587.81"/><line class="cls-2" x1="1191.98" y1="608.41" x2="1260.7" y2="608.41"/><line class="cls-2" x1="1191.98" y1="629.01" x2="1260.7" y2="629.01"/><line class="cls-2" x1="1191.98" y1="649.6" x2="1260.7" y2="649.6"/></g><g id="data-6" data-name="data"><rect class="cls-1" x="1196.66" y="547.55" width="97.99" height="127.33" rx="1"/><line class="cls-2" x1="1211.02" y1="570.65" x2="1279.74" y2="570.65"/><line class="cls-2" x1="1211.02" y1="591.25" x2="1279.74" y2="591.25"/><line class="cls-2" x1="1211.02" y1="611.84" x2="1279.74" y2="611.84"/><line class="cls-2" x1="1211.02" y1="632.44" x2="1279.74" y2="632.44"/><line class="cls-2" x1="1211.02" y1="653.04" x2="1279.74" y2="653.04"/></g></g><g id="lock-4" data-name="lock"><circle class="cls-3" cx="1263.6" cy="644.45" r="37.29"/><path class="cls-2" d="M1242.17,637.45v28.84H1285V637.45h-42.86Zm24.52,21.22h-6.18l1.62-6a3.91,3.91,0,1,1,2.94,0Z"/><path class="cls-2" d="M1251.81,637.45l0-2.68c0-7.83,2.47-14.83,11.53-14.83,8.66,0,11.95,6.59,11.95,14l0,3.5"/><path class="cls-2" d="M1246.91,637.65V634c.15-13.09,6.72-19,16.4-19,9.46,0,17.23,5.74,17.39,17.72v4.94"/></g></g><line class="cls-12" x1="1398.14" y1="607.79" x2="1392.14" y2="607.79"/><line class="cls-13" x1="1379.07" y1="607.79" x2="1307.19" y2="607.79"/><line class="cls-12" x1="1300.65" y1="607.79" x2="1294.65" y2="607.79"/><path class="cls-14" d="M1416.24,607.79c-8.52-3.17-19.09-8.56-25.64-14.27l5.16,14.27-5.16,14.26C1397.15,616.34,1407.72,610.94,1416.24,607.79Z"/><line class="cls-12" x1="408.27" y1="963.61" x2="413.78" y2="961.23"/><line class="cls-15" x1="424.79" y1="956.48" x2="903.64" y2="749.55"/><line class="cls-12" x1="909.15" y1="747.18" x2="914.65" y2="744.8"/><path class="cls-14" d="M931.27,737.61c-6.56,6.29-14.13,15.43-17.87,23.27l-.93-15.14-10.39-11C910.36,737.34,922.2,738.09,931.27,737.61Z"/><line class="cls-12" x1="411.27" y1="597.61" x2="417.27" y2="597.53"/><line class="cls-16" x1="429.22" y1="597.37" x2="901.2" y2="591.02"/><line class="cls-12" x1="907.17" y1="590.94" x2="913.17" y2="590.86"/><path class="cls-14" d="M931.27,590.61c-8.47,3.28-19,8.82-25.44,14.62l5-14.34-5.36-14.19C912.07,582.32,922.71,587.57,931.27,590.61Z"/><line class="cls-12" x1="410.86" y1="178.3" x2="416.12" y2="181.18"/><line class="cls-17" x1="426.63" y1="186.92" x2="904.87" y2="448.19"/><line class="cls-12" x1="910.12" y1="451.06" x2="915.39" y2="453.93"/><path class="cls-14" d="M931.27,462.61c-9-1.31-20.85-1.64-29.34.23l11.37-10,2.31-15C918.62,446,925.31,455.76,931.27,462.61Z"/><g id="private_data-4" data-name="private_data"><rect class="cls-1" x="614.15" y="241.24" width="82.92" height="107.74" rx="1"/><line class="cls-2" x1="626.3" y1="260.78" x2="684.45" y2="260.78"/><line class="cls-2" x1="626.3" y1="278.21" x2="684.45" y2="278.21"/><line class="cls-2" x1="626.3" y1="295.63" x2="684.45" y2="295.63"/><line class="cls-2" x1="626.3" y1="313.06" x2="684.45" y2="313.06"/><line class="cls-2" x1="626.3" y1="330.49" x2="684.45" y2="330.49"/><g id="lock-5" data-name="lock"><circle class="cls-3" cx="670.53" cy="322.44" r="31.56"/><path class="cls-2" d="M652.4,316.51v24.41h36.26V316.51H652.4Zm20.75,18h-5.23l1.37-5.13a3.31,3.31,0,1,1,2.49,0Z"/><path class="cls-2" d="M660.56,316.51l0-2.27c0-6.62,2.1-12.55,9.77-12.55,7.32,0,10.11,5.58,10.11,11.85l0,3"/><path class="cls-2" d="M656.41,316.68v-3.14c.12-11.07,5.69-16,13.88-16,8,0,14.57,4.86,14.71,15v4.18"/></g></g><g id="private_data-5" data-name="private_data"><rect class="cls-1" x="618.37" y="530.79" width="82.92" height="107.74" rx="1"/><line class="cls-2" x1="630.52" y1="550.33" x2="688.67" y2="550.33"/><line class="cls-2" x1="630.52" y1="567.75" x2="688.67" y2="567.75"/><line class="cls-2" x1="630.52" y1="585.18" x2="688.67" y2="585.18"/><line class="cls-2" x1="630.52" y1="602.61" x2="688.67" y2="602.61"/><line class="cls-2" x1="630.52" y1="620.04" x2="688.67" y2="620.04"/><g id="lock-6" data-name="lock"><circle class="cls-3" cx="674.75" cy="611.98" r="31.56"/><path class="cls-2" d="M656.62,606.06v24.4h36.26v-24.4H656.62Zm20.75,18h-5.23l1.37-5.12a3.31,3.31,0,1,1,2.49,0Z"/><path class="cls-2" d="M664.78,606.06l0-2.27c0-6.62,2.1-12.55,9.77-12.55,7.32,0,10.11,5.58,10.11,11.85l0,3"/><path class="cls-2" d="M660.63,606.23v-3.14c.12-11.07,5.68-16,13.88-16,8,0,14.57,4.86,14.71,15v4.18"/></g></g><g id="private_data-6" data-name="private_data"><rect class="cls-1" x="616.66" y="810.09" width="82.92" height="107.74" rx="1"/><line class="cls-2" x1="628.81" y1="829.63" x2="686.96" y2="829.63"/><line class="cls-2" x1="628.81" y1="847.05" x2="686.96" y2="847.05"/><line class="cls-2" x1="628.81" y1="864.48" x2="686.96" y2="864.48"/><line class="cls-2" x1="628.81" y1="881.91" x2="686.96" y2="881.91"/><line class="cls-2" x1="628.81" y1="899.34" x2="686.96" y2="899.34"/><g id="lock-7" data-name="lock"><circle class="cls-3" cx="673.04" cy="891.28" r="31.56"/><path class="cls-2" d="M654.91,885.36v24.4h36.26v-24.4H654.91Zm20.74,17.95h-5.23l1.37-5.12a3.32,3.32,0,1,1,2.49,0Z"/><path class="cls-2" d="M663.07,885.36l0-2.27c0-6.62,2.09-12.55,9.77-12.55,7.32,0,10.11,5.58,10.11,11.85l0,3"/><path class="cls-2" d="M658.92,885.53v-3.14c.12-11.07,5.68-16,13.88-16,8,0,14.57,4.86,14.71,15v4.18"/></g></g><line class="cls-12" x1="1477.57" y1="826.09" x2="1477.55" y2="820.09"/><line class="cls-18" x1="1477.49" y1="807.63" x2="1476.89" y2="664.33"/><line class="cls-12" x1="1476.86" y1="658.1" x2="1476.83" y2="652.1"/><path class="cls-14" d="M1477.65,844.19c3.12-8.53,8.47-19.12,14.16-25.7l-14.25,5.22-14.28-5.1C1469,825.14,1474.46,835.69,1477.65,844.19Z"/></g></svg>