<svg xmlns="http://www.w3.org/2000/svg" width="1913.01" height="1342.42" viewBox="0 0 1913.01 1342.42">
  <defs>
    <style>
      .cls-1 {
        fill: #fff;
      }

      .cls-1, .cls-11, .cls-12, .cls-16, .cls-2, .cls-3, .cls-7 {
        stroke: #000;
      }

      .cls-1, .cls-11, .cls-12, .cls-13, .cls-14, .cls-15, .cls-16, .cls-17, .cls-18, .cls-2, .cls-3, .cls-7, .cls-8, .cls-9 {
        stroke-miterlimit: 10;
      }

      .cls-1, .cls-11, .cls-13, .cls-14, .cls-15, .cls-17, .cls-18, .cls-2, .cls-3, .cls-8, .cls-9 {
        stroke-width: 3px;
      }

      .cls-13, .cls-14, .cls-15, .cls-17, .cls-18, .cls-2, .cls-8, .cls-9 {
        fill: none;
      }

      .cls-3 {
        fill: #ffd400;
      }

      .cls-4 {
        opacity: 0.2;
      }

      .cls-5 {
        font-size: 28.78px;
        font-family: ArialMT, Arial;
      }

      .cls-6 {
        letter-spacing: -0.06em;
      }

      .cls-12, .cls-16, .cls-7 {
        fill: #b80071;
        stroke-linecap: round;
      }

      .cls-7 {
        stroke-width: 0.9px;
      }

      .cls-13, .cls-14, .cls-15, .cls-17, .cls-18, .cls-8, .cls-9 {
        stroke: #999;
      }

      .cls-9 {
        stroke-dasharray: 13.88 13.88;
      }

      .cls-10 {
        fill: #999;
      }

      .cls-11 {
        fill: #c2b094;
      }

      .cls-12 {
        stroke-width: 0.81px;
      }

      .cls-13 {
        stroke-dasharray: 14.71 14.71;
      }

      .cls-14 {
        stroke-dasharray: 14.7 14.7;
      }

      .cls-15 {
        stroke-dasharray: 14.68 14.68;
      }

      .cls-16 {
        stroke-width: 1.07px;
      }

      .cls-17 {
        stroke-dasharray: 13.85 13.85;
      }

      .cls-18 {
        stroke-dasharray: 15.33 15.33;
      }
    </style>
  </defs>
  <g id="share_compute" data-name="share compute">
    <g>
      <g id="private_data">
        <rect class="cls-1" x="33.57" y="121.99" width="99.45" height="129.22" rx="1"/>
        <g>
          <line class="cls-2" x1="48.13" y1="145.42" x2="117.88" y2="145.42"/>
          <line class="cls-2" x1="48.13" y1="166.33" x2="117.88" y2="166.33"/>
          <line class="cls-2" x1="48.13" y1="187.23" x2="117.88" y2="187.23"/>
          <line class="cls-2" x1="48.13" y1="208.13" x2="117.88" y2="208.13"/>
          <line class="cls-2" x1="48.13" y1="229.03" x2="117.88" y2="229.03"/>
        </g>
        <g id="lock">
          <circle class="cls-3" cx="101.18" cy="219.37" r="37.85"/>
          <path class="cls-2" d="M79.44,212.26v29.28h43.49V212.26H79.44Zm24.88,21.54H98.05l1.64-6.14a4,4,0,1,1,3,0Z"/>
          <path class="cls-2" d="M89.22,212.26l0-2.71c0-8,2.51-15.06,11.71-15.06,8.79,0,12.13,6.69,12.13,14.22l0,3.55"/>
          <path class="cls-2" d="M84.25,212.47v-3.76c.14-13.28,6.82-19.24,16.64-19.24,9.6,0,17.48,5.83,17.65,18v5"/>
        </g>
      </g>
      <g id="private_data-2" data-name="private_data">
        <rect class="cls-1" x="33.57" y="645.66" width="99.45" height="129.22" rx="1"/>
        <g>
          <line class="cls-2" x1="48.13" y1="669.09" x2="117.88" y2="669.09"/>
          <line class="cls-2" x1="48.13" y1="690" x2="117.88" y2="690"/>
          <line class="cls-2" x1="48.13" y1="710.9" x2="117.88" y2="710.9"/>
          <line class="cls-2" x1="48.13" y1="731.8" x2="117.88" y2="731.8"/>
          <line class="cls-2" x1="48.13" y1="752.7" x2="117.88" y2="752.7"/>
        </g>
        <g id="lock-2" data-name="lock">
          <circle class="cls-3" cx="101.18" cy="743.04" r="37.85"/>
          <path class="cls-2" d="M79.44,735.93v29.28h43.49V735.93H79.44Zm24.88,21.54H98.05l1.64-6.14a4,4,0,1,1,3,0Z"/>
          <path class="cls-2" d="M89.22,735.93l0-2.71c0-8,2.51-15.06,11.71-15.06,8.79,0,12.13,6.69,12.13,14.22l0,3.55"/>
          <path class="cls-2" d="M84.25,736.14v-3.76c.14-13.28,6.82-19.24,16.64-19.24,9.6,0,17.48,5.83,17.65,18v5"/>
        </g>
      </g>
      <g id="private_data-3" data-name="private_data">
        <rect class="cls-1" x="33.57" y="1085.37" width="99.45" height="129.22" rx="1"/>
        <g>
          <line class="cls-2" x1="48.13" y1="1108.81" x2="117.88" y2="1108.81"/>
          <line class="cls-2" x1="48.13" y1="1129.71" x2="117.88" y2="1129.71"/>
          <line class="cls-2" x1="48.13" y1="1150.61" x2="117.88" y2="1150.61"/>
          <line class="cls-2" x1="48.13" y1="1171.51" x2="117.88" y2="1171.51"/>
          <line class="cls-2" x1="48.13" y1="1192.42" x2="117.88" y2="1192.42"/>
        </g>
        <g id="lock-3" data-name="lock">
          <circle class="cls-3" cx="101.18" cy="1182.76" r="37.85"/>
          <path class="cls-2" d="M79.44,1175.65v29.27h43.49v-29.27H79.44Zm24.88,21.54H98.05l1.64-6.15a4,4,0,1,1,3,0Z"/>
          <path class="cls-2" d="M89.22,1175.65l0-2.72c0-8,2.51-15,11.71-15,8.79,0,12.13,6.69,12.13,14.21l0,3.56"/>
          <path class="cls-2" d="M84.25,1175.86v-3.77c.14-13.27,6.82-19.23,16.64-19.23,9.6,0,17.48,5.83,17.65,18v5"/>
        </g>
      </g>
    </g>
    <g id="hospital">
      <polyline class="cls-2" points="386.59 65.06 408.11 65.06 408.11 293.7 282.88 293.7 282.88 65.06 303.11 65.06"/>
      <g>
        <path d="M485.39,97V288.13H410.47V97h74.92m3-3H407.47V291.13h80.92V94Z"/>
        <g>
          <polyline class="cls-2" points="446.64 135.07 446.64 156.9 446.64 178.74"/>
          <polyline class="cls-2" points="424.81 156.9 446.64 156.9 468.48 156.9"/>
          <path d="M465.48,138.07v37.67H427.81V138.07h37.67m3-3H424.81v43.67h43.67V135.07Z"/>
        </g>
        <g>
          <polyline class="cls-2" points="446.64 206.36 446.64 228.19 446.64 250.03"/>
          <polyline class="cls-2" points="424.81 228.19 446.64 228.19 468.48 228.19"/>
          <path d="M465.48,209.36V247H427.81V209.36h37.67m3-3H424.81V250h43.67V206.36Z"/>
        </g>
      </g>
      <g>
        <path d="M280.52,97.61V288.77H205.6V97.61h74.92m3-3H202.6V291.77h80.92V94.61Z"/>
        <g>
          <polyline class="cls-2" points="241.77 135.71 241.77 157.55 241.77 179.38"/>
          <polyline class="cls-2" points="219.94 157.55 241.77 157.55 263.61 157.55"/>
          <path d="M260.61,138.71v37.67H222.94V138.71h37.67m3-3H219.94v43.67h43.67V135.71Z"/>
        </g>
        <g>
          <polyline class="cls-2" points="241.77 207 241.77 228.84 241.77 250.67"/>
          <polyline class="cls-2" points="219.94 228.84 241.77 228.84 263.61 228.84"/>
          <path d="M260.61,210v37.67H222.94V210h37.67m3-3H219.94v43.67h43.67V207Z"/>
        </g>
      </g>
      <rect class="cls-2" x="303.11" y="128.32" width="82.21" height="30.83"/>
      <rect class="cls-2" x="303.11" y="174.57" width="82.21" height="30.83"/>
      <rect class="cls-2" x="303.11" y="220.16" width="82.21" height="73.22"/>
      <line class="cls-2" x1="344.79" y1="220.16" x2="344.27" y2="293.38"/>
      <circle class="cls-2" cx="344.85" cy="65.39" r="41.75"/>
      <polygon class="cls-2" points="366.04 58.96 366.04 75.02 352.56 75.02 352.56 87.86 336.5 87.86 336.5 75.02 324.3 75.02 324.3 58.96 336.5 58.96 336.5 46.12 352.56 46.12 352.56 58.96 366.04 58.96"/>
    </g>
    <g>
      <rect class="cls-4" x="286.36" y="316.59" width="107.36" height="41.98" rx="17.5"/>
      <text class="cls-5" transform="translate(303.2 346.75)">Site<tspan class="cls-6" x="49.6" y="0" xml:space="preserve"> A</tspan></text>
    </g>
    <g id="institution">
      <rect class="cls-2" x="203.42" y="639.2" width="286.92" height="107.69"/>
      <rect class="cls-2" x="189.4" y="746.89" width="314.94" height="37.62"/>
      <rect class="cls-2" x="276.44" y="552.17" width="138.66" height="87.03"/>
      <rect class="cls-2" x="319.21" y="707.06" width="52.37" height="39.83"/>
      <rect class="cls-2" x="218.17" y="710.75" width="58.27" height="19.18"/>
      <rect class="cls-2" x="221.86" y="653.22" width="51.26" height="29.5"/>
      <rect class="cls-2" x="287.5" y="653.22" width="51.26" height="29.5"/>
      <rect class="cls-2" x="352.41" y="653.22" width="51.26" height="29.5"/>
      <rect class="cls-2" x="418.79" y="653.22" width="51.26" height="29.5"/>
      <rect class="cls-2" x="415.1" y="710.75" width="58.27" height="19.18"/>
      <path class="cls-2" d="M342.53,587.94h7.22a8.19,8.19,0,0,1,8.19,8.19v11a0,0,0,0,1,0,0h-23.6a0,0,0,0,1,0,0v-11A8.19,8.19,0,0,1,342.53,587.94Z"/>
      <path class="cls-2" d="M380.14,587.94h7.22a8.19,8.19,0,0,1,8.19,8.19v11a0,0,0,0,1,0,0H372a0,0,0,0,1,0,0v-11A8.19,8.19,0,0,1,380.14,587.94Z"/>
      <path class="cls-2" d="M305.65,587.94h7.22a8.19,8.19,0,0,1,8.19,8.19v11a0,0,0,0,1,0,0h-23.6a0,0,0,0,1,0,0v-11A8.19,8.19,0,0,1,305.65,587.94Z"/>
      <polygon class="cls-2" points="346.14 519.54 258.79 552.17 434.8 552.17 346.14 519.54"/>
      <line class="cls-2" x1="346.14" y1="489.05" x2="346.14" y2="519.54"/>
      <rect class="cls-2" x="346.14" y="489.11" width="21.39" height="13.28"/>
    </g>
    <g>
      <rect class="cls-4" x="288.95" y="811.19" width="104.95" height="41.98" rx="17.5"/>
      <text class="cls-5" transform="translate(303.2 841.65)">Site B</text>
    </g>
    <g id="hospital-2" data-name="hospital">
      <polyline class="cls-2" points="386.59 1025.38 408.11 1025.38 408.11 1254.02 282.88 1254.02 282.88 1025.38 303.11 1025.38"/>
      <g>
        <path d="M485.39,1057.28v191.17H410.47V1057.28h74.92m3-3H407.47v197.17h80.92V1054.28Z"/>
        <g>
          <polyline class="cls-2" points="446.64 1095.38 446.64 1117.22 446.64 1139.06"/>
          <polyline class="cls-2" points="424.81 1117.22 446.64 1117.22 468.48 1117.22"/>
          <path d="M465.48,1098.38v37.68H427.81v-37.68h37.67m3-3H424.81v43.68h43.67v-43.68Z"/>
        </g>
        <g>
          <polyline class="cls-2" points="446.64 1166.67 446.64 1188.51 446.64 1210.35"/>
          <polyline class="cls-2" points="424.81 1188.51 446.64 1188.51 468.48 1188.51"/>
          <path d="M465.48,1169.67v37.67H427.81v-37.67h37.67m3-3H424.81v43.67h43.67v-43.67Z"/>
        </g>
      </g>
      <g>
        <path d="M280.52,1057.92v191.17H205.6V1057.92h74.92m3-3H202.6v197.17h80.92V1054.92Z"/>
        <g>
          <polyline class="cls-2" points="241.77 1096.03 241.77 1117.86 241.77 1139.7"/>
          <polyline class="cls-2" points="219.94 1117.86 241.77 1117.86 263.61 1117.86"/>
          <path d="M260.61,1099v37.67H222.94V1099h37.67m3-3H219.94v43.67h43.67V1096Z"/>
        </g>
        <g>
          <polyline class="cls-2" points="241.77 1167.32 241.77 1189.15 241.77 1210.99"/>
          <polyline class="cls-2" points="219.94 1189.15 241.77 1189.15 263.61 1189.15"/>
          <path d="M260.61,1170.31V1208H222.94v-37.68h37.67m3-3H219.94V1211h43.67v-43.68Z"/>
        </g>
      </g>
      <rect class="cls-2" x="303.11" y="1088.64" width="82.21" height="30.83"/>
      <rect class="cls-2" x="303.11" y="1134.88" width="82.21" height="30.83"/>
      <rect class="cls-2" x="303.11" y="1180.48" width="82.21" height="73.22"/>
      <line class="cls-2" x1="344.79" y1="1180.48" x2="344.27" y2="1253.7"/>
      <circle class="cls-2" cx="344.85" cy="1025.7" r="41.75"/>
      <polygon class="cls-2" points="366.04 1019.28 366.04 1035.34 352.56 1035.34 352.56 1048.18 336.5 1048.18 336.5 1035.34 324.3 1035.34 324.3 1019.28 336.5 1019.28 336.5 1006.43 352.56 1006.43 352.56 1019.28 366.04 1019.28"/>
    </g>
    <g>
      <rect class="cls-4" x="291.35" y="1276.8" width="102.36" height="41.98" rx="17.5"/>
      <text class="cls-5" transform="translate(303.2 1307.27)">Site C</text>
    </g>
    <g id="DAC">
      <rect class="cls-2" x="1138.48" y="551.71" width="226.08" height="332.72"/>
      <g>
        <polyline class="cls-2" points="1183.47 588.49 1183.47 610.33 1183.47 632.16"/>
        <polyline class="cls-2" points="1161.63 610.33 1183.47 610.33 1205.31 610.33"/>
        <path d="M1202.31,591.49v37.68h-37.68V591.49h37.68m3-3h-43.68v43.68h43.68V588.49Z"/>
      </g>
      <g>
        <polyline class="cls-2" points="1318.55 588.49 1318.55 610.33 1318.55 632.16"/>
        <polyline class="cls-2" points="1296.71 610.33 1318.55 610.33 1340.38 610.33"/>
        <path d="M1337.38,591.49v37.68h-37.67V591.49h37.67m3-3h-43.67v43.68h43.67V588.49Z"/>
      </g>
      <g>
        <polyline class="cls-2" points="1250.3 588.49 1250.3 610.33 1250.3 632.16"/>
        <polyline class="cls-2" points="1228.46 610.33 1250.3 610.33 1272.13 610.33"/>
        <path d="M1269.13,591.49v37.68h-37.67V591.49h37.67m3-3h-43.67v43.68h43.67V588.49Z"/>
      </g>
      <g>
        <polyline class="cls-2" points="1183.47 665.27 1183.47 687.11 1183.47 708.95"/>
        <polyline class="cls-2" points="1161.63 687.11 1183.47 687.11 1205.31 687.11"/>
        <path d="M1202.31,668.27V706h-37.68V668.27h37.68m3-3h-43.68V709h43.68V665.27Z"/>
      </g>
      <g>
        <polyline class="cls-2" points="1318.55 665.27 1318.55 687.11 1318.55 708.95"/>
        <polyline class="cls-2" points="1296.71 687.11 1318.55 687.11 1340.38 687.11"/>
        <path d="M1337.38,668.27V706h-37.67V668.27h37.67m3-3h-43.67V709h43.67V665.27Z"/>
      </g>
      <g>
        <polyline class="cls-2" points="1250.3 665.27 1250.3 687.11 1250.3 708.95"/>
        <polyline class="cls-2" points="1228.46 687.11 1250.3 687.11 1272.13 687.11"/>
        <path d="M1269.13,668.27V706h-37.67V668.27h37.67m3-3h-43.67V709h43.67V665.27Z"/>
      </g>
      <g>
        <polyline class="cls-2" points="1183.47 739.21 1183.47 761.05 1183.47 782.88"/>
        <polyline class="cls-2" points="1161.63 761.05 1183.47 761.05 1205.31 761.05"/>
        <path d="M1202.31,742.21v37.67h-37.68V742.21h37.68m3-3h-43.68v43.67h43.68V739.21Z"/>
      </g>
      <g>
        <polyline class="cls-2" points="1318.55 739.21 1318.55 761.05 1318.55 782.88"/>
        <polyline class="cls-2" points="1296.71 761.05 1318.55 761.05 1340.38 761.05"/>
        <path d="M1337.38,742.21v37.67h-37.67V742.21h37.67m3-3h-43.67v43.67h43.67V739.21Z"/>
      </g>
      <g>
        <polyline class="cls-2" points="1250.3 739.21 1250.3 761.05 1250.3 782.88"/>
        <polyline class="cls-2" points="1228.46 761.05 1250.3 761.05 1272.13 761.05"/>
        <path d="M1269.13,742.21v37.67h-37.67V742.21h37.67m3-3h-43.67v43.67h43.67V739.21Z"/>
      </g>
      <rect class="cls-2" x="1209.36" y="810.78" width="82.21" height="73.22"/>
      <line class="cls-2" x1="1251.04" y1="810.78" x2="1250.52" y2="884"/>
    </g>
    <g>
      <rect class="cls-4" x="1205.34" y="905.17" width="90.74" height="41.98" rx="17.5"/>
      <text class="cls-5" transform="translate(1220.8 936.84)">DAC</text>
    </g>
    <g>
      <g id="desktop_computer">
        <g id="cpu">
          <path class="cls-1" d="M1879.44,771.27a.66.66,0,0,1-.66.66h-72a.67.67,0,0,1-.67-.66V640.18a.67.67,0,0,1,.67-.67h72a.66.66,0,0,1,.66.67Z"/>
          <line class="cls-1" x1="1809.99" y1="781.02" x2="1810.16" y2="771.93"/>
          <line class="cls-1" x1="1875.75" y1="771.93" x2="1875.75" y2="781.02"/>
          <line class="cls-1" x1="1821.02" y1="661.58" x2="1866.71" y2="661.58"/>
          <line class="cls-1" x1="1821.02" y1="675.21" x2="1866.71" y2="675.21"/>
          <line class="cls-1" x1="1821.02" y1="688.85" x2="1866.71" y2="688.85"/>
          <circle class="cls-1" cx="1843.74" cy="740.12" r="7.14"/>
        </g>
        <g id="monitor">
          <rect class="cls-1" x="1697.05" y="679.76" width="127.87" height="80.49" rx="1.02"/>
          <rect class="cls-1" x="1748.97" y="760.25" width="22.72" height="17.53" rx="1.02"/>
          <line class="cls-1" x1="1732.95" y1="777.77" x2="1787.6" y2="777.77"/>
          <line class="cls-1" x1="1697.05" y1="744.78" x2="1824.92" y2="744.78"/>
        </g>
      </g>
      <g id="three_gears">
        <g>
          <g id="gear">
            <g id="_Radial_Repeat_" data-name="&lt;Radial Repeat&gt;">
              <path class="cls-7" d="M1754.54,721.41c0,.21-.2.43-.52.49l-2.13.72-.17.06a11.35,11.35,0,0,1-1,4.73l.13.12,1.7,1.53c.27.2.39.5.26.68l-1.63,2.25c-.13.18-.45.16-.72,0l-2-1-.15-.08a11.55,11.55,0,0,1-4.13,2.67v.17l.09,2.21c.05.33-.08.63-.3.66l-2.75.4c-.22,0-.43-.21-.48-.54l-.62-2-.06-.17a11.43,11.43,0,0,1-4.84-1.13l-.12.13-1.49,1.57c-.2.27-.5.37-.67.24l-2.22-1.69c-.17-.13-.14-.45.06-.72l1-1.82.08-.16a11.38,11.38,0,0,1-2.56-4.28h-.18l-2.16,0c-.33,0-.62-.1-.64-.32l-.34-2.76c0-.22.22-.42.55-.46l2-.58.16-.05a11.5,11.5,0,0,1,1.3-4.77l-.13-.13-1.57-1.56c-.26-.21-.36-.51-.23-.68l1.75-2.17c.14-.17.45-.14.71.07l1.89,1.08.15.09a11.41,11.41,0,0,1,3.2-2l0-.18-.21-2.27c-.06-.32.06-.62.27-.66l2.73-.55c.21,0,.44.19.5.52l.77,2.1.06.16a11.38,11.38,0,0,1,4.74.91l.11-.14,1.52-1.78c.19-.27.49-.4.66-.27l2.3,1.58c.18.12.17.44,0,.71l-1,2.06-.08.16a11.32,11.32,0,0,1,2.68,4h.18l2.33-.16c.33,0,.63.07.66.28Zm-15.83-4.69a6.28,6.28,0,1,0,7.63,4.54A6.29,6.29,0,0,0,1738.71,716.72Z"/>
            </g>
          </g>
          <g id="gear-2" data-name="gear">
            <g id="_Radial_Repeat_2" data-name="&lt;Radial Repeat&gt;">
              <path class="cls-7" d="M1753.75,698.11c0,.17-.19.32-.45.34l-1.71.39-.13,0a9,9,0,0,1-1.14,3.59l.09.1,1.2,1.33c.2.17.26.41.15.54l-1.45,1.61c-.11.13-.36.09-.55-.09l-1.43-.92-.11-.07a9,9,0,0,1-3.41,1.73v.14l-.11,1.71c0,.27-.11.48-.28.49l-2.17.09c-.17,0-.31-.2-.32-.46l-.33-1.61,0-.13a8.89,8.89,0,0,1-3.66-1.27l-.1.09-1.28,1.1c-.18.19-.42.25-.54.14l-1.58-1.49c-.12-.12-.08-.36.1-.55l.91-1.34.08-.11a8.84,8.84,0,0,1-1.64-3.52l-.14,0-1.67-.14c-.26,0-.48-.13-.48-.3l0-2.17c0-.17.21-.31.47-.31l1.61-.28.14,0a8.79,8.79,0,0,1,1.38-3.59L1735,693l-1.1-1.34c-.18-.18-.24-.42-.12-.54l1.53-1.55c.12-.12.36-.06.55.12l1.37,1,.11.08a9.07,9.07,0,0,1,2.63-1.29v-.14l0-1.77c0-.26.09-.48.26-.5l2.16-.2c.16,0,.32.19.34.44l.43,1.69,0,.13a9,9,0,0,1,3.59,1.08l.1-.09,1.32-1.26c.17-.2.41-.27.54-.16l1.65,1.41c.13.11.09.36-.08.55l-.92,1.52-.07.11a8.93,8.93,0,0,1,1.75,3.31h.14l1.82.07c.26,0,.48.1.49.27Zm-11.89-4.9a4.89,4.89,0,1,0,5.54,4.13A4.89,4.89,0,0,0,1741.86,693.21Z"/>
            </g>
          </g>
          <g id="gear-3" data-name="gear">
            <g id="_Radial_Repeat_3" data-name="&lt;Radial Repeat&gt;">
              <path class="cls-7" d="M1791.49,710.42c0,.31-.35.58-.82.61l-3.11.71-.25.06a16.08,16.08,0,0,1-2.06,6.54l.17.19,2.18,2.41c.35.32.47.76.27,1l-2.64,2.94c-.2.23-.66.16-1-.16l-2.6-1.68-.21-.14a16.09,16.09,0,0,1-6.22,3.16v.25l-.19,3.13c0,.48-.22.87-.52.88l-4,.17c-.31,0-.57-.36-.59-.83l-.59-2.93,0-.25a16.27,16.27,0,0,1-6.68-2.3l-.19.16-2.32,2c-.33.35-.77.46-1,.25l-2.88-2.71c-.22-.21-.14-.66.18-1l1.67-2.43.14-.21a16.16,16.16,0,0,1-3-6.42l-.25,0-3-.26c-.47,0-.86-.23-.86-.54l-.07-4c0-.31.37-.56.85-.57l2.93-.52.25,0a16.36,16.36,0,0,1,2.53-6.56l-.16-.19-2-2.44c-.34-.33-.44-.77-.23-1l2.79-2.81c.21-.22.66-.12,1,.21l2.5,1.8.2.15a16.13,16.13,0,0,1,4.8-2.35v-.25l0-3.23c0-.48.17-.88.48-.91l3.93-.36c.31,0,.59.33.63.8l.78,3.08.07.24a16.11,16.11,0,0,1,6.55,2l.18-.17,2.41-2.3c.3-.36.74-.49,1-.29l3,2.56c.24.2.18.66-.13,1l-1.69,2.75-.13.21a16,16,0,0,1,3.2,6h.25l3.32.12c.47,0,.87.19.89.5Zm-21.67-8.93a8.9,8.9,0,1,0,10.11,7.52A8.91,8.91,0,0,0,1769.82,701.49Z"/>
            </g>
          </g>
        </g>
      </g>
    </g>
    <g id="data_stack" data-name="data stack">
      <g id="data">
        <rect class="cls-1" x="1675.84" y="1021.02" width="119.53" height="155.31" rx="1"/>
        <g>
          <line class="cls-2" x1="1693.35" y1="1049.19" x2="1777.18" y2="1049.19"/>
          <line class="cls-2" x1="1693.35" y1="1074.31" x2="1777.18" y2="1074.31"/>
          <line class="cls-2" x1="1693.35" y1="1099.44" x2="1777.18" y2="1099.44"/>
          <line class="cls-2" x1="1693.35" y1="1124.56" x2="1777.18" y2="1124.56"/>
          <line class="cls-2" x1="1693.35" y1="1149.69" x2="1777.18" y2="1149.69"/>
        </g>
      </g>
      <g id="data-2" data-name="data">
        <rect class="cls-1" x="1699.44" y="1025.59" width="119.53" height="155.31" rx="1"/>
        <g>
          <line class="cls-2" x1="1716.95" y1="1053.76" x2="1800.78" y2="1053.76"/>
          <line class="cls-2" x1="1716.95" y1="1078.88" x2="1800.78" y2="1078.88"/>
          <line class="cls-2" x1="1716.95" y1="1104.01" x2="1800.78" y2="1104.01"/>
          <line class="cls-2" x1="1716.95" y1="1129.13" x2="1800.78" y2="1129.13"/>
          <line class="cls-2" x1="1716.95" y1="1154.25" x2="1800.78" y2="1154.25"/>
        </g>
      </g>
      <g id="data-3" data-name="data">
        <rect class="cls-1" x="1722.66" y="1029.77" width="119.53" height="155.31" rx="1"/>
        <g>
          <line class="cls-2" x1="1740.17" y1="1057.94" x2="1824" y2="1057.94"/>
          <line class="cls-2" x1="1740.17" y1="1083.07" x2="1824" y2="1083.07"/>
          <line class="cls-2" x1="1740.17" y1="1108.19" x2="1824" y2="1108.19"/>
          <line class="cls-2" x1="1740.17" y1="1133.32" x2="1824" y2="1133.32"/>
          <line class="cls-2" x1="1740.17" y1="1158.44" x2="1824" y2="1158.44"/>
        </g>
      </g>
    </g>
    <g>
      <line class="cls-8" x1="1382.66" y1="722.4" x2="1389.86" y2="722.36"/>
      <line class="cls-9" x1="1403.74" y1="722.3" x2="1674.47" y2="721"/>
      <line class="cls-8" x1="1681.41" y1="720.97" x2="1688.6" y2="720.93"/>
      <path class="cls-10" d="M1364.56,722.48c8.53,3.12,19.13,8.47,25.71,14.15L1385,722.38l5.09-14.28C1383.61,713.84,1373.06,719.28,1364.56,722.48Z"/>
    </g>
    <g>
      <g id="container">
        <path class="cls-11" d="M1464.13,687.86l69.95-29.49a.75.75,0,0,1,.57,0l70.85,29.51a.74.74,0,0,1,0,1.37L1535.12,720a.7.7,0,0,1-.6,0l-70.4-30.73A.74.74,0,0,1,1464.13,687.86Z"/>
        <path class="cls-11" d="M1461.66,695.72v69.12a.73.73,0,0,0,.42.67l68.62,33.29a.74.74,0,0,0,1.07-.66V725a.74.74,0,0,0-.45-.68L1462.7,695A.75.75,0,0,0,1461.66,695.72Z"/>
        <path class="cls-11" d="M1537.85,724.06l69.29-29a.74.74,0,0,1,1,.69V765a.76.76,0,0,1-.42.67l-69.29,33.16a.75.75,0,0,1-1.07-.67V724.75A.75.75,0,0,1,1537.85,724.06Z"/>
      </g>
      <g id="three_gears-2" data-name="three_gears">
        <g>
          <g id="gear-4" data-name="gear">
            <g id="_Radial_Repeat_4" data-name="&lt;Radial Repeat&gt;">
              <path class="cls-12" d="M1493,729.63a.55.55,0,0,0-.39-.58l-1.57-.88-.12-.07a20.27,20.27,0,0,0-.63-5.63l.11-.14,1.3-1.79a.85.85,0,0,0,.2-.79l-1.17-2.69c-.09-.21-.33-.19-.53,0l-1.47,1.14-.12.1a9.25,9.25,0,0,0-3-3.21v-.21l.12-2.62c0-.39,0-.74-.21-.78l-2-.51c-.16,0-.32.24-.37.63l-.5,2.38,0,.2a6,6,0,0,0-3.62,1.27l-.09-.15-1.07-1.88c-.15-.32-.37-.45-.5-.3l-1.69,2a1,1,0,0,0,0,.86l.7,2.17.06.19a16.24,16.24,0,0,0-2,5h-.13l-1.6-.07a.4.4,0,0,0-.49.37l-.31,3.27a.53.53,0,0,0,.4.55l1.5.71.12.06a20.27,20.27,0,0,0,.86,5.67l-.09.15-1.2,1.82a.89.89,0,0,0-.19.81l1.26,2.59c.1.21.33.17.53-.07l1.43-1.26.11-.1a9.24,9.24,0,0,0,2.34,2.4l0,.21-.2,2.68c-.06.39,0,.74.18.79l2,.68c.15.05.32-.22.38-.6l.62-2.48,0-.19a5.87,5.87,0,0,0,3.55-1l.08.16,1.09,2.13c.14.33.36.48.49.33l1.74-1.84a.89.89,0,0,0,0-.85l-.69-2.45-.05-.18a15.68,15.68,0,0,0,2.08-4.69l.13,0,1.73.21a.37.37,0,0,0,.5-.32ZM1481.09,735c-2.48-1.05-3.92-5.13-3.22-9.09s3.29-6.33,5.77-5.28,3.92,5.13,3.22,9.09S1483.57,736,1481.09,735Z"/>
            </g>
          </g>
          <g id="gear-5" data-name="gear">
            <g id="_Radial_Repeat_5" data-name="&lt;Radial Repeat&gt;">
              <path class="cls-12" d="M1491.89,757.22a.39.39,0,0,0-.33-.41l-1.26-.48-.1,0a15.26,15.26,0,0,0-.77-4.27l.07-.12.92-1.55a.66.66,0,0,0,.12-.64l-1-1.93c-.08-.15-.27-.11-.41.1L1488,749l-.08.09a6.34,6.34,0,0,0-2.5-2.1v-.16l0-2c0-.31-.08-.56-.2-.57l-1.61-.14c-.13,0-.24.23-.25.54l-.28,1.9,0,.16a5.25,5.25,0,0,0-2.75,1.45l-.08-.11-.93-1.32c-.12-.22-.3-.3-.4-.16l-1.2,1.74a.68.68,0,0,0,.06.65l.65,1.6.06.13a13.75,13.75,0,0,0-1.3,4.15l-.1,0-1.25.15a.35.35,0,0,0-.36.34l-.07,2.57a.37.37,0,0,0,.34.38l1.19.35.1,0a14.66,14.66,0,0,0,1,4.28l-.07.13-.84,1.56a.7.7,0,0,0-.1.65l1.1,1.85c.09.14.27.08.41-.13l1-1.16.08-.09a6.24,6.24,0,0,0,1.93,1.56v.16l0,2.1c0,.31.06.57.18.59l1.61.27c.12,0,.24-.21.26-.52l.36-2,0-.16a5,5,0,0,0,2.69-1.23l.08.11,1,1.51c.12.24.3.32.4.2l1.26-1.65a.75.75,0,0,0,0-.66l-.65-1.8,0-.14a13.51,13.51,0,0,0,1.37-3.89h.1l1.36-.06a.32.32,0,0,0,.37-.31Zm-9,5.65c-2-.5-3.3-3.47-3-6.62s2.23-5.32,4.21-4.82,3.3,3.47,3,6.62S1484.92,763.36,1482.94,762.87Z"/>
            </g>
          </g>
          <g id="gear-6" data-name="gear">
            <g id="_Radial_Repeat_6" data-name="&lt;Radial Repeat&gt;">
              <path class="cls-12" d="M1520.23,743.13a.7.7,0,0,0-.59-.74l-2.3-.88-.19-.07a27.83,27.83,0,0,0-1.4-7.78l.13-.21,1.68-2.83a1.28,1.28,0,0,0,.22-1.17l-1.91-3.52c-.14-.27-.48-.19-.75.18l-2,2-.16.16a11.44,11.44,0,0,0-4.56-3.83v-.29l-.08-3.71c0-.57-.14-1-.36-1l-2.94-.25c-.23,0-.43.42-.46,1l-.5,3.46,0,.29a9.59,9.59,0,0,0-5,2.64l-.14-.19-1.69-2.4c-.23-.42-.56-.55-.73-.31l-2.2,3.18a1.27,1.27,0,0,0,.12,1.19l1.19,2.91.1.24a25.38,25.38,0,0,0-2.37,7.57l-.18,0-2.28.28a.62.62,0,0,0-.65.62l-.13,4.69a.65.65,0,0,0,.61.68l2.18.65.18,0a27.08,27.08,0,0,0,1.75,7.8l-.13.23-1.53,2.86a1.26,1.26,0,0,0-.18,1.18l2,3.36c.16.26.49.15.75-.24l1.9-2.1.15-.17a11.28,11.28,0,0,0,3.52,2.84v.3l0,3.83c0,.56.11,1,.34,1.07l2.92.49c.22,0,.44-.39.48-1l.65-3.63,0-.28a9.24,9.24,0,0,0,4.92-2.25l.13.21,1.74,2.74c.22.43.54.59.72.36l2.29-3a1.27,1.27,0,0,0-.08-1.2l-1.19-3.28-.09-.26a24.32,24.32,0,0,0,2.5-7.08h.19l2.47-.1a.59.59,0,0,0,.67-.57Zm-16.31,10.3c-3.6-.91-6-6.32-5.39-12.07s4.08-9.68,7.68-8.78,6,6.32,5.39,12.07S1507.53,754.33,1503.92,753.43Z"/>
            </g>
          </g>
        </g>
      </g>
    </g>
    <g>
      <line class="cls-8" x1="504.75" y1="1147.46" x2="511.35" y2="1144.6"/>
      <line class="cls-13" x1="524.86" y1="1138.77" x2="1085.41" y2="896.54"/>
      <line class="cls-8" x1="1092.17" y1="893.62" x2="1098.77" y2="890.77"/>
      <path class="cls-10" d="M488.12,1154.64c9.08-.48,20.92.28,29.2,2.93l-10.39-11-.93-15.15C502.26,1139.22,494.69,1148.36,488.12,1154.64Z"/>
      <path class="cls-10" d="M1115.39,883.58c-6.56,6.29-14.13,15.43-17.88,23.27l-.92-15.14-10.39-11.05C1094.48,883.31,1106.32,884.06,1115.39,883.58Z"/>
    </g>
    <g>
      <line class="cls-8" x1="509.83" y1="715.43" x2="517.02" y2="715.33"/>
      <line class="cls-14" x1="531.72" y1="715.13" x2="1082.75" y2="707.72"/>
      <line class="cls-8" x1="1090.09" y1="707.62" x2="1097.29" y2="707.52"/>
      <path class="cls-10" d="M491.72,715.67c8.56,3.05,19.21,8.3,25.83,13.92L512.2,715.4l5-14.34C510.7,706.87,500.2,712.4,491.72,715.67Z"/>
      <path class="cls-10" d="M1115.39,707.28c-8.47,3.27-19,8.81-25.45,14.61l5-14.34-5.35-14.19C1096.19,699,1106.83,704.23,1115.39,707.28Z"/>
    </g>
    <g>
      <line class="cls-8" x1="507.11" y1="221.45" x2="513.43" y2="224.9"/>
      <line class="cls-15" x1="526.31" y1="231.94" x2="1086.75" y2="538.11"/>
      <line class="cls-8" x1="1093.19" y1="541.63" x2="1099.5" y2="545.08"/>
      <path class="cls-10" d="M491.22,212.77c6,6.85,12.65,16.66,15.66,24.81l2.32-15,11.36-10.05C512.07,214.41,500.21,214.08,491.22,212.77Z"/>
      <path class="cls-10" d="M1115.39,553.76c-9-1.31-20.85-1.65-29.34.23l11.37-10,2.31-15C1102.74,537.1,1109.43,546.9,1115.39,553.76Z"/>
    </g>
    <g>
      <g id="container-2" data-name="container">
        <path class="cls-11" d="M552,230.16l70-29.5a.71.71,0,0,1,.57,0l70.85,29.5a.74.74,0,0,1,0,1.37L623,262.26a.78.78,0,0,1-.6,0L552,231.53A.74.74,0,0,1,552,230.16Z"/>
        <path class="cls-11" d="M549.55,238v69.12a.75.75,0,0,0,.42.67l68.62,33.29a.75.75,0,0,0,1.07-.67V267.31a.76.76,0,0,0-.45-.69l-68.62-29.29A.75.75,0,0,0,549.55,238Z"/>
        <path class="cls-11" d="M625.74,266.36l69.29-29a.75.75,0,0,1,1,.69v69.26a.75.75,0,0,1-.42.67l-69.29,33.17a.75.75,0,0,1-1.07-.67V267A.73.73,0,0,1,625.74,266.36Z"/>
      </g>
      <g id="three_gears-3" data-name="three_gears">
        <g>
          <g id="gear-7" data-name="gear">
            <g id="_Radial_Repeat_7" data-name="&lt;Radial Repeat&gt;">
              <path class="cls-12" d="M580.86,271.93a.55.55,0,0,0-.39-.58l-1.56-.89-.13-.07a20.2,20.2,0,0,0-.63-5.62l.11-.14,1.3-1.79a.85.85,0,0,0,.2-.79l-1.17-2.7c-.09-.2-.33-.19-.53,0l-1.47,1.15-.12.09a9.25,9.25,0,0,0-3-3.21v-.21l.11-2.61c0-.39-.05-.74-.21-.78l-2-.51c-.16-.05-.32.24-.37.63l-.5,2.37-.05.2a6.08,6.08,0,0,0-3.62,1.28l-.09-.15-1.07-1.89c-.15-.31-.37-.45-.5-.29l-1.69,2a.94.94,0,0,0,0,.85l.7,2.18.06.18a16.44,16.44,0,0,0-2,5h-.13l-1.6-.07a.39.39,0,0,0-.49.36l-.31,3.27a.52.52,0,0,0,.4.55l1.5.71.12.06a20,20,0,0,0,.87,5.68l-.1.14-1.2,1.83a.88.88,0,0,0-.19.81l1.26,2.59c.1.2.33.16.53-.08l1.43-1.26.11-.1a9.13,9.13,0,0,0,2.34,2.41l0,.2-.2,2.68c0,.39,0,.75.18.8l2,.68c.15.05.32-.22.38-.61l.62-2.47,0-.2a5.87,5.87,0,0,0,3.55-1l.08.16,1.09,2.13c.14.33.36.48.49.34l1.74-1.84a.89.89,0,0,0,0-.85l-.69-2.45,0-.19a15.61,15.61,0,0,0,2.08-4.68h.13l1.73.22a.38.38,0,0,0,.5-.33ZM569,277.27c-2.48-1-3.92-5.13-3.22-9.09s3.29-6.32,5.77-5.27,3.92,5.13,3.22,9.09S571.46,278.33,569,277.27Z"/>
            </g>
          </g>
          <g id="gear-8" data-name="gear">
            <g id="_Radial_Repeat_8" data-name="&lt;Radial Repeat&gt;">
              <path class="cls-12" d="M579.78,299.51a.38.38,0,0,0-.32-.4l-1.27-.48-.1,0a15.2,15.2,0,0,0-.77-4.27l.07-.12.92-1.55a.7.7,0,0,0,.13-.64l-1.05-1.93c-.08-.15-.27-.11-.41.09l-1.09,1.08-.08.08a6.31,6.31,0,0,0-2.5-2.09v-.16l0-2c0-.31-.08-.57-.2-.58l-1.61-.13c-.13,0-.24.23-.25.53l-.28,1.9,0,.16a5.32,5.32,0,0,0-2.75,1.45l-.08-.1-.92-1.32c-.13-.23-.31-.3-.41-.17l-1.2,1.74a.7.7,0,0,0,.06.66l.65,1.59.06.14a13.66,13.66,0,0,0-1.3,4.15h-.1l-1.25.15a.36.36,0,0,0-.36.35l-.07,2.57a.36.36,0,0,0,.34.37l1.19.36.1,0a14.73,14.73,0,0,0,1,4.28l-.07.12-.84,1.57a.69.69,0,0,0-.1.65l1.1,1.84c.09.14.27.09.41-.13l1-1.15.08-.1a6.34,6.34,0,0,0,1.94,1.57v.16l0,2.1c0,.3.06.57.18.59l1.61.26c.12,0,.24-.21.27-.51l.35-2,0-.15a5.12,5.12,0,0,0,2.7-1.24l.07.12.95,1.5c.13.24.3.33.4.2l1.26-1.64a.75.75,0,0,0,0-.66l-.65-1.81-.05-.13a13.62,13.62,0,0,0,1.37-3.89h.1l1.36-.05a.33.33,0,0,0,.37-.32Zm-8.95,5.65c-2-.49-3.3-3.46-3-6.62s2.23-5.31,4.21-4.81,3.3,3.46,2.95,6.62S572.81,305.66,570.83,305.16Z"/>
            </g>
          </g>
          <g id="gear-9" data-name="gear">
            <g id="_Radial_Repeat_9" data-name="&lt;Radial Repeat&gt;">
              <path class="cls-12" d="M608.12,285.42a.69.69,0,0,0-.59-.73l-2.3-.88-.19-.07a27.76,27.76,0,0,0-1.4-7.78l.13-.22,1.68-2.83a1.27,1.27,0,0,0,.22-1.16l-1.91-3.52c-.14-.28-.48-.2-.75.17l-2,2-.16.16a11.41,11.41,0,0,0-4.56-3.82v-.3l-.08-3.71c0-.56-.14-1-.36-1.05l-2.94-.25c-.23,0-.43.42-.46,1l-.49,3.47-.05.29a9.59,9.59,0,0,0-5,2.64l-.14-.2-1.69-2.4c-.23-.41-.56-.55-.73-.3l-2.2,3.17a1.27,1.27,0,0,0,.12,1.19l1.19,2.91.1.25A25.41,25.41,0,0,0,581.2,281l-.18,0-2.28.27a.64.64,0,0,0-.65.63l-.13,4.68a.66.66,0,0,0,.61.69l2.18.65.18.05a27.08,27.08,0,0,0,1.75,7.8l-.13.22L581,298.83a1.26,1.26,0,0,0-.18,1.18l2,3.36c.16.26.49.16.75-.23l1.9-2.11.15-.17a11.18,11.18,0,0,0,3.52,2.85V304l0,3.83c0,.56.11,1,.34,1.08l2.92.48c.22,0,.44-.38.48-.94l.65-3.63.05-.29a9.23,9.23,0,0,0,4.92-2.24l.13.2,1.74,2.75c.22.43.55.59.72.36l2.29-3a1.29,1.29,0,0,0-.07-1.2l-1.2-3.29-.09-.25a24.49,24.49,0,0,0,2.5-7.09h.19l2.47-.11a.59.59,0,0,0,.67-.57Zm-16.31,10.3c-3.6-.9-6-6.31-5.39-12.06s4.08-9.69,7.68-8.78,6,6.32,5.39,12.06S595.42,296.63,591.81,295.72Z"/>
            </g>
          </g>
        </g>
      </g>
    </g>
    <g>
      <g id="container-3" data-name="container">
        <path class="cls-11" d="M554.51,669.53l70-29.5a.83.83,0,0,1,.58,0l70.85,29.5a.75.75,0,0,1,0,1.37l-70.4,30.73a.68.68,0,0,1-.59,0L554.5,670.9A.75.75,0,0,1,554.51,669.53Z"/>
        <path class="cls-11" d="M552.05,677.39v69.12a.73.73,0,0,0,.42.67l68.62,33.29a.75.75,0,0,0,1.07-.67V706.68a.73.73,0,0,0-.46-.68l-68.61-29.29A.74.74,0,0,0,552.05,677.39Z"/>
        <path class="cls-11" d="M628.24,705.73l69.28-29a.75.75,0,0,1,1,.68v69.27a.76.76,0,0,1-.43.67l-69.28,33.16a.74.74,0,0,1-1.07-.67V706.42A.75.75,0,0,1,628.24,705.73Z"/>
      </g>
      <g id="three_gears-4" data-name="three_gears">
        <g>
          <g id="gear-10" data-name="gear">
            <g id="_Radial_Repeat_10" data-name="&lt;Radial Repeat&gt;">
              <path class="cls-12" d="M583.35,711.3a.54.54,0,0,0-.38-.58l-1.57-.89-.12-.06a20.61,20.61,0,0,0-.63-5.63l.1-.14,1.3-1.79a.83.83,0,0,0,.21-.79l-1.17-2.69c-.09-.21-.33-.19-.53,0l-1.47,1.15L579,700a9.42,9.42,0,0,0-3-3.2v-.21l.12-2.62c0-.39-.05-.74-.21-.78l-2-.51c-.15,0-.32.24-.36.63l-.51,2.38,0,.2a6,6,0,0,0-3.63,1.27l-.08-.15-1.08-1.88c-.14-.32-.37-.45-.5-.3l-1.68,2a.91.91,0,0,0,0,.85l.7,2.18.06.19a16.28,16.28,0,0,0-2,5h-.13L563,705a.39.39,0,0,0-.48.36l-.31,3.28a.54.54,0,0,0,.4.55l1.49.7.13.06a19.93,19.93,0,0,0,.86,5.68l-.09.14-1.21,1.83a.89.89,0,0,0-.18.81l1.26,2.59c.09.2.33.17.53-.08l1.43-1.25.11-.1a9.37,9.37,0,0,0,2.33,2.4v.2l-.2,2.69c-.06.39,0,.74.18.79l2,.68c.16.05.33-.22.39-.61l.61-2.47,0-.2a5.84,5.84,0,0,0,3.54-1l.09.16,1.09,2.12c.14.33.35.48.49.34l1.74-1.84a1,1,0,0,0,0-.85l-.69-2.45,0-.18a15.42,15.42,0,0,0,2.07-4.69l.13,0,1.74.21a.38.38,0,0,0,.5-.32Zm-11.87,5.35c-2.48-1-3.93-5.13-3.22-9.09s3.29-6.33,5.77-5.28,3.92,5.13,3.22,9.09S574,717.7,571.48,716.65Z"/>
            </g>
          </g>
          <g id="gear-11" data-name="gear">
            <g id="_Radial_Repeat_11" data-name="&lt;Radial Repeat&gt;">
              <path class="cls-12" d="M582.28,738.88a.39.39,0,0,0-.33-.4l-1.26-.48-.1,0a15.26,15.26,0,0,0-.77-4.27l.07-.12.92-1.55a.69.69,0,0,0,.12-.64l-1-1.93c-.08-.15-.27-.11-.42.1l-1.08,1.07-.09.09a6.21,6.21,0,0,0-2.5-2.1v-.16l0-2c0-.31-.08-.56-.21-.57l-1.61-.14c-.12,0-.23.23-.25.54l-.27,1.9,0,.16a5.21,5.21,0,0,0-2.75,1.45l-.08-.11-.93-1.32c-.13-.23-.31-.3-.4-.16L568,729.9a.71.71,0,0,0,.07.65l.65,1.6,0,.13a14,14,0,0,0-1.29,4.15l-.1,0-1.25.15a.34.34,0,0,0-.36.34l-.07,2.57a.34.34,0,0,0,.34.37l1.19.36.1,0a14.66,14.66,0,0,0,1,4.28l-.07.12-.84,1.57a.7.7,0,0,0-.1.65l1.1,1.84c.09.15.27.09.41-.12l1-1.16.08-.09a6.15,6.15,0,0,0,1.93,1.56v.16l0,2.1c0,.31.06.57.18.59l1.61.27c.12,0,.24-.21.26-.52l.36-2,0-.16a5,5,0,0,0,2.7-1.23l.07.11,1,1.51c.12.23.3.32.4.19l1.25-1.64a.71.71,0,0,0,0-.66l-.66-1.8-.05-.14a13.22,13.22,0,0,0,1.38-3.89h.1l1.36-.06a.33.33,0,0,0,.37-.31Zm-8.95,5.66c-2-.5-3.3-3.47-3-6.62s2.24-5.32,4.21-4.82,3.31,3.47,3,6.62S575.31,745,573.33,744.54Z"/>
            </g>
          </g>
          <g id="gear-12" data-name="gear">
            <g id="_Radial_Repeat_12" data-name="&lt;Radial Repeat&gt;">
              <path class="cls-12" d="M610.62,724.8a.7.7,0,0,0-.6-.74l-2.3-.88-.18-.07a27.83,27.83,0,0,0-1.4-7.78l.13-.22,1.67-2.82a1.26,1.26,0,0,0,.22-1.17l-1.9-3.52c-.15-.27-.48-.19-.75.18l-2,2-.15.15a11.56,11.56,0,0,0-4.56-3.82v-.29l-.08-3.71c0-.57-.14-1-.37-1.05l-2.93-.25c-.23,0-.43.42-.46,1l-.5,3.46,0,.29a9.59,9.59,0,0,0-5,2.64l-.14-.19-1.69-2.41c-.24-.41-.56-.54-.73-.3l-2.2,3.18a1.28,1.28,0,0,0,.12,1.19l1.18,2.9.1.25a25.38,25.38,0,0,0-2.36,7.57l-.18,0-2.28.27a.65.65,0,0,0-.66.63l-.13,4.69a.66.66,0,0,0,.62.68l2.18.65.18.05a26.75,26.75,0,0,0,1.74,7.8l-.12.23-1.53,2.86a1.27,1.27,0,0,0-.19,1.17l2,3.37c.15.26.49.15.74-.24l1.91-2.1.15-.17a11.28,11.28,0,0,0,3.52,2.84v.3l0,3.82c0,.56.11,1,.33,1.08l2.93.48c.22,0,.44-.38.48-.94l.65-3.63.05-.29a9.09,9.09,0,0,0,4.91-2.24l.14.2,1.74,2.75c.22.43.54.59.72.36l2.29-3a1.3,1.3,0,0,0-.08-1.2l-1.19-3.29-.1-.25a24.14,24.14,0,0,0,2.51-7.08h.18l2.48-.1a.59.59,0,0,0,.67-.57Zm-16.31,10.3c-3.6-.91-6-6.32-5.39-12.07s4.07-9.68,7.68-8.78,6,6.32,5.39,12.07S597.91,736,594.31,735.1Z"/>
            </g>
          </g>
        </g>
      </g>
    </g>
    <g>
      <g id="container-4" data-name="container">
        <path class="cls-11" d="M557,1056.73l70-29.5a.83.83,0,0,1,.58,0l70.84,29.5a.74.74,0,0,1,0,1.37L628,1088.83a.68.68,0,0,1-.59,0L557,1058.1A.75.75,0,0,1,557,1056.73Z"/>
        <path class="cls-11" d="M554.55,1064.59v69.12a.73.73,0,0,0,.42.67l68.61,33.29a.74.74,0,0,0,1.07-.67v-73.12a.73.73,0,0,0-.45-.68l-68.62-29.29A.74.74,0,0,0,554.55,1064.59Z"/>
        <path class="cls-11" d="M630.74,1092.93l69.28-29a.74.74,0,0,1,1,.68v69.27a.75.75,0,0,1-.42.67l-69.29,33.16a.74.74,0,0,1-1.06-.67v-73.39A.75.75,0,0,1,630.74,1092.93Z"/>
      </g>
      <g id="three_gears-5" data-name="three_gears">
        <g>
          <g id="gear-13" data-name="gear">
            <g id="_Radial_Repeat_13" data-name="&lt;Radial Repeat&gt;">
              <path class="cls-16" d="M585.85,1098.5a.55.55,0,0,0-.38-.58l-1.57-.89-.12-.06a21,21,0,0,0-.63-5.63l.1-.14,1.3-1.79a.83.83,0,0,0,.21-.79l-1.17-2.69c-.09-.21-.33-.19-.54,0l-1.47,1.15-.12.09a9.3,9.3,0,0,0-3-3.2v-.21l.11-2.62c0-.39-.05-.74-.21-.78l-2-.51c-.16,0-.32.24-.36.63l-.51,2.38,0,.2a6,6,0,0,0-3.63,1.27l-.09-.15-1.07-1.88c-.15-.32-.37-.45-.5-.3l-1.68,2a.91.91,0,0,0,0,.85l.69,2.18.06.19a16.27,16.27,0,0,0-2,5h-.14l-1.6-.07a.41.41,0,0,0-.49.36l-.3,3.28a.52.52,0,0,0,.4.55l1.49.7.13.06a19.93,19.93,0,0,0,.86,5.68l-.1.14-1.2,1.83a.86.86,0,0,0-.18.81l1.25,2.59c.1.2.34.17.54-.08l1.42-1.25.12-.1a9.21,9.21,0,0,0,2.33,2.4v.2l-.21,2.69c0,.39,0,.74.19.79l2,.68c.16,0,.33-.22.38-.61l.62-2.47,0-.2a5.84,5.84,0,0,0,3.54-1l.08.16,1.1,2.12c.13.33.35.48.49.34l1.74-1.84a1,1,0,0,0,0-.85l-.69-2.45-.06-.18a15.43,15.43,0,0,0,2.08-4.69l.13,0,1.74.21a.37.37,0,0,0,.49-.32ZM574,1103.85c-2.48-1-3.92-5.13-3.22-9.09s3.29-6.33,5.77-5.28,3.93,5.13,3.22,9.09S576.45,1104.9,574,1103.85Z"/>
            </g>
          </g>
          <g id="gear-14" data-name="gear">
            <g id="_Radial_Repeat_14" data-name="&lt;Radial Repeat&gt;">
              <path class="cls-16" d="M584.78,1126.08a.39.39,0,0,0-.33-.4l-1.26-.48-.1,0a15.26,15.26,0,0,0-.77-4.27l.07-.12.92-1.55a.69.69,0,0,0,.12-.64l-1-1.93c-.08-.15-.26-.11-.41.1l-1.08,1.07-.09.09a6.27,6.27,0,0,0-2.5-2.1v-.16l0-2c0-.31-.07-.56-.2-.57l-1.61-.14c-.12,0-.24.23-.25.54l-.27,1.9,0,.16a5.25,5.25,0,0,0-2.75,1.45l-.07-.11-.93-1.32c-.13-.23-.31-.3-.4-.16l-1.21,1.74a.71.71,0,0,0,.07.65l.65,1.6,0,.13a14,14,0,0,0-1.29,4.15l-.11,0-1.24.15a.34.34,0,0,0-.36.34l-.08,2.57a.36.36,0,0,0,.34.37l1.2.36.1,0a15,15,0,0,0,.95,4.28l-.06.12-.84,1.57a.71.71,0,0,0-.11.65l1.11,1.84c.08.15.27.09.41-.12l1-1.16.09-.09a6.15,6.15,0,0,0,1.93,1.56v.16l0,2.1c0,.31.06.57.18.59l1.6.27c.13,0,.25-.21.27-.52l.35-2,0-.16a5,5,0,0,0,2.7-1.23l.07.11,1,1.51c.12.23.3.32.39.19l1.26-1.64a.71.71,0,0,0,0-.66l-.66-1.8-.05-.14a13.51,13.51,0,0,0,1.38-3.89h.1l1.35-.06a.32.32,0,0,0,.37-.31Zm-8.95,5.66c-2-.5-3.31-3.47-3-6.62s2.23-5.32,4.21-4.82,3.3,3.47,3,6.62S577.8,1132.23,575.83,1131.74Z"/>
            </g>
          </g>
          <g id="gear-15" data-name="gear">
            <g id="_Radial_Repeat_15" data-name="&lt;Radial Repeat&gt;">
              <path class="cls-16" d="M613.12,1112a.7.7,0,0,0-.6-.74l-2.3-.88-.18-.07a27.83,27.83,0,0,0-1.4-7.78l.13-.22,1.67-2.82a1.26,1.26,0,0,0,.22-1.17l-1.9-3.52c-.15-.27-.49-.19-.75.18l-2,2-.16.15a11.42,11.42,0,0,0-4.56-3.82V1093l-.08-3.71c0-.57-.14-1-.37-1l-2.93-.25c-.23,0-.44.42-.46,1l-.5,3.46,0,.29a9.65,9.65,0,0,0-5,2.64l-.13-.19-1.69-2.41c-.24-.41-.57-.54-.74-.3l-2.19,3.18a1.27,1.27,0,0,0,.11,1.19l1.19,2.9.1.25a25.38,25.38,0,0,0-2.36,7.57l-.19,0-2.27.27a.65.65,0,0,0-.66.63l-.13,4.69a.66.66,0,0,0,.62.68l2.17.65.19,0a26.75,26.75,0,0,0,1.74,7.8l-.12.23-1.53,2.86a1.24,1.24,0,0,0-.19,1.17l2,3.37c.16.26.49.15.75-.24l1.9-2.1.16-.17a11.17,11.17,0,0,0,3.52,2.84v.3l0,3.82c0,.56.1,1,.33,1.08l2.92.48c.23,0,.45-.38.49-.94l.64-3.63,0-.29a9.09,9.09,0,0,0,4.92-2.24l.13.2,1.75,2.75c.22.43.54.59.72.36l2.29-3a1.3,1.3,0,0,0-.08-1.2l-1.2-3.29-.09-.25a24.43,24.43,0,0,0,2.51-7.08h.18l2.47-.1a.6.6,0,0,0,.68-.57Zm-16.31,10.3c-3.6-.91-6-6.32-5.39-12.07s4.07-9.68,7.67-8.78,6,6.32,5.39,12.07S600.41,1123.2,596.81,1122.3Z"/>
            </g>
          </g>
        </g>
      </g>
    </g>
    <g id="data-4" data-name="data">
      <rect class="cls-1" x="889.94" y="909.42" width="99.56" height="129.36" rx="1"/>
      <g>
        <line class="cls-2" x1="904.52" y1="932.89" x2="974.34" y2="932.89"/>
        <line class="cls-2" x1="904.52" y1="953.81" x2="974.34" y2="953.81"/>
        <line class="cls-2" x1="904.52" y1="974.74" x2="974.34" y2="974.74"/>
        <line class="cls-2" x1="904.52" y1="995.66" x2="974.34" y2="995.66"/>
        <line class="cls-2" x1="904.52" y1="1016.59" x2="974.34" y2="1016.59"/>
      </g>
    </g>
    <g id="data-5" data-name="data">
      <rect class="cls-1" x="890.22" y="643.58" width="99.56" height="129.36" rx="1"/>
      <g>
        <line class="cls-2" x1="904.8" y1="667.04" x2="974.63" y2="667.04"/>
        <line class="cls-2" x1="904.8" y1="687.97" x2="974.63" y2="687.97"/>
        <line class="cls-2" x1="904.8" y1="708.89" x2="974.63" y2="708.89"/>
        <line class="cls-2" x1="904.8" y1="729.82" x2="974.63" y2="729.82"/>
        <line class="cls-2" x1="904.8" y1="750.75" x2="974.63" y2="750.75"/>
      </g>
    </g>
    <g id="data-6" data-name="data">
      <rect class="cls-1" x="889.94" y="379.96" width="99.56" height="129.36" rx="1"/>
      <g>
        <line class="cls-2" x1="904.52" y1="403.42" x2="974.34" y2="403.42"/>
        <line class="cls-2" x1="904.52" y1="424.35" x2="974.34" y2="424.35"/>
        <line class="cls-2" x1="904.52" y1="445.27" x2="974.34" y2="445.27"/>
        <line class="cls-2" x1="904.52" y1="466.2" x2="974.34" y2="466.2"/>
        <line class="cls-2" x1="904.52" y1="487.12" x2="974.34" y2="487.12"/>
      </g>
    </g>
    <g>
      <line class="cls-8" x1="1659.77" y1="1013.87" x2="1653.38" y2="1010.55"/>
      <line class="cls-17" x1="1641.09" y1="1004.17" x2="1376.76" y2="866.85"/>
      <line class="cls-8" x1="1370.62" y1="863.66" x2="1364.23" y2="860.34"/>
      <path class="cls-10" d="M1675.84,1022.22c-6.11-6.73-13-16.39-16.18-24.48l-2,15-11.15,10.28C1655,1021,1666.82,1021.09,1675.84,1022.22Z"/>
    </g>
    <g>
      <line class="cls-8" x1="1791.49" y1="798.46" x2="1791.49" y2="805.66"/>
      <line class="cls-18" x1="1791.49" y1="820.98" x2="1791.49" y2="997.22"/>
      <line class="cls-8" x1="1791.49" y1="1004.88" x2="1791.49" y2="1012.08"/>
      <path class="cls-10" d="M1791.49,780.35c-3.16,8.52-8.55,19.09-14.27,25.65l14.27-5.16,14.26,5.16C1800,799.44,1794.65,788.87,1791.49,780.35Z"/>
    </g>
  </g>
</svg>
