<svg xmlns="http://www.w3.org/2000/svg" viewBox="0 0 1919.63 1347.07"><defs><style>.cls-1{fill:#fff;}.cls-1,.cls-11,.cls-12,.cls-16,.cls-2,.cls-3,.cls-7{stroke:#000;}.cls-1,.cls-11,.cls-12,.cls-13,.cls-14,.cls-15,.cls-16,.cls-2,.cls-3,.cls-7,.cls-8,.cls-9{stroke-miterlimit:10;}.cls-1,.cls-11,.cls-13,.cls-14,.cls-15,.cls-2,.cls-3,.cls-8,.cls-9{stroke-width:1.8px;}.cls-13,.cls-14,.cls-15,.cls-2,.cls-8,.cls-9{fill:none;}.cls-3{fill:#ffd400;}.cls-4{opacity:0.2;}.cls-5{font-size:28.75px;font-family:ArialMT, Arial;}.cls-6{letter-spacing:-0.06em;}.cls-12,.cls-16,.cls-7{fill:#b80071;}.cls-7{stroke-width:0.9px;}.cls-13,.cls-14,.cls-15,.cls-8,.cls-9{stroke:#999;}.cls-9{stroke-dasharray:13.7 13.7;}.cls-10{fill:#999;}.cls-11{fill:#c2b094;}.cls-12{stroke-width:0.8px;}.cls-13{stroke-dasharray:14.37 14.37;}.cls-14{stroke-dasharray:14.32 14.32;}.cls-15{stroke-dasharray:14.35 14.35;}.cls-16{stroke-width:1.07px;}</style></defs><g id="share_compute" data-name="share compute"><g id="private_data"><rect class="cls-1" x="37.95" y="124.95" width="99.33" height="129.06" rx="1"/><line class="cls-2" x1="52.5" y1="148.36" x2="122.16" y2="148.36"/><line class="cls-2" x1="52.5" y1="169.24" x2="122.16" y2="169.24"/><line class="cls-2" x1="52.5" y1="190.12" x2="122.16" y2="190.12"/><line class="cls-2" x1="52.5" y1="210.99" x2="122.16" y2="210.99"/><line class="cls-2" x1="52.5" y1="231.87" x2="122.16" y2="231.87"/><g id="lock"><circle class="cls-3" cx="105.49" cy="222.22" r="37.8"/><path class="cls-2" d="M83.77,215.12v29.24h43.44V215.12H83.77Zm24.85,21.51h-6.26L104,230.5a4,4,0,1,1,3,0Z"/><path class="cls-2" d="M93.54,215.12l0-2.71c0-7.94,2.5-15,11.69-15,8.77,0,12.11,6.68,12.11,14.2l0,3.55"/><path class="cls-2" d="M88.57,215.33v-3.76c.15-13.26,6.81-19.21,16.63-19.21,9.59,0,17.46,5.82,17.62,18v5"/></g></g><g id="private_data-2" data-name="private_data"><rect class="cls-1" x="37.95" y="648.01" width="99.33" height="129.06" rx="1"/><line class="cls-2" x1="52.5" y1="671.42" x2="122.16" y2="671.42"/><line class="cls-2" x1="52.5" y1="692.3" x2="122.16" y2="692.3"/><line class="cls-2" x1="52.5" y1="713.17" x2="122.16" y2="713.17"/><line class="cls-2" x1="52.5" y1="734.05" x2="122.16" y2="734.05"/><line class="cls-2" x1="52.5" y1="754.93" x2="122.16" y2="754.93"/><g id="lock-2" data-name="lock"><circle class="cls-3" cx="105.49" cy="745.28" r="37.8"/><path class="cls-2" d="M83.77,738.18v29.24h43.44V738.18H83.77Zm24.85,21.51h-6.26l1.64-6.13a4,4,0,1,1,3,0Z"/><path class="cls-2" d="M93.54,738.18l0-2.71c0-7.94,2.5-15,11.69-15,8.77,0,12.11,6.68,12.11,14.2l0,3.55"/><path class="cls-2" d="M88.57,738.39v-3.76c.15-13.26,6.81-19.21,16.63-19.21,9.59,0,17.46,5.82,17.62,18v5"/></g></g><g id="private_data-3" data-name="private_data"><rect class="cls-1" x="37.95" y="1087.21" width="99.33" height="129.06" rx="1"/><line class="cls-2" x1="52.5" y1="1110.62" x2="122.16" y2="1110.62"/><line class="cls-2" x1="52.5" y1="1131.5" x2="122.16" y2="1131.5"/><line class="cls-2" x1="52.5" y1="1152.38" x2="122.16" y2="1152.38"/><line class="cls-2" x1="52.5" y1="1173.25" x2="122.16" y2="1173.25"/><line class="cls-2" x1="52.5" y1="1194.13" x2="122.16" y2="1194.13"/><g id="lock-3" data-name="lock"><circle class="cls-3" cx="105.49" cy="1184.48" r="37.8"/><path class="cls-2" d="M83.77,1177.38v29.24h43.44v-29.24H83.77Zm24.85,21.51h-6.26l1.64-6.13a4,4,0,1,1,3,0Z"/><path class="cls-2" d="M93.54,1177.38l0-2.71c0-7.94,2.5-15,11.69-15,8.77,0,12.11,6.68,12.11,14.2l0,3.55"/><path class="cls-2" d="M88.57,1177.59v-3.76c.15-13.26,6.81-19.21,16.63-19.21,9.59,0,17.46,5.82,17.62,18v5"/></g></g><g id="hospital"><polyline class="cls-2" points="390.56 68.09 412.06 68.09 412.06 296.46 286.97 296.46 286.97 68.09 307.18 68.09"/><path d="M490.45,98.76V292.1H413.22V98.76h77.23m1.8-1.8H411.42V293.9h80.83V97Z"/><polyline class="cls-2" points="450.55 138.02 450.55 159.83 450.55 181.64"/><polyline class="cls-2" points="428.74 159.83 450.55 159.83 472.36 159.83"/><path d="M470.56,139.81v40h-40v-40h40m1.8-1.79H428.74v43.62h43.62V138Z"/><polyline class="cls-2" points="450.55 209.22 450.55 231.03 450.55 252.84"/><polyline class="cls-2" points="428.74 231.03 450.55 231.03 472.36 231.03"/><path d="M470.56,211v40h-40V211h40m1.8-1.8H428.74v43.62h43.62V209.22Z"/><path d="M285.81,99.4V292.74H208.58V99.4h77.23m1.8-1.8H206.78V294.54h80.83V97.6Z"/><polyline class="cls-2" points="245.91 138.66 245.91 160.47 245.91 182.28"/><polyline class="cls-2" points="224.1 160.47 245.91 160.47 267.73 160.47"/><path d="M265.93,140.45v40h-40v-40h40m1.8-1.79H224.1v43.62h43.63V138.66Z"/><polyline class="cls-2" points="245.91 209.86 245.91 231.67 245.91 253.48"/><polyline class="cls-2" points="224.1 231.67 245.91 231.67 267.73 231.67"/><path d="M265.93,211.66v40h-40v-40h40m1.8-1.8H224.1v43.62h43.63V209.86Z"/><rect class="cls-2" x="307.18" y="131.28" width="82.11" height="30.79"/><rect class="cls-2" x="307.18" y="177.47" width="82.11" height="30.79"/><rect class="cls-2" x="307.18" y="223.01" width="82.11" height="73.13"/><line class="cls-2" x1="348.82" y1="223.01" x2="348.29" y2="296.14"/><circle class="cls-2" cx="348.87" cy="68.41" r="41.7"/><polygon class="cls-2" points="370.04 62 370.04 78.04 356.57 78.04 356.57 90.87 340.53 90.87 340.53 78.04 328.35 78.04 328.35 62 340.53 62 340.53 49.17 356.57 49.17 356.57 62 370.04 62"/></g><rect class="cls-4" x="290.45" y="319.32" width="107.24" height="41.93" rx="17.5"/><text class="cls-5" transform="translate(307.27 349.45)">Site<tspan class="cls-6" x="49.54" y="0" xml:space="preserve"> A</tspan></text><g id="institution"><rect class="cls-2" x="207.6" y="641.56" width="286.58" height="107.56"/><rect class="cls-2" x="193.61" y="749.12" width="314.58" height="37.57"/><rect class="cls-2" x="280.54" y="554.63" width="138.5" height="86.93"/><rect class="cls-2" x="323.27" y="709.34" width="52.31" height="39.78"/><rect class="cls-2" x="222.34" y="713.02" width="58.2" height="19.15"/><rect class="cls-2" x="226.02" y="655.56" width="51.2" height="29.47"/><rect class="cls-2" x="291.59" y="655.56" width="51.2" height="29.47"/><rect class="cls-2" x="356.42" y="655.56" width="51.2" height="29.47"/><rect class="cls-2" x="422.72" y="655.56" width="51.2" height="29.47"/><rect class="cls-2" x="419.04" y="713.02" width="58.2" height="19.15"/><path class="cls-2" d="M346.56,590.36h7.19a8.19,8.19,0,0,1,8.19,8.19v11a0,0,0,0,1,0,0H338.37a0,0,0,0,1,0,0v-11A8.19,8.19,0,0,1,346.56,590.36Z"/><path class="cls-2" d="M384.13,590.36h7.19a8.19,8.19,0,0,1,8.19,8.19v11a0,0,0,0,1,0,0H375.94a0,0,0,0,1,0,0v-11A8.19,8.19,0,0,1,384.13,590.36Z"/><path class="cls-2" d="M309.73,590.36h7.19a8.19,8.19,0,0,1,8.19,8.19v11a0,0,0,0,1,0,0H301.53a0,0,0,0,1,0,0v-11A8.19,8.19,0,0,1,309.73,590.36Z"/><polygon class="cls-2" points="350.16 522.03 262.92 554.63 438.72 554.63 350.16 522.03"/><line class="cls-2" x1="350.16" y1="491.59" x2="350.16" y2="522.04"/><rect class="cls-2" x="350.16" y="491.64" width="21.36" height="13.26"/></g><rect class="cls-4" x="293.04" y="813.34" width="104.83" height="41.93" rx="17.5"/><text class="cls-5" transform="translate(307.27 843.77)">Site B</text><g id="hospital-2" data-name="hospital"><polyline class="cls-2" points="390.56 1027.29 412.06 1027.29 412.06 1255.66 286.97 1255.66 286.97 1027.29 307.18 1027.29"/><path d="M490.45,1058V1251.3H413.22V1058h77.23m1.8-1.79H411.42v196.93h80.83V1056.16Z"/><polyline class="cls-2" points="450.55 1097.21 450.55 1119.02 450.55 1140.83"/><polyline class="cls-2" points="428.74 1119.02 450.55 1119.02 472.36 1119.02"/><path d="M470.56,1099v40h-40v-40h40m1.8-1.8H428.74v43.62h43.62v-43.62Z"/><polyline class="cls-2" points="450.55 1168.42 450.55 1190.23 450.55 1212.04"/><polyline class="cls-2" points="428.74 1190.23 450.55 1190.23 472.36 1190.23"/><path d="M470.56,1170.21v40h-40v-40h40m1.8-1.79H428.74V1212h43.62v-43.62Z"/><path d="M285.81,1058.59v193.35H208.58V1058.59h77.23m1.8-1.79H206.78v196.93h80.83V1056.8Z"/><polyline class="cls-2" points="245.91 1097.85 245.91 1119.66 245.91 1141.47"/><polyline class="cls-2" points="224.1 1119.66 245.91 1119.66 267.73 1119.66"/><path d="M265.93,1099.65v40h-40v-40h40m1.8-1.8H224.1v43.62h43.63v-43.62Z"/><polyline class="cls-2" points="245.91 1169.06 245.91 1190.87 245.91 1212.68"/><polyline class="cls-2" points="224.1 1190.87 245.91 1190.87 267.73 1190.87"/><path d="M265.93,1170.85v40h-40v-40h40m1.8-1.79H224.1v43.62h43.63v-43.62Z"/><rect class="cls-2" x="307.18" y="1090.48" width="82.11" height="30.79"/><rect class="cls-2" x="307.18" y="1136.66" width="82.11" height="30.79"/><rect class="cls-2" x="307.18" y="1182.21" width="82.11" height="73.13"/><line class="cls-2" x1="348.82" y1="1182.21" x2="348.29" y2="1255.34"/><circle class="cls-2" cx="348.87" cy="1027.61" r="41.7"/><polygon class="cls-2" points="370.04 1021.2 370.04 1037.23 356.57 1037.23 356.57 1050.06 340.53 1050.06 340.53 1037.23 328.35 1037.23 328.35 1021.2 340.53 1021.2 340.53 1008.37 356.57 1008.37 356.57 1021.2 370.04 1021.2"/></g><rect class="cls-4" x="295.43" y="1278.42" width="102.24" height="41.93" rx="17.5"/><text class="cls-5" transform="translate(307.27 1308.85)">Site C</text><g id="DAC"><rect class="cls-2" x="1141.58" y="554.17" width="225.81" height="332.33"/><polyline class="cls-2" points="1186.52 590.91 1186.52 612.72 1186.52 634.53"/><polyline class="cls-2" points="1164.7 612.72 1186.52 612.72 1208.33 612.72"/><path d="M1206.53,592.71v40h-40v-40h40m1.8-1.8H1164.7v43.62h43.63V590.91Z"/><polyline class="cls-2" points="1321.43 590.91 1321.43 612.72 1321.43 634.53"/><polyline class="cls-2" points="1299.62 612.72 1321.43 612.72 1343.24 612.72"/><path d="M1341.45,592.71v40h-40v-40h40m1.79-1.8h-43.62v43.62h43.62V590.91Z"/><polyline class="cls-2" points="1253.26 590.91 1253.26 612.72 1253.26 634.53"/><polyline class="cls-2" points="1231.45 612.72 1253.26 612.72 1275.08 612.72"/><path d="M1273.28,592.71v40h-40v-40h40m1.79-1.8h-43.62v43.62h43.62V590.91Z"/><polyline class="cls-2" points="1186.52 667.6 1186.52 689.41 1186.52 711.22"/><polyline class="cls-2" points="1164.7 689.41 1186.52 689.41 1208.33 689.41"/><path d="M1206.53,669.4v40h-40v-40h40m1.8-1.8H1164.7v43.62h43.63V667.6Z"/><polyline class="cls-2" points="1321.43 667.6 1321.43 689.41 1321.43 711.22"/><polyline class="cls-2" points="1299.62 689.41 1321.43 689.41 1343.24 689.41"/><path d="M1341.45,669.4v40h-40v-40h40m1.79-1.8h-43.62v43.62h43.62V667.6Z"/><polyline class="cls-2" points="1253.26 667.6 1253.26 689.41 1253.26 711.22"/><polyline class="cls-2" points="1231.45 689.41 1253.26 689.41 1275.08 689.41"/><path d="M1273.28,669.4v40h-40v-40h40m1.79-1.8h-43.62v43.62h43.62V667.6Z"/><polyline class="cls-2" points="1186.52 741.45 1186.52 763.26 1186.52 785.08"/><polyline class="cls-2" points="1164.7 763.26 1186.52 763.26 1208.33 763.26"/><path d="M1206.53,743.25v40h-40v-40h40m1.8-1.8H1164.7v43.63h43.63V741.45Z"/><polyline class="cls-2" points="1321.43 741.45 1321.43 763.26 1321.43 785.08"/><polyline class="cls-2" points="1299.62 763.26 1321.43 763.26 1343.24 763.26"/><path d="M1341.45,743.25v40h-40v-40h40m1.79-1.8h-43.62v43.63h43.62V741.45Z"/><polyline class="cls-2" points="1253.26 741.45 1253.26 763.26 1253.26 785.08"/><polyline class="cls-2" points="1231.45 763.26 1253.26 763.26 1275.08 763.26"/><path d="M1273.28,743.25v40h-40v-40h40m1.79-1.8h-43.62v43.63h43.62V741.45Z"/><rect class="cls-2" x="1212.37" y="812.94" width="82.11" height="73.13"/><line class="cls-2" x1="1254.01" y1="812.94" x2="1253.48" y2="886.07"/></g><rect class="cls-4" x="1208.36" y="907.22" width="90.64" height="41.93" rx="17.5"/><text class="cls-5" transform="translate(1223.79 938.85)">DAC</text><g id="desktop_computer"><g id="cpu"><path class="cls-1" d="M1881.67,773.47a.65.65,0,0,1-.66.66h-71.94a.66.66,0,0,1-.66-.66V642.53a.67.67,0,0,1,.66-.66H1881a.66.66,0,0,1,.66.66Z"/><line class="cls-1" x1="1812.3" y1="783.21" x2="1812.47" y2="774.13"/><line class="cls-1" x1="1877.98" y1="774.13" x2="1877.98" y2="783.21"/><line class="cls-1" x1="1823.32" y1="663.92" x2="1868.96" y2="663.92"/><line class="cls-1" x1="1823.32" y1="677.53" x2="1868.96" y2="677.53"/><line class="cls-1" x1="1823.32" y1="691.15" x2="1868.96" y2="691.15"/><circle class="cls-1" cx="1846.02" cy="742.37" r="7.13"/></g><g id="monitor"><rect class="cls-1" x="1699.49" y="682.07" width="127.72" height="80.39" rx="1.02"/><rect class="cls-1" x="1751.36" y="762.46" width="22.69" height="17.51" rx="1.02"/><line class="cls-1" x1="1735.35" y1="779.97" x2="1789.93" y2="779.97"/><line class="cls-1" x1="1699.49" y1="747.02" x2="1827.21" y2="747.02"/></g></g><g id="three_gears"><g id="gear"><g id="_Radial_Repeat_" data-name="&lt;Radial Repeat&gt;"><path class="cls-7" d="M1756.92,723.67c0,.22-.2.43-.53.49l-2.12.72-.17.06a11.35,11.35,0,0,1-1,4.73l.13.12,1.7,1.53c.27.19.39.49.26.67l-1.63,2.25c-.13.18-.45.16-.72,0l-1.94-1-.16-.08a11.51,11.51,0,0,1-4.12,2.67V736l.09,2.21c0,.33-.09.62-.3.65l-2.75.41c-.21,0-.43-.22-.48-.54l-.62-2,0-.17a11.58,11.58,0,0,1-4.84-1.13l-.12.13-1.48,1.57c-.21.26-.51.37-.68.24l-2.21-1.69c-.17-.13-.15-.45,0-.72l1-1.82.08-.16a11.26,11.26,0,0,1-2.56-4.27h-.17l-2.16,0c-.33,0-.62-.11-.64-.32l-.34-2.76c0-.22.22-.42.55-.46l2-.58.17,0a11.54,11.54,0,0,1,1.29-4.78l-.12-.12-1.57-1.56c-.26-.21-.36-.51-.23-.68l1.75-2.17c.13-.17.45-.13.71.07l1.89,1.08.15.09a11.45,11.45,0,0,1,3.18-2v-.17l-.21-2.27c-.06-.33.06-.62.27-.67l2.73-.54c.21,0,.43.19.49.52l.77,2.09.07.17a11.52,11.52,0,0,1,4.73.9l.11-.13,1.52-1.78c.19-.28.48-.4.66-.28l2.29,1.58c.18.12.17.44,0,.72l-1,2-.07.16a11.3,11.3,0,0,1,2.67,4h.18l2.33-.16c.33-.06.62.07.66.28ZM1741.11,719a6.27,6.27,0,1,0,7.62,4.53A6.27,6.27,0,0,0,1741.11,719Z"/></g></g><g id="gear-2" data-name="gear"><g id="_Radial_Repeat_2" data-name="&lt;Radial Repeat&gt;"><path class="cls-7" d="M1756.13,700.4c0,.17-.19.32-.45.34l-1.71.39-.13,0a8.86,8.86,0,0,1-1.14,3.58l.1.11,1.19,1.32c.2.17.26.41.15.54l-1.44,1.61c-.12.13-.36.09-.56-.08l-1.43-.93-.11-.07a8.82,8.82,0,0,1-3.41,1.73v.14l-.11,1.71c0,.26-.12.48-.28.49l-2.17.09c-.17,0-.31-.2-.32-.46l-.33-1.61,0-.13a9,9,0,0,1-3.66-1.26l-.1.09-1.28,1.09c-.18.19-.42.25-.54.14l-1.58-1.49c-.12-.11-.08-.36.1-.55l.91-1.33.08-.12a8.85,8.85,0,0,1-1.64-3.52h-.14l-1.67-.14c-.26,0-.47-.13-.47-.3l0-2.17c0-.17.2-.3.46-.31L1736,699l.14,0a8.79,8.79,0,0,1,1.38-3.59l-.08-.1-1.1-1.34c-.18-.18-.24-.43-.12-.55l1.53-1.53c.12-.12.36-.07.55.11l1.37,1,.11.08a9.07,9.07,0,0,1,2.63-1.29v-.13l0-1.78c0-.26.09-.48.26-.49l2.16-.2c.17,0,.32.18.34.44l.43,1.68,0,.14a8.87,8.87,0,0,1,3.59,1.07l.1-.09,1.32-1.26c.16-.19.4-.27.53-.16l1.65,1.41c.13.11.09.36-.07.55l-.93,1.51-.07.12a8.91,8.91,0,0,1,1.76,3.3h.13l1.82.07c.26,0,.48.1.49.27Zm-11.88-4.89a4.88,4.88,0,1,0,5.54,4.12A4.88,4.88,0,0,0,1744.25,695.51Z"/></g></g><g id="gear-3" data-name="gear"><g id="_Radial_Repeat_3" data-name="&lt;Radial Repeat&gt;"><path class="cls-7" d="M1793.82,712.7c0,.31-.34.58-.81.61l-3.11.71-.25.05a16.08,16.08,0,0,1-2.06,6.54l.17.19,2.18,2.41c.35.31.47.75.27,1l-2.64,2.94c-.2.23-.65.16-1-.16l-2.61-1.68-.21-.14a16,16,0,0,1-6.2,3.16l0,.25-.19,3.13c0,.47-.21.87-.52.88l-3.94.16c-.31,0-.57-.36-.59-.83l-.59-2.93,0-.24a16.33,16.33,0,0,1-6.67-2.3l-.19.16-2.32,2c-.33.35-.77.45-1,.24l-2.88-2.7c-.22-.21-.14-.66.19-1l1.66-2.43.14-.21a16,16,0,0,1-3-6.41l-.25,0-3-.27c-.47,0-.86-.23-.86-.54l-.07-4c0-.3.37-.55.85-.56l2.93-.52.25,0a16.16,16.16,0,0,1,2.52-6.55l-.16-.19-2-2.44c-.33-.33-.43-.77-.22-1l2.78-2.81c.22-.22.66-.12,1,.21l2.5,1.8.2.15a16.13,16.13,0,0,1,4.8-2.35v-.24l0-3.23c0-.48.17-.88.47-.91l3.93-.36c.31,0,.59.33.63.8l.78,3.07.06.24a16.22,16.22,0,0,1,6.55,2l.18-.17,2.4-2.29c.31-.36.75-.49,1-.29l3,2.56c.23.2.17.65-.14,1l-1.68,2.75-.13.21a16.19,16.19,0,0,1,3.19,6h.25l3.32.12c.47,0,.87.19.89.5Zm-21.64-8.93a8.9,8.9,0,1,0,10.09,7.52A8.91,8.91,0,0,0,1772.18,703.77Z"/></g></g></g><line class="cls-8" x1="1389.08" y1="724.64" x2="1396.27" y2="724.61"/><line class="cls-9" x1="1409.96" y1="724.54" x2="1677.02" y2="723.26"/><line class="cls-8" x1="1683.87" y1="723.23" x2="1691.06" y2="723.2"/><path class="cls-10" d="M1367.39,724.75c10.23,3.73,22.92,10.13,30.8,16.94l-6.26-17.06,6.1-17.12C1390.21,714.39,1377.58,720.91,1367.39,724.75Z"/><g id="container"><path class="cls-11" d="M1466.84,690.17l69.87-29.47a.73.73,0,0,1,.58,0l70.76,29.47a.74.74,0,0,1,0,1.37l-70.31,30.69a.76.76,0,0,1-.59,0l-70.33-30.7A.74.74,0,0,1,1466.84,690.17Z"/><path class="cls-11" d="M1464.38,698v69a.73.73,0,0,0,.42.66L1533.34,801a.75.75,0,0,0,1.07-.67v-73a.74.74,0,0,0-.46-.68l-68.53-29.26A.75.75,0,0,0,1464.38,698Z"/><path class="cls-11" d="M1540.48,726.32l69.21-29a.75.75,0,0,1,1,.69v69.18a.74.74,0,0,1-.43.67L1541.09,801a.75.75,0,0,1-1.06-.67V727A.74.74,0,0,1,1540.48,726.32Z"/></g><g id="three_gears-2" data-name="three_gears"><g id="gear-4" data-name="gear"><g id="_Radial_Repeat_4" data-name="&lt;Radial Repeat&gt;"><path class="cls-12" d="M1495.65,731.89a.57.57,0,0,0-.38-.59l-1.57-.88-.12-.07a20.85,20.85,0,0,0-.63-5.61l.1-.14,1.3-1.79a.83.83,0,0,0,.21-.79l-1.17-2.69c-.09-.21-.33-.19-.54,0l-1.46,1.15-.12.09a9.4,9.4,0,0,0-3-3.2v-.21l.11-2.61c0-.39-.05-.74-.21-.78l-2-.51c-.16,0-.32.24-.36.63l-.51,2.37,0,.2a6.16,6.16,0,0,0-3.63,1.27l-.08-.15-1.07-1.88c-.15-.32-.37-.45-.5-.3l-1.68,2a.91.91,0,0,0,0,.85l.69,2.17.06.18a16.19,16.19,0,0,0-2,5h-.14l-1.6-.07a.41.41,0,0,0-.49.37l-.3,3.26a.52.52,0,0,0,.4.55l1.49.71.13.06a19.91,19.91,0,0,0,.86,5.67l-.1.14-1.2,1.83a.85.85,0,0,0-.18.81l1.25,2.59c.1.2.34.16.54-.08l1.42-1.26.12-.1a8.9,8.9,0,0,0,2.33,2.4l0,.21-.2,2.68c-.06.39,0,.74.18.79l2,.68c.16,0,.33-.22.38-.61l.62-2.47,0-.19a5.85,5.85,0,0,0,3.54-1l.08.16,1.09,2.12c.14.33.36.48.49.34l1.74-1.84a1,1,0,0,0,0-.85l-.69-2.44,0-.19a15.36,15.36,0,0,0,2.07-4.68l.13,0,1.73.21a.37.37,0,0,0,.5-.32Zm-11.86,5.34c-2.48-1.05-3.92-5.13-3.22-9.08s3.29-6.32,5.76-5.27,3.92,5.12,3.22,9.08S1486.26,738.28,1483.79,737.23Z"/></g></g><g id="gear-5" data-name="gear"><g id="_Radial_Repeat_5" data-name="&lt;Radial Repeat&gt;"><path class="cls-12" d="M1494.58,759.44a.38.38,0,0,0-.33-.4l-1.26-.49-.1,0a15.13,15.13,0,0,0-.77-4.27l.07-.12.92-1.55a.69.69,0,0,0,.12-.64l-1-1.93c-.08-.15-.27-.1-.42.1l-1.08,1.07-.08.09a6.23,6.23,0,0,0-2.5-2.09V749l0-2c0-.31-.08-.57-.2-.58l-1.61-.13c-.12,0-.24.23-.25.53l-.27,1.9,0,.16a5.29,5.29,0,0,0-2.74,1.45l-.08-.11-.93-1.31c-.13-.23-.3-.3-.4-.17l-1.2,1.74a.68.68,0,0,0,.06.65l.65,1.6.06.13a13.66,13.66,0,0,0-1.3,4.15h-.1l-1.25.15a.36.36,0,0,0-.36.35l-.07,2.56a.37.37,0,0,0,.34.38l1.19.35.1,0a14.66,14.66,0,0,0,1,4.28l-.07.12-.84,1.57a.71.71,0,0,0-.1.64l1.1,1.85c.09.14.27.08.41-.13l1-1.16.08-.09a6,6,0,0,0,1.93,1.56v.16l0,2.1c0,.31.06.57.18.59l1.6.26c.13,0,.25-.21.27-.51l.35-2,0-.16a5,5,0,0,0,2.7-1.23l.07.11,1,1.51c.12.23.3.32.4.19l1.25-1.64a.71.71,0,0,0,0-.66l-.66-1.8,0-.14a13.16,13.16,0,0,0,1.38-3.88h.1l1.35-.06a.32.32,0,0,0,.37-.31Zm-8.94,5.64c-2-.49-3.3-3.46-3-6.61s2.24-5.31,4.21-4.81,3.3,3.46,2.95,6.61S1487.61,765.58,1485.64,765.08Z"/></g></g><g id="gear-6" data-name="gear"><g id="_Radial_Repeat_6" data-name="&lt;Radial Repeat&gt;"><path class="cls-12" d="M1522.88,745.36a.69.69,0,0,0-.59-.73l-2.3-.88-.18-.07a27.76,27.76,0,0,0-1.4-7.77l.13-.21,1.67-2.83a1.24,1.24,0,0,0,.22-1.16l-1.9-3.52c-.15-.27-.48-.19-.75.17l-2,2-.16.16a11.49,11.49,0,0,0-4.56-3.82v-.29l-.08-3.71c0-.56-.14-1-.37-1l-2.93-.25c-.23,0-.43.42-.46,1l-.5,3.46,0,.29a9.56,9.56,0,0,0-5,2.64l-.14-.19-1.69-2.4c-.24-.42-.56-.55-.73-.31L1497,729a1.29,1.29,0,0,0,.12,1.2l1.19,2.9.1.25a25.25,25.25,0,0,0-2.36,7.55l-.19,0-2.27.27a.63.63,0,0,0-.66.63l-.13,4.67a.67.67,0,0,0,.62.69l2.17.65.18,0a27.08,27.08,0,0,0,1.75,7.79l-.12.22-1.54,2.86a1.29,1.29,0,0,0-.18,1.18l2,3.35c.16.27.49.16.75-.23l1.9-2.1.15-.17a11.17,11.17,0,0,0,3.52,2.84v.29l0,3.83c-.05.56.1,1,.33,1.07l2.92.49c.22,0,.44-.39.48-.95l.65-3.62,0-.29a9.17,9.17,0,0,0,4.91-2.24l.13.2,1.74,2.75c.22.43.54.59.72.36l2.29-3a1.3,1.3,0,0,0-.08-1.2l-1.19-3.28-.1-.25a24.43,24.43,0,0,0,2.51-7.08h.18l2.47-.1a.59.59,0,0,0,.67-.57Zm-16.29,10.29c-3.59-.9-6-6.31-5.38-12s4.07-9.67,7.67-8.77,6,6.31,5.38,12S1510.19,756.56,1506.59,755.65Z"/></g></g></g><line class="cls-8" x1="511.89" y1="1147.79" x2="518.49" y2="1144.94"/><line class="cls-13" x1="531.68" y1="1139.24" x2="1105.32" y2="891.36"/><line class="cls-8" x1="1111.92" y1="888.51" x2="1118.52" y2="885.66"/><path class="cls-10" d="M492,1156.4c10.87-.57,25.06.33,35,3.5l-12.46-13.23-1.1-18.14C508.91,1137.92,499.85,1148.88,492,1156.4Z"/><line class="cls-8" x1="517.26" y1="717.65" x2="524.45" y2="717.55"/><line class="cls-14" x1="538.76" y1="717.36" x2="1104.17" y2="709.75"/><line class="cls-8" x1="1111.33" y1="709.65" x2="1118.52" y2="709.56"/><path class="cls-10" d="M495.57,717.94c10.26,3.65,23,9.94,30.95,16.68l-6.41-17,5.95-17.17C518.3,707.39,505.73,714,495.57,717.94Z"/><line class="cls-8" x1="514.11" y1="226.02" x2="520.42" y2="229.47"/><line class="cls-15" x1="533.01" y1="236.35" x2="1105.91" y2="549.33"/><line class="cls-8" x1="1112.21" y1="552.77" x2="1118.52" y2="556.22"/><path class="cls-10" d="M495.07,215.62c7.14,8.22,15.16,20,18.77,29.73l2.77-18,13.61-12C520.05,217.6,505.84,217.2,495.07,215.62Z"/><g id="container-2" data-name="container"><path class="cls-11" d="M555.8,233l69.87-29.47a.71.71,0,0,1,.57,0L697,233a.75.75,0,0,1,0,1.37l-70.31,30.69a.78.78,0,0,1-.6,0l-70.32-30.7A.74.74,0,0,1,555.8,233Z"/><path class="cls-11" d="M553.34,240.85v69a.73.73,0,0,0,.41.66l68.54,33.26a.74.74,0,0,0,1.07-.67v-73a.73.73,0,0,0-.45-.68l-68.54-29.26A.74.74,0,0,0,553.34,240.85Z"/><path class="cls-11" d="M629.44,269.15l69.2-29a.75.75,0,0,1,1,.69V310a.73.73,0,0,1-.42.67L630,343.82a.75.75,0,0,1-1.06-.67V269.84A.75.75,0,0,1,629.44,269.15Z"/></g><g id="three_gears-3" data-name="three_gears"><g id="gear-7" data-name="gear"><g id="_Radial_Repeat_7" data-name="&lt;Radial Repeat&gt;"><path class="cls-12" d="M584.61,274.72a.57.57,0,0,0-.39-.59l-1.57-.88-.12-.07a20.58,20.58,0,0,0-.62-5.62l.1-.13,1.3-1.79a.85.85,0,0,0,.2-.79l-1.17-2.69c-.09-.21-.33-.2-.53,0l-1.47,1.15-.12.09a9.22,9.22,0,0,0-3-3.2V260l.11-2.61c0-.39-.05-.74-.2-.78l-2-.52c-.16,0-.32.25-.37.64l-.5,2.37-.05.2a6.06,6.06,0,0,0-3.62,1.27l-.09-.15-1.07-1.88c-.14-.32-.37-.45-.5-.3l-1.68,2a.89.89,0,0,0,0,.84l.7,2.18.06.18a16.44,16.44,0,0,0-2,5h-.13l-1.6-.07a.4.4,0,0,0-.49.37l-.31,3.26a.52.52,0,0,0,.4.55l1.5.71.12.06a20.27,20.27,0,0,0,.86,5.67l-.09.14-1.2,1.83a.88.88,0,0,0-.19.81l1.26,2.59c.09.2.33.16.53-.08l1.43-1.26.11-.1a9.05,9.05,0,0,0,2.33,2.4v.21l-.21,2.68c0,.38,0,.74.19.79l2,.68c.15.05.33-.22.38-.61l.62-2.47,0-.19a5.85,5.85,0,0,0,3.54-1l.09.16,1.09,2.12c.13.33.35.48.49.34l1.73-1.84a.89.89,0,0,0,0-.85l-.68-2.44-.06-.19a15.37,15.37,0,0,0,2.08-4.68l.13,0,1.73.21a.37.37,0,0,0,.5-.32Zm-11.87,5.34c-2.48-1.05-3.92-5.13-3.22-9.08s3.29-6.32,5.77-5.27,3.91,5.12,3.21,9.08S575.22,281.11,572.74,280.06Z"/></g></g><g id="gear-8" data-name="gear"><g id="_Radial_Repeat_8" data-name="&lt;Radial Repeat&gt;"><path class="cls-12" d="M583.53,302.27a.38.38,0,0,0-.33-.4l-1.26-.49-.1,0a15.49,15.49,0,0,0-.76-4.26l.07-.12.91-1.55a.69.69,0,0,0,.13-.64l-1.05-1.93c-.08-.15-.26-.1-.41.1L579.65,294l-.09.09a6.16,6.16,0,0,0-2.5-2.09v-.17l0-2c0-.31-.08-.57-.21-.58l-1.61-.13c-.12,0-.23.23-.25.53l-.27,1.9,0,.16a5.32,5.32,0,0,0-2.75,1.45l-.08-.11-.92-1.31c-.13-.23-.31-.3-.4-.17l-1.21,1.74a.71.71,0,0,0,.07.65l.65,1.6.05.13a13.94,13.94,0,0,0-1.29,4.15h-.1l-1.25.15a.36.36,0,0,0-.36.35l-.07,2.56a.36.36,0,0,0,.34.38l1.19.35.1,0a15,15,0,0,0,1,4.28l-.06.12-.84,1.57a.68.68,0,0,0-.1.64l1.1,1.85c.09.14.27.08.41-.13l1-1.16.09-.09a6,6,0,0,0,1.93,1.56v.16l0,2.1c0,.31.06.57.19.59l1.6.26c.12,0,.24-.21.26-.51l.36-2,0-.16a5,5,0,0,0,2.7-1.23l.07.11,1,1.51c.12.23.3.32.39.19l1.26-1.64a.71.71,0,0,0,0-.66l-.66-1.8-.05-.14a13.44,13.44,0,0,0,1.37-3.88h.1l1.36-.06a.33.33,0,0,0,.37-.31Zm-8.94,5.64c-2-.49-3.3-3.46-3-6.61s2.23-5.31,4.2-4.81,3.3,3.46,3,6.61S576.57,308.41,574.59,307.91Z"/></g></g><g id="gear-9" data-name="gear"><g id="_Radial_Repeat_9" data-name="&lt;Radial Repeat&gt;"><path class="cls-12" d="M611.84,288.19a.7.7,0,0,0-.6-.73l-2.29-.88-.19-.07a27.76,27.76,0,0,0-1.4-7.77l.13-.22,1.68-2.82a1.3,1.3,0,0,0,.22-1.16L607.48,271c-.14-.27-.48-.19-.75.17l-2,2-.16.16a11.47,11.47,0,0,0-4.55-3.82v-.29l-.08-3.71c0-.56-.14-1-.36-1.05l-2.94-.25c-.22,0-.43.42-.45,1l-.5,3.46,0,.29a9.59,9.59,0,0,0-5,2.64l-.14-.19-1.69-2.4c-.23-.42-.56-.55-.73-.31l-2.19,3.17A1.32,1.32,0,0,0,586,273l1.19,2.9.1.24a25.4,25.4,0,0,0-2.36,7.56l-.18,0-2.28.27a.63.63,0,0,0-.65.63l-.13,4.67a.66.66,0,0,0,.61.69l2.18.64.18.06a27.08,27.08,0,0,0,1.74,7.79l-.12.22-1.53,2.86a1.29,1.29,0,0,0-.19,1.18l2,3.35c.15.27.48.16.74-.23l1.9-2.1.15-.17a11.28,11.28,0,0,0,3.52,2.84v.29l0,3.83c0,.56.11,1,.33,1.07l2.92.49c.23,0,.45-.39.49-.95l.64-3.62,0-.29a9.17,9.17,0,0,0,4.91-2.24l.14.2,1.74,2.75c.22.43.54.59.72.36l2.29-3a1.33,1.33,0,0,0-.08-1.2l-1.2-3.28-.09-.25a24.42,24.42,0,0,0,2.5-7.08h.19l2.47-.1a.59.59,0,0,0,.67-.57Zm-16.29,10.29c-3.6-.9-6-6.31-5.38-12.05s4.06-9.67,7.66-8.77,6,6.31,5.38,12S599.15,299.39,595.55,298.48Z"/></g></g></g><g id="container-3" data-name="container"><path class="cls-11" d="M558.29,671.86l69.87-29.47a.73.73,0,0,1,.58,0l70.76,29.47a.75.75,0,0,1,0,1.37L629.2,703.92a.78.78,0,0,1-.6,0l-70.32-30.7A.74.74,0,0,1,558.29,671.86Z"/><path class="cls-11" d="M555.83,679.71v69a.73.73,0,0,0,.42.66l68.54,33.26a.74.74,0,0,0,1.06-.67V709a.73.73,0,0,0-.45-.68L556.87,679A.75.75,0,0,0,555.83,679.71Z"/><path class="cls-11" d="M631.93,708l69.21-29a.75.75,0,0,1,1,.69v69.18a.74.74,0,0,1-.43.67l-69.2,33.13a.75.75,0,0,1-1.07-.67V708.7A.75.75,0,0,1,631.93,708Z"/></g><g id="three_gears-4" data-name="three_gears"><g id="gear-10" data-name="gear"><g id="_Radial_Repeat_10" data-name="&lt;Radial Repeat&gt;"><path class="cls-12" d="M587.1,713.58a.57.57,0,0,0-.38-.59l-1.57-.88L585,712a20.46,20.46,0,0,0-.62-5.61l.1-.14,1.3-1.79a.83.83,0,0,0,.21-.79L584.84,701c-.09-.21-.33-.19-.54,0l-1.47,1.15-.11.09a9.4,9.4,0,0,0-3-3.2v-.21l.11-2.61c0-.39-.05-.74-.21-.78l-2-.51c-.16,0-.32.24-.36.63l-.51,2.37,0,.2a6.16,6.16,0,0,0-3.63,1.27l-.08-.15-1.07-1.88c-.15-.32-.37-.45-.5-.3l-1.68,2a.94.94,0,0,0,0,.85l.7,2.17.06.18a16.44,16.44,0,0,0-2,5h-.13l-1.6-.07a.41.41,0,0,0-.49.37l-.3,3.26a.51.51,0,0,0,.4.55l1.49.71.13.06a19.91,19.91,0,0,0,.86,5.67l-.1.14-1.2,1.83a.85.85,0,0,0-.18.81l1.25,2.59c.1.2.34.16.53-.08l1.43-1.26.11-.1a9.08,9.08,0,0,0,2.34,2.4l0,.21-.2,2.68c-.06.39,0,.74.18.79l2,.68c.16,0,.33-.22.38-.61l.62-2.47,0-.19a5.86,5.86,0,0,0,3.54-1l.08.16,1.09,2.12c.14.33.36.48.49.34l1.74-1.84a1,1,0,0,0,0-.85l-.69-2.44,0-.19a15.6,15.6,0,0,0,2.07-4.68l.13,0,1.73.21a.37.37,0,0,0,.5-.32Zm-11.87,5.34c-2.47-1-3.91-5.13-3.21-9.08s3.29-6.32,5.76-5.27,3.92,5.12,3.22,9.08S577.71,720,575.23,718.92Z"/></g></g><g id="gear-11" data-name="gear"><g id="_Radial_Repeat_11" data-name="&lt;Radial Repeat&gt;"><path class="cls-12" d="M586,741.13a.38.38,0,0,0-.33-.4l-1.26-.49-.1,0a15.13,15.13,0,0,0-.77-4.27l.07-.12.92-1.55a.69.69,0,0,0,.12-.64l-1-1.93c-.08-.15-.27-.1-.42.1l-1.08,1.07-.09.09a6.14,6.14,0,0,0-2.49-2.09v-.17l0-2c0-.31-.08-.57-.2-.58L577.7,728c-.13,0-.24.23-.25.53l-.27,1.9,0,.16A5.32,5.32,0,0,0,574.4,732l-.07-.11-.93-1.31c-.13-.23-.31-.3-.4-.17l-1.2,1.74a.68.68,0,0,0,.06.65l.65,1.6.06.13a13.66,13.66,0,0,0-1.3,4.15h-.1l-1.25.15a.36.36,0,0,0-.36.35l-.07,2.56a.37.37,0,0,0,.34.38l1.19.35.1,0a14.66,14.66,0,0,0,1,4.28l-.07.12-.84,1.57a.68.68,0,0,0-.1.64l1.1,1.85c.09.14.27.08.41-.13l1-1.16.08-.09a6,6,0,0,0,1.93,1.56v.16l0,2.1c0,.31.06.57.18.59l1.6.26c.13,0,.24-.21.27-.51l.35-2,0-.16a5,5,0,0,0,2.69-1.23l.08.11.95,1.51c.12.23.3.32.4.19l1.25-1.64a.71.71,0,0,0,0-.66l-.66-1.8-.05-.14a13.45,13.45,0,0,0,1.38-3.88h.1l1.35-.06a.33.33,0,0,0,.37-.31Zm-8.94,5.64c-2-.49-3.3-3.46-3-6.61s2.23-5.31,4.21-4.81,3.3,3.46,2.95,6.61S579.06,747.27,577.09,746.77Z"/></g></g><g id="gear-12" data-name="gear"><g id="_Radial_Repeat_12" data-name="&lt;Radial Repeat&gt;"><path class="cls-12" d="M614.33,727.05a.7.7,0,0,0-.59-.73l-2.3-.88-.18-.07a27.76,27.76,0,0,0-1.4-7.77l.13-.22,1.67-2.82a1.24,1.24,0,0,0,.22-1.16l-1.9-3.52c-.15-.27-.49-.19-.75.17l-2,2-.15.16a11.49,11.49,0,0,0-4.56-3.82v-.29l-.08-3.71c0-.56-.14-1-.37-1.05l-2.93-.25c-.23,0-.43.42-.46,1l-.5,3.46,0,.29a9.62,9.62,0,0,0-5,2.64l-.13-.19-1.69-2.4c-.24-.42-.56-.55-.73-.31l-2.2,3.17a1.29,1.29,0,0,0,.12,1.2l1.18,2.9.1.25a25.53,25.53,0,0,0-2.35,7.55l-.19,0-2.27.27a.63.63,0,0,0-.66.63l-.13,4.67a.67.67,0,0,0,.62.69l2.17.65.18.05a27.08,27.08,0,0,0,1.75,7.79l-.13.22-1.53,2.86a1.29,1.29,0,0,0-.18,1.18l2,3.35c.15.27.49.16.75-.23l1.9-2.1.15-.17a11.17,11.17,0,0,0,3.52,2.84v.29l0,3.83c0,.56.11,1,.34,1.07l2.92.49c.22,0,.44-.39.48-1l.65-3.62,0-.29a9.17,9.17,0,0,0,4.91-2.24l.13.2,1.74,2.75c.22.43.54.59.72.36l2.29-3a1.3,1.3,0,0,0-.08-1.2l-1.19-3.28-.1-.25a24.43,24.43,0,0,0,2.51-7.08h.18l2.47-.1a.59.59,0,0,0,.67-.57ZM598,737.34c-3.59-.9-6-6.31-5.38-12.05s4.07-9.67,7.66-8.77,6,6.31,5.39,12.05S601.64,738.25,598,737.34Z"/></g></g></g><g id="container-4" data-name="container"><path class="cls-11" d="M560.79,1058.6l69.87-29.46a.71.71,0,0,1,.57,0L702,1058.61a.74.74,0,0,1,0,1.36l-70.32,30.7a.76.76,0,0,1-.59,0L560.78,1060A.74.74,0,0,1,560.79,1058.6Z"/><path class="cls-11" d="M558.32,1066.45v69a.75.75,0,0,0,.42.67l68.54,33.26a.75.75,0,0,0,1.07-.67v-73a.73.73,0,0,0-.45-.68l-68.54-29.26A.75.75,0,0,0,558.32,1066.45Z"/><path class="cls-11" d="M634.42,1094.76l69.21-29a.75.75,0,0,1,1,.69v69.18a.74.74,0,0,1-.42.67L635,1169.42a.74.74,0,0,1-1.06-.67v-73.31A.74.74,0,0,1,634.42,1094.76Z"/></g><g id="three_gears-5" data-name="three_gears"><g id="gear-13" data-name="gear"><g id="_Radial_Repeat_13" data-name="&lt;Radial Repeat&gt;"><path class="cls-16" d="M589.59,1100.33a.55.55,0,0,0-.38-.59l-1.57-.88-.12-.07a20.2,20.2,0,0,0-.63-5.62l.1-.14,1.3-1.78a.85.85,0,0,0,.21-.8l-1.17-2.69c-.09-.2-.33-.19-.53,0l-1.47,1.15-.12.09a9.22,9.22,0,0,0-3-3.2v-.21l.11-2.61c0-.4-.05-.74-.21-.78l-2-.52c-.15,0-.32.25-.36.64l-.51,2.37,0,.2a6,6,0,0,0-3.62,1.27l-.09-.15-1.07-1.88c-.15-.32-.37-.45-.5-.3l-1.68,2a.91.91,0,0,0,0,.85l.7,2.18.05.18a16.73,16.73,0,0,0-2,5h-.13l-1.6-.07a.4.4,0,0,0-.49.36l-.31,3.27a.53.53,0,0,0,.4.55l1.49.71.13.06a20.27,20.27,0,0,0,.86,5.67l-.09.14-1.2,1.83a.87.87,0,0,0-.19.8l1.26,2.59c.09.21.33.17.53-.07l1.42-1.26.12-.1a9.21,9.21,0,0,0,2.33,2.4l0,.21-.2,2.68c0,.38,0,.74.19.79l2,.68c.15,0,.32-.22.38-.61l.61-2.47,0-.2a5.84,5.84,0,0,0,3.54-1l.08.16,1.1,2.12c.13.33.35.48.48.34l1.74-1.84a.89.89,0,0,0,0-.85l-.68-2.44-.06-.19a15.73,15.73,0,0,0,2.08-4.68l.13,0,1.73.21a.38.38,0,0,0,.5-.32Zm-11.86,5.34c-2.48-1.06-3.92-5.13-3.22-9.09s3.29-6.32,5.77-5.27,3.91,5.13,3.21,9.09S580.2,1106.72,577.73,1105.67Z"/></g></g><g id="gear-14" data-name="gear"><g id="_Radial_Repeat_14" data-name="&lt;Radial Repeat&gt;"><path class="cls-16" d="M588.52,1127.88a.4.4,0,0,0-.33-.41l-1.26-.48-.1,0a15.12,15.12,0,0,0-.77-4.26l.07-.12.92-1.55a.69.69,0,0,0,.12-.64l-1-1.93c-.08-.15-.27-.11-.41.1l-1.08,1.07-.09.09a6.34,6.34,0,0,0-2.5-2.1v-.16l0-2c0-.31-.07-.57-.2-.58l-1.61-.13c-.12,0-.23.23-.25.53l-.27,1.9,0,.16a5.21,5.21,0,0,0-2.75,1.45l-.08-.11-.92-1.32c-.13-.22-.31-.3-.4-.16l-1.21,1.74a.71.71,0,0,0,.07.65l.65,1.59,0,.14a13.94,13.94,0,0,0-1.29,4.15h-.11l-1.24.15a.34.34,0,0,0-.36.34l-.07,2.57a.34.34,0,0,0,.33.37l1.2.36.1,0a14.91,14.91,0,0,0,1,4.27l-.06.13-.84,1.56a.71.71,0,0,0-.11.65l1.11,1.84c.08.15.27.09.41-.13l1-1.15.08-.09a6.24,6.24,0,0,0,1.93,1.56v.16l0,2.1c0,.3.06.57.18.59l1.61.26c.12,0,.24-.21.26-.51l.36-2,0-.16a5,5,0,0,0,2.7-1.23l.07.11,1,1.5c.12.24.29.33.39.2l1.26-1.64a.75.75,0,0,0,0-.66l-.65-1.8-.05-.14a13.44,13.44,0,0,0,1.37-3.88h.1l1.36,0a.34.34,0,0,0,.37-.32Zm-8.94,5.64c-2-.5-3.3-3.46-3-6.61s2.23-5.31,4.2-4.81,3.3,3.46,3,6.61S581.56,1134,579.58,1133.52Z"/></g></g><g id="gear-15" data-name="gear"><g id="_Radial_Repeat_15" data-name="&lt;Radial Repeat&gt;"><path class="cls-16" d="M616.83,1113.8a.7.7,0,0,0-.6-.73l-2.3-.88-.18-.07a27.76,27.76,0,0,0-1.4-7.77l.13-.22,1.67-2.82a1.24,1.24,0,0,0,.22-1.16l-1.9-3.52c-.14-.27-.48-.2-.75.17l-2,2-.16.16a11.47,11.47,0,0,0-4.55-3.82v-.29l-.08-3.71c0-.56-.14-1-.36-1l-2.94-.25c-.22,0-.43.42-.45,1l-.5,3.46,0,.29a9.59,9.59,0,0,0-5,2.64l-.14-.2-1.69-2.4c-.23-.41-.56-.54-.73-.3l-2.19,3.17a1.3,1.3,0,0,0,.11,1.19l1.19,2.91.1.24a25.4,25.4,0,0,0-2.36,7.56l-.18,0-2.28.28a.63.63,0,0,0-.65.63l-.14,4.67a.66.66,0,0,0,.62.68l2.18.65.18.06a26.75,26.75,0,0,0,1.74,7.79l-.12.22-1.53,2.86a1.28,1.28,0,0,0-.19,1.17l2,3.36c.16.26.49.16.75-.23l1.9-2.1.15-.17a11.28,11.28,0,0,0,3.52,2.84v.29l0,3.83c0,.56.11,1,.33,1.07l2.92.48c.23,0,.44-.38.49-.94l.64-3.62,0-.29a9.17,9.17,0,0,0,4.91-2.24l.13.2,1.74,2.74c.23.44.55.6.72.36l2.29-3a1.27,1.27,0,0,0-.08-1.2l-1.19-3.28-.09-.25a24.53,24.53,0,0,0,2.5-7.08h.18l2.47-.1a.6.6,0,0,0,.68-.57Zm-16.29,10.29c-3.6-.9-6-6.31-5.39-12s4.07-9.67,7.67-8.77,6,6.31,5.38,12S604.14,1125,600.54,1124.09Z"/></g></g></g></g></svg>