<svg xmlns="http://www.w3.org/2000/svg" viewBox="0 0 3887.19 467.76"><defs><style>.cls-1{fill:#c2b094;stroke-width:4.74px;}.cls-1,.cls-10,.cls-11,.cls-12,.cls-13,.cls-14,.cls-16,.cls-18,.cls-2,.cls-3,.cls-4,.cls-5,.cls-8,.cls-9{stroke:#000;stroke-miterlimit:10;}.cls-2{fill:#b80071;stroke-width:2.12px;}.cls-10,.cls-19,.cls-3,.cls-7,.cls-8{fill:#fff;}.cls-3{stroke-width:4.57px;}.cls-11,.cls-16,.cls-4,.cls-9{fill:none;}.cls-4,.cls-5{stroke-width:4.98px;}.cls-5{fill:#ffd400;}.cls-6{font-size:42px;font-family:ArialMT, Arial;}.cls-8{stroke-width:5.61px;}.cls-9{stroke-width:6.19px;}.cls-10{stroke-width:4.78px;}.cls-11{stroke-width:5.21px;}.cls-12{fill:#00bcb7;}.cls-12,.cls-13,.cls-14{stroke-width:4.68px;}.cls-13,.cls-15{fill:#002546;}.cls-14{fill:#b794da;}.cls-16{stroke-width:3px;}.cls-17,.cls-18{fill:#ccc;}.cls-18{stroke-width:4px;}.cls-19{fill-rule:evenodd;}</style></defs><g id="degauss_flow"><g id="container"><path class="cls-1" d="M468.93,132.27,653.22,54.56a1.91,1.91,0,0,1,1.52,0l186.64,77.72a2,2,0,0,1,0,3.61L656,216.84a2,2,0,0,1-1.57,0l-185.48-81A2,2,0,0,1,468.93,132.27Z"/><path class="cls-1" d="M462.44,153v182.1a2,2,0,0,0,1.1,1.76l180.78,87.71a2,2,0,0,0,2.82-1.77V230.14a2,2,0,0,0-1.19-1.8L465.17,151.17A2,2,0,0,0,462.44,153Z"/><path class="cls-1" d="M663.16,227.63,845.7,151.15a2,2,0,0,1,2.72,1.81V335.43a2,2,0,0,1-1.12,1.77L664.77,424.57A2,2,0,0,1,662,422.8V229.44A2,2,0,0,1,663.16,227.63Z"/></g><g id="three_gears"><g id="gear"><g id="_Radial_Repeat_" data-name="&lt;Radial Repeat&gt;"><path class="cls-2" d="M544.91,242.32a1.45,1.45,0,0,0-1-1.54l-4.13-2.33-.33-.18a53.8,53.8,0,0,0-1.65-14.82l.27-.36,3.43-4.72a2.22,2.22,0,0,0,.54-2.09L539,209.19c-.24-.55-.87-.51-1.41.09l-3.87,3-.31.24a24.49,24.49,0,0,0-8-8.45l0-.55.3-6.89c.11-1-.13-1.95-.55-2l-5.38-1.36c-.42-.1-.85.65-1,1.67l-1.34,6.26-.11.52a16,16,0,0,0-9.56,3.36l-.23-.4-2.82-5c-.39-.84-1-1.18-1.32-.78l-4.43,5.2a2.45,2.45,0,0,0,.07,2.24l1.84,5.73.15.49a43.22,43.22,0,0,0-5.26,13.28l-.34,0-4.23-.18a1,1,0,0,0-1.28,1l-.81,8.62a1.38,1.38,0,0,0,1.06,1.45l3.93,1.87.33.15a52.87,52.87,0,0,0,2.28,14.95l-.26.38-3.17,4.82a2.31,2.31,0,0,0-.48,2.13l3.31,6.83c.25.53.88.43,1.4-.21l3.76-3.31.3-.27a24.18,24.18,0,0,0,6.15,6.34l0,.54-.53,7.07c-.14,1,.07,1.95.48,2.09l5.33,1.78c.42.14.87-.57,1-1.59l1.63-6.52.13-.51a15.45,15.45,0,0,0,9.33-2.66l.22.42,2.88,5.61c.35.86.93,1.26,1.28.89l4.59-4.85a2.48,2.48,0,0,0,0-2.25L532.29,264l-.14-.49a41.21,41.21,0,0,0,5.47-12.35l.34,0,4.57.56a1,1,0,0,0,1.31-.85ZM513.62,256.4c-6.53-2.77-10.33-13.51-8.48-23.95s8.67-16.67,15.2-13.9,10.33,13.51,8.48,23.95S520.15,259.17,513.62,256.4Z"/></g></g><g id="gear-2" data-name="gear"><g id="_Radial_Repeat_2" data-name="&lt;Radial Repeat&gt;"><path class="cls-2" d="M542.08,315a1,1,0,0,0-.86-1.06l-3.32-1.27-.27-.1a40.12,40.12,0,0,0-2-11.25l.19-.31,2.42-4.09a1.79,1.79,0,0,0,.32-1.68l-2.75-5.1c-.21-.39-.7-.28-1.09.26l-2.85,2.83-.23.23a16.49,16.49,0,0,0-6.59-5.52v-.43l-.11-5.37c0-.81-.21-1.49-.53-1.51l-4.25-.36c-.33,0-.62.6-.66,1.41l-.72,5-.06.42a13.89,13.89,0,0,0-7.25,3.82l-.2-.28-2.44-3.48c-.34-.6-.81-.79-1.06-.43l-3.18,4.58a1.9,1.9,0,0,0,.17,1.73l1.72,4.2.14.36a36.42,36.42,0,0,0-3.41,10.93l-.27,0-3.29.39a.93.93,0,0,0-.95.91l-.19,6.77a1,1,0,0,0,.9,1l3.14.94.27.08a38.9,38.9,0,0,0,2.52,11.27l-.18.32-2.22,4.14a1.83,1.83,0,0,0-.26,1.7l2.91,4.86c.22.38.71.22,1.08-.34l2.75-3,.22-.24a16.23,16.23,0,0,0,5.09,4.11v.42l-.06,5.54c-.06.81.16,1.5.48,1.55l4.23.7c.32.05.64-.56.7-1.36L521,343l.07-.41a13.3,13.3,0,0,0,7.11-3.25l.19.3,2.52,4c.32.62.79.85,1,.52l3.31-4.34a1.87,1.87,0,0,0-.12-1.73l-1.73-4.76-.13-.36a35.42,35.42,0,0,0,3.62-10.24h.27l3.57-.15a.87.87,0,0,0,1-.83Zm-23.57,14.89c-5.21-1.31-8.71-9.13-7.79-17.44s5.88-14,11.09-12.69,8.7,9.13,7.79,17.44S523.71,331.18,518.51,329.87Z"/></g></g><g id="gear-3" data-name="gear"><g id="_Radial_Repeat_3" data-name="&lt;Radial Repeat&gt;"><path class="cls-2" d="M616.75,277.86a1.86,1.86,0,0,0-1.58-1.93l-6.06-2.32-.48-.18a73.07,73.07,0,0,0-3.69-20.49l.34-.58,4.42-7.45a3.34,3.34,0,0,0,.58-3.07l-5-9.28c-.39-.71-1.28-.51-2,.47l-5.2,5.17-.42.41a30,30,0,0,0-12-10.07v-.78l-.22-9.78c.07-1.48-.36-2.72-1-2.76l-7.74-.66c-.6-.05-1.13,1.11-1.2,2.58l-1.32,9.13-.11.76a25.32,25.32,0,0,0-13.2,7l-.37-.51-4.45-6.33c-.62-1.09-1.48-1.45-1.93-.8l-5.79,8.36a3.39,3.39,0,0,0,.31,3.14l3.13,7.66.26.65a67.07,67.07,0,0,0-6.22,19.93l-.49.07-6,.72a1.67,1.67,0,0,0-1.72,1.65l-.35,12.34a1.74,1.74,0,0,0,1.63,1.8l5.73,1.71.48.14a70.9,70.9,0,0,0,4.6,20.55l-.32.59-4,7.53a3.38,3.38,0,0,0-.49,3.11l5.3,8.86c.41.69,1.29.4,2-.62l5-5.54.41-.45a29.25,29.25,0,0,0,9.28,7.49v.77l-.1,10.09c-.11,1.48.28,2.74.87,2.84l7.7,1.27c.6.1,1.17-1,1.28-2.48l1.7-9.57.13-.75a24.15,24.15,0,0,0,13-5.92l.35.54,4.59,7.24c.58,1.14,1.43,1.56,1.9.95l6-7.9A3.46,3.46,0,0,0,604,320l-3.16-8.67-.24-.66a64.22,64.22,0,0,0,6.6-18.67l.49,0,6.51-.26a1.58,1.58,0,0,0,1.78-1.51Zm-43,27.14c-9.49-2.38-15.86-16.64-14.2-31.78s10.73-25.52,20.22-23.13,15.86,16.64,14.2,31.78S583.27,307.39,573.78,305Z"/></g></g></g><path d="M698.28,291.2l0-2.83a9.62,9.62,0,0,1-5,5.45,5,5,0,0,1-3.92.17,5.21,5.21,0,0,1-2.75-3,14.29,14.29,0,0,1-.94-5.71,23.31,23.31,0,0,1,1-6.49,14.87,14.87,0,0,1,2.72-5.32,10.33,10.33,0,0,1,4-3.12,4.49,4.49,0,0,1,2.88-.34,3.72,3.72,0,0,1,2,1.38l.1-11.12,3-1.24-.29,31Zm-9.51-7.2c0,2.88.45,4.84,1.4,5.86a2.81,2.81,0,0,0,3.41.7,7.25,7.25,0,0,0,3.4-3.46,14.7,14.7,0,0,0,1.45-6.81c0-3.07-.43-5.13-1.36-6.18a2.82,2.82,0,0,0-3.48-.7,7,7,0,0,0-3.4,3.47A15.88,15.88,0,0,0,688.77,284Z"/><path d="M718.2,275.66l3.14-.83a16.31,16.31,0,0,1-2.81,6.47,12.25,12.25,0,0,1-5.15,4.05c-2.62,1.1-4.69,1-6.2-.41s-2.26-3.88-2.22-7.52a19.49,19.49,0,0,1,2.42-9.74,12.55,12.55,0,0,1,6.07-5.62c2.4-1,4.35-.79,5.85.62s2.23,3.94,2.19,7.62c0,.22,0,.56,0,1l-13.37,5.58q.13,3.62,1.62,4.95a3.28,3.28,0,0,0,3.72.39,6.89,6.89,0,0,0,2.86-2.29A12.44,12.44,0,0,0,718.2,275.66Zm-9.91-2,10-4.17a6.18,6.18,0,0,0-1.1-3.74,3,3,0,0,0-3.74-.63,7.62,7.62,0,0,0-3.54,3.21A11.17,11.17,0,0,0,708.29,273.7Z"/><path d="M724.5,282l2.94-.7c.11,1.08.45,1.76,1,2a3.68,3.68,0,0,0,3.07-.26,7.71,7.71,0,0,0,3.27-2.42,8.91,8.91,0,0,0,1.59-3.58,33,33,0,0,0,.28-4.92,10.56,10.56,0,0,1-5,5c-2.46,1-4.35.73-5.68-.91s-2-4-1.93-7.1a21.66,21.66,0,0,1,1-6.27,15.92,15.92,0,0,1,2.74-5.28,10.59,10.59,0,0,1,4.17-3.18q3.18-1.3,5.2,1l0-2.68L740,251.6l-.25,19.17a25.87,25.87,0,0,1-.94,7.7,13.07,13.07,0,0,1-2.74,4.55,12.83,12.83,0,0,1-4.56,3.18q-3.19,1.37-5.15.4C725,286,724.42,284.43,724.5,282Zm2.66-14.43q0,4.38,1.33,5.8a2.89,2.89,0,0,0,3.48.54,7.43,7.43,0,0,0,3.54-3.47A14.4,14.4,0,0,0,737,263.6c0-2.72-.43-4.56-1.38-5.54a2.94,2.94,0,0,0-3.5-.61,7.34,7.34,0,0,0-3.47,3.47A14.11,14.11,0,0,0,727.16,267.58Z"/><path d="M756,264.21a21.36,21.36,0,0,1-3.28,3.85,12.16,12.16,0,0,1-3.36,2.14c-2,.83-3.47.87-4.52.13s-1.55-2-1.52-3.89a9.1,9.1,0,0,1,.64-3.22,10.58,10.58,0,0,1,1.59-2.82,12.78,12.78,0,0,1,2.21-2.14,27.81,27.81,0,0,1,2.7-1.68,37.51,37.51,0,0,0,5.44-3.55c0-.52,0-.84,0-1,0-1.53-.25-2.48-.81-2.87-.77-.52-1.92-.46-3.45.17a7.5,7.5,0,0,0-3.18,2.24A9.45,9.45,0,0,0,747,255.5l-3,.73a15.2,15.2,0,0,1,1.38-4.36,11.31,11.31,0,0,1,2.72-3.34,15.4,15.4,0,0,1,4.08-2.46,9.18,9.18,0,0,1,3.73-.88,3,3,0,0,1,2.09.8,4.28,4.28,0,0,1,.9,2.15,23.37,23.37,0,0,1,.11,3.38l-.07,5a61,61,0,0,0,.1,6.5,6.63,6.63,0,0,0,.73,2.33l-3.17,1.33A6.75,6.75,0,0,1,756,264.21Zm-.14-8.25a30.27,30.27,0,0,1-5,3.48,16.64,16.64,0,0,0-2.66,1.86A5.34,5.34,0,0,0,747,263a5.15,5.15,0,0,0-.44,2,2.31,2.31,0,0,0,.89,2.11,2.8,2.8,0,0,0,2.67-.13,8.86,8.86,0,0,0,3.14-2.25,9.93,9.93,0,0,0,2-3.43,12.94,12.94,0,0,0,.54-3.95Z"/><path d="M775.23,258.82l0-3.22c-1.43,3.07-3.35,5.1-5.74,6.11a5.74,5.74,0,0,1-2.95.5,2.83,2.83,0,0,1-2-1,5.16,5.16,0,0,1-.9-2.38,21.25,21.25,0,0,1-.13-3.4l.2-13.64,3-1.26-.19,12.2a26.7,26.7,0,0,0,.13,3.86,2.32,2.32,0,0,0,1.18,1.79,2.68,2.68,0,0,0,2.28-.12,7.33,7.33,0,0,0,2.58-1.93,8.09,8.09,0,0,0,1.73-3,16.43,16.43,0,0,0,.57-4.49l.18-11.75,3-1.26-.35,21.91Z"/><path d="M781.59,249.66l3-1.83a3.46,3.46,0,0,0,1.36,2.78q1.13.69,3.21-.18a7.11,7.11,0,0,0,3.12-2.34,5.15,5.15,0,0,0,1.05-2.86,1.48,1.48,0,0,0-.86-1.6,9.06,9.06,0,0,0-3.08.05,20.15,20.15,0,0,1-4.61.15,2.63,2.63,0,0,1-1.92-1.27,4.81,4.81,0,0,1-.62-2.66,8.79,8.79,0,0,1,.59-2.93,10.19,10.19,0,0,1,1.53-2.69,10.45,10.45,0,0,1,2-1.88,11.21,11.21,0,0,1,2.63-1.53,8.66,8.66,0,0,1,3.7-.79,2.93,2.93,0,0,1,2.32,1,6.08,6.08,0,0,1,1,2.94l-3,1.72a2.62,2.62,0,0,0-1.13-2.14,3.16,3.16,0,0,0-2.73.19,7,7,0,0,0-3,2.08,4,4,0,0,0-.93,2.35,1.68,1.68,0,0,0,.35,1.15,1.57,1.57,0,0,0,1.15.5c.3,0,1.19-.05,2.66-.17a26.14,26.14,0,0,1,4.47-.16,2.65,2.65,0,0,1,2,1.11,4.68,4.68,0,0,1,.67,2.85,9.63,9.63,0,0,1-1,3.85,11.46,11.46,0,0,1-2.59,3.6,12.69,12.69,0,0,1-3.8,2.49c-2.33,1-4.09,1.13-5.29.46S781.89,251.84,781.59,249.66Z"/><path d="M798.87,242.43l3-1.83a3.41,3.41,0,0,0,1.35,2.77c.76.45,1.83.39,3.21-.19a7.05,7.05,0,0,0,3.12-2.34,5.11,5.11,0,0,0,1.06-2.84,1.46,1.46,0,0,0-.86-1.59,9.05,9.05,0,0,0-3.08.05,19.66,19.66,0,0,1-4.6.16,2.64,2.64,0,0,1-1.92-1.25,4.89,4.89,0,0,1-.62-2.65,8.51,8.51,0,0,1,.6-2.92,10.3,10.3,0,0,1,1.53-2.68,10.43,10.43,0,0,1,2-1.87,11.79,11.79,0,0,1,2.63-1.53,8.81,8.81,0,0,1,3.7-.79,3,3,0,0,1,2.31,1,6,6,0,0,1,1,2.93l-3,1.72a2.58,2.58,0,0,0-1.13-2.13,3.14,3.14,0,0,0-2.72.2,7,7,0,0,0-3,2.08,4,4,0,0,0-.93,2.33,1.64,1.64,0,0,0,.35,1.14,1.56,1.56,0,0,0,1.14.5q.46,0,2.67-.18a26.14,26.14,0,0,1,4.47-.16,2.61,2.61,0,0,1,2,1.09,4.65,4.65,0,0,1,.67,2.84,9.55,9.55,0,0,1-1,3.83,11.57,11.57,0,0,1-2.6,3.59,12.66,12.66,0,0,1-3.8,2.48c-2.33,1-4.09,1.13-5.29.47S799.16,244.6,798.87,242.43Z"/><path d="M815,242.62l7.78-33.87,2.43-1-7.77,33.84Z"/><path d="M683.75,351.18l2.93-.74c.12,1.09.45,1.78,1,2.05a3.61,3.61,0,0,0,3.06-.29,7.82,7.82,0,0,0,3.25-2.48,9.21,9.21,0,0,0,1.57-3.64,33.43,33.43,0,0,0,.26-5,10.66,10.66,0,0,1-5,5.11c-2.46,1.07-4.34.79-5.67-.86s-2-4-2-7.17a22.18,22.18,0,0,1,1-6.35,16,16,0,0,1,2.72-5.37,10.57,10.57,0,0,1,4.14-3.27q3.17-1.35,5.19,1l0-2.7,2.79-1.21-.17,19.4a27.05,27.05,0,0,1-.92,7.81,13.57,13.57,0,0,1-2.72,4.64,13,13,0,0,1-4.53,3.26q-3.19,1.41-5.14.46T683.75,351.18Zm2.61-14.63c0,2.95.42,4.91,1.34,5.86a2.85,2.85,0,0,0,3.48.51,7.58,7.58,0,0,0,3.51-3.55,15,15,0,0,0,1.47-6.95c0-2.75-.44-4.62-1.4-5.59a2.88,2.88,0,0,0-3.49-.58,7.49,7.49,0,0,0-3.45,3.54A14.55,14.55,0,0,0,686.36,336.55Z"/><path d="M715.73,328.15l3.12-.88a16.54,16.54,0,0,1-2.8,6.51,12.34,12.34,0,0,1-5.12,4.13q-3.91,1.71-6.18-.31c-1.51-1.35-2.24-3.85-2.21-7.49a19.88,19.88,0,0,1,2.41-9.79,12.77,12.77,0,0,1,6-5.71q3.59-1.55,5.82.53t2.18,7.59c0,.22,0,.56,0,1l-13.31,5.79c.09,2.41.62,4.05,1.61,4.93a3.24,3.24,0,0,0,3.71.33,7.08,7.08,0,0,0,2.85-2.34A12.84,12.84,0,0,0,715.73,328.15Zm-9.87-1.81,10-4.33a6.21,6.21,0,0,0-1.1-3.73,3,3,0,0,0-3.73-.57,7.81,7.81,0,0,0-3.52,3.26A11.5,11.5,0,0,0,705.86,326.34Z"/><path d="M721.57,321.65a18.64,18.64,0,0,1,2.86-10.36,13.15,13.15,0,0,1,5.65-4.9c2.46-1.05,4.45-.92,6,.41s2.27,3.75,2.23,7.27a22,22,0,0,1-1.12,7.19,15.6,15.6,0,0,1-3,5.13,12.88,12.88,0,0,1-4.32,3.25q-3.75,1.64-6-.35C722.27,328,721.53,325.42,721.57,321.65Zm3.11-1.35q0,4.27,1.42,5.75a3.09,3.09,0,0,0,3.74.49,8.16,8.16,0,0,0,3.77-3.77,15.27,15.27,0,0,0,1.58-7.16c0-2.74-.44-4.61-1.43-5.59a3.12,3.12,0,0,0-3.72-.51,8.19,8.19,0,0,0-3.79,3.75A14.87,14.87,0,0,0,724.68,320.3Z"/><path d="M753.45,310.74l3-.82a16.33,16.33,0,0,1-2.58,7,11.55,11.55,0,0,1-5,4.31q-3.66,1.61-5.85-.39c-1.45-1.33-2.16-3.85-2.11-7.55a22.53,22.53,0,0,1,1-6.69,14.23,14.23,0,0,1,3-5.3,12.29,12.29,0,0,1,4.28-3.18c1.94-.84,3.52-.91,4.73-.23s2,2.06,2.3,4.14l-3,1.83a3.88,3.88,0,0,0-1.44-2.7,2.63,2.63,0,0,0-2.56,0,7.87,7.87,0,0,0-3.75,3.64,15.05,15.05,0,0,0-1.51,7.05q-.06,4.46,1.29,5.88a2.93,2.93,0,0,0,3.57.45,6.83,6.83,0,0,0,3-2.66A11.23,11.23,0,0,0,753.45,310.74Z"/><path d="M757.93,305.86a18.33,18.33,0,0,1,2.89-10.26,13.07,13.07,0,0,1,5.65-4.87c2.46-1.06,4.45-.93,6,.37s2.26,3.7,2.21,7.18a21.51,21.51,0,0,1-1.14,7.11,15.55,15.55,0,0,1-3.06,5.09,12.84,12.84,0,0,1-4.33,3.23c-2.5,1.1-4.5,1-6-.31S757.88,309.58,757.93,305.86Zm3.11-1.35q-.06,4.23,1.4,5.68a3.1,3.1,0,0,0,3.73.46A8.22,8.22,0,0,0,770,306.9a15.06,15.06,0,0,0,1.6-7.08q.06-4.08-1.41-5.52a3.11,3.11,0,0,0-3.71-.49,8.19,8.19,0,0,0-3.8,3.72A14.67,14.67,0,0,0,761,304.51Z"/><path d="M789.6,302.93l0-2.75a9.9,9.9,0,0,1-5,5.43,5,5,0,0,1-3.9.28,4.87,4.87,0,0,1-2.71-2.82,13.43,13.43,0,0,1-.88-5.52,22.75,22.75,0,0,1,1-6.34,15.24,15.24,0,0,1,2.74-5.25,10.76,10.76,0,0,1,4-3.14,4.68,4.68,0,0,1,2.87-.41,3.5,3.5,0,0,1,2,1.29l.19-10.81,3-1.29-.52,30.11Zm-9.38-6.73c-.05,2.8.4,4.69,1.34,5.65a2.76,2.76,0,0,0,3.38.59,7.5,7.5,0,0,0,3.4-3.45,14.45,14.45,0,0,0,1.49-6.66c0-3-.39-5-1.3-6a2.8,2.8,0,0,0-3.45-.6,7.32,7.32,0,0,0-3.41,3.48A15.4,15.4,0,0,0,780.22,296.2Z"/><path d="M809.49,287.29l3.12-.9a16.16,16.16,0,0,1-2.84,6.37,12.67,12.67,0,0,1-5.14,4.07q-3.9,1.71-6.15-.22t-2.15-7.25a19.14,19.14,0,0,1,2.48-9.54,13.11,13.11,0,0,1,6.07-5.63c2.39-1,4.33-.88,5.8.45s2.18,3.76,2.11,7.34q0,.33,0,1l-13.31,5.79q.1,3.51,1.56,4.76a3.28,3.28,0,0,0,3.7.28,7.26,7.26,0,0,0,2.86-2.31A12.43,12.43,0,0,0,809.49,287.29Zm-9.82-1.64,10-4.32a5.79,5.79,0,0,0-1.07-3.61c-.94-1-2.17-1.17-3.71-.51a7.94,7.94,0,0,0-3.54,3.21A11.28,11.28,0,0,0,799.67,285.65Z"/><path d="M816.25,291.26l.42-21.65,2.72-1.18-.06,3.28a16,16,0,0,1,2-3.86,5.24,5.24,0,0,1,2-1.57,4.29,4.29,0,0,1,3.09-.16L825.25,270a3.21,3.21,0,0,0-2.21.17,4.44,4.44,0,0,0-1.79,1.49,6.82,6.82,0,0,0-1.17,2.49,20.24,20.24,0,0,0-.59,4.5l-.22,11.32Z"/><g id="container-2" data-name="container"><path class="cls-1" d="M1562.34,132.27l184.29-77.71a1.91,1.91,0,0,1,1.52,0l186.64,77.72a2,2,0,0,1,0,3.61l-185.46,81a2,2,0,0,1-1.57,0l-185.48-81A2,2,0,0,1,1562.34,132.27Z"/><path class="cls-1" d="M1555.85,153v182.1a2,2,0,0,0,1.11,1.76l180.77,87.71a2,2,0,0,0,2.82-1.77V230.14a2,2,0,0,0-1.19-1.8l-180.78-77.17A2,2,0,0,0,1555.85,153Z"/><path class="cls-1" d="M1756.57,227.63l182.54-76.48a2,2,0,0,1,2.72,1.81V335.43a2,2,0,0,1-1.12,1.77l-182.53,87.37a2,2,0,0,1-2.81-1.77V229.44A2,2,0,0,1,1756.57,227.63Z"/></g><g id="three_gears-2" data-name="three_gears"><g id="gear-4" data-name="gear"><g id="_Radial_Repeat_4" data-name="&lt;Radial Repeat&gt;"><path class="cls-2" d="M1638.33,242.32a1.46,1.46,0,0,0-1-1.54l-4.14-2.33-.32-.18a54.57,54.57,0,0,0-1.65-14.82l.26-.36,3.43-4.72a2.25,2.25,0,0,0,.55-2.09l-3.09-7.09c-.24-.55-.87-.51-1.41.09l-3.87,3-.31.24a24.56,24.56,0,0,0-7.94-8.45l0-.55.3-6.89c.12-1-.13-1.95-.55-2l-5.38-1.36c-.42-.1-.85.65-1,1.67l-1.34,6.26-.11.52a16,16,0,0,0-9.56,3.36l-.23-.4-2.82-5c-.39-.84-1-1.18-1.32-.78l-4.43,5.2a2.45,2.45,0,0,0,.07,2.24l1.84,5.73.16.49a43,43,0,0,0-5.26,13.28l-.35,0-4.23-.18a1,1,0,0,0-1.28,1l-.81,8.62a1.38,1.38,0,0,0,1.06,1.45l3.93,1.87.33.15a52.87,52.87,0,0,0,2.28,14.95l-.25.38-3.17,4.82a2.29,2.29,0,0,0-.49,2.13l3.31,6.83c.26.53.88.43,1.41-.21l3.75-3.31.31-.27a24,24,0,0,0,6.15,6.34l0,.54-.53,7.07c-.14,1,.08,1.95.49,2.09l5.33,1.78c.41.14.86-.57,1-1.59l1.63-6.52.13-.51a15.43,15.43,0,0,0,9.33-2.66l.22.42,2.88,5.61c.35.86.93,1.26,1.28.89l4.59-4.85a2.45,2.45,0,0,0,0-2.25L1625.7,264l-.14-.49a41.21,41.21,0,0,0,5.47-12.35l.34,0,4.57.56a1,1,0,0,0,1.31-.85ZM1607,256.4c-6.53-2.77-10.33-13.51-8.48-23.95s8.67-16.67,15.2-13.9,10.33,13.51,8.48,23.95S1613.56,259.17,1607,256.4Z"/></g></g><g id="gear-5" data-name="gear"><g id="_Radial_Repeat_5" data-name="&lt;Radial Repeat&gt;"><path class="cls-2" d="M1635.49,315a1,1,0,0,0-.86-1.06l-3.32-1.27-.27-.1a40.48,40.48,0,0,0-2-11.25l.18-.31,2.43-4.09a1.79,1.79,0,0,0,.31-1.68l-2.75-5.1c-.21-.39-.7-.28-1.09.26l-2.85,2.83-.23.23a16.49,16.49,0,0,0-6.59-5.52v-.43l-.11-5.37c0-.81-.2-1.49-.53-1.51l-4.25-.36c-.33,0-.62.6-.66,1.41l-.72,5-.06.42a13.89,13.89,0,0,0-7.25,3.82l-.2-.28-2.44-3.48c-.34-.6-.81-.79-1.06-.43L1598,291.3a1.9,1.9,0,0,0,.17,1.73l1.72,4.2.14.36a37,37,0,0,0-3.41,10.93l-.27,0L1593,309a.93.93,0,0,0-1,.91l-.19,6.77a1,1,0,0,0,.9,1l3.14.94.27.08a38.9,38.9,0,0,0,2.52,11.27l-.18.32-2.21,4.14a1.81,1.81,0,0,0-.27,1.7l2.91,4.86c.22.38.71.22,1.08-.34l2.75-3,.22-.24a16.23,16.23,0,0,0,5.09,4.11v.42l-.06,5.54c-.06.81.16,1.5.48,1.55l4.23.7c.32.05.64-.56.7-1.36l.93-5.25.08-.41a13.31,13.31,0,0,0,7.1-3.25l.19.3,2.52,4c.32.62.79.85,1,.52l3.31-4.34a1.87,1.87,0,0,0-.12-1.73l-1.73-4.76-.13-.36a35.13,35.13,0,0,0,3.62-10.24h.27l3.57-.15a.87.87,0,0,0,1-.83Zm-23.57,14.89c-5.21-1.31-8.7-9.13-7.79-17.44s5.88-14,11.09-12.69,8.7,9.13,7.79,17.44S1617.13,331.18,1611.92,329.87Z"/></g></g><g id="gear-6" data-name="gear"><g id="_Radial_Repeat_6" data-name="&lt;Radial Repeat&gt;"><path class="cls-2" d="M1710.16,277.86a1.86,1.86,0,0,0-1.57-1.93l-6.06-2.32-.48-.18a73.42,73.42,0,0,0-3.7-20.49l.34-.58,4.42-7.45a3.31,3.31,0,0,0,.58-3.07l-5-9.28c-.38-.71-1.27-.51-2,.47l-5.2,5.17-.42.41a30,30,0,0,0-12-10.07v-.78l-.21-9.78c.06-1.48-.37-2.72-1-2.76l-7.74-.66c-.59-.05-1.13,1.11-1.2,2.58l-1.31,9.13-.12.76a25.32,25.32,0,0,0-13.2,7l-.37-.51-4.45-6.33c-.62-1.09-1.48-1.45-1.93-.8l-5.79,8.36a3.39,3.39,0,0,0,.31,3.14l3.13,7.66.26.65a67.07,67.07,0,0,0-6.22,19.93l-.49.07-6,.72a1.68,1.68,0,0,0-1.73,1.65l-.35,12.34a1.74,1.74,0,0,0,1.63,1.8l5.73,1.71.48.14a70.9,70.9,0,0,0,4.6,20.55l-.32.59-4,7.53a3.38,3.38,0,0,0-.49,3.11l5.31,8.86c.41.69,1.29.4,2-.62l5-5.54.4-.45a29.25,29.25,0,0,0,9.28,7.49v.77l-.1,10.09c-.11,1.48.28,2.74.87,2.84l7.71,1.27c.59.1,1.16-1,1.27-2.48l1.7-9.57.14-.75a24.12,24.12,0,0,0,13-5.92l.35.54,4.59,7.24c.58,1.14,1.43,1.56,1.9.95l6-7.9a3.43,3.43,0,0,0-.21-3.16l-3.15-8.67-.25-.66a64.22,64.22,0,0,0,6.6-18.67l.49,0,6.51-.26a1.58,1.58,0,0,0,1.78-1.51Zm-43,27.14c-9.49-2.38-15.86-16.64-14.2-31.78s10.73-25.52,20.22-23.13,15.86,16.64,14.2,31.78S1676.68,307.39,1667.19,305Z"/></g></g></g><path d="M1793.59,289.25l0-2.82a9.41,9.41,0,0,1-5,5.37,4.92,4.92,0,0,1-3.9.12,5.22,5.22,0,0,1-2.74-3,14.29,14.29,0,0,1-.93-5.7,23.34,23.34,0,0,1,.94-6.45,14.76,14.76,0,0,1,2.7-5.27,10,10,0,0,1,4-3.05,4.45,4.45,0,0,1,2.86-.3,3.73,3.73,0,0,1,2,1.4l.08-11.06,3-1.19-.22,30.79Zm-9.46-7.28q0,4.3,1.39,5.85a2.79,2.79,0,0,0,3.39.74,7,7,0,0,0,3.38-3.4,14.46,14.46,0,0,0,1.43-6.76q0-4.59-1.36-6.16a2.79,2.79,0,0,0-3.45-.75,6.82,6.82,0,0,0-3.37,3.42A15.55,15.55,0,0,0,1784.13,282Z"/><path d="M1813.37,274l3.12-.79a15.85,15.85,0,0,1-2.77,6.39,11.82,11.82,0,0,1-5.11,4q-3.9,1.61-6.17-.47c-1.52-1.38-2.26-3.88-2.24-7.51a19.21,19.21,0,0,1,2.38-9.65,12.19,12.19,0,0,1,6-5.51q3.57-1.44,5.81.68c1.5,1.41,2.23,3.94,2.21,7.6,0,.22,0,.56,0,1l-13.27,5.38q.14,3.6,1.62,4.94a3.28,3.28,0,0,0,3.71.43,6.66,6.66,0,0,0,2.84-2.25A12.09,12.09,0,0,0,1813.37,274ZM1803.5,272l9.94-4a6.25,6.25,0,0,0-1.11-3.73,3,3,0,0,0-3.72-.67,7.4,7.4,0,0,0-3.51,3.14A11.17,11.17,0,0,0,1803.5,272Z"/><path d="M1819.68,280.39l2.93-.66a2.4,2.4,0,0,0,1,2,3.69,3.69,0,0,0,3.07-.22,7.61,7.61,0,0,0,3.24-2.37,8.64,8.64,0,0,0,1.56-3.54,31.28,31.28,0,0,0,.24-4.87,10.21,10.21,0,0,1-5,4.9q-3.67,1.5-5.67-1c-1.32-1.65-2-4-2-7.07a21.62,21.62,0,0,1,.95-6.22,15.26,15.26,0,0,1,2.69-5.2,10.26,10.26,0,0,1,4.12-3.11,4.21,4.21,0,0,1,5.18,1.07v-2.65l2.78-1.12-.08,19a25.65,25.65,0,0,1-.88,7.62,12.62,12.62,0,0,1-7.23,7.61c-2.13.87-3.84,1-5.15.34S1819.62,282.8,1819.68,280.39Zm2.57-14.29c0,2.9.43,4.82,1.36,5.78a2.91,2.91,0,0,0,3.47.57,7.22,7.22,0,0,0,3.5-3.41,14.1,14.1,0,0,0,1.44-6.78c0-2.69-.46-4.53-1.42-5.5a3,3,0,0,0-3.49-.65,7,7,0,0,0-3.42,3.4A13.71,13.71,0,0,0,1822.25,266.1Z"/><path d="M1851,263.06a20.6,20.6,0,0,1-3.24,3.79,12,12,0,0,1-3.33,2.08q-2.94,1.2-4.51.08c-1-.74-1.56-2-1.55-3.87a8.87,8.87,0,0,1,.6-3.18,10.08,10.08,0,0,1,1.57-2.77,12,12,0,0,1,2.18-2.1,26.32,26.32,0,0,1,2.68-1.64,36.11,36.11,0,0,0,5.38-3.46c0-.51,0-.83,0-1,0-1.51-.27-2.46-.84-2.84-.77-.53-1.91-.49-3.43.12a7.24,7.24,0,0,0-3.15,2.19,9.37,9.37,0,0,0-1.51,3.85l-2.94.7a14.77,14.77,0,0,1,1.33-4.31,10.68,10.68,0,0,1,2.68-3.28,14.52,14.52,0,0,1,4-2.39,9,9,0,0,1,3.7-.83,3,3,0,0,1,2.09.81,4.29,4.29,0,0,1,.93,2.14,23.16,23.16,0,0,1,.14,3.35v4.93a63.87,63.87,0,0,0,.17,6.45,6.71,6.71,0,0,0,.76,2.3l-3.16,1.29A6.82,6.82,0,0,1,1851,263.06Zm-.23-8.17a29.28,29.28,0,0,1-4.93,3.4,15.89,15.89,0,0,0-2.63,1.81,5.06,5.06,0,0,0-1.2,1.7,4.77,4.77,0,0,0-.42,1.93,2.31,2.31,0,0,0,.9,2.1,2.84,2.84,0,0,0,2.67-.1,8.61,8.61,0,0,0,3.11-2.2,9.68,9.68,0,0,0,2-3.38,12.74,12.74,0,0,0,.5-3.9Z"/><path d="M1870.13,257.91v-3.19q-2.09,4.53-5.66,6a5.75,5.75,0,0,1-2.94.47,2.9,2.9,0,0,1-2-1,5.23,5.23,0,0,1-.93-2.36,20.85,20.85,0,0,1-.17-3.37l0-13.49,3-1.21,0,12.06a24.26,24.26,0,0,0,.17,3.82,2.4,2.4,0,0,0,1.2,1.79,2.74,2.74,0,0,0,2.28-.1,6.94,6.94,0,0,0,2.55-1.89,7.73,7.73,0,0,0,1.69-3,16,16,0,0,0,.5-4.43l0-11.62,3-1.21,0,21.65Z"/><path d="M1876.36,248.91l3-1.79a3.48,3.48,0,0,0,1.4,2.76,3.59,3.59,0,0,0,3.21-.15,6.83,6.83,0,0,0,3.08-2.28,4.94,4.94,0,0,0,1-2.82,1.51,1.51,0,0,0-.89-1.58,9,9,0,0,0-3.08,0,20.55,20.55,0,0,1-4.6.11,2.75,2.75,0,0,1-1.94-1.27,4.84,4.84,0,0,1-.66-2.63,8.05,8.05,0,0,1,.55-2.9,9.76,9.76,0,0,1,1.48-2.64,10.33,10.33,0,0,1,1.92-1.84,11.25,11.25,0,0,1,2.61-1.48,8.52,8.52,0,0,1,3.67-.74,3.07,3.07,0,0,1,2.34,1,6.11,6.11,0,0,1,1,2.91l-3,1.68a2.62,2.62,0,0,0-1.16-2.12,3.15,3.15,0,0,0-2.72.16,6.78,6.78,0,0,0-3,2,3.87,3.87,0,0,0-.89,2.31,1.66,1.66,0,0,0,.36,1.14,1.61,1.61,0,0,0,1.16.5c.3,0,1.19,0,2.66-.14a26.7,26.7,0,0,1,4.47-.11,2.73,2.73,0,0,1,2,1.1,4.69,4.69,0,0,1,.72,2.83,9.26,9.26,0,0,1-.88,3.79,11,11,0,0,1-2.54,3.53,12.36,12.36,0,0,1-3.76,2.42c-2.31,1-4.08,1.08-5.29.42S1876.69,251.06,1876.36,248.91Z"/><path d="M1893.52,241.92l3-1.79a3.43,3.43,0,0,0,1.4,2.75,3.6,3.6,0,0,0,3.21-.17,6.64,6.64,0,0,0,3.08-2.27,4.91,4.91,0,0,0,1-2.8,1.49,1.49,0,0,0-.89-1.57,9.36,9.36,0,0,0-3.09,0,20.3,20.3,0,0,1-4.6.13,2.73,2.73,0,0,1-1.94-1.26,4.77,4.77,0,0,1-.66-2.61,8.24,8.24,0,0,1,.54-2.88,9.79,9.79,0,0,1,1.48-2.62A10,10,0,0,1,1898,225a11,11,0,0,1,2.6-1.48,8.74,8.74,0,0,1,3.68-.75,3.1,3.1,0,0,1,2.34,1,6,6,0,0,1,1,2.89l-3,1.67a2.56,2.56,0,0,0-1.17-2.1,3.18,3.18,0,0,0-2.72.16,6.79,6.79,0,0,0-3,2,3.86,3.86,0,0,0-.89,2.29,1.59,1.59,0,0,0,.37,1.12,1.64,1.64,0,0,0,1.16.51c.3,0,1.19,0,2.66-.15a26.24,26.24,0,0,1,4.47-.13,2.79,2.79,0,0,1,2,1.09,4.62,4.62,0,0,1,.72,2.81,9.1,9.1,0,0,1-.88,3.76,10.76,10.76,0,0,1-2.53,3.51,12.17,12.17,0,0,1-3.76,2.42q-3.48,1.42-5.29.43C1894.63,245.46,1893.86,244.06,1893.52,241.92Z"/><path d="M1909.64,242.23l7.08-33.29,2.41-1-7.06,33.25Z"/><path d="M1768.6,353.33l3-.71c.11,1.09.44,1.78,1,2.06a3.65,3.65,0,0,0,3.07-.27,7.73,7.73,0,0,0,3.26-2.45,8.92,8.92,0,0,0,1.58-3.63,33.1,33.1,0,0,0,.26-5,10.5,10.5,0,0,1-5,5.05c-2.46,1.06-4.35.75-5.68-.91s-2-4.05-1.94-7.18a22.19,22.19,0,0,1,1-6.35,15.83,15.83,0,0,1,2.72-5.34,10.52,10.52,0,0,1,4.14-3.22q3.15-1.32,5.18,1l0-2.71,2.79-1.17-.15,19.38a26.54,26.54,0,0,1-.91,7.78,13.14,13.14,0,0,1-2.73,4.61,12.7,12.7,0,0,1-4.55,3.23q-3.19,1.38-5.15.42C1769.15,357.33,1768.54,355.78,1768.6,353.33Zm2.63-14.61c0,3,.42,4.92,1.34,5.88a2.87,2.87,0,0,0,3.48.54,7.47,7.47,0,0,0,3.52-3.52,14.67,14.67,0,0,0,1.47-6.93c0-2.75-.45-4.61-1.4-5.6a2.92,2.92,0,0,0-3.49-.62,7.33,7.33,0,0,0-3.45,3.51A14.46,14.46,0,0,0,1771.23,338.72Z"/><path d="M1800.64,330.61l3.13-.85a16.4,16.4,0,0,1-2.78,6.47,12.32,12.32,0,0,1-5.13,4.08c-2.62,1.12-4.68,1-6.2-.36s-2.26-3.86-2.23-7.5a19.55,19.55,0,0,1,2.39-9.75,12.54,12.54,0,0,1,6-5.64c2.38-1,4.33-.81,5.82.58s2.24,3.92,2.22,7.59c0,.23,0,.56,0,1l-13.32,5.66c.09,2.41.64,4.05,1.62,4.93a3.28,3.28,0,0,0,3.73.36,6.89,6.89,0,0,0,2.85-2.3A12.52,12.52,0,0,0,1800.64,330.61Zm-9.9-1.9,10-4.22a6.26,6.26,0,0,0-1.12-3.73,3,3,0,0,0-3.73-.61,7.63,7.63,0,0,0-3.52,3.23A11.3,11.3,0,0,0,1790.74,328.71Z"/><path d="M1806.47,324.18a18.32,18.32,0,0,1,2.82-10.3,12.66,12.66,0,0,1,5.63-4.82c2.45-1,4.45-.88,6,.46s2.31,3.75,2.29,7.25a21.29,21.29,0,0,1-1.07,7.15,15.33,15.33,0,0,1-3,5.08,12.46,12.46,0,0,1-4.33,3.21q-3.75,1.6-6-.4C1807.2,330.48,1806.45,327.93,1806.47,324.18Zm3.12-1.32q0,4.26,1.45,5.75a3.14,3.14,0,0,0,3.76.51,8,8,0,0,0,3.77-3.73,14.92,14.92,0,0,0,1.53-7.11c0-2.73-.48-4.59-1.47-5.58a3.17,3.17,0,0,0-3.73-.54,8,8,0,0,0-3.78,3.7A14.45,14.45,0,0,0,1809.59,322.86Z"/><path d="M1826.71,326.6l.1-22,2.71-1.14v3.09a12.83,12.83,0,0,1,2.25-3.54,8.75,8.75,0,0,1,3.18-2.32,4.46,4.46,0,0,1,3.25-.35,3,3,0,0,1,1.77,2.08q2.14-4.74,5.53-6.16c1.77-.74,3.13-.72,4.08.09s1.42,2.44,1.41,4.94l0,15-3,1.29,0-13.78a10.63,10.63,0,0,0-.29-3.07,1.67,1.67,0,0,0-1.06-1.13,2.46,2.46,0,0,0-1.81.17,6.72,6.72,0,0,0-3.13,2.85,10.46,10.46,0,0,0-1.27,5.45l-.05,12.74-3,1.3.06-14.27a5.77,5.77,0,0,0-.72-3.41c-.49-.62-1.3-.69-2.42-.22a6.44,6.44,0,0,0-2.37,1.83,8,8,0,0,0-1.58,3.08,19.18,19.18,0,0,0-.51,4.81l0,11.43Z"/><path d="M1867.1,306.64a20.78,20.78,0,0,1-3.24,3.84,12.47,12.47,0,0,1-3.35,2.15q-2.94,1.26-4.52.18c-1-.72-1.57-2-1.57-3.81a8.88,8.88,0,0,1,.61-3.18,10.24,10.24,0,0,1,1.57-2.79,12.55,12.55,0,0,1,2.18-2.13,27.12,27.12,0,0,1,2.69-1.69,36.57,36.57,0,0,0,5.4-3.56c0-.5,0-.83,0-1,0-1.5-.28-2.44-.85-2.81-.77-.5-1.92-.44-3.44.21a7.43,7.43,0,0,0-3.16,2.23,9.44,9.44,0,0,0-1.51,3.87l-3,.76a14.56,14.56,0,0,1,1.34-4.31,10.93,10.93,0,0,1,2.68-3.32,15.35,15.35,0,0,1,4-2.47,9.19,9.19,0,0,1,3.72-.9,2.88,2.88,0,0,1,2.09.76,4.1,4.1,0,0,1,.94,2.1,23.81,23.81,0,0,1,.15,3.33V299a58.63,58.63,0,0,0,.18,6.4,6.6,6.6,0,0,0,.76,2.28l-3.17,1.35A6.91,6.91,0,0,1,1867.1,306.64Zm-.23-8.1a31,31,0,0,1-4.95,3.48,16.45,16.45,0,0,0-2.65,1.86,5.43,5.43,0,0,0-1.19,1.71,4.85,4.85,0,0,0-.43,1.93,2.26,2.26,0,0,0,.91,2.07,2.89,2.89,0,0,0,2.69-.16,8.91,8.91,0,0,0,3.11-2.26,9.72,9.72,0,0,0,2-3.4,12.41,12.41,0,0,0,.49-3.89Z"/><path d="M1874.57,306.12l0-21.63,2.73-1.15v3.28a15.13,15.13,0,0,1,1.93-3.84,5,5,0,0,1,1.94-1.55,4.34,4.34,0,0,1,3.11-.13l-1,3.83a3.22,3.22,0,0,0-2.22.14,4.32,4.32,0,0,0-1.78,1.48,6.51,6.51,0,0,0-1.13,2.47,19.56,19.56,0,0,0-.51,4.49l0,11.31Z"/><path d="M1886.11,301.18V271.46l3-1.26v16.93l7.17-11.76,3.91-1.64-6.82,10.83,7.52,10.28-3.73,1.6-5.91-8.45-2.14,3.37v8.53Z"/><path d="M1915.56,281.72l3.13-.87a15.37,15.37,0,0,1-2.73,6.24,12.44,12.44,0,0,1-5.12,4c-2.61,1.12-4.69,1.05-6.22-.22s-2.3-3.65-2.31-7.13a18.15,18.15,0,0,1,2.32-9.36,12.6,12.6,0,0,1,6-5.5q3.58-1.5,5.86.45c1.51,1.3,2.28,3.7,2.28,7.21,0,.21,0,.53,0,1l-13.33,5.66q.18,3.45,1.68,4.68a3.4,3.4,0,0,0,3.74.27,7,7,0,0,0,2.84-2.25A11.92,11.92,0,0,0,1915.56,281.72Zm-10-1.62,10-4.22a5.65,5.65,0,0,0-1.15-3.55,3.14,3.14,0,0,0-3.75-.51,7.67,7.67,0,0,0-3.5,3.15A10.49,10.49,0,0,0,1905.61,280.1Z"/><path d="M1922.47,285.62l0-21.22,2.72-1.14v3.21a14.76,14.76,0,0,1,1.92-3.78,4.89,4.89,0,0,1,1.93-1.53,4.47,4.47,0,0,1,3.12-.16l-1,3.77a3.25,3.25,0,0,0-2.23.16,4.37,4.37,0,0,0-1.78,1.45,6.58,6.58,0,0,0-1.12,2.44,18.87,18.87,0,0,0-.49,4.41l0,11.1Z"/><g id="private_data"><rect class="cls-3" x="68.89" y="52.35" width="264.96" height="357.8" rx="1"/><line class="cls-4" x1="83.51" y1="117.25" x2="316.19" y2="117.25"/><line class="cls-4" x1="83.51" y1="175.13" x2="316.19" y2="175.13"/><line class="cls-4" x1="83.51" y1="233.01" x2="316.19" y2="233.01"/><line class="cls-4" x1="83.51" y1="290.89" x2="316.19" y2="290.89"/><line class="cls-4" x1="83.51" y1="348.77" x2="316.19" y2="348.77"/><g id="lock"><circle class="cls-5" cx="252.97" cy="322.02" r="104.8"/><path class="cls-4" d="M192.75,302.33v81.06H313.18V302.33H192.75ZM261.65,362H244.28l4.55-17a11,11,0,1,1,8.27,0Z"/><path class="cls-4" d="M219.84,302.33l.12-7.52c0-22,6.95-41.69,32.43-41.69,24.32,0,33.58,18.53,33.58,39.37l.08,9.84"/><path class="cls-4" d="M206.07,302.91V292.49c.4-36.77,18.88-53.27,46.1-53.27,26.57,0,48.39,16.14,48.85,49.8v13.89"/></g></g><text class="cls-6" transform="translate(89.34 103.92)">id</text><text class="cls-6" transform="translate(154.42 104.85)">address</text><rect class="cls-7" x="125.5" y="62.83" width="15.25" height="339.56"/><rect class="cls-3" x="977.23" y="52.35" width="444.04" height="357.8" rx="1"/><line class="cls-4" x1="991.85" y1="117.25" x2="1403.61" y2="117.25"/><line class="cls-4" x1="991.85" y1="175.13" x2="1403.61" y2="175.13"/><line class="cls-4" x1="991.85" y1="233.01" x2="1403.61" y2="233.01"/><line class="cls-4" x1="991.85" y1="290.89" x2="1403.61" y2="290.89"/><line class="cls-4" x1="991.85" y1="348.77" x2="1403.61" y2="348.77"/><text class="cls-6" transform="translate(997.69 103.92)">id</text><text class="cls-6" transform="translate(1059.84 104.85)">address</text><rect class="cls-7" x="1033.85" y="62.83" width="15.25" height="339.56"/><rect class="cls-7" x="1220.59" y="62.83" width="15.25" height="339.56"/><text class="cls-6" transform="translate(1239.07 103.92)">geocode</text><g id="lock-2" data-name="lock"><circle class="cls-5" cx="1340.39" cy="322.02" r="104.8"/><path class="cls-4" d="M1280.17,302.33v81.06H1400.6V302.33H1280.17Zm68.9,59.64H1331.7l4.55-17a11,11,0,1,1,8.27,0Z"/><path class="cls-4" d="M1307.26,302.33l.12-7.52c0-22,6.95-41.69,32.43-41.69,24.32,0,33.58,18.53,33.58,39.37l.08,9.84"/><path class="cls-4" d="M1293.49,302.91V292.49c.4-36.77,18.88-53.27,46.1-53.27,26.57,0,48.39,16.14,48.85,49.8v13.89"/></g><rect class="cls-8" x="2077.14" y="52.35" width="669.98" height="357.8" rx="1"/><line class="cls-9" x1="2091.76" y1="117.25" x2="2726.72" y2="117.25"/><line class="cls-9" x1="2091.76" y1="175.13" x2="2726.72" y2="175.13"/><line class="cls-9" x1="2091.76" y1="233.01" x2="2726.72" y2="233.01"/><line class="cls-9" x1="2091.76" y1="290.89" x2="2726.72" y2="290.89"/><line class="cls-9" x1="2091.76" y1="348.77" x2="2726.72" y2="348.77"/><text class="cls-6" transform="translate(2097.59 103.92)">id</text><text class="cls-6" transform="translate(2160.74 104.85)">address</text><rect class="cls-7" x="2133.75" y="62.83" width="15.25" height="339.56"/><rect class="cls-7" x="2320.49" y="62.83" width="15.25" height="339.56"/><rect class="cls-7" x="2515.3" y="62.83" width="15.25" height="339.56"/><text class="cls-6" transform="translate(2344.97 103.92)">geocode</text><g id="lock-3" data-name="lock"><circle class="cls-5" cx="2665.32" cy="322.02" r="104.8"/><path class="cls-4" d="M2605.11,302.33v81.06h120.43V302.33H2605.11ZM2674,362h-17.37l4.55-17a11,11,0,1,1,8.27,0Z"/><path class="cls-4" d="M2632.2,302.33l.12-7.52c0-22,6.95-41.69,32.42-41.69,24.32,0,33.58,18.53,33.58,39.37l.08,9.84"/><path class="cls-4" d="M2618.42,302.91V292.49c.41-36.77,18.89-53.27,46.1-53.27,26.57,0,48.39,16.14,48.86,49.8v13.89"/></g><text class="cls-6" transform="translate(2530.55 103.68)">geomarker</text><g id="private_data-2" data-name="private_data"><rect class="cls-10" x="3525.26" y="56.52" width="290.21" height="357.8" rx="1"/><line class="cls-11" x1="3541.27" y1="121.42" x2="3796.13" y2="121.42"/><line class="cls-11" x1="3541.27" y1="179.3" x2="3796.13" y2="179.3"/><line class="cls-11" x1="3541.27" y1="237.18" x2="3796.13" y2="237.18"/><line class="cls-11" x1="3541.27" y1="295.06" x2="3796.13" y2="295.06"/><line class="cls-11" x1="3541.27" y1="352.94" x2="3796.13" y2="352.94"/></g><text class="cls-6" transform="translate(3545.71 108.09)">id</text><rect class="cls-7" x="3581.87" y="67" width="15.25" height="339.56"/><circle class="cls-12" cx="3746.68" cy="321.18" r="101.47"/><g id="map_pin"><ellipse class="cls-13" cx="3745.52" cy="384.79" rx="56.47" ry="10.84"/><path class="cls-14" d="M3791.68,293.81A46.16,46.16,0,1,0,3704,314h-.15l41,71.68a.73.73,0,0,0,1.28,0l41-71.68h-.15A45.93,45.93,0,0,0,3791.68,293.81Z"/><path class="cls-15" d="M3746,308.83a20.39,20.39,0,1,1,12.14-4A20.28,20.28,0,0,1,3746,308.83Z"/></g><text class="cls-6" transform="translate(3597.12 108.55)">geomarker</text><line class="cls-16" x1="337.03" y1="239.59" x2="437.39" y2="239.59"/><path d="M455.5,239.59c-8.52,3.16-19.09,8.55-25.64,14.26L435,239.59l-5.16-14.27C436.41,231,447,236.43,455.5,239.59Z"/><line class="cls-16" x1="853.59" y1="239.59" x2="953.95" y2="239.59"/><path d="M972.06,239.59c-8.52,3.16-19.09,8.55-25.65,14.26l5.17-14.26-5.17-14.27C953,231,963.54,236.43,972.06,239.59Z"/><line class="cls-16" x1="1429.48" y1="239.59" x2="1529.84" y2="239.59"/><path d="M1548,239.59c-8.52,3.16-19.09,8.55-25.64,14.26l5.16-14.26-5.16-14.27C1528.86,231,1539.43,236.43,1548,239.59Z"/><line class="cls-16" x1="1951.04" y1="239.59" x2="2051.4" y2="239.59"/><path d="M2069.51,239.59c-8.52,3.16-19.09,8.55-25.65,14.26l5.16-14.26-5.16-14.27C2050.42,231,2061,236.43,2069.51,239.59Z"/><line class="cls-16" x1="2756.11" y1="239.59" x2="2856.47" y2="239.59"/><path d="M2874.58,239.59c-8.52,3.16-19.09,8.55-25.64,14.26l5.16-14.26-5.16-14.27C2855.49,231,2866.06,236.43,2874.58,239.59Z"/><line class="cls-16" x1="3400.14" y1="239.59" x2="3500.5" y2="239.59"/><path d="M3518.6,239.59c-8.51,3.16-19.09,8.55-25.64,14.26l5.16-14.26L3493,225.32C3499.51,231,3510.09,236.43,3518.6,239.59Z"/><rect class="cls-17" x="2881.23" y="34.6" width="512.26" height="409.98" rx="30"/><rect class="cls-7" x="3139.75" y="71.95" width="214.31" height="149.08" rx="5.52"/><path d="M3348.53,74a3.53,3.53,0,0,1,3.53,3.52v138a3.53,3.53,0,0,1-3.53,3.53H3145.28a3.53,3.53,0,0,1-3.53-3.53v-138a3.53,3.53,0,0,1,3.53-3.52h203.25m0-4H3145.28a7.53,7.53,0,0,0-7.53,7.52v138a7.53,7.53,0,0,0,7.53,7.53h203.25a7.53,7.53,0,0,0,7.53-7.53v-138a7.53,7.53,0,0,0-7.53-7.52Z"/><rect class="cls-7" x="3139.75" y="233.28" width="214.31" height="49.22" rx="5.52"/><path d="M3348.53,235.28a3.53,3.53,0,0,1,3.53,3.53V277a3.53,3.53,0,0,1-3.53,3.52H3145.28a3.53,3.53,0,0,1-3.53-3.52V238.81a3.53,3.53,0,0,1,3.53-3.53h203.25m0-4H3145.28a7.53,7.53,0,0,0-7.53,7.53V277a7.53,7.53,0,0,0,7.53,7.52h203.25a7.53,7.53,0,0,0,7.53-7.52V238.81a7.53,7.53,0,0,0-7.53-7.53Z"/><path class="cls-17" d="M3162.73,89.4h168.2a5.52,5.52,0,0,1,5.52,5.52V198.05a5.52,5.52,0,0,1-5.52,5.52h-168.2a5.53,5.53,0,0,1-5.53-5.53V94.93A5.52,5.52,0,0,1,3162.73,89.4Z"/><path d="M3330.92,91.4a3.53,3.53,0,0,1,3.53,3.53V198.05a3.53,3.53,0,0,1-3.53,3.53H3162.73a3.53,3.53,0,0,1-3.53-3.53V94.93a3.53,3.53,0,0,1,3.53-3.53h168.19m0-4H3162.73a7.53,7.53,0,0,0-7.53,7.53V198.05a7.53,7.53,0,0,0,7.53,7.53h168.19a7.53,7.53,0,0,0,7.53-7.53V94.93a7.53,7.53,0,0,0-7.53-7.53Z"/><rect class="cls-18" x="3277.16" y="249.29" width="61.29" height="17.5" rx="7.52"/><path class="cls-19" d="M2920.24,405.44a121.72,121.72,0,0,1,25.39-72.63A116.06,116.06,0,0,1,3008.76,291a2,2,0,0,0,.31-3.78,67.9,67.9,0,0,1-40.7-62.26c0-37.42,30.26-67.85,67.44-67.85s67.43,30.43,67.43,67.85a67.9,67.9,0,0,1-40.61,62.22A2,2,0,0,0,3063,291a112.5,112.5,0,0,1,32.16,13.59c34,21.2,55.43,59.7,56.28,100.87Z"/><path d="M3035.81,159.13c36.08,0,65.43,29.54,65.43,65.85a65.91,65.91,0,0,1-39.41,60.39,4,4,0,0,0,.63,7.55,110.47,110.47,0,0,1,31.59,13.35c32.87,20.49,53.8,57.44,55.28,97.17h-227A119.72,119.72,0,0,1,2947.22,334a114.06,114.06,0,0,1,62-41.07,4,4,0,0,0,.62-7.55,65.92,65.92,0,0,1-39.5-60.43c0-36.31,29.36-65.85,65.44-65.85m0-4c-38.29,0-69.44,31.34-69.44,69.85a70,70,0,0,0,41.9,64.1c-51.42,12.92-89.82,61-90.06,118.36h235.2c-.18-42.61-22.08-82.64-57.25-104.56A114.51,114.51,0,0,0,3063.43,289,69.94,69.94,0,0,0,3105.24,225c0-38.51-31.15-69.85-69.43-69.85Z"/></g></svg>