<svg xmlns="http://www.w3.org/2000/svg" viewBox="0 0 1597.6 1121.09"><defs><style>.cls-1{fill:#fff;}.cls-1,.cls-10,.cls-15,.cls-16,.cls-2,.cls-20,.cls-3,.cls-7,.cls-8,.cls-9{stroke:#000;}.cls-1,.cls-10,.cls-12,.cls-13,.cls-15,.cls-16,.cls-17,.cls-18,.cls-19,.cls-2,.cls-20,.cls-21,.cls-22,.cls-3,.cls-7,.cls-8,.cls-9{stroke-miterlimit:10;}.cls-1,.cls-10,.cls-12,.cls-13,.cls-15,.cls-17,.cls-18,.cls-19,.cls-2,.cls-21,.cls-22,.cls-3,.cls-8,.cls-9{stroke-width:1.5px;}.cls-12,.cls-13,.cls-17,.cls-18,.cls-19,.cls-2,.cls-21,.cls-22{fill:none;}.cls-3{fill:#ffd400;}.cls-4{opacity:0.2;}.cls-5{font-size:24px;font-family:ArialMT, Arial;}.cls-6{letter-spacing:-0.06em;}.cls-16,.cls-20,.cls-7{fill:#b80071;}.cls-7{stroke-width:0.75px;}.cls-8{fill:#00bcb7;}.cls-11,.cls-9{fill:#002546;}.cls-10{fill:#b794da;}.cls-12,.cls-13,.cls-17,.cls-18,.cls-19,.cls-21,.cls-22{stroke:#999;}.cls-13{stroke-dasharray:11.43 11.43;}.cls-14{fill:#999;}.cls-15{fill:#c2b094;}.cls-16{stroke-width:0.67px;}.cls-17{stroke-dasharray:12.13 12.13;}.cls-18{stroke-dasharray:12.1 12.1;}.cls-19{stroke-dasharray:12.11 12.11;}.cls-20{stroke-width:0.9px;}.cls-21{stroke-dasharray:12.51 12.51;}.cls-22{stroke-dasharray:12.55 12.55;}</style></defs><g id="share_compute" data-name="share compute"><g id="private_data"><rect class="cls-1" x="29.27" y="102.61" width="82.92" height="107.74" rx="1"/><line class="cls-2" x1="41.42" y1="122.15" x2="99.57" y2="122.15"/><line class="cls-2" x1="41.42" y1="139.58" x2="99.57" y2="139.58"/><line class="cls-2" x1="41.42" y1="157.01" x2="99.57" y2="157.01"/><line class="cls-2" x1="41.42" y1="174.44" x2="99.57" y2="174.44"/><line class="cls-2" x1="41.42" y1="191.87" x2="99.57" y2="191.87"/><g id="lock"><circle class="cls-3" cx="85.65" cy="183.81" r="31.56"/><path class="cls-2" d="M67.52,177.89v24.4h36.26v-24.4H67.52Zm20.75,18H83l1.37-5.12a3.31,3.31,0,1,1,2.49,0Z"/><path class="cls-2" d="M75.68,177.89l0-2.27c0-6.63,2.1-12.55,9.77-12.55,7.32,0,10.11,5.58,10.11,11.85l0,3"/><path class="cls-2" d="M71.53,178.06v-3.14c.12-11.07,5.69-16,13.88-16,8,0,14.57,4.86,14.71,15v4.18"/></g></g><g id="private_data-2" data-name="private_data"><rect class="cls-1" x="29.27" y="539.24" width="82.92" height="107.74" rx="1"/><line class="cls-2" x1="41.42" y1="558.78" x2="99.57" y2="558.78"/><line class="cls-2" x1="41.42" y1="576.21" x2="99.57" y2="576.21"/><line class="cls-2" x1="41.42" y1="593.63" x2="99.57" y2="593.63"/><line class="cls-2" x1="41.42" y1="611.06" x2="99.57" y2="611.06"/><line class="cls-2" x1="41.42" y1="628.49" x2="99.57" y2="628.49"/><g id="lock-2" data-name="lock"><circle class="cls-3" cx="85.65" cy="620.44" r="31.56"/><path class="cls-2" d="M67.52,614.51v24.41h36.26V614.51H67.52Zm20.75,18H83l1.37-5.13a3.31,3.31,0,1,1,2.49,0Z"/><path class="cls-2" d="M75.68,614.51l0-2.27c0-6.62,2.1-12.55,9.77-12.55,7.32,0,10.11,5.58,10.11,11.85l0,3"/><path class="cls-2" d="M71.53,614.68v-3.14c.12-11.07,5.69-16,13.88-16,8,0,14.57,4.86,14.71,15v4.18"/></g></g><g id="private_data-3" data-name="private_data"><rect class="cls-1" x="29.27" y="905.86" width="82.92" height="107.74" rx="1"/><line class="cls-2" x1="41.42" y1="925.4" x2="99.57" y2="925.4"/><line class="cls-2" x1="41.42" y1="942.83" x2="99.57" y2="942.83"/><line class="cls-2" x1="41.42" y1="960.26" x2="99.57" y2="960.26"/><line class="cls-2" x1="41.42" y1="977.69" x2="99.57" y2="977.69"/><line class="cls-2" x1="41.42" y1="995.11" x2="99.57" y2="995.11"/><g id="lock-3" data-name="lock"><circle class="cls-3" cx="85.65" cy="987.06" r="31.56"/><path class="cls-2" d="M67.52,981.13v24.41h36.26V981.13H67.52Zm20.75,18H83L84.41,994a3.31,3.31,0,1,1,2.49,0Z"/><path class="cls-2" d="M75.68,981.13l0-2.26c0-6.63,2.1-12.56,9.77-12.56,7.32,0,10.11,5.58,10.11,11.86l0,3"/><path class="cls-2" d="M71.53,981.31v-3.14c.12-11.07,5.69-16,13.88-16,8,0,14.57,4.86,14.71,15v4.19"/></g></g><g id="hospital"><polyline class="cls-2" points="323.62 55.15 341.56 55.15 341.56 245.78 237.14 245.78 237.14 55.15 254.01 55.15"/><path d="M407,80.75V242.14H342.53V80.75H407m1.5-1.5H341V243.64H408.5V79.25Z"/><polyline class="cls-2" points="373.69 113.52 373.69 131.73 373.69 149.93"/><polyline class="cls-2" points="355.48 131.73 373.69 131.73 391.9 131.73"/><path d="M390.4,115v33.41H357V115H390.4m1.5-1.5H355.48v36.41H391.9V113.52Z"/><polyline class="cls-2" points="373.69 172.96 373.69 191.16 373.69 209.37"/><polyline class="cls-2" points="355.48 191.16 373.69 191.16 391.9 191.16"/><path d="M390.4,174.46v33.41H357V174.46H390.4m1.5-1.5H355.48v36.41H391.9V173Z"/><path d="M236.18,81.29V242.68H171.71V81.29h64.47m1.5-1.5H170.21V244.18h67.47V79.79Z"/><polyline class="cls-2" points="202.87 114.06 202.87 132.26 202.87 150.47"/><polyline class="cls-2" points="184.66 132.26 202.87 132.26 221.08 132.26"/><path d="M219.58,115.56V149H186.17V115.56h33.41m1.5-1.5H184.67v36.41h36.41V114.06Z"/><polyline class="cls-2" points="202.87 173.49 202.87 191.7 202.87 209.91"/><polyline class="cls-2" points="184.66 191.7 202.87 191.7 221.08 191.7"/><path d="M219.58,175v33.42H186.17V175h33.41m1.5-1.5H184.67v36.42h36.41V173.49Z"/><rect class="cls-2" x="254.01" y="107.9" width="68.54" height="25.7"/><rect class="cls-2" x="254.01" y="146.45" width="68.54" height="25.7"/><rect class="cls-2" x="254.01" y="184.47" width="68.54" height="61.04"/><line class="cls-2" x1="288.77" y1="184.47" x2="288.33" y2="245.52"/><circle class="cls-2" cx="288.82" cy="55.42" r="34.81"/><polygon class="cls-2" points="306.49 50.07 306.49 63.45 295.24 63.45 295.24 74.16 281.86 74.16 281.86 63.45 271.68 63.45 271.68 50.07 281.86 50.07 281.86 39.36 295.24 39.36 295.24 50.07 306.49 50.07"/></g><rect class="cls-4" x="240.05" y="264.87" width="89.52" height="35" rx="17.5"/><text class="cls-5" transform="translate(254.09 290.02)">Site<tspan class="cls-6" x="41.36" y="0" xml:space="preserve"> A</tspan></text><g id="institution"><rect class="cls-2" x="170.89" y="533.86" width="239.22" height="89.79"/><rect class="cls-2" x="159.21" y="623.64" width="262.59" height="31.36"/><rect class="cls-2" x="231.77" y="461.29" width="115.61" height="72.57"/><rect class="cls-2" x="267.44" y="590.43" width="43.66" height="33.21"/><rect class="cls-2" x="183.19" y="593.51" width="48.58" height="15.99"/><rect class="cls-2" x="186.27" y="545.54" width="42.74" height="24.6"/><rect class="cls-2" x="241" y="545.54" width="42.74" height="24.6"/><rect class="cls-2" x="295.12" y="545.54" width="42.74" height="24.6"/><rect class="cls-2" x="350.46" y="545.54" width="42.74" height="24.6"/><rect class="cls-2" x="347.39" y="593.51" width="48.58" height="15.99"/><path class="cls-2" d="M288.24,491.12h3.3a8.19,8.19,0,0,1,8.19,8.19v7.8a0,0,0,0,1,0,0H280a0,0,0,0,1,0,0v-7.8A8.19,8.19,0,0,1,288.24,491.12Z"/><path class="cls-2" d="M319.6,491.12h3.3a8.19,8.19,0,0,1,8.19,8.19v7.8a0,0,0,0,1,0,0H311.41a0,0,0,0,1,0,0v-7.8A8.19,8.19,0,0,1,319.6,491.12Z"/><path class="cls-2" d="M257.49,491.12h3.3a8.19,8.19,0,0,1,8.19,8.19v7.8a0,0,0,0,1,0,0H249.3a0,0,0,0,1,0,0v-7.8A8.19,8.19,0,0,1,257.49,491.12Z"/><polygon class="cls-2" points="289.89 434.08 217.06 461.29 363.81 461.29 289.89 434.08"/><line class="cls-2" x1="289.89" y1="408.67" x2="289.89" y2="434.08"/><rect class="cls-2" x="289.89" y="408.71" width="17.83" height="11.07"/></g><rect class="cls-4" x="242.21" y="677.25" width="87.51" height="35" rx="17.5"/><text class="cls-5" transform="translate(254.09 702.65)">Site B</text><g id="hospital-2" data-name="hospital"><polyline class="cls-2" points="323.62 855.84 341.56 855.84 341.56 1046.47 237.14 1046.47 237.14 855.84 254.01 855.84"/><path d="M407,881.44v161.39H342.53V881.44H407m1.5-1.5H341v164.39H408.5V879.94Z"/><polyline class="cls-2" points="373.69 914.21 373.69 932.41 373.69 950.62"/><polyline class="cls-2" points="355.48 932.41 373.69 932.41 391.9 932.41"/><path d="M390.4,915.71v33.41H357V915.71H390.4m1.5-1.5H355.48v36.41H391.9V914.21Z"/><polyline class="cls-2" points="373.69 973.65 373.69 991.85 373.69 1010.06"/><polyline class="cls-2" points="355.48 991.85 373.69 991.85 391.9 991.85"/><path d="M390.4,975.15v33.41H357V975.15H390.4m1.5-1.5H355.48v36.41H391.9V973.65Z"/><path d="M236.18,882v161.4H171.71V882h64.47m1.5-1.5H170.21v164.4h67.47V880.47Z"/><polyline class="cls-2" points="202.87 914.74 202.87 932.95 202.87 951.16"/><polyline class="cls-2" points="184.66 932.95 202.87 932.95 221.08 932.95"/><path d="M219.58,916.24v33.42H186.17V916.24h33.41m1.5-1.5H184.67v36.42h36.41V914.74Z"/><polyline class="cls-2" points="202.87 974.18 202.87 992.39 202.87 1010.6"/><polyline class="cls-2" points="184.66 992.39 202.87 992.39 221.08 992.39"/><path d="M219.58,975.68v33.41H186.17V975.68h33.41m1.5-1.5H184.67v36.41h36.41V974.18Z"/><rect class="cls-2" x="254.01" y="908.59" width="68.54" height="25.7"/><rect class="cls-2" x="254.01" y="947.14" width="68.54" height="25.7"/><rect class="cls-2" x="254.01" y="985.16" width="68.54" height="61.04"/><line class="cls-2" x1="288.77" y1="985.16" x2="288.33" y2="1046.2"/><circle class="cls-2" cx="288.82" cy="856.11" r="34.81"/><polygon class="cls-2" points="306.49 850.75 306.49 864.14 295.24 864.14 295.24 874.85 281.86 874.85 281.86 864.14 271.68 864.14 271.68 850.75 281.86 850.75 281.86 840.04 295.24 840.04 295.24 850.75 306.49 850.75"/></g><rect class="cls-4" x="244.21" y="1065.47" width="85.34" height="35" rx="17.5"/><text class="cls-5" transform="translate(254.09 1090.87)">Site C</text><g id="DAC"><rect class="cls-2" x="950.53" y="460.91" width="188.5" height="277.41"/><polyline class="cls-2" points="988.04 491.57 988.04 509.78 988.04 527.99"/><polyline class="cls-2" points="969.83 509.78 988.04 509.78 1006.24 509.78"/><path d="M1004.74,493.08v33.41H971.33V493.08h33.41m1.5-1.5H969.83V528h36.41V491.58Z"/><polyline class="cls-2" points="1100.66 491.57 1100.66 509.78 1100.66 527.99"/><polyline class="cls-2" points="1082.45 509.78 1100.66 509.78 1118.87 509.78"/><path d="M1117.37,493.08v33.41H1084V493.08h33.42m1.5-1.5h-36.42V528h36.42V491.58Z"/><polyline class="cls-2" points="1043.76 491.57 1043.76 509.78 1043.76 527.99"/><polyline class="cls-2" points="1025.55 509.78 1043.76 509.78 1061.96 509.78"/><path d="M1060.46,493.08v33.41h-33.41V493.08h33.41m1.5-1.5h-36.41V528H1062V491.58Z"/><polyline class="cls-2" points="988.04 555.59 988.04 573.8 988.04 592.01"/><polyline class="cls-2" points="969.83 573.8 988.04 573.8 1006.24 573.8"/><path d="M1004.74,557.09v33.42H971.33V557.09h33.41m1.5-1.5H969.83V592h36.41V555.59Z"/><polyline class="cls-2" points="1100.66 555.59 1100.66 573.8 1100.66 592.01"/><polyline class="cls-2" points="1082.45 573.8 1100.66 573.8 1118.87 573.8"/><path d="M1117.37,557.09v33.42H1084V557.09h33.42m1.5-1.5h-36.42V592h36.42V555.59Z"/><polyline class="cls-2" points="1043.76 555.59 1043.76 573.8 1043.76 592.01"/><polyline class="cls-2" points="1025.55 573.8 1043.76 573.8 1061.96 573.8"/><path d="M1060.46,557.09v33.42h-33.41V557.09h33.41m1.5-1.5h-36.41V592H1062V555.59Z"/><polyline class="cls-2" points="988.04 617.24 988.04 635.45 988.04 653.65"/><polyline class="cls-2" points="969.83 635.45 988.04 635.45 1006.24 635.45"/><path d="M1004.74,618.74v33.41H971.33V618.74h33.41m1.5-1.5H969.83v36.41h36.41V617.24Z"/><polyline class="cls-2" points="1100.66 617.24 1100.66 635.45 1100.66 653.65"/><polyline class="cls-2" points="1082.45 635.45 1100.66 635.45 1118.87 635.45"/><path d="M1117.37,618.74v33.41H1084V618.74h33.42m1.5-1.5h-36.42v36.41h36.42V617.24Z"/><polyline class="cls-2" points="1043.76 617.24 1043.76 635.45 1043.76 653.65"/><polyline class="cls-2" points="1025.55 635.45 1043.76 635.45 1061.96 635.45"/><path d="M1060.46,618.74v33.41h-33.41V618.74h33.41m1.5-1.5h-36.41v36.41H1062V617.24Z"/><rect class="cls-2" x="1009.62" y="676.91" width="68.54" height="61.04"/><line class="cls-2" x1="1044.38" y1="676.91" x2="1043.94" y2="737.96"/></g><rect class="cls-4" x="1006.27" y="755.61" width="75.66" height="35" rx="17.5"/><text class="cls-5" transform="translate(1019.16 782.02)">DAC</text><g id="desktop_computer"><g id="cpu"><path class="cls-1" d="M1568.32,644a.55.55,0,0,1-.55.55h-60a.55.55,0,0,1-.55-.55V534.67a.55.55,0,0,1,.55-.56h60a.56.56,0,0,1,.55.56Z"/><line class="cls-1" x1="1510.41" y1="652.1" x2="1510.55" y2="644.52"/><line class="cls-1" x1="1565.24" y1="644.52" x2="1565.24" y2="652.1"/><line class="cls-1" x1="1519.61" y1="552.52" x2="1557.7" y2="552.52"/><line class="cls-1" x1="1519.61" y1="563.88" x2="1557.7" y2="563.88"/><line class="cls-1" x1="1519.61" y1="575.25" x2="1557.7" y2="575.25"/><circle class="cls-1" cx="1538.55" cy="618" r="5.95"/></g><g id="monitor"><rect class="cls-1" x="1416.24" y="567.67" width="106.62" height="67.11" rx="1.02"/><rect class="cls-1" x="1459.54" y="634.78" width="18.94" height="14.61" rx="1.02"/><line class="cls-1" x1="1446.18" y1="649.39" x2="1491.74" y2="649.39"/><line class="cls-1" x1="1416.24" y1="621.89" x2="1522.86" y2="621.89"/></g></g><g id="three_gears"><g id="gear"><g id="_Radial_Repeat_" data-name="&lt;Radial Repeat&gt;"><path class="cls-7" d="M1464.18,602.4c0,.18-.16.36-.44.4l-1.77.61-.14,0a9.6,9.6,0,0,1-.81,3.95l.11.1,1.42,1.28c.22.16.32.41.22.56l-1.37,1.88c-.1.15-.37.13-.6,0l-1.62-.83-.13-.07a9.43,9.43,0,0,1-3.44,2.23v.14l.07,1.85c0,.27-.07.52-.25.54l-2.29.34c-.18,0-.36-.18-.4-.45l-.52-1.68,0-.14a9.57,9.57,0,0,1-4-.94l-.11.1-1.23,1.32c-.17.22-.43.31-.57.2l-1.84-1.41c-.15-.11-.13-.38,0-.6l.83-1.52.07-.13a9.44,9.44,0,0,1-2.14-3.57h-.15l-1.8,0c-.27,0-.51-.09-.54-.26l-.27-2.31c0-.18.18-.35.46-.38l1.68-.48.14,0a9.61,9.61,0,0,1,1.08-4l-.1-.1-1.31-1.3c-.22-.18-.31-.43-.19-.57l1.45-1.81c.12-.14.38-.11.6.06l1.57.9.13.07a9.55,9.55,0,0,1,2.66-1.66v-.14l-.18-1.89c-.05-.28,0-.53.22-.56l2.28-.45c.18,0,.37.16.42.43l.64,1.75,0,.14a9.43,9.43,0,0,1,4,.75l.1-.11,1.26-1.49c.16-.23.41-.33.56-.23l1.91,1.32c.15.1.14.37,0,.6l-.81,1.71-.07.13a9.69,9.69,0,0,1,2.24,3.32h.14l2-.13c.27,0,.52.06.55.24Zm-13.2-3.91a5.23,5.23,0,1,0,6.36,3.78A5.24,5.24,0,0,0,1451,598.49Z"/></g></g><g id="gear-2" data-name="gear"><g id="_Radial_Repeat_2" data-name="&lt;Radial Repeat&gt;"><path class="cls-7" d="M1463.52,583c0,.14-.16.27-.38.28l-1.42.33-.11,0a7.44,7.44,0,0,1-.95,3l.08.08,1,1.11c.16.14.22.34.12.45l-1.2,1.34c-.1.11-.3.08-.47-.07l-1.19-.77-.09-.06a7.32,7.32,0,0,1-2.85,1.44v.12l-.09,1.43c0,.22-.1.4-.24.4l-1.81.08c-.14,0-.26-.16-.27-.38l-.27-1.34,0-.12a7.35,7.35,0,0,1-3-1l-.09.08-1.06.91c-.15.16-.35.21-.46.11l-1.31-1.24c-.11-.09-.07-.3.08-.46l.76-1.11.07-.1a7.2,7.2,0,0,1-1.37-2.93h-.12l-1.39-.12c-.22,0-.4-.11-.4-.25l0-1.81c0-.14.17-.26.39-.26l1.34-.24.11,0a7.64,7.64,0,0,1,1.16-3l-.07-.08-.91-1.12c-.16-.15-.2-.35-.11-.45l1.28-1.29c.1-.1.3-.06.46.1l1.14.82.09.07a7.52,7.52,0,0,1,2.2-1.08v-.11l0-1.48c0-.22.08-.4.21-.41l1.81-.17c.13,0,.26.15.28.37l.36,1.4,0,.12a7.23,7.23,0,0,1,3,.9l.08-.08,1.1-1.05c.14-.17.34-.23.45-.14l1.38,1.18c.1.09.07.3-.07.46L1460,578l-.06.1a7.46,7.46,0,0,1,1.47,2.75h.11l1.52.05c.22,0,.4.09.41.23Zm-9.91-4.08a4.07,4.07,0,1,0,4.62,3.44A4.08,4.08,0,0,0,1453.61,578.89Z"/></g></g><g id="gear-3" data-name="gear"><g id="_Radial_Repeat_3" data-name="&lt;Radial Repeat&gt;"><path class="cls-7" d="M1495,593.24c0,.25-.29.48-.68.51l-2.6.59-.2,0a13.41,13.41,0,0,1-1.73,5.46l.14.16,1.83,2c.29.26.39.63.22.82l-2.2,2.46c-.17.18-.55.13-.84-.14l-2.17-1.4-.18-.12a13.41,13.41,0,0,1-5.18,2.64v.21l-.16,2.61c0,.39-.18.72-.43.73l-3.3.14c-.25,0-.47-.3-.49-.69l-.49-2.45,0-.2a13.65,13.65,0,0,1-5.57-1.92l-.16.13-1.94,1.67c-.27.29-.64.38-.82.21l-2.4-2.26c-.19-.18-.12-.55.15-.84l1.39-2,.12-.18a13.46,13.46,0,0,1-2.5-5.35l-.21,0-2.54-.22c-.4,0-.72-.19-.72-.45l-.06-3.3c0-.25.31-.46.7-.47l2.46-.43.2,0a13.48,13.48,0,0,1,2.11-5.46l-.13-.16-1.67-2c-.28-.28-.36-.65-.18-.84l2.32-2.34c.18-.18.55-.1.83.18L1470,582l.17.12a13.79,13.79,0,0,1,4-2v-.2l0-2.7c0-.39.15-.73.4-.75l3.28-.31c.26,0,.49.28.53.67l.65,2.57,0,.2a13.46,13.46,0,0,1,5.46,1.64l.16-.14,2-1.91c.26-.31.62-.41.82-.25l2.51,2.14c.19.17.14.54-.12.84l-1.4,2.3-.11.18a13.49,13.49,0,0,1,2.67,5h.2l2.77.11c.4,0,.73.15.75.41Zm-18.07-7.45a7.42,7.42,0,1,0,8.43,6.27A7.43,7.43,0,0,0,1476.92,585.79Z"/></g></g></g><g id="data_stack" data-name="data stack"><g id="data"><rect class="cls-1" x="1398.56" y="852.2" width="99.66" height="129.5" rx="1"/><line class="cls-2" x1="1413.16" y1="875.69" x2="1483.05" y2="875.69"/><line class="cls-2" x1="1413.16" y1="896.64" x2="1483.05" y2="896.64"/><line class="cls-2" x1="1413.16" y1="917.59" x2="1483.05" y2="917.59"/><line class="cls-2" x1="1413.16" y1="938.54" x2="1483.05" y2="938.54"/><line class="cls-2" x1="1413.16" y1="959.48" x2="1483.05" y2="959.48"/></g><g id="data-2" data-name="data"><rect class="cls-1" x="1418.24" y="856.01" width="99.66" height="129.5" rx="1"/><line class="cls-2" x1="1432.84" y1="879.5" x2="1502.73" y2="879.5"/><line class="cls-2" x1="1432.84" y1="900.45" x2="1502.73" y2="900.45"/><line class="cls-2" x1="1432.84" y1="921.4" x2="1502.73" y2="921.4"/><line class="cls-2" x1="1432.84" y1="942.34" x2="1502.73" y2="942.34"/><line class="cls-2" x1="1432.84" y1="963.29" x2="1502.73" y2="963.29"/></g><g id="data-3" data-name="data"><rect class="cls-1" x="1437.6" y="859.5" width="99.66" height="129.5" rx="1"/><line class="cls-2" x1="1452.2" y1="882.99" x2="1522.09" y2="882.99"/><line class="cls-2" x1="1452.2" y1="903.94" x2="1522.09" y2="903.94"/><line class="cls-2" x1="1452.2" y1="924.89" x2="1522.09" y2="924.89"/><line class="cls-2" x1="1452.2" y1="945.84" x2="1522.09" y2="945.84"/><line class="cls-2" x1="1452.2" y1="966.78" x2="1522.09" y2="966.78"/></g></g><circle class="cls-8" cx="1502.74" cy="955.24" r="39.04"/><g id="map_pin"><ellipse class="cls-9" cx="1502.3" cy="979.72" rx="21.73" ry="4.17"/><path class="cls-10" d="M1520.06,944.71a17.76,17.76,0,1,0-33.74,7.76h-.06l15.79,27.58a.28.28,0,0,0,.49,0l15.79-27.58h0A17.66,17.66,0,0,0,1520.06,944.71Z"/><path class="cls-11" d="M1502.47,950.49a7.85,7.85,0,1,1,4.67-1.54A7.79,7.79,0,0,1,1502.47,950.49Z"/></g><line class="cls-12" x1="1157.13" y1="603.21" x2="1163.13" y2="603.18"/><line class="cls-13" x1="1174.56" y1="603.12" x2="1397.49" y2="602.06"/><line class="cls-12" x1="1403.2" y1="602.03" x2="1409.2" y2="602"/><path class="cls-14" d="M1139,603.29c8.54,3.12,19.13,8.47,25.71,14.15l-5.23-14.25,5.1-14.28C1158.07,594.65,1147.53,600.09,1139,603.29Z"/><g id="container"><path class="cls-15" d="M1222,574.43l58.32-24.6a.66.66,0,0,1,.48,0l59.07,24.6a.62.62,0,0,1,0,1.14l-58.69,25.62a.62.62,0,0,1-.5,0L1222,575.57A.62.62,0,0,1,1222,574.43Z"/><path class="cls-15" d="M1220,581v57.63a.62.62,0,0,0,.35.56l57.22,27.76a.62.62,0,0,0,.89-.56v-61a.62.62,0,0,0-.38-.57l-57.21-24.42A.63.63,0,0,0,1220,581Z"/><path class="cls-15" d="M1283.51,604.61l57.77-24.21a.62.62,0,0,1,.86.57v57.75a.62.62,0,0,1-.35.56L1284,666.93a.62.62,0,0,1-.89-.56V605.18A.61.61,0,0,1,1283.51,604.61Z"/></g><g id="three_gears-2" data-name="three_gears"><g id="gear-4" data-name="gear"><g id="_Radial_Repeat_4" data-name="&lt;Radial Repeat&gt;"><path class="cls-16" d="M1246.09,609.25a.47.47,0,0,0-.32-.48l-1.31-.74-.1-.06a17.09,17.09,0,0,0-.53-4.69l.09-.11,1.08-1.5a.72.72,0,0,0,.18-.66l-1-2.24c-.08-.17-.28-.16-.45,0l-1.22,1-.1.08a7.75,7.75,0,0,0-2.51-2.68V597l.1-2.19c0-.32,0-.61-.18-.64l-1.7-.43c-.13,0-.27.2-.3.53l-.43,2,0,.17a5.1,5.1,0,0,0-3,1.06l-.07-.12-.89-1.57c-.12-.27-.31-.38-.42-.25l-1.4,1.65a.75.75,0,0,0,0,.7l.58,1.82,0,.15a13.76,13.76,0,0,0-1.66,4.2h-.11l-1.34-.06a.34.34,0,0,0-.41.31l-.25,2.72a.43.43,0,0,0,.33.46l1.25.59.1.05a16.86,16.86,0,0,0,.72,4.74l-.08.12-1,1.52a.71.71,0,0,0-.15.67l1,2.17c.08.16.28.13.45-.07l1.19-1,.09-.08a7.75,7.75,0,0,0,1.95,2v.17l-.17,2.24c-.05.32,0,.62.15.66l1.69.57c.13,0,.27-.19.32-.51l.51-2.06,0-.16a5,5,0,0,0,3-.84l.06.13.92,1.77c.11.28.29.4.4.28l1.45-1.53a.73.73,0,0,0,0-.71l-.57-2,0-.16a13.2,13.2,0,0,0,1.73-3.9h.11l1.44.18a.32.32,0,0,0,.42-.27Zm-9.91,4.46c-2.06-.88-3.27-4.28-2.68-7.58s2.74-5.27,4.81-4.4,3.27,4.28,2.68,7.58S1238.25,614.59,1236.18,613.71Z"/></g></g><g id="gear-5" data-name="gear"><g id="_Radial_Repeat_5" data-name="&lt;Radial Repeat&gt;"><path class="cls-16" d="M1245.19,632.25a.32.32,0,0,0-.27-.33l-1.05-.41-.09,0a12.57,12.57,0,0,0-.64-3.56l.06-.1.77-1.29a.6.6,0,0,0,.1-.53l-.87-1.62c-.07-.12-.23-.08-.35.08l-.9.9-.07.07a5.2,5.2,0,0,0-2.09-1.74v-.14l0-1.7c0-.25-.06-.47-.17-.48l-1.34-.11c-.1,0-.2.19-.21.45l-.23,1.58,0,.13a4.46,4.46,0,0,0-2.29,1.21l-.06-.09-.78-1.1c-.1-.19-.25-.25-.33-.13l-1,1.45a.6.6,0,0,0,.06.54l.54,1.33,0,.12a11.33,11.33,0,0,0-1.08,3.46h-.09l-1,.12a.3.3,0,0,0-.3.29l-.06,2.14a.3.3,0,0,0,.28.32l1,.29.08,0a12.44,12.44,0,0,0,.8,3.57l-.06.1-.7,1.31a.58.58,0,0,0-.08.54l.92,1.53c.07.12.22.07.34-.1l.87-1,.07-.07a5.16,5.16,0,0,0,1.61,1.3v.13l0,1.75c0,.26,0,.48.15.5l1.34.22c.11,0,.21-.18.22-.43l.3-1.66,0-.14a4.15,4.15,0,0,0,2.25-1l.06.09.8,1.26c.1.19.25.27.33.16l1-1.37a.61.61,0,0,0,0-.55l-.55-1.5,0-.12a11.15,11.15,0,0,0,1.15-3.24h.08l1.13-.05a.28.28,0,0,0,.31-.26Zm-7.46,4.71c-1.65-.41-2.75-2.89-2.47-5.51s1.87-4.44,3.51-4,2.76,2.89,2.47,5.52S1239.38,637.38,1237.73,637Z"/></g></g><g id="gear-6" data-name="gear"><g id="_Radial_Repeat_6" data-name="&lt;Radial Repeat&gt;"><path class="cls-16" d="M1268.82,620.5a.59.59,0,0,0-.5-.61l-1.91-.73-.16-.06a22.94,22.94,0,0,0-1.17-6.48l.11-.19,1.4-2.36a1,1,0,0,0,.18-1l-1.58-2.93c-.13-.23-.41-.16-.63.14l-1.65,1.64-.13.13a9.61,9.61,0,0,0-3.8-3.19v-.24l-.06-3.1c0-.47-.12-.86-.31-.87l-2.45-.21c-.19,0-.36.35-.38.82l-.41,2.88,0,.25a8,8,0,0,0-4.18,2.2l-.11-.16-1.41-2c-.2-.34-.47-.45-.61-.25l-1.84,2.65a1.09,1.09,0,0,0,.1,1l1,2.42.09.21a20.86,20.86,0,0,0-2,6.31l-.16,0-1.9.23a.53.53,0,0,0-.54.52l-.11,3.9a.54.54,0,0,0,.51.57l1.82.55.15,0a22.66,22.66,0,0,0,1.45,6.5l-.1.19-1.28,2.39a1.07,1.07,0,0,0-.15,1l1.68,2.8c.13.22.41.13.62-.19l1.59-1.76.12-.14a9.32,9.32,0,0,0,2.94,2.37V636l0,3.19c0,.47.09.87.27.9l2.44.4c.19,0,.37-.32.41-.79l.53-3,0-.24a7.7,7.7,0,0,0,4.1-1.87l.11.17,1.45,2.29c.18.36.45.49.6.3l1.91-2.5a1.09,1.09,0,0,0-.06-1l-1-2.75-.08-.21a20.42,20.42,0,0,0,2.09-5.9h.15l2.06-.08a.51.51,0,0,0,.57-.48Zm-13.6,8.59c-3-.75-5-5.26-4.49-10.06s3.39-8.07,6.4-7.32,5,5.27,4.49,10.06S1258.23,629.85,1255.22,629.09Z"/></g></g></g><line class="cls-12" x1="424.9" y1="956.43" x2="430.4" y2="954.05"/><line class="cls-17" x1="441.54" y1="949.24" x2="903.58" y2="749.58"/><line class="cls-12" x1="909.15" y1="747.18" x2="914.65" y2="744.8"/><path class="cls-14" d="M408.27,963.61c9.08-.47,20.92.28,29.2,2.93l-10.39-11-.92-15.14C422.41,948.19,414.84,957.34,408.27,963.61Z"/><path class="cls-14" d="M931.27,737.61c-6.56,6.29-14.13,15.43-17.87,23.27l-.93-15.14-10.39-11C910.36,737.34,922.2,738.09,931.27,737.61Z"/><line class="cls-12" x1="429.38" y1="597.37" x2="435.38" y2="597.29"/><line class="cls-18" x1="447.48" y1="597.13" x2="901.12" y2="591.02"/><line class="cls-12" x1="907.17" y1="590.94" x2="913.17" y2="590.86"/><path class="cls-14" d="M411.27,597.61c8.57,3,19.21,8.3,25.84,13.93l-5.36-14.2,5-14.33C430.25,588.81,419.75,594.34,411.27,597.61Z"/><path class="cls-14" d="M931.27,590.61c-8.47,3.28-19,8.82-25.44,14.62l5-14.34-5.36-14.19C912.07,582.32,922.71,587.57,931.27,590.61Z"/><line class="cls-12" x1="426.75" y1="186.98" x2="432.01" y2="189.86"/><line class="cls-19" x1="442.64" y1="195.66" x2="904.81" y2="448.16"/><line class="cls-12" x1="910.12" y1="451.06" x2="915.39" y2="453.93"/><path class="cls-14" d="M410.86,178.3c6,6.86,12.65,16.66,15.66,24.82l2.31-15,11.37-10C431.71,180,419.85,179.62,410.86,178.3Z"/><path class="cls-14" d="M931.27,462.61c-9-1.31-20.85-1.64-29.34.23l11.37-10,2.31-15C918.62,446,925.31,455.76,931.27,462.61Z"/><g id="container-2" data-name="container"><path class="cls-15" d="M461.55,192.8l58.32-24.59a.62.62,0,0,1,.48,0l59.07,24.6a.62.62,0,0,1,0,1.14l-58.69,25.62a.62.62,0,0,1-.5,0L461.54,194A.63.63,0,0,1,461.55,192.8Z"/><path class="cls-15" d="M459.49,199.36V257a.63.63,0,0,0,.35.56l57.21,27.75a.62.62,0,0,0,.89-.55v-61a.61.61,0,0,0-.37-.57l-57.21-24.42A.62.62,0,0,0,459.49,199.36Z"/><path class="cls-15" d="M523,223l57.76-24.21a.63.63,0,0,1,.87.57V257.1a.62.62,0,0,1-.36.56l-57.77,27.65a.62.62,0,0,1-.89-.56V223.56A.62.62,0,0,1,523,223Z"/></g><g id="three_gears-3" data-name="three_gears"><g id="gear-7" data-name="gear"><g id="_Radial_Repeat_7" data-name="&lt;Radial Repeat&gt;"><path class="cls-16" d="M485.59,227.63a.44.44,0,0,0-.32-.48l-1.3-.74-.11-.06a17.09,17.09,0,0,0-.52-4.69l.08-.11,1.09-1.5a.69.69,0,0,0,.17-.66l-1-2.24c-.08-.18-.28-.16-.45,0l-1.23,1-.1.07a7.62,7.62,0,0,0-2.51-2.67v-.18l.09-2.18c0-.32,0-.62-.17-.65l-1.7-.43c-.13,0-.27.21-.31.53l-.42,2,0,.17a5.09,5.09,0,0,0-3,1.06l-.07-.13-.9-1.57c-.12-.26-.3-.37-.41-.24l-1.41,1.64a.81.81,0,0,0,0,.71l.58,1.82.05.15a13.56,13.56,0,0,0-1.67,4.2H470l-1.33-.06a.33.33,0,0,0-.41.3l-.26,2.73a.43.43,0,0,0,.34.46l1.24.59.11.05a16.73,16.73,0,0,0,.72,4.73l-.08.12-1,1.53a.71.71,0,0,0-.16.67l1.05,2.16c.08.17.28.14.44-.06l1.19-1,.1-.09a7.61,7.61,0,0,0,1.94,2v.17l-.17,2.24c0,.32,0,.62.16.66l1.68.56c.13.05.28-.18.32-.5l.52-2.06,0-.17a4.86,4.86,0,0,0,2.95-.84l.07.14.91,1.77c.11.28.3.4.41.28l1.45-1.53a.79.79,0,0,0,0-.71l-.57-2-.05-.16a12.7,12.7,0,0,0,1.73-3.9h.11l1.45.18a.31.31,0,0,0,.41-.27Zm-9.9,4.46c-2.07-.88-3.27-4.28-2.69-7.58s2.75-5.28,4.81-4.4,3.28,4.28,2.69,7.58S477.76,233,475.69,232.09Z"/></g></g><g id="gear-8" data-name="gear"><g id="_Radial_Repeat_8" data-name="&lt;Radial Repeat&gt;"><path class="cls-16" d="M484.7,250.63a.33.33,0,0,0-.28-.34l-1.05-.4-.08,0a12.93,12.93,0,0,0-.64-3.56l.06-.1.76-1.29a.56.56,0,0,0,.1-.54l-.87-1.61c-.06-.12-.22-.09-.34.08l-.91.9-.07.07a5.27,5.27,0,0,0-2.08-1.75v-.13l0-1.7c0-.26-.07-.47-.17-.48l-1.34-.11c-.11,0-.2.19-.21.44l-.23,1.59,0,.13A4.39,4.39,0,0,0,475,243l-.07-.09-.77-1.1c-.11-.19-.26-.25-.34-.14l-1,1.46a.59.59,0,0,0,.05.54l.55,1.33,0,.11a11.8,11.8,0,0,0-1.08,3.46l-.08,0-1,.12a.28.28,0,0,0-.3.29l-.07,2.14a.3.3,0,0,0,.29.31l1,.3.09,0a12.37,12.37,0,0,0,.79,3.56l-.05.11-.7,1.3a.59.59,0,0,0-.09.54l.92,1.54c.08.12.23.07.35-.11l.87-1,.07-.08A5.09,5.09,0,0,0,476,259v.13l0,1.75c0,.26.05.48.15.49l1.34.23c.1,0,.2-.18.22-.44l.3-1.66,0-.13a4.1,4.1,0,0,0,2.25-1l.06.1.8,1.25c.1.2.24.28.33.17l1-1.37a.57.57,0,0,0,0-.55l-.55-1.51,0-.11a11.15,11.15,0,0,0,1.14-3.24h.09l1.13,0a.28.28,0,0,0,.31-.26Zm-7.46,4.71c-1.65-.41-2.76-2.89-2.47-5.52s1.86-4.43,3.51-4,2.75,2.89,2.47,5.51S478.88,255.76,477.24,255.34Z"/></g></g><g id="gear-9" data-name="gear"><g id="_Radial_Repeat_9" data-name="&lt;Radial Repeat&gt;"><path class="cls-16" d="M508.33,238.88a.6.6,0,0,0-.5-.61l-1.92-.73-.15-.06a23.07,23.07,0,0,0-1.17-6.49l.11-.18,1.39-2.36a1,1,0,0,0,.19-1l-1.59-2.94c-.12-.22-.4-.16-.63.15l-1.64,1.64-.13.13a9.55,9.55,0,0,0-3.81-3.19V223l-.07-3.1c0-.47-.11-.86-.3-.87l-2.45-.21c-.19,0-.36.35-.38.81l-.42,2.89,0,.25a7.91,7.91,0,0,0-4.18,2.2l-.12-.17-1.41-2c-.19-.34-.47-.46-.61-.25l-1.83,2.65a1.06,1.06,0,0,0,.1,1l1,2.42.08.21a21.44,21.44,0,0,0-2,6.31l-.15,0-1.9.22a.54.54,0,0,0-.55.53l-.11,3.9a.55.55,0,0,0,.52.57l1.81.54.16.05a22.33,22.33,0,0,0,1.45,6.5l-.1.19-1.28,2.38a1.06,1.06,0,0,0-.15,1l1.67,2.8c.13.22.41.13.63-.2l1.58-1.75.13-.14a9.21,9.21,0,0,0,2.94,2.37v.24l0,3.2c0,.46.09.86.28.89l2.44.41c.19,0,.37-.32.4-.79l.54-3,0-.24a7.59,7.59,0,0,0,4.1-1.87l.11.17,1.46,2.29c.18.36.45.5.6.3l1.91-2.5a1.07,1.07,0,0,0-.07-1l-1-2.74-.07-.21a20.09,20.09,0,0,0,2.08-5.91h.16l2.06-.09a.49.49,0,0,0,.56-.47Zm-13.6,8.59c-3-.75-5-5.27-4.5-10.06s3.4-8.07,6.4-7.32,5,5.27,4.5,10.06S497.73,248.23,494.73,247.47Z"/></g></g></g><g id="container-3" data-name="container"><path class="cls-15" d="M463.63,559.14,522,534.55a.57.57,0,0,1,.48,0l59.07,24.6a.62.62,0,0,1,0,1.14l-58.69,25.62a.62.62,0,0,1-.5,0l-58.7-25.63A.62.62,0,0,1,463.63,559.14Z"/><path class="cls-15" d="M461.57,565.7v57.63a.65.65,0,0,0,.35.56l57.21,27.75a.63.63,0,0,0,.9-.56v-61a.61.61,0,0,0-.38-.57l-57.21-24.42A.62.62,0,0,0,461.57,565.7Z"/><path class="cls-15" d="M525.1,589.32l57.77-24.2a.62.62,0,0,1,.86.57v57.75a.62.62,0,0,1-.36.56l-57.76,27.65a.62.62,0,0,1-.89-.56V589.9A.64.64,0,0,1,525.1,589.32Z"/></g><g id="three_gears-4" data-name="three_gears"><g id="gear-10" data-name="gear"><g id="_Radial_Repeat_10" data-name="&lt;Radial Repeat&gt;"><path class="cls-16" d="M487.68,594a.48.48,0,0,0-.32-.49l-1.31-.73-.11-.06a17,17,0,0,0-.52-4.69l.09-.12,1.08-1.49a.69.69,0,0,0,.17-.66l-1-2.24c-.08-.18-.28-.16-.45,0l-1.22,1-.1.08a7.86,7.86,0,0,0-2.52-2.68v-.17l.1-2.18c0-.33-.05-.62-.18-.65l-1.7-.43c-.13,0-.27.21-.3.53l-.43,2,0,.17a5,5,0,0,0-3,1.06l-.07-.13-.89-1.57c-.13-.26-.31-.37-.42-.24l-1.4,1.64a.77.77,0,0,0,0,.71l.58,1.82.05.15a13.81,13.81,0,0,0-1.67,4.2H472l-1.34-.06a.33.33,0,0,0-.41.3l-.25,2.73a.44.44,0,0,0,.33.46l1.25.59.1.05a16.73,16.73,0,0,0,.72,4.73l-.08.12-1,1.53a.71.71,0,0,0-.16.67l1.05,2.16c.08.17.28.14.45-.06l1.19-1.05.09-.09a7.49,7.49,0,0,0,1.95,2l0,.17-.16,2.24c-.05.32,0,.62.15.66l1.69.56c.13,0,.27-.18.31-.5l.52-2.06,0-.17a4.86,4.86,0,0,0,3-.84l.07.13.91,1.78c.12.27.3.4.41.28l1.45-1.53a.79.79,0,0,0,0-.71l-.57-2-.05-.16a12.66,12.66,0,0,0,1.73-3.91l.11,0,1.45.18a.31.31,0,0,0,.41-.27Zm-9.91,4.46c-2.07-.88-3.27-4.28-2.68-7.58s2.74-5.28,4.81-4.4,3.27,4.28,2.68,7.58S479.84,599.3,477.77,598.43Z"/></g></g><g id="gear-11" data-name="gear"><g id="_Radial_Repeat_11" data-name="&lt;Radial Repeat&gt;"><path class="cls-16" d="M486.78,617a.32.32,0,0,0-.27-.34l-1.06-.4-.08,0a12.93,12.93,0,0,0-.64-3.56l.06-.1.76-1.3a.57.57,0,0,0,.11-.53l-.88-1.61c-.06-.12-.22-.09-.34.08l-.9.9-.08.07a5.21,5.21,0,0,0-2.08-1.75v-.13l0-1.7c0-.26-.06-.47-.17-.48l-1.34-.12c-.11,0-.2.2-.21.45l-.23,1.59,0,.13a4.32,4.32,0,0,0-2.29,1.21l-.07-.09-.77-1.1c-.11-.19-.26-.25-.33-.14l-1,1.45a.61.61,0,0,0,.05.55l.55,1.33,0,.11a11.71,11.71,0,0,0-1.08,3.46h-.08l-1,.13a.29.29,0,0,0-.3.29l-.06,2.14a.3.3,0,0,0,.28.31l1,.3.08,0a12.36,12.36,0,0,0,.8,3.57l-.06.1-.7,1.31a.59.59,0,0,0-.09.54l.93,1.54c.07.12.22.07.34-.11l.87-1,.07-.08a5,5,0,0,0,1.61,1.3v.14l0,1.75c0,.26.05.48.15.49l1.34.22c.1,0,.2-.17.22-.43l.3-1.66,0-.13a4.17,4.17,0,0,0,2.25-1l.06.1.8,1.25c.1.2.25.27.33.17l1.05-1.37a.61.61,0,0,0,0-.55l-.55-1.51,0-.11a11.26,11.26,0,0,0,1.15-3.24h.08l1.13,0a.28.28,0,0,0,.31-.27Zm-7.46,4.71c-1.65-.41-2.76-2.89-2.47-5.52s1.86-4.43,3.51-4,2.76,2.89,2.47,5.52S481,622.09,479.32,621.68Z"/></g></g><g id="gear-12" data-name="gear"><g id="_Radial_Repeat_12" data-name="&lt;Radial Repeat&gt;"><path class="cls-16" d="M510.41,605.22a.58.58,0,0,0-.5-.61l-1.92-.74-.15,0a23,23,0,0,0-1.17-6.49l.11-.18,1.4-2.36a1.06,1.06,0,0,0,.18-1l-1.59-2.94c-.12-.22-.4-.16-.62.15l-1.65,1.64-.13.13a9.6,9.6,0,0,0-3.8-3.19v-.25l-.06-3.09c0-.47-.12-.86-.31-.88l-2.45-.2c-.19,0-.36.35-.38.81l-.42,2.89,0,.24a8,8,0,0,0-4.18,2.21l-.12-.17-1.4-2c-.2-.35-.47-.46-.62-.25l-1.83,2.64a1.08,1.08,0,0,0,.1,1l1,2.42.08.21a21.37,21.37,0,0,0-2,6.3l-.15,0-1.9.22a.52.52,0,0,0-.54.53l-.11,3.9a.55.55,0,0,0,.51.57l1.82.54.15.05a22.33,22.33,0,0,0,1.45,6.5l-.1.19-1.28,2.38a1.07,1.07,0,0,0-.15,1l1.68,2.81c.13.22.4.13.62-.2l1.59-1.75.12-.14a9.49,9.49,0,0,0,2.94,2.37v.24l0,3.19c0,.47.09.87.28.9l2.44.41c.19,0,.37-.33.4-.79l.54-3,0-.24a7.56,7.56,0,0,0,4.1-1.87l.11.17,1.46,2.29c.18.36.45.5.6.3l1.91-2.5a1.07,1.07,0,0,0-.07-1l-1-2.74-.07-.21a20.38,20.38,0,0,0,2.09-5.91h.15l2.06-.09a.5.5,0,0,0,.57-.48Zm-13.6,8.59c-3-.76-5-5.27-4.49-10.06s3.39-8.07,6.39-7.32,5,5.27,4.5,10.06S499.81,614.56,496.81,613.81Z"/></g></g></g><g id="container-4" data-name="container"><path class="cls-15" d="M465.71,882,524,857.39a.62.62,0,0,1,.48,0L583.58,882a.63.63,0,0,1,0,1.15L524.9,908.75a.72.72,0,0,1-.5,0l-58.7-25.63A.62.62,0,0,1,465.71,882Z"/><path class="cls-15" d="M463.65,888.53v57.63a.62.62,0,0,0,.35.56l57.22,27.76a.62.62,0,0,0,.89-.56V913a.64.64,0,0,0-.38-.58L464.52,888A.63.63,0,0,0,463.65,888.53Z"/><path class="cls-15" d="M527.18,912.16,585,888a.62.62,0,0,1,.86.58v57.75a.63.63,0,0,1-.35.56l-57.77,27.65a.62.62,0,0,1-.89-.56v-61.2A.62.62,0,0,1,527.18,912.16Z"/></g><g id="three_gears-5" data-name="three_gears"><g id="gear-13" data-name="gear"><g id="_Radial_Repeat_13" data-name="&lt;Radial Repeat&gt;"><path class="cls-20" d="M489.76,916.81a.48.48,0,0,0-.32-.49l-1.31-.74-.1-.05a17,17,0,0,0-.53-4.69l.09-.12,1.08-1.49a.73.73,0,0,0,.18-.66l-1-2.25c-.08-.17-.28-.16-.45,0l-1.22,1-.1.08a7.84,7.84,0,0,0-2.51-2.68v-.17l.1-2.18c0-.33,0-.62-.18-.65l-1.7-.43c-.13,0-.27.2-.3.53l-.43,2,0,.16a5.11,5.11,0,0,0-3,1.07l-.07-.13-.89-1.57c-.12-.26-.31-.37-.42-.25l-1.4,1.65a.77.77,0,0,0,0,.71l.58,1.81.05.16a13.55,13.55,0,0,0-1.66,4.2h-.11l-1.34-.05a.33.33,0,0,0-.41.3l-.25,2.73a.44.44,0,0,0,.33.46l1.25.59.1,0a16.73,16.73,0,0,0,.72,4.73l-.08.12-1,1.52a.72.72,0,0,0-.15.68l1,2.16c.08.17.28.14.45-.07l1.19-1,.09-.09a7.6,7.6,0,0,0,1.95,2v.18l-.17,2.23c-.05.33,0,.62.15.67l1.69.56c.13,0,.27-.18.32-.5l.51-2.07,0-.16a4.86,4.86,0,0,0,2.95-.84l.07.13.92,1.78c.11.27.29.4.4.28l1.45-1.54a.73.73,0,0,0,0-.71l-.57-2,0-.15a13.38,13.38,0,0,0,1.73-3.91l.11,0,1.44.17a.32.32,0,0,0,.42-.27Zm-9.91,4.46c-2.06-.88-3.27-4.28-2.68-7.59s2.74-5.27,4.81-4.39,3.27,4.27,2.68,7.58S481.92,922.14,479.85,921.27Z"/></g></g><g id="gear-14" data-name="gear"><g id="_Radial_Repeat_14" data-name="&lt;Radial Repeat&gt;"><path class="cls-20" d="M488.86,939.8a.32.32,0,0,0-.27-.33l-1-.4-.09,0a12.57,12.57,0,0,0-.64-3.56l.06-.1.77-1.3a.6.6,0,0,0,.1-.53l-.87-1.61c-.07-.13-.23-.09-.35.08l-.9.9-.07.07a5.23,5.23,0,0,0-2.09-1.75v-.14l0-1.69c0-.26-.06-.48-.17-.48l-1.34-.12c-.1,0-.2.19-.21.45l-.23,1.58,0,.14a4.32,4.32,0,0,0-2.29,1.21l-.06-.09-.78-1.1c-.1-.19-.25-.25-.33-.14l-1,1.45a.62.62,0,0,0,.06.55l.54,1.33.05.11a11.33,11.33,0,0,0-1.08,3.46h-.09l-1,.13a.28.28,0,0,0-.3.28l-.06,2.15a.3.3,0,0,0,.28.31l1,.3.08,0a12.44,12.44,0,0,0,.8,3.57l-.06.1-.7,1.31a.58.58,0,0,0-.08.54l.92,1.54c.07.12.22.07.34-.11l.87-1,.07-.08a5.16,5.16,0,0,0,1.61,1.3v.14l0,1.75c0,.25.05.47.15.49l1.34.22c.11,0,.21-.18.22-.43l.3-1.66,0-.13a4.24,4.24,0,0,0,2.25-1l.06.09.8,1.26c.1.2.25.27.33.17l1.05-1.38a.61.61,0,0,0,0-.55l-.55-1.5,0-.11a11.33,11.33,0,0,0,1.15-3.25h.08l1.13,0a.27.27,0,0,0,.31-.26Zm-7.46,4.72c-1.65-.42-2.75-2.89-2.47-5.52s1.87-4.43,3.51-4,2.76,2.89,2.47,5.52S483.05,944.93,481.4,944.52Z"/></g></g><g id="gear-15" data-name="gear"><g id="_Radial_Repeat_15" data-name="&lt;Radial Repeat&gt;"><path class="cls-20" d="M512.49,928.06a.58.58,0,0,0-.5-.61l-1.91-.74-.16-.05a23,23,0,0,0-1.17-6.49l.11-.18,1.4-2.36a1,1,0,0,0,.18-1l-1.58-2.94c-.13-.23-.41-.16-.63.15l-1.65,1.63-.13.13a9.57,9.57,0,0,0-3.8-3.18v-.25l-.06-3.09c0-.47-.12-.86-.31-.88l-2.45-.21c-.19,0-.36.35-.38.82l-.41,2.89,0,.24a8,8,0,0,0-4.18,2.2l-.11-.16-1.41-2c-.2-.35-.47-.46-.61-.25l-1.84,2.64a1.11,1.11,0,0,0,.1,1l1,2.42.09.2a21,21,0,0,0-2,6.31l-.16,0-1.9.23a.53.53,0,0,0-.54.52l-.11,3.91a.55.55,0,0,0,.51.57l1.82.54.15,0a22.74,22.74,0,0,0,1.45,6.5l-.1.19-1.28,2.38a1.07,1.07,0,0,0-.15,1l1.68,2.8c.13.22.41.13.62-.19l1.59-1.75.12-.15a9.5,9.5,0,0,0,2.94,2.38v.24l0,3.19c0,.47.09.87.27.9l2.44.4c.19,0,.37-.32.41-.78l.53-3,.05-.24a7.7,7.7,0,0,0,4.1-1.87l.11.17,1.45,2.29c.18.36.45.49.6.3l1.91-2.5a1.07,1.07,0,0,0-.07-1l-1-2.74-.08-.21a20.38,20.38,0,0,0,2.09-5.91h.15l2.06-.08a.5.5,0,0,0,.57-.48Zm-13.6,8.59c-3-.76-5-5.27-4.49-10.06s3.39-8.08,6.4-7.32,5,5.26,4.49,10.06S501.9,937.4,498.89,936.65Z"/></g></g></g><g id="data-4" data-name="data"><rect class="cls-1" x="743.3" y="759.16" width="83.01" height="107.86" rx="1"/><line class="cls-2" x1="755.46" y1="778.72" x2="813.67" y2="778.72"/><line class="cls-2" x1="755.46" y1="796.17" x2="813.67" y2="796.17"/><line class="cls-2" x1="755.46" y1="813.62" x2="813.67" y2="813.62"/><line class="cls-2" x1="755.46" y1="831.06" x2="813.67" y2="831.06"/><line class="cls-2" x1="755.46" y1="848.51" x2="813.67" y2="848.51"/></g><circle class="cls-8" cx="797.41" cy="840.68" r="32.52"/><g id="map_pin-2" data-name="map_pin"><ellipse class="cls-9" cx="797.04" cy="861.07" rx="18.1" ry="3.47"/><path class="cls-10" d="M811.84,831.91a14.79,14.79,0,1,0-28.1,6.46h0l13.15,23a.24.24,0,0,0,.41,0l13.15-23h0A14.71,14.71,0,0,0,811.84,831.91Z"/><path class="cls-11" d="M797.19,836.72a6.53,6.53,0,0,1-6.54-6.53,6.54,6.54,0,1,1,6.54,6.53Z"/></g><g id="data-5" data-name="data"><rect class="cls-1" x="743.53" y="537.5" width="83.01" height="107.86" rx="1"/><line class="cls-2" x1="755.69" y1="557.07" x2="813.91" y2="557.07"/><line class="cls-2" x1="755.69" y1="574.51" x2="813.91" y2="574.51"/><line class="cls-2" x1="755.69" y1="591.96" x2="813.91" y2="591.96"/><line class="cls-2" x1="755.69" y1="609.41" x2="813.91" y2="609.41"/><line class="cls-2" x1="755.69" y1="626.86" x2="813.91" y2="626.86"/></g><circle class="cls-8" cx="797.65" cy="619.03" r="32.52"/><g id="map_pin-3" data-name="map_pin"><ellipse class="cls-9" cx="797.28" cy="639.41" rx="18.1" ry="3.47"/><path class="cls-10" d="M812.07,610.26a14.79,14.79,0,1,0-28.1,6.46h-.05l13.16,23a.23.23,0,0,0,.4,0l13.16-23h0A14.73,14.73,0,0,0,812.07,610.26Z"/><path class="cls-11" d="M797.42,615.07a6.53,6.53,0,1,1,3.89-1.28A6.57,6.57,0,0,1,797.42,615.07Z"/></g><g id="data-6" data-name="data"><rect class="cls-1" x="743.3" y="317.7" width="83.01" height="107.86" rx="1"/><line class="cls-2" x1="755.46" y1="337.27" x2="813.67" y2="337.27"/><line class="cls-2" x1="755.46" y1="354.71" x2="813.67" y2="354.71"/><line class="cls-2" x1="755.46" y1="372.16" x2="813.67" y2="372.16"/><line class="cls-2" x1="755.46" y1="389.61" x2="813.67" y2="389.61"/><line class="cls-2" x1="755.46" y1="407.06" x2="813.67" y2="407.06"/></g><circle class="cls-8" cx="797.41" cy="399.23" r="32.52"/><g id="map_pin-4" data-name="map_pin"><ellipse class="cls-9" cx="797.04" cy="419.61" rx="18.1" ry="3.47"/><path class="cls-10" d="M811.84,390.46a14.79,14.79,0,1,0-28.1,6.46h0l13.15,23a.24.24,0,0,0,.41,0l13.15-23h0A14.74,14.74,0,0,0,811.84,390.46Z"/><path class="cls-11" d="M797.19,395.27a6.55,6.55,0,0,1-6.54-6.54,6.53,6.53,0,1,1,6.54,6.54Z"/></g><line class="cls-12" x1="1382.49" y1="844.86" x2="1377.17" y2="842.09"/><line class="cls-21" x1="1366.07" y1="836.33" x2="1149.62" y2="723.89"/><line class="cls-12" x1="1144.07" y1="721" x2="1138.75" y2="718.24"/><path class="cls-14" d="M1398.56,853.2c-6.1-6.73-13-16.39-16.18-24.48l-2,15L1369.23,854C1377.68,852,1389.54,852.08,1398.56,853.2Z"/><line class="cls-12" x1="1494.99" y1="669.65" x2="1494.99" y2="675.65"/><line class="cls-22" x1="1494.99" y1="688.2" x2="1494.99" y2="832.48"/><line class="cls-12" x1="1494.99" y1="838.75" x2="1494.99" y2="844.75"/><path class="cls-14" d="M1495,651.54c-3.16,8.52-8.56,19.09-14.27,25.65L1495,672l14.26,5.17C1503.54,670.63,1498.15,660.06,1495,651.54Z"/></g></svg>