<svg xmlns="http://www.w3.org/2000/svg" viewBox="0 0 1919.63 1347.07"><defs><style>.cls-1{fill:#fff;}.cls-1,.cls-10,.cls-2,.cls-3,.cls-7,.cls-8,.cls-9{stroke:#000;}.cls-1,.cls-10,.cls-12,.cls-13,.cls-15,.cls-16,.cls-17,.cls-18,.cls-2,.cls-3,.cls-7,.cls-8,.cls-9{stroke-miterlimit:10;}.cls-1,.cls-10,.cls-12,.cls-13,.cls-15,.cls-16,.cls-17,.cls-18,.cls-2,.cls-3,.cls-8,.cls-9{stroke-width:1.8px;}.cls-12,.cls-13,.cls-15,.cls-16,.cls-17,.cls-18,.cls-2{fill:none;}.cls-3{fill:#ffd400;}.cls-4{opacity:0.2;}.cls-5{font-size:28.75px;font-family:ArialMT, Arial;}.cls-6{letter-spacing:-0.06em;}.cls-7{fill:#b80071;stroke-width:0.9px;}.cls-8{fill:#00bcb7;}.cls-11,.cls-9{fill:#002546;}.cls-10{fill:#b794da;}.cls-12,.cls-13,.cls-15,.cls-16,.cls-17,.cls-18{stroke:#999;}.cls-13{stroke-dasharray:15.66 15.66;}.cls-14{fill:#999;}.cls-15{stroke-dasharray:14.37 14.37;}.cls-16{stroke-dasharray:14.32 14.32;}.cls-17{stroke-dasharray:14.35 14.35;}.cls-18{stroke-dasharray:14.93 14.93;}</style></defs><g id="share_data" data-name="share data"><g id="private_data"><rect class="cls-1" x="37.95" y="124.95" width="99.33" height="129.06" rx="1"/><line class="cls-2" x1="52.5" y1="148.36" x2="122.16" y2="148.36"/><line class="cls-2" x1="52.5" y1="169.24" x2="122.16" y2="169.24"/><line class="cls-2" x1="52.5" y1="190.12" x2="122.16" y2="190.12"/><line class="cls-2" x1="52.5" y1="210.99" x2="122.16" y2="210.99"/><line class="cls-2" x1="52.5" y1="231.87" x2="122.16" y2="231.87"/><g id="lock"><circle class="cls-3" cx="105.49" cy="222.22" r="37.8"/><path class="cls-2" d="M83.77,215.12v29.24h43.44V215.12H83.77Zm24.85,21.51h-6.26L104,230.5a4,4,0,1,1,3,0Z"/><path class="cls-2" d="M93.54,215.12l0-2.71c0-7.94,2.5-15,11.69-15,8.77,0,12.11,6.68,12.11,14.2l0,3.55"/><path class="cls-2" d="M88.57,215.33v-3.76c.15-13.26,6.81-19.21,16.63-19.21,9.59,0,17.46,5.82,17.62,18v5"/></g></g><g id="private_data-2" data-name="private_data"><rect class="cls-1" x="37.95" y="648.01" width="99.33" height="129.06" rx="1"/><line class="cls-2" x1="52.5" y1="671.42" x2="122.16" y2="671.42"/><line class="cls-2" x1="52.5" y1="692.3" x2="122.16" y2="692.3"/><line class="cls-2" x1="52.5" y1="713.17" x2="122.16" y2="713.17"/><line class="cls-2" x1="52.5" y1="734.05" x2="122.16" y2="734.05"/><line class="cls-2" x1="52.5" y1="754.93" x2="122.16" y2="754.93"/><g id="lock-2" data-name="lock"><circle class="cls-3" cx="105.49" cy="745.28" r="37.8"/><path class="cls-2" d="M83.77,738.18v29.24h43.44V738.18H83.77Zm24.85,21.51h-6.26l1.64-6.13a4,4,0,1,1,3,0Z"/><path class="cls-2" d="M93.54,738.18l0-2.71c0-7.94,2.5-15,11.69-15,8.77,0,12.11,6.68,12.11,14.2l0,3.55"/><path class="cls-2" d="M88.57,738.39v-3.76c.15-13.26,6.81-19.21,16.63-19.21,9.59,0,17.46,5.82,17.62,18v5"/></g></g><g id="private_data-3" data-name="private_data"><rect class="cls-1" x="37.95" y="1087.21" width="99.33" height="129.06" rx="1"/><line class="cls-2" x1="52.5" y1="1110.62" x2="122.16" y2="1110.62"/><line class="cls-2" x1="52.5" y1="1131.5" x2="122.16" y2="1131.5"/><line class="cls-2" x1="52.5" y1="1152.38" x2="122.16" y2="1152.38"/><line class="cls-2" x1="52.5" y1="1173.25" x2="122.16" y2="1173.25"/><line class="cls-2" x1="52.5" y1="1194.13" x2="122.16" y2="1194.13"/><g id="lock-3" data-name="lock"><circle class="cls-3" cx="105.49" cy="1184.48" r="37.8"/><path class="cls-2" d="M83.77,1177.38v29.24h43.44v-29.24H83.77Zm24.85,21.51h-6.26l1.64-6.13a4,4,0,1,1,3,0Z"/><path class="cls-2" d="M93.54,1177.38l0-2.71c0-7.94,2.5-15,11.69-15,8.77,0,12.11,6.68,12.11,14.2l0,3.55"/><path class="cls-2" d="M88.57,1177.59v-3.76c.15-13.26,6.81-19.21,16.63-19.21,9.59,0,17.46,5.82,17.62,18v5"/></g></g><g id="hospital"><polyline class="cls-2" points="390.56 68.09 412.06 68.09 412.06 296.46 286.97 296.46 286.97 68.09 307.18 68.09"/><path d="M490.45,98.76V292.1H413.22V98.76h77.23m1.8-1.8H411.42V293.9h80.83V97Z"/><polyline class="cls-2" points="450.55 138.02 450.55 159.83 450.55 181.64"/><polyline class="cls-2" points="428.74 159.83 450.55 159.83 472.36 159.83"/><path d="M470.56,139.81v40h-40v-40h40m1.8-1.79H428.74v43.62h43.62V138Z"/><polyline class="cls-2" points="450.55 209.22 450.55 231.03 450.55 252.84"/><polyline class="cls-2" points="428.74 231.03 450.55 231.03 472.36 231.03"/><path d="M470.56,211v40h-40V211h40m1.8-1.8H428.74v43.62h43.62V209.22Z"/><path d="M285.81,99.4V292.74H208.58V99.4h77.23m1.8-1.8H206.78V294.54h80.83V97.6Z"/><polyline class="cls-2" points="245.91 138.66 245.91 160.47 245.91 182.28"/><polyline class="cls-2" points="224.1 160.47 245.91 160.47 267.73 160.47"/><path d="M265.93,140.45v40h-40v-40h40m1.8-1.79H224.1v43.62h43.63V138.66Z"/><polyline class="cls-2" points="245.91 209.86 245.91 231.67 245.91 253.48"/><polyline class="cls-2" points="224.1 231.67 245.91 231.67 267.73 231.67"/><path d="M265.93,211.66v40h-40v-40h40m1.8-1.8H224.1v43.62h43.63V209.86Z"/><rect class="cls-2" x="307.18" y="131.28" width="82.11" height="30.79"/><rect class="cls-2" x="307.18" y="177.47" width="82.11" height="30.79"/><rect class="cls-2" x="307.18" y="223.01" width="82.11" height="73.13"/><line class="cls-2" x1="348.82" y1="223.01" x2="348.29" y2="296.14"/><circle class="cls-2" cx="348.87" cy="68.41" r="41.7"/><polygon class="cls-2" points="370.04 62 370.04 78.04 356.57 78.04 356.57 90.87 340.53 90.87 340.53 78.04 328.35 78.04 328.35 62 340.53 62 340.53 49.17 356.57 49.17 356.57 62 370.04 62"/></g><rect class="cls-4" x="290.45" y="319.32" width="107.24" height="41.93" rx="17.5"/><text class="cls-5" transform="translate(307.27 349.45)">Site<tspan class="cls-6" x="49.54" y="0" xml:space="preserve"> A</tspan></text><g id="institution"><rect class="cls-2" x="207.6" y="641.56" width="286.58" height="107.56"/><rect class="cls-2" x="193.61" y="749.12" width="314.58" height="37.57"/><rect class="cls-2" x="280.54" y="554.63" width="138.5" height="86.93"/><rect class="cls-2" x="323.27" y="709.34" width="52.31" height="39.78"/><rect class="cls-2" x="222.34" y="713.02" width="58.2" height="19.15"/><rect class="cls-2" x="226.02" y="655.56" width="51.2" height="29.47"/><rect class="cls-2" x="291.59" y="655.56" width="51.2" height="29.47"/><rect class="cls-2" x="356.42" y="655.56" width="51.2" height="29.47"/><rect class="cls-2" x="422.72" y="655.56" width="51.2" height="29.47"/><rect class="cls-2" x="419.04" y="713.02" width="58.2" height="19.15"/><path class="cls-2" d="M346.56,590.36h7.19a8.19,8.19,0,0,1,8.19,8.19v11a0,0,0,0,1,0,0H338.37a0,0,0,0,1,0,0v-11A8.19,8.19,0,0,1,346.56,590.36Z"/><path class="cls-2" d="M384.13,590.36h7.19a8.19,8.19,0,0,1,8.19,8.19v11a0,0,0,0,1,0,0H375.94a0,0,0,0,1,0,0v-11A8.19,8.19,0,0,1,384.13,590.36Z"/><path class="cls-2" d="M309.73,590.36h7.19a8.19,8.19,0,0,1,8.19,8.19v11a0,0,0,0,1,0,0H301.53a0,0,0,0,1,0,0v-11A8.19,8.19,0,0,1,309.73,590.36Z"/><polygon class="cls-2" points="350.16 522.03 262.92 554.63 438.72 554.63 350.16 522.03"/><line class="cls-2" x1="350.16" y1="491.59" x2="350.16" y2="522.04"/><rect class="cls-2" x="350.16" y="491.64" width="21.36" height="13.26"/></g><rect class="cls-4" x="293.04" y="813.34" width="104.83" height="41.93" rx="17.5"/><text class="cls-5" transform="translate(307.27 843.77)">Site B</text><g id="hospital-2" data-name="hospital"><polyline class="cls-2" points="390.56 1027.29 412.06 1027.29 412.06 1255.66 286.97 1255.66 286.97 1027.29 307.18 1027.29"/><path d="M490.45,1058V1251.3H413.22V1058h77.23m1.8-1.79H411.42v196.93h80.83V1056.16Z"/><polyline class="cls-2" points="450.55 1097.21 450.55 1119.02 450.55 1140.83"/><polyline class="cls-2" points="428.74 1119.02 450.55 1119.02 472.36 1119.02"/><path d="M470.56,1099v40h-40v-40h40m1.8-1.8H428.74v43.62h43.62v-43.62Z"/><polyline class="cls-2" points="450.55 1168.42 450.55 1190.23 450.55 1212.04"/><polyline class="cls-2" points="428.74 1190.23 450.55 1190.23 472.36 1190.23"/><path d="M470.56,1170.21v40h-40v-40h40m1.8-1.79H428.74V1212h43.62v-43.62Z"/><path d="M285.81,1058.59v193.35H208.58V1058.59h77.23m1.8-1.79H206.78v196.93h80.83V1056.8Z"/><polyline class="cls-2" points="245.91 1097.85 245.91 1119.66 245.91 1141.47"/><polyline class="cls-2" points="224.1 1119.66 245.91 1119.66 267.73 1119.66"/><path d="M265.93,1099.65v40h-40v-40h40m1.8-1.8H224.1v43.62h43.63v-43.62Z"/><polyline class="cls-2" points="245.91 1169.06 245.91 1190.87 245.91 1212.68"/><polyline class="cls-2" points="224.1 1190.87 245.91 1190.87 267.73 1190.87"/><path d="M265.93,1170.85v40h-40v-40h40m1.8-1.79H224.1v43.62h43.63v-43.62Z"/><rect class="cls-2" x="307.18" y="1090.48" width="82.11" height="30.79"/><rect class="cls-2" x="307.18" y="1136.66" width="82.11" height="30.79"/><rect class="cls-2" x="307.18" y="1182.21" width="82.11" height="73.13"/><line class="cls-2" x1="348.82" y1="1182.21" x2="348.29" y2="1255.34"/><circle class="cls-2" cx="348.87" cy="1027.61" r="41.7"/><polygon class="cls-2" points="370.04 1021.2 370.04 1037.23 356.57 1037.23 356.57 1050.06 340.53 1050.06 340.53 1037.23 328.35 1037.23 328.35 1021.2 340.53 1021.2 340.53 1008.37 356.57 1008.37 356.57 1021.2 370.04 1021.2"/></g><rect class="cls-4" x="295.43" y="1278.42" width="102.24" height="41.93" rx="17.5"/><text class="cls-5" transform="translate(307.27 1308.85)">Site C</text><g id="DAC"><rect class="cls-2" x="1141.58" y="554.17" width="225.81" height="332.33"/><polyline class="cls-2" points="1186.52 590.91 1186.52 612.72 1186.52 634.53"/><polyline class="cls-2" points="1164.7 612.72 1186.52 612.72 1208.33 612.72"/><path d="M1206.53,592.71v40h-40v-40h40m1.8-1.8H1164.7v43.62h43.63V590.91Z"/><polyline class="cls-2" points="1321.43 590.91 1321.43 612.72 1321.43 634.53"/><polyline class="cls-2" points="1299.62 612.72 1321.43 612.72 1343.24 612.72"/><path d="M1341.45,592.71v40h-40v-40h40m1.79-1.8h-43.62v43.62h43.62V590.91Z"/><polyline class="cls-2" points="1253.26 590.91 1253.26 612.72 1253.26 634.53"/><polyline class="cls-2" points="1231.45 612.72 1253.26 612.72 1275.08 612.72"/><path d="M1273.28,592.71v40h-40v-40h40m1.79-1.8h-43.62v43.62h43.62V590.91Z"/><polyline class="cls-2" points="1186.52 667.6 1186.52 689.41 1186.52 711.22"/><polyline class="cls-2" points="1164.7 689.41 1186.52 689.41 1208.33 689.41"/><path d="M1206.53,669.4v40h-40v-40h40m1.8-1.8H1164.7v43.62h43.63V667.6Z"/><polyline class="cls-2" points="1321.43 667.6 1321.43 689.41 1321.43 711.22"/><polyline class="cls-2" points="1299.62 689.41 1321.43 689.41 1343.24 689.41"/><path d="M1341.45,669.4v40h-40v-40h40m1.79-1.8h-43.62v43.62h43.62V667.6Z"/><polyline class="cls-2" points="1253.26 667.6 1253.26 689.41 1253.26 711.22"/><polyline class="cls-2" points="1231.45 689.41 1253.26 689.41 1275.08 689.41"/><path d="M1273.28,669.4v40h-40v-40h40m1.79-1.8h-43.62v43.62h43.62V667.6Z"/><polyline class="cls-2" points="1186.52 741.45 1186.52 763.26 1186.52 785.08"/><polyline class="cls-2" points="1164.7 763.26 1186.52 763.26 1208.33 763.26"/><path d="M1206.53,743.25v40h-40v-40h40m1.8-1.8H1164.7v43.63h43.63V741.45Z"/><polyline class="cls-2" points="1321.43 741.45 1321.43 763.26 1321.43 785.08"/><polyline class="cls-2" points="1299.62 763.26 1321.43 763.26 1343.24 763.26"/><path d="M1341.45,743.25v40h-40v-40h40m1.79-1.8h-43.62v43.63h43.62V741.45Z"/><polyline class="cls-2" points="1253.26 741.45 1253.26 763.26 1253.26 785.08"/><polyline class="cls-2" points="1231.45 763.26 1253.26 763.26 1275.08 763.26"/><path d="M1273.28,743.25v40h-40v-40h40m1.79-1.8h-43.62v43.63h43.62V741.45Z"/><rect class="cls-2" x="1212.37" y="812.94" width="82.11" height="73.13"/><line class="cls-2" x1="1254.01" y1="812.94" x2="1253.48" y2="886.07"/></g><rect class="cls-4" x="1208.36" y="907.22" width="90.64" height="41.93" rx="17.5"/><text class="cls-5" transform="translate(1223.8 938.85)">DAC</text><g id="desktop_computer"><g id="cpu"><path class="cls-1" d="M1881.67,773.47a.65.65,0,0,1-.66.66h-71.94a.66.66,0,0,1-.66-.66V642.53a.67.67,0,0,1,.66-.66H1881a.66.66,0,0,1,.66.66Z"/><line class="cls-1" x1="1812.3" y1="783.21" x2="1812.47" y2="774.13"/><line class="cls-1" x1="1877.98" y1="774.13" x2="1877.98" y2="783.21"/><line class="cls-1" x1="1823.32" y1="663.92" x2="1868.96" y2="663.92"/><line class="cls-1" x1="1823.32" y1="677.53" x2="1868.96" y2="677.53"/><line class="cls-1" x1="1823.32" y1="691.15" x2="1868.96" y2="691.15"/><circle class="cls-1" cx="1846.02" cy="742.37" r="7.13"/></g><g id="monitor"><rect class="cls-1" x="1699.49" y="682.07" width="127.72" height="80.39" rx="1.02"/><rect class="cls-1" x="1751.36" y="762.46" width="22.69" height="17.51" rx="1.02"/><line class="cls-1" x1="1735.35" y1="779.97" x2="1789.93" y2="779.97"/><line class="cls-1" x1="1699.49" y1="747.02" x2="1827.21" y2="747.02"/></g></g><g id="three_gears"><g id="gear"><g id="_Radial_Repeat_" data-name="&lt;Radial Repeat&gt;"><path class="cls-7" d="M1756.92,723.67c0,.22-.2.43-.53.49l-2.12.72-.17.06a11.35,11.35,0,0,1-1,4.73l.13.12,1.7,1.53c.27.19.39.49.26.67l-1.63,2.25c-.13.18-.45.16-.72,0l-1.94-1-.16-.08a11.51,11.51,0,0,1-4.12,2.67V736l.09,2.21c0,.33-.09.62-.3.65l-2.75.41c-.21,0-.43-.22-.48-.54l-.62-2,0-.17a11.58,11.58,0,0,1-4.84-1.13l-.12.13-1.48,1.57c-.21.26-.51.37-.68.24l-2.21-1.69c-.17-.13-.15-.45,0-.72l1-1.82.08-.16a11.26,11.26,0,0,1-2.56-4.27h-.17l-2.16,0c-.33,0-.62-.11-.64-.32l-.34-2.76c0-.22.22-.42.55-.46l2-.58.17,0a11.54,11.54,0,0,1,1.29-4.78l-.12-.12-1.57-1.56c-.26-.21-.36-.51-.23-.68l1.75-2.17c.13-.17.45-.13.71.07l1.89,1.08.15.09a11.45,11.45,0,0,1,3.18-2v-.17l-.21-2.27c-.06-.33.06-.62.27-.67l2.73-.54c.21,0,.43.19.49.52l.77,2.09.07.17a11.52,11.52,0,0,1,4.73.9l.11-.13,1.52-1.78c.19-.28.48-.4.66-.28l2.29,1.58c.18.12.17.44,0,.72l-1,2-.07.16a11.3,11.3,0,0,1,2.67,4h.18l2.33-.16c.33-.06.62.07.66.28ZM1741.11,719a6.27,6.27,0,1,0,7.62,4.53A6.27,6.27,0,0,0,1741.11,719Z"/></g></g><g id="gear-2" data-name="gear"><g id="_Radial_Repeat_2" data-name="&lt;Radial Repeat&gt;"><path class="cls-7" d="M1756.13,700.4c0,.17-.19.32-.45.34l-1.71.39-.13,0a8.86,8.86,0,0,1-1.14,3.58l.1.11,1.19,1.32c.2.17.26.41.15.54l-1.44,1.61c-.12.13-.36.09-.56-.08l-1.43-.93-.11-.07a8.82,8.82,0,0,1-3.41,1.73v.14l-.11,1.71c0,.26-.12.48-.28.49l-2.17.09c-.17,0-.31-.2-.32-.46l-.33-1.61,0-.13a9,9,0,0,1-3.66-1.26l-.1.09-1.28,1.09c-.18.19-.42.25-.54.14l-1.58-1.49c-.12-.11-.08-.36.1-.55l.91-1.33.08-.12a8.85,8.85,0,0,1-1.64-3.52h-.14l-1.67-.14c-.26,0-.47-.13-.47-.3l0-2.17c0-.17.2-.3.46-.31L1736,699l.14,0a8.79,8.79,0,0,1,1.38-3.59l-.08-.1-1.1-1.34c-.18-.18-.24-.43-.12-.55l1.53-1.53c.12-.12.36-.07.55.11l1.37,1,.11.08a9.07,9.07,0,0,1,2.63-1.29v-.13l0-1.78c0-.26.09-.48.26-.49l2.16-.2c.17,0,.32.18.34.44l.43,1.68,0,.14a8.87,8.87,0,0,1,3.59,1.07l.1-.09,1.32-1.26c.16-.19.4-.27.53-.16l1.65,1.41c.13.11.09.36-.07.55l-.93,1.51-.07.12a8.91,8.91,0,0,1,1.76,3.3h.13l1.82.07c.26,0,.48.1.49.27Zm-11.88-4.89a4.88,4.88,0,1,0,5.54,4.12A4.88,4.88,0,0,0,1744.25,695.51Z"/></g></g><g id="gear-3" data-name="gear"><g id="_Radial_Repeat_3" data-name="&lt;Radial Repeat&gt;"><path class="cls-7" d="M1793.82,712.7c0,.31-.34.58-.81.61l-3.11.71-.25.05a16.08,16.08,0,0,1-2.06,6.54l.17.19,2.18,2.41c.35.31.47.75.27,1l-2.64,2.94c-.2.23-.65.16-1-.16l-2.61-1.68-.21-.14a16,16,0,0,1-6.2,3.16l0,.25-.19,3.13c0,.47-.21.87-.52.88l-3.94.16c-.31,0-.57-.36-.59-.83l-.59-2.93,0-.24a16.33,16.33,0,0,1-6.67-2.3l-.19.16-2.32,2c-.33.35-.77.45-1,.24l-2.88-2.7c-.22-.21-.14-.66.19-1l1.66-2.43.14-.21a16,16,0,0,1-3-6.41l-.25,0-3-.27c-.47,0-.86-.23-.86-.54l-.07-4c0-.3.37-.55.85-.56l2.93-.52.25,0a16.16,16.16,0,0,1,2.52-6.55l-.16-.19-2-2.44c-.33-.33-.43-.77-.22-1l2.78-2.81c.22-.22.66-.12,1,.21l2.5,1.8.2.15a16.13,16.13,0,0,1,4.8-2.35v-.24l0-3.23c0-.48.17-.88.47-.91l3.93-.36c.31,0,.59.33.63.8l.78,3.07.06.24a16.22,16.22,0,0,1,6.55,2l.18-.17,2.4-2.29c.31-.36.75-.49,1-.29l3,2.56c.23.2.17.65-.14,1l-1.68,2.75-.13.21a16.19,16.19,0,0,1,3.19,6h.25l3.32.12c.47,0,.87.19.89.5Zm-21.64-8.93a8.9,8.9,0,1,0,10.09,7.52A8.91,8.91,0,0,0,1772.18,703.77Z"/></g></g></g><g id="data_stack" data-name="data stack"><g id="data"><rect class="cls-1" x="1678.31" y="1022.93" width="119.39" height="155.13" rx="1"/><line class="cls-2" x1="1695.8" y1="1051.07" x2="1779.53" y2="1051.07"/><line class="cls-2" x1="1695.8" y1="1076.16" x2="1779.53" y2="1076.16"/><line class="cls-2" x1="1695.8" y1="1101.26" x2="1779.53" y2="1101.26"/><line class="cls-2" x1="1695.8" y1="1126.35" x2="1779.53" y2="1126.35"/><line class="cls-2" x1="1695.8" y1="1151.45" x2="1779.53" y2="1151.45"/></g><g id="data-2" data-name="data"><rect class="cls-1" x="1701.88" y="1027.5" width="119.39" height="155.13" rx="1"/><line class="cls-2" x1="1719.37" y1="1055.63" x2="1803.1" y2="1055.63"/><line class="cls-2" x1="1719.37" y1="1080.73" x2="1803.1" y2="1080.73"/><line class="cls-2" x1="1719.37" y1="1105.82" x2="1803.1" y2="1105.82"/><line class="cls-2" x1="1719.37" y1="1130.92" x2="1803.1" y2="1130.92"/><line class="cls-2" x1="1719.37" y1="1156.01" x2="1803.1" y2="1156.01"/></g><g id="data-3" data-name="data"><rect class="cls-1" x="1725.07" y="1031.68" width="119.39" height="155.13" rx="1"/><line class="cls-2" x1="1742.57" y1="1059.81" x2="1826.3" y2="1059.81"/><line class="cls-2" x1="1742.57" y1="1084.91" x2="1826.3" y2="1084.91"/><line class="cls-2" x1="1742.57" y1="1110" x2="1826.3" y2="1110"/><line class="cls-2" x1="1742.57" y1="1135.1" x2="1826.3" y2="1135.1"/><line class="cls-2" x1="1742.57" y1="1160.19" x2="1826.3" y2="1160.19"/></g></g><circle class="cls-8" cx="1803.11" cy="1146.37" r="46.77"/><g id="map_pin"><ellipse class="cls-9" cx="1802.58" cy="1175.69" rx="26.03" ry="4.99"/><path class="cls-10" d="M1823.86,1133.76a21.28,21.28,0,1,0-40.42,9.29h-.07l18.92,33a.33.33,0,0,0,.58,0l18.92-33h-.07A21.13,21.13,0,0,0,1823.86,1133.76Z"/><path class="cls-11" d="M1802.79,1140.68a9.41,9.41,0,1,1,5.59-1.85A9.36,9.36,0,0,1,1802.79,1140.68Z"/></g><g id="private_data_stack" data-name="private data stack"><g id="data_stack-2" data-name="data stack"><g id="data-4" data-name="data"><path class="cls-1" d="M1391.45,649.37h115.39a1,1,0,0,1,1,1V801.91a0,0,0,0,1,0,0H1391.45a1,1,0,0,1-1-1V650.37A1,1,0,0,1,1391.45,649.37Z"/><line class="cls-2" x1="1407.65" y1="677.04" x2="1489.98" y2="677.04"/><line class="cls-2" x1="1407.65" y1="701.71" x2="1489.98" y2="701.71"/><line class="cls-2" x1="1407.65" y1="726.39" x2="1489.98" y2="726.39"/><line class="cls-2" x1="1407.65" y1="751.06" x2="1489.98" y2="751.06"/><line class="cls-2" x1="1407.65" y1="775.74" x2="1489.98" y2="775.74"/></g><g id="data-5" data-name="data"><path class="cls-1" d="M1414.63,653.86H1530a1,1,0,0,1,1,1V806.39a0,0,0,0,1,0,0H1414.63a1,1,0,0,1-1-1V654.86A1,1,0,0,1,1414.63,653.86Z"/><line class="cls-2" x1="1430.83" y1="681.53" x2="1513.16" y2="681.53"/><line class="cls-2" x1="1430.83" y1="706.2" x2="1513.16" y2="706.2"/><line class="cls-2" x1="1430.83" y1="730.88" x2="1513.16" y2="730.88"/><line class="cls-2" x1="1430.83" y1="755.55" x2="1513.16" y2="755.55"/><line class="cls-2" x1="1430.83" y1="780.22" x2="1513.16" y2="780.22"/></g><g id="data-6" data-name="data"><rect class="cls-1" x="1436.44" y="657.97" width="117.39" height="152.53" rx="1"/><line class="cls-2" x1="1453.64" y1="685.64" x2="1535.96" y2="685.64"/><line class="cls-2" x1="1453.64" y1="710.31" x2="1535.96" y2="710.31"/><line class="cls-2" x1="1453.64" y1="734.99" x2="1535.96" y2="734.99"/><line class="cls-2" x1="1453.64" y1="759.66" x2="1535.96" y2="759.66"/><line class="cls-2" x1="1453.64" y1="784.34" x2="1535.96" y2="784.34"/></g></g><g id="lock-4" data-name="lock"><circle class="cls-3" cx="1516.63" cy="774.06" r="44.68"/><path class="cls-2" d="M1491,765.66v34.56h51.34V765.66H1491Zm29.37,25.43h-7.4l1.94-7.26a4.69,4.69,0,1,1,3.52,0Z"/><path class="cls-2" d="M1502.51,765.66l0-3.21c0-9.37,3-17.77,13.82-17.77,10.37,0,14.32,7.9,14.32,16.79l0,4.19"/><path class="cls-2" d="M1496.64,765.91v-4.44c.17-15.68,8-22.71,19.65-22.71,11.33,0,20.63,6.88,20.83,21.23v5.92"/></g></g><line class="cls-12" x1="1677.8" y1="730.13" x2="1670.61" y2="730.13"/><line class="cls-13" x1="1654.96" y1="730.13" x2="1568.84" y2="730.13"/><line class="cls-12" x1="1561.02" y1="730.13" x2="1553.83" y2="730.13"/><path class="cls-14" d="M1699.49,730.13c-10.21-3.79-22.87-10.25-30.72-17.09l6.18,17.09-6.18,17.09C1676.62,740.37,1689.28,733.91,1699.49,730.13Z"/><line class="cls-12" x1="491.98" y1="1156.4" x2="498.58" y2="1153.55"/><line class="cls-15" x1="511.77" y1="1147.85" x2="1085.41" y2="899.96"/><line class="cls-12" x1="1092.01" y1="897.11" x2="1098.61" y2="894.26"/><path class="cls-14" d="M1118.52,885.66c-7.87,7.52-16.93,18.48-21.42,27.87L1096,895.39l-12.45-13.23C1093.46,885.33,1107.65,886.23,1118.52,885.66Z"/><line class="cls-12" x1="495.57" y1="717.94" x2="502.76" y2="717.85"/><line class="cls-16" x1="517.08" y1="717.65" x2="1082.48" y2="710.04"/><line class="cls-12" x1="1089.64" y1="709.95" x2="1096.83" y2="709.85"/><path class="cls-14" d="M1118.52,709.56c-10.16,3.92-22.73,10.55-30.49,17.5l6-17.17-6.41-17C1095.51,699.62,1108.26,705.91,1118.52,709.56Z"/><line class="cls-12" x1="495.07" y1="215.62" x2="501.38" y2="219.07"/><line class="cls-17" x1="513.97" y1="225.95" x2="1086.88" y2="538.93"/><line class="cls-12" x1="1093.17" y1="542.37" x2="1099.48" y2="545.82"/><path class="cls-14" d="M1118.52,556.22c-10.78-1.57-25-2-35.16.27l13.62-12,2.77-18C1103.36,536.26,1111.37,548,1118.52,556.22Z"/><g id="private_data-4" data-name="private_data"><rect class="cls-1" x="738.62" y="291.02" width="99.33" height="129.06" rx="1"/><line class="cls-2" x1="753.17" y1="314.43" x2="822.83" y2="314.43"/><line class="cls-2" x1="753.17" y1="335.3" x2="822.83" y2="335.3"/><line class="cls-2" x1="753.17" y1="356.18" x2="822.83" y2="356.18"/><line class="cls-2" x1="753.17" y1="377.06" x2="822.83" y2="377.06"/><line class="cls-2" x1="753.17" y1="397.94" x2="822.83" y2="397.94"/><g id="lock-5" data-name="lock"><circle class="cls-3" cx="806.15" cy="388.29" r="37.8"/><path class="cls-2" d="M784.43,381.19v29.24h43.44V381.19H784.43Zm24.86,21.51H803l1.64-6.14a4,4,0,1,1,3,0Z"/><path class="cls-2" d="M794.21,381.19l0-2.72c0-7.93,2.51-15,11.7-15,8.77,0,12.11,6.68,12.11,14.2l0,3.55"/><path class="cls-2" d="M789.24,381.4v-3.76c.14-13.27,6.81-19.22,16.63-19.22,9.58,0,17.45,5.83,17.62,18v5"/></g></g><g id="private_data-5" data-name="private_data"><rect class="cls-1" x="743.67" y="637.88" width="99.33" height="129.06" rx="1"/><line class="cls-2" x1="758.22" y1="661.29" x2="827.88" y2="661.29"/><line class="cls-2" x1="758.22" y1="682.17" x2="827.88" y2="682.17"/><line class="cls-2" x1="758.22" y1="703.05" x2="827.88" y2="703.05"/><line class="cls-2" x1="758.22" y1="723.93" x2="827.88" y2="723.93"/><line class="cls-2" x1="758.22" y1="744.81" x2="827.88" y2="744.81"/><g id="lock-6" data-name="lock"><circle class="cls-3" cx="811.21" cy="735.16" r="37.8"/><path class="cls-2" d="M789.49,728.06V757.3h43.44V728.06H789.49Zm24.85,21.51h-6.26l1.64-6.14a4,4,0,1,1,3,0Z"/><path class="cls-2" d="M799.26,728.06l0-2.72c0-7.93,2.51-15,11.7-15,8.77,0,12.11,6.69,12.11,14.21l0,3.55"/><path class="cls-2" d="M794.29,728.27v-3.76c.15-13.27,6.81-19.22,16.63-19.22,9.58,0,17.46,5.82,17.62,18v5"/></g></g><g id="private_data-6" data-name="private_data"><rect class="cls-1" x="741.62" y="972.48" width="99.33" height="129.06" rx="1"/><line class="cls-2" x1="756.17" y1="995.89" x2="825.83" y2="995.89"/><line class="cls-2" x1="756.17" y1="1016.76" x2="825.83" y2="1016.76"/><line class="cls-2" x1="756.17" y1="1037.64" x2="825.83" y2="1037.64"/><line class="cls-2" x1="756.17" y1="1058.52" x2="825.83" y2="1058.52"/><line class="cls-2" x1="756.17" y1="1079.4" x2="825.83" y2="1079.4"/><g id="lock-7" data-name="lock"><circle class="cls-3" cx="809.16" cy="1069.75" r="37.8"/><path class="cls-2" d="M787.44,1062.65v29.24h43.44v-29.24H787.44Zm24.85,21.51H806l1.64-6.14a4,4,0,1,1,3,0Z"/><path class="cls-2" d="M797.21,1062.65l0-2.72c0-7.93,2.5-15,11.69-15,8.77,0,12.11,6.68,12.11,14.2l0,3.55"/><path class="cls-2" d="M792.24,1062.86v-3.76c.15-13.26,6.81-19.22,16.63-19.22,9.59,0,17.46,5.83,17.62,18v5"/></g></g><line class="cls-12" x1="1772.96" y1="991.64" x2="1772.93" y2="984.46"/><line class="cls-18" x1="1772.87" y1="969.53" x2="1772.14" y2="797.86"/><line class="cls-12" x1="1772.11" y1="790.4" x2="1772.08" y2="783.21"/><path class="cls-14" d="M1773.05,1013.33c3.75-10.22,10.15-22.91,17-30.79L1773,988.8l-17.11-6.11C1762.71,990.51,1769.23,1003.14,1773.05,1013.33Z"/></g></svg>